<?xml version="1.0" encoding="utf-8"?>
<!-- Generator: Adobe Illustrator 23.0.0, SVG Export Plug-In . SVG Version: 6.00 Build 0)  -->
<svg version="1.1" id="Calque_1" xmlns="http://www.w3.org/2000/svg" xmlns:xlink="http://www.w3.org/1999/xlink" x="0px" y="0px"
	 viewBox="0 0 86 86.5" style="enable-background:new 0 0 86 86.5;" xml:space="preserve">
<style type="text/css">
	.st0{fill:#DBC3A3;}
</style>
<title>cercles</title>
<g>
	<g id="Calque_1-2">
		<path class="st0" d="M51.9,43.6C51.9,43.5,51.9,43.6,51.9,43.6C51.9,43.6,52,43.6,51.9,43.6z"/>
		<polygon class="st0" points="52,44.8 51.9,44.8 52,45 		"/>
		<path class="st0" d="M51.7,45.9c0.1-0.1,0.1-0.4,0.2-0.6l0,0v-0.1C51.8,45.5,51.8,45.7,51.7,45.9z"/>
		<path class="st0" d="M51.3,46.5c0,0,0,0.1,0.1-0.1l0,0L51.3,46.5z"/>
		<path class="st0" d="M51.3,46.3C51.3,46.2,51.3,46.4,51.3,46.3z"/>
		<path class="st0" d="M51.2,46.8v-0.2C51.2,46.7,51.1,46.8,51.2,46.8C51,46.9,51.1,46.9,51.2,46.8z"/>
		<path class="st0" d="M51.1,47L51.1,47L51.1,47z"/>
		<path class="st0" d="M51.2,46.8l-0.1,0.2C51.2,46.9,51.2,46.9,51.2,46.8C51.1,46.8,51.2,46.8,51.2,46.8z"/>
		<path class="st0" d="M51.3,46.7C51.3,46.6,51.4,46.5,51.3,46.7C51.4,46.4,51.4,46.4,51.3,46.7z"/>
		<path class="st0" d="M51.8,46l0.1-0.1v-0.1C51.8,45.9,51.7,46,51.8,46z"/>
		<path class="st0" d="M50.6,47.7C50.6,47.7,50.7,47.7,50.6,47.7l0.1-0.1C50.7,47.6,50.7,47.7,50.6,47.7z"/>
		<path class="st0" d="M50.7,47.7l-0.1,0.2C50.8,47.7,50.8,47.7,50.7,47.7z"/>
		<polygon class="st0" points="51.2,47.1 51.3,46.8 51.2,47.1 		"/>
		<polygon class="st0" points="50.3,48.2 50.3,48.1 50.2,48.3 		"/>
		<path class="st0" d="M50,48.6C50,48.5,49.9,48.6,50,48.6c-0.1,0.1-0.2,0.2-0.2,0.3C49.8,48.7,49.9,48.7,50,48.6z"/>
		<path class="st0" d="M49.7,49c0,0,0.1-0.1,0.1-0.1L49.7,49z"/>
		<path class="st0" d="M50.5,48.1c0,0-0.1,0-0.1,0.1L50.5,48.1L50.5,48.1z"/>
		<path class="st0" d="M50.5,48.1L50.5,48.1l-0.1,0.1L50.5,48.1z"/>
		<path class="st0" d="M50.5,48.1L50.5,48.1z"/>
		<path class="st0" d="M51,47.5c0,0.1-0.1,0.3,0,0.2S50.9,47.6,51,47.5z"/>
		<path class="st0" d="M50.6,48l0.1-0.2l0,0C50.7,47.9,50.7,48,50.6,48z"/>
		<polygon class="st0" points="50.6,48.1 50.6,48 50.6,48.1 		"/>
		<path class="st0" d="M49.9,48.8c0,0.1-0.1,0.2-0.2,0.2L49.9,48.8C50,48.8,50,48.7,49.9,48.8z"/>
		<path class="st0" d="M50.2,48.5L50.2,48.5z"/>
		<polygon class="st0" points="49.1,49.7 49.1,49.7 49.1,49.6 		"/>
		<path class="st0" d="M50,48.7c0,0,0.1-0.1,0.1-0.1L50,48.7L50,48.7z"/>
		<path class="st0" d="M49.5,49.2l0.1-0.1C49.6,49.1,49.6,49.1,49.5,49.2z"/>
		<path class="st0" d="M50.2,48.5L50.2,48.5C50.2,48.5,50.2,48.5,50.2,48.5z"/>
		<path class="st0" d="M50.2,48.5C50.2,48.5,50.2,48.6,50.2,48.5C50.2,48.6,50.2,48.5,50.2,48.5L50.2,48.5z"/>
		<path class="st0" d="M49,50.1c0,0,0.1-0.2,0.3-0.3s-0.1-0.2-0.3-0.2c0,0,0,0-0.1,0.2c0.1,0,0.3-0.2,0.3-0.1s-0.2,0.1-0.3,0.2
			c0.1,0-0.2,0.3-0.1,0.3L49,50.1C49,50,49,50.1,49,50.1z"/>
		<path class="st0" d="M49.3,49.4L49.3,49.4c0,0-0.1,0-0.2,0.1c-0.1,0.1-0.1,0.1-0.1,0.2L49.3,49.4L49.3,49.4z"/>
		<path class="st0" d="M49.7,49.1c0,0.1-0.1,0.2,0,0.2s0.1-0.1,0.2-0.2C49.6,49.3,49.8,49,49.7,49.1l0.1-0.2L49.7,49.1L49.7,49.1
			L49.7,49.1L49.7,49.1L49.7,49.1C49.6,49.2,49.6,49.1,49.7,49.1L49.7,49.1c-0.1,0.1-0.2,0.2-0.3,0.2L49.7,49.1z"/>
		<path class="st0" d="M51,47.8L51,47.8C51,47.8,51,47.9,51,47.8z"/>
		<path class="st0" d="M50.9,48c0,0,0-0.1,0-0.1c0.1,0,0,0,0,0s0.1-0.2,0,0l0,0c-0.1,0.1-0.2,0.2-0.2,0.2C50.7,48,50.8,48,50.9,48z"
			/>
		<path class="st0" d="M50.3,48.6c-0.1,0.1-0.1,0.2-0.2,0.2l0.1-0.1l0,0C50.4,48.6,50.3,48.6,50.3,48.6z"/>
		<path class="st0" d="M49,49.7L49,49.7L49,49.7L49,49.7z"/>
		<polygon class="st0" points="48.7,49.9 48.7,49.8 48.6,49.9 		"/>
		<path class="st0" d="M36.6,39.2L36.6,39.2L36.6,39.2z"/>
		<path class="st0" d="M36.3,39.8L36.3,39.8C36.3,39.8,36.3,39.7,36.3,39.8z"/>
		<path class="st0" d="M39.8,50.3c-0.1-0.1-0.2-0.2-0.2-0.2v0.1C39.7,50.2,39.7,50.2,39.8,50.3z"/>
		<path class="st0" d="M35.8,45.2L35.8,45.2L35.8,45.2L35.8,45.2z"/>
		<path class="st0" d="M35.6,45.1v-0.2C35.6,45,35.6,45,35.6,45.1z"/>
		<path class="st0" d="M39.1,36.4l0.1-0.1C39,36.4,39.1,36.4,39.1,36.4z"/>
		<path class="st0" d="M45.1,51.4h-0.3C45,51.4,45.1,51.5,45.1,51.4z"/>
		<path class="st0" d="M37,39.7C37,39.7,37,39.6,37,39.7C37,39.6,36.9,39.7,37,39.7z"/>
		<path class="st0" d="M44.5,51.4L44.5,51.4h0.3C44.7,51.4,44.6,51.4,44.5,51.4z"/>
		<path class="st0" d="M51.1,38.7L51.1,38.7C51.1,38.7,51.1,38.7,51.1,38.7z"/>
		<path class="st0" d="M51.9,42.4v-0.2C51.9,42.3,51.9,42.4,51.9,42.4z"/>
		<path class="st0" d="M47.4,50.7C47.5,50.7,47.4,50.7,47.4,50.7z"/>
		<path class="st0" d="M47.8,50.7L47.8,50.7C47.8,50.7,47.8,50.7,47.8,50.7z"/>
		<path class="st0" d="M43.7,51.8L43.7,51.8z"/>
		<path class="st0" d="M47.5,50.7h-0.1H47.5z"/>
		<path class="st0" d="M47.5,50.6L47.5,50.6C47.5,50.6,47.5,50.6,47.5,50.6z"/>
		<path class="st0" d="M47.3,50.7h0.1l0,0H47.3z"/>
		<path class="st0" d="M45.1,35.2L45.1,35.2C45.2,35.2,45.1,35.2,45.1,35.2z"/>
		<polygon class="st0" points="37.7,49.3 37.7,49.3 37.7,49.3 		"/>
		<path class="st0" d="M37.5,49.1c0.1,0,0.2,0.1,0.2,0.2v-0.2L37.5,49.1z"/>
		<path class="st0" d="M37.5,37.8L37.4,38c0.1-0.3,0.3-0.4,0.1-0.3c0.1,0.1-0.5,0.7-0.4,0.8l-0.1,0.1l0-0.1c-0.2,0.2,0,0.2-0.2,0.5
			c-0.1,0.1-0.2,0.2-0.1,0.1l-0.1,0.3c0,0.1-0.1,0,0,0c-0.1,0.1-0.1,0.3-0.2,0.4l0,0c0,0.1,0,0.2,0,0.3c-0.1,0.1,0,0,0,0
			c0,0.1-0.1,0.2-0.1,0.2c-0.1,0.1,0-0.1,0-0.3c-0.2,0.1,0,0.2-0.3,0.6l0.1-0.2c-0.1,0.1-0.2,0.3-0.3,0.5c0,0,0.3-0.4,0.3-0.2
			c0,0.1-0.1,0.2-0.1,0.3c0,0-0.1,0.1-0.1,0.3h-0.1c0,0.2,0,0.2,0,0.3c0,0.1-0.1,0.2-0.2,0.3c-0.1,0.3,0.1-0.2,0.1,0.2
			c-0.1,0.3-0.1,0.5-0.1,0.8c0,0.2,0,0-0.1,0l0,0.2l0,0c0,0,0.1,0,0.1,0.2c0.1,0.1-0.1,0.5,0,0.7c0,0.1,0,0-0.1,0
			c0,0.2,0.1,0.4,0.2,0.6V45c0-0.2,0.1,0,0.2,0.2V45c0,0.1,0.1,0.2,0.1,0.3c0,0,0,0-0.1,0v0.1c0,0.1-0.1,0.1-0.1,0v-0.1
			c-0.1-0.1-0.1-0.2-0.2-0.1c0,0,0,0.1,0,0.1l0,0c0,0,0,0,0,0.1l-0.1,0.1l0,0l0.1,0.5c0.2,0.3,0.4,0.7,0.6,1c-0.1-0.1-0.1,0-0.2,0
			c0-0.2-0.2-0.4-0.2-0.6c0,0.1,0,0.1,0,0.1l0.2,0.4c-0.1,0,0,0.1,0,0.2c0.1-0.1,0.2,0.3,0.3,0.5s-0.1,0-0.2-0.2
			c0,0.3,0.3,0.2,0.3,0.5c0,0,0-0.1-0.1-0.1s0.2,0.4,0.2,0.3l0,0c0.2,0.4,0.7,1,0.8,1c-0.1,0-0.1,0-0.2,0l0.7,0.3
			c-0.1,0-0.1,0.3-0.3,0.1c0.1,0.1,0.2,0.2,0.3,0.3c0-0.1,0-0.2,0-0.2c0.1,0.1,0.1,0.3,0.2,0.4c0-0.1,0.1-0.1,0.2,0
			s-0.1,0.1-0.1,0.1l0.4,0.1c-0.1,0-0.1,0.1,0,0.2s0.3,0.2,0.3,0.2l0-0.2c0.3,0.3,0.5,0.1,0.8,0.3c-0.1,0-0.2,0.1,0,0.2
			c0.3-0.1,0.6-0.1,0.9,0v0.1c0.1,0,0.2,0,0.3,0.1c-0.3,0-0.7,0-1,0c0.1,0.1,0,0.1,0.2,0.2s-0.1,0-0.2,0l0.5,0.3
			c0-0.1,0.4,0.1,0.4,0c-0.2,0-0.4-0.1-0.6-0.2c0-0.1,0.4,0,0.8,0.1c0.1,0.1-0.1,0.1-0.1,0.1c0.1,0,0.3,0.1,0.4,0.1h-0.2
			c0.2,0.1,0.4,0,0.6,0.2c0.1,0,0.2,0.2,0.3,0.1c-0.1-0.1-0.1-0.3,0-0.5l0.5,0.2c0.1,0.1-0.2,0.1-0.1,0.2s0.1,0,0.1,0s0,0.1,0.2,0.1
			s0.4,0.1,0.1-0.1c0.2,0,0.2,0.1,0.4,0.1c-0.1-0.1,0.2-0.2,0.4-0.2c0,0,0,0.1,0,0.1c0.3,0,0.7,0,1,0c0,0,0.2,0,0.2,0.1
			c0.1,0,0.1-0.1,0.2-0.1c0.2,0-0.2,0-0.1,0.1c0,0,0.3-0.1,0.5-0.2c-0.1-0.1-0.4,0-0.5,0.1c0-0.1,0.3-0.2,0.6-0.4s0.2,0,0.2,0
			c0.6-0.1,0.4-0.3,0.9-0.4c0.2,0,0.1,0.1,0.1,0.2c-0.2,0.1-0.4,0.1-0.5,0.1h0.2c-0.1,0.1-0.2,0.1-0.3,0.1c0.5-0.1,0.9-0.2,1.4-0.4
			c0.1,0,0.2-0.1,0.1-0.1l-0.1,0.1c-0.1,0,0.2-0.2,0-0.1c0.2-0.1,0.4-0.3,0.6-0.4H48c0,0-0.2,0-0.2,0.1s0.4-0.1,0.5-0.3H48
			c0.2-0.2,0.4-0.3,0.6-0.4c-0.1,0,0,0-0.2,0.1c0.2,0-0.5,0.3-0.2,0.3c-0.2,0-0.3,0.1-0.5,0.1c0,0,0.1,0-0.1,0.1l0,0h0.1
			c-0.1,0.1-0.3,0.2-0.4,0.3s0,0,0,0L47,51c0,0-0.3,0-0.1-0.1L46.7,51c-0.1,0-0.3,0.1-0.4,0.1c-0.1,0-0.3,0.1-0.2,0.1l-0.4,0.1l0,0
			c-0.4,0.1-0.8,0.2-1.2,0.2c-0.2,0-0.3,0-0.5,0l0,0c-0.2,0-0.5-0.1-0.6,0c-0.3-0.1-0.7-0.2-1-0.2v0.1l-0.6-0.1v0.1
			c-0.3-0.1-0.6-0.2-0.9-0.3c0.1,0,0.1,0,0.2,0c-0.3-0.2-0.8-0.2-1.1-0.5c-0.1,0-0.1-0.1-0.2-0.1l0,0l0,0l-0.1-0.1
			c0,0,0.1,0.1,0.1,0.1l-0.2-0.1v-0.1l0,0c-0.1-0.1-0.1,0-0.1,0l-0.1,0c0-0.1-0.2-0.1-0.3-0.3c-0.1,0-0.4-0.3-0.5-0.3s0,0,0,0
			c-0.1-0.1-0.2-0.2-0.2-0.2v-0.1l-0.2-0.1C38.1,49,38,49,38.1,49c-0.3-0.2-0.2-0.2-0.5-0.4l0,0c-0.1-0.1-0.2-0.2-0.2-0.3
			c-0.3-0.5-0.6-1.1-0.9-1.7c-0.1,0.2-0.1-0.3-0.2-0.3s0-0.1,0.1,0c-0.1-0.2-0.2-0.5-0.3-0.7c0,0,0.1,0.1,0.1,0c0,0,0-0.1,0-0.1
			c0,0,0,0,0.1,0.1c-0.1-0.3-0.2-0.3-0.3-0.3c0-0.1,0-0.3-0.1-0.4c0-0.1,0-0.2,0.1,0c0-0.1-0.1-0.7-0.1-0.7c0-0.1,0-0.1,0-0.2
			c0-0.3,0-0.3,0-0.5v0.1c-0.1-0.1,0-0.2,0-0.4l0,0c0.1-0.5,0-0.2,0.1-0.7h-0.1c-0.1-0.1,0.1-0.4,0.1-0.7l0,0.1
			c0-0.2,0.3-0.4,0.3-0.5s0,0,0,0.1c0.2-0.4-0.1-0.1,0-0.4c0.1,0,0.1,0.1,0.2-0.1s0.1-0.6,0.2-0.8c0,0-0.1,0.1-0.1,0
			s0.3-0.5,0.3-0.7l0,0c0.1-0.2,0.2-0.4,0.2-0.6c0.2,0,0.5-0.9,0.7-0.7l0.3-0.4l0,0c0.1-0.1,0.3-0.3,0.3-0.4c0.1,0,0,0,0,0
			c0.2-0.2,0.5-0.4,0.7-0.6h0.1c0.1-0.1,0.6-0.3,1-0.6c0,0,0,0,0,0c0.4-0.3,1.2-0.3,1.3-0.6c0.1-0.1,0.2-0.1,0.3-0.2
			c-0.4,0.1,0-0.1-0.2-0.1c0.2,0,0.5,0,0.2,0l0,0c0,0.1,0.5-0.1,0.5,0c0.8-0.1,1.6-0.1,2.5,0l-0.1-0.1h0.3c0.1,0,0.1,0.1-0.1,0
			c0.1,0,0.2,0,0.3,0c0.4,0.1-0.2,0.1,0,0.1h0.2l0,0c0.1,0,0.3,0,0.4,0c0.2,0.1,0.1,0.1,0.1,0.1H46l0.3,0.1l-0.1-0.1
			c0.2,0,0.3,0.1,0.2,0c0.2,0.2,0.4,0.3,0.6,0.4c0.2,0.1,0.4,0.2,0.6,0.3c0.2,0.1,0.4,0.2,0.6,0.3c0,0,0-0.1,0.2,0
			c-0.2,0.1,0.3,0.3,0.4,0.5c-0.1-0.2,0.5,0.4,0.4,0.1c0.1,0.1,0,0,0,0.2c0.4,0.3,0.8,0.7,1,1.2c0,0,0-0.1,0.1,0l0.1,0.3
			c0.1,0.1,0.2,0,0.2,0.2c0,0,0-0.1,0,0c0.6,0.9,1,2,1.1,3.2c0-0.2,0-0.1,0,0c0-0.1,0.1,0,0.1,0c0,0.2,0,0.3,0,0.5s0,0.5,0.1,0.5
			v-0.2c0.1,0.2,0.2-0.3,0.3-0.3c-0.1-0.2,0.1-0.6-0.1-1c0-0.1,0,0.1,0.1,0c-0.1-0.1-0.1-0.3-0.1-0.4l0,0c-0.1-0.5-0.2-1-0.3-1.5
			v0.1c0-0.1-0.1-0.2-0.1-0.2c-0.2-0.1,0.2,0.4,0,0.3c0-0.2-0.5-0.9-0.4-1.1s0,0.1-0.1-0.1v-0.1h-0.1C51,38.7,51,38.6,51,38.6
			c0,0,0.1,0.1,0.1,0.1c-0.1-0.2-0.2-0.3-0.4-0.5l0.1,0.2c-0.4-0.5-0.9-1-1.4-1.4l0,0c-0.4-0.2-0.3-0.2-0.7-0.5l0,0
			c-0.1,0-0.2-0.1-0.3-0.2c0.1,0-0.2-0.2,0-0.1c-0.2-0.1-0.4-0.2-0.6-0.2V36c-0.1,0-0.2,0-0.4-0.1c0.2,0-0.1-0.1,0.1-0.1
			c-0.4-0.3-0.8-0.2-0.9-0.4c-0.3,0,0.4,0.2,0.3,0.2c0.1,0.1-0.2,0-0.4,0c-0.2-0.2-0.4-0.3-0.6-0.3h0c-0.2-0.1-0.3,0-0.5-0.1
			s-0.2,0-0.3,0h0.4c-0.3,0.1-0.5,0.1-0.8,0c0.1,0,0.1,0,0.2,0c-0.1,0-0.2,0-0.3,0c0-0.1,0.5,0,0.7,0c-0.1-0.1-0.5,0-0.3-0.1
			c-0.2,0.1-0.4-0.1-0.7,0v-0.1c-0.1,0-0.1,0-0.2,0l0.2-0.1c-0.2,0-0.5-0.1-0.7,0c0.5,0,0.1,0.1,0.3,0.1c-0.6,0.1-0.3-0.1-1-0.1
			c0.1,0,0.3,0,0.2,0c-0.1,0-0.2,0-0.4,0c-0.4,0.1,0.1,0-0.1,0.1s-0.2,0.1-0.4,0.1v-0.1c-0.5,0-0.1,0.1-0.5,0.2l0.2-0.1l-0.2,0.1
			v-0.1c-0.2,0.1-0.4,0.1-0.5,0.2c0.1,0,0,0.1-0.2,0.2s0.1-0.1-0.2,0c0.1-0.1,0.1-0.1,0.2-0.1c0,0,0,0,0-0.1c-0.2,0-0.3,0.1-0.5,0.2
			h0.1c-0.1,0.1-0.3,0.2-0.4,0.2c-0.1,0,0,0,0-0.1c-0.1,0.1-0.2,0.1-0.2,0.2c0-0.1,0-0.1,0.1-0.2l-0.4,0.2c0,0-0.2,0-0.2,0
			c-0.2,0.1-0.5,0.4-0.7,0.5c0,0,0,0.1-0.1,0.1c-0.3,0.1-0.5,0.3-0.7,0.6L38,37.1c-0.2,0.2,0.3-0.1,0,0.2s-0.1,0-0.2,0.1
			c-0.1,0.2-0.3,0.4-0.5,0.6C37.4,37.9,37.5,37.9,37.5,37.8z M35.9,40.7c0-0.1,0-0.2,0.1-0.2S36,40.6,35.9,40.7z M35.8,45.7
			c0-0.1,0-0.1,0-0.2C35.8,45.5,35.8,45.6,35.8,45.7L35.8,45.7z M46.6,51.1L46.6,51.1C46.4,51.1,46.5,51.1,46.6,51.1L46.6,51.1z
			 M46.8,51L46.8,51c0,0-0.1,0.1-0.1,0.1C46.7,51.1,46.8,51,46.8,51L46.8,51z M45.8,35.8L45.8,35.8C46,35.7,45.9,35.7,45.8,35.8
			L45.8,35.8z"/>
		<path class="st0" d="M35.6,45.1L35.6,45.1C35.6,45.1,35.6,45,35.6,45.1z"/>
		<path class="st0" d="M39.1,36.4L39.1,36.4z"/>
		<path class="st0" d="M42.5,51.9c0,0-0.1,0-0.1,0C42.4,51.9,42.4,51.9,42.5,51.9z"/>
		<path class="st0" d="M48.1,50.2L48,50.3C48,50.3,48.1,50.3,48.1,50.2C48.1,50.3,48.1,50.3,48.1,50.2z"/>
		<path class="st0" d="M49.6,49.6L49.6,49.6L49.6,49.6C49.5,49.6,49.5,49.7,49.6,49.6z"/>
		<path class="st0" d="M48.4,50.3c0,0,0.1,0,0.2-0.1l0,0C48.6,50.1,48.5,50.2,48.4,50.3z"/>
		<path class="st0" d="M48.6,50.2L48.6,50.2C48.7,50.1,48.7,50.1,48.6,50.2z"/>
		<path class="st0" d="M47.2,50.8C47.2,50.8,47.2,50.8,47.2,50.8C47.2,50.8,46.9,51,47.2,50.8z"/>
		<polygon class="st0" points="48.5,50.4 48.5,50.4 48.4,50.5 		"/>
		<path class="st0" d="M47.6,50.9l0.2-0.1c0,0,0,0,0,0C47.8,50.8,47.7,50.8,47.6,50.9z"/>
		<path class="st0" d="M47.9,50.8c0,0,0.1-0.1,0.1-0.1L47.9,50.8z"/>
		<polygon class="st0" points="48.3,50.6 48.2,50.6 48.1,50.7 		"/>
		<path class="st0" d="M45.5,51.6l-0.2,0C45.3,51.6,45.3,51.6,45.5,51.6C45.6,51.6,45.6,51.6,45.5,51.6z"/>
		<path class="st0" d="M46.2,51.6c-0.1,0-0.1,0-0.1,0v0.1L46.2,51.6z"/>
		<path class="st0" d="M45.6,51.8C45.6,51.8,45.3,51.9,45.6,51.8C45.6,51.8,45.8,51.7,45.6,51.8z"/>
		<polygon class="st0" points="42.2,51.6 42.2,51.7 42.3,51.5 		"/>
		<path class="st0" d="M39.2,50.7c0.2,0.2,0.1,0,0.3,0.1c0.1,0-0.2-0.1-0.1-0.1C39.3,50.7,39.2,50.6,39.2,50.7z"/>
		<path class="st0" d="M39.5,50.7L39.5,50.7L39.5,50.7z"/>
		<polygon class="st0" points="51.9,43.1 51.9,43.2 51.9,43.1 		"/>
		<path class="st0" d="M52,43.4L52,43.4L52,43.4C52,43.4,52,43.4,52,43.4z"/>
		<path class="st0" d="M35.6,41.1L35.6,41.1c0,0,0.1-0.1,0.1-0.1L35.6,41.1z"/>
		<polygon class="st0" points="36.6,38.9 36.6,39 36.7,38.9 		"/>
		<path class="st0" d="M37.9,37.3c-0.1,0.1-0.1,0.1-0.2,0.2C37.8,37.3,37.9,37.3,37.9,37.3z"/>
		<path class="st0" d="M51.9,43.6C51.9,43.5,51.9,43.6,51.9,43.6C51.9,43.6,52,43.6,51.9,43.6z"/>
		<polygon class="st0" points="52,44.8 51.9,44.8 52,45 		"/>
		<path class="st0" d="M51.7,45.9c0.1-0.1,0.1-0.4,0.2-0.6l0,0v-0.1C51.8,45.5,51.8,45.7,51.7,45.9z"/>
		<path class="st0" d="M51.3,46.5c0,0,0,0.1,0.1-0.1l0,0L51.3,46.5z"/>
		<path class="st0" d="M51.3,46.3C51.3,46.2,51.3,46.4,51.3,46.3z"/>
		<path class="st0" d="M51.2,46.8v-0.2C51.2,46.7,51.1,46.8,51.2,46.8C51,46.9,51.1,46.9,51.2,46.8z"/>
		<path class="st0" d="M51.1,47L51.1,47L51.1,47z"/>
		<path class="st0" d="M51.2,46.8l-0.1,0.2C51.2,46.9,51.2,46.9,51.2,46.8C51.1,46.8,51.2,46.8,51.2,46.8z"/>
		<path class="st0" d="M51.3,46.7C51.3,46.6,51.4,46.5,51.3,46.7C51.4,46.4,51.4,46.4,51.3,46.7z"/>
		<path class="st0" d="M51.8,46l0.1-0.1v-0.1C51.8,45.9,51.7,46,51.8,46z"/>
		<path class="st0" d="M50.6,47.7C50.6,47.7,50.7,47.7,50.6,47.7l0.1-0.1C50.7,47.6,50.7,47.7,50.6,47.7z"/>
		<path class="st0" d="M50.7,47.7l-0.1,0.2C50.8,47.7,50.8,47.7,50.7,47.7z"/>
		<polygon class="st0" points="51.2,47.1 51.3,46.8 51.2,47.1 		"/>
		<polygon class="st0" points="50.3,48.2 50.3,48.1 50.2,48.3 		"/>
		<path class="st0" d="M50,48.6C50,48.5,49.9,48.6,50,48.6c-0.1,0.1-0.2,0.2-0.2,0.3C49.8,48.7,49.9,48.7,50,48.6z"/>
		<path class="st0" d="M49.7,49c0,0,0.1-0.1,0.1-0.1L49.7,49z"/>
		<path class="st0" d="M50.5,48.1c0,0-0.1,0-0.1,0.1L50.5,48.1L50.5,48.1z"/>
		<path class="st0" d="M50.5,48.1L50.5,48.1l-0.1,0.1L50.5,48.1z"/>
		<path class="st0" d="M50.5,48.1L50.5,48.1z"/>
		<path class="st0" d="M51,47.5c0,0.1-0.1,0.3,0,0.2S50.9,47.6,51,47.5z"/>
		<path class="st0" d="M50.6,48l0.1-0.2l0,0C50.7,47.9,50.7,48,50.6,48z"/>
		<polygon class="st0" points="50.6,48.1 50.6,48 50.6,48.1 		"/>
		<path class="st0" d="M49.9,48.8c0,0.1-0.1,0.2-0.2,0.2L49.9,48.8C50,48.8,50,48.7,49.9,48.8z"/>
		<path class="st0" d="M50.2,48.5L50.2,48.5z"/>
		<polygon class="st0" points="49.1,49.7 49.1,49.7 49.1,49.6 		"/>
		<path class="st0" d="M50,48.7c0,0,0.1-0.1,0.1-0.1L50,48.7L50,48.7z"/>
		<path class="st0" d="M49.5,49.2l0.1-0.1C49.6,49.1,49.6,49.1,49.5,49.2z"/>
		<path class="st0" d="M50.2,48.5L50.2,48.5C50.2,48.5,50.2,48.5,50.2,48.5z"/>
		<path class="st0" d="M50.2,48.5C50.2,48.5,50.2,48.6,50.2,48.5C50.2,48.6,50.2,48.5,50.2,48.5L50.2,48.5z"/>
		<path class="st0" d="M49,50.1c0,0,0.1-0.2,0.3-0.3s-0.1-0.2-0.3-0.2c0,0,0,0-0.1,0.2c0.1,0,0.3-0.2,0.3-0.1s-0.2,0.1-0.3,0.2
			c0.1,0-0.2,0.3-0.1,0.3L49,50.1C49,50,49,50.1,49,50.1z"/>
		<path class="st0" d="M49.3,49.4L49.3,49.4c0,0-0.1,0-0.2,0.1c-0.1,0.1-0.1,0.1-0.1,0.2L49.3,49.4L49.3,49.4z"/>
		<path class="st0" d="M49.7,49.1c0,0.1-0.1,0.2,0,0.2s0.1-0.1,0.2-0.2C49.6,49.3,49.8,49,49.7,49.1l0.1-0.2L49.7,49.1L49.7,49.1
			L49.7,49.1L49.7,49.1L49.7,49.1C49.6,49.2,49.6,49.1,49.7,49.1L49.7,49.1c-0.1,0.1-0.2,0.2-0.3,0.2L49.7,49.1z"/>
		<path class="st0" d="M51,47.8L51,47.8C51,47.8,51,47.9,51,47.8z"/>
		<path class="st0" d="M50.9,48c0,0,0-0.1,0-0.1c0.1,0,0,0,0,0s0.1-0.2,0,0l0,0c-0.1,0.1-0.2,0.2-0.2,0.2C50.7,48,50.8,48,50.9,48z"
			/>
		<path class="st0" d="M50.3,48.6c-0.1,0.1-0.1,0.2-0.2,0.2l0.1-0.1l0,0C50.4,48.6,50.3,48.6,50.3,48.6z"/>
		<path class="st0" d="M49,49.7L49,49.7L49,49.7L49,49.7z"/>
		<polygon class="st0" points="48.7,49.9 48.7,49.8 48.6,49.9 		"/>
		<path class="st0" d="M36.6,39.2L36.6,39.2L36.6,39.2z"/>
		<path class="st0" d="M36.3,39.8L36.3,39.8C36.3,39.8,36.3,39.7,36.3,39.8z"/>
		<path class="st0" d="M39.8,50.3c-0.1-0.1-0.2-0.2-0.2-0.2v0.1C39.7,50.2,39.7,50.2,39.8,50.3z"/>
		<path class="st0" d="M35.8,45.2L35.8,45.2L35.8,45.2L35.8,45.2z"/>
		<path class="st0" d="M35.6,45.1v-0.2C35.6,45,35.6,45,35.6,45.1z"/>
		<path class="st0" d="M39.1,36.4l0.1-0.1C39,36.4,39.1,36.4,39.1,36.4z"/>
		<path class="st0" d="M45.1,51.4h-0.3C45,51.4,45.1,51.5,45.1,51.4z"/>
		<path class="st0" d="M37,39.7C37,39.7,37,39.6,37,39.7C37,39.6,36.9,39.7,37,39.7z"/>
		<path class="st0" d="M44.5,51.4L44.5,51.4h0.3C44.7,51.4,44.6,51.4,44.5,51.4z"/>
		<path class="st0" d="M51.1,38.7L51.1,38.7C51.1,38.7,51.1,38.7,51.1,38.7z"/>
		<path class="st0" d="M51.9,42.4v-0.2C51.9,42.3,51.9,42.4,51.9,42.4z"/>
		<path class="st0" d="M47.4,50.7C47.5,50.7,47.4,50.7,47.4,50.7z"/>
		<path class="st0" d="M47.8,50.7L47.8,50.7C47.8,50.7,47.8,50.7,47.8,50.7z"/>
		<path class="st0" d="M43.7,51.8L43.7,51.8z"/>
		<path class="st0" d="M47.5,50.7h-0.1H47.5z"/>
		<path class="st0" d="M47.5,50.6L47.5,50.6C47.5,50.6,47.5,50.6,47.5,50.6z"/>
		<path class="st0" d="M47.3,50.7h0.1l0,0H47.3z"/>
		<path class="st0" d="M45.1,35.2L45.1,35.2C45.2,35.2,45.1,35.2,45.1,35.2z"/>
		<polygon class="st0" points="37.7,49.3 37.7,49.3 37.7,49.3 		"/>
		<path class="st0" d="M37.5,49.1c0.1,0,0.2,0.1,0.2,0.2v-0.2L37.5,49.1z"/>
		<path class="st0" d="M37.5,37.8L37.4,38c0.1-0.3,0.3-0.4,0.1-0.3c0.1,0.1-0.5,0.7-0.4,0.8l-0.1,0.1l0-0.1c-0.2,0.2,0,0.2-0.2,0.5
			c-0.1,0.1-0.2,0.2-0.1,0.1l-0.1,0.3c0,0.1-0.1,0,0,0c-0.1,0.1-0.1,0.3-0.2,0.4l0,0c0,0.1,0,0.2,0,0.3c-0.1,0.1,0,0,0,0
			c0,0.1-0.1,0.2-0.1,0.2c-0.1,0.1,0-0.1,0-0.3c-0.2,0.1,0,0.2-0.3,0.6l0.1-0.2c-0.1,0.1-0.2,0.3-0.3,0.5c0,0,0.3-0.4,0.3-0.2
			c0,0.1-0.1,0.2-0.1,0.3c0,0-0.1,0.1-0.1,0.3h-0.1c0,0.2,0,0.2,0,0.3c0,0.1-0.1,0.2-0.2,0.3c-0.1,0.3,0.1-0.2,0.1,0.2
			c-0.1,0.3-0.1,0.5-0.1,0.8c0,0.2,0,0-0.1,0l0,0.2l0,0c0,0,0.1,0,0.1,0.2c0.1,0.1-0.1,0.5,0,0.7c0,0.1,0,0-0.1,0
			c0,0.2,0.1,0.4,0.2,0.6V45c0-0.2,0.1,0,0.2,0.2V45c0,0.1,0.1,0.2,0.1,0.3c0,0,0,0-0.1,0v0.1c0,0.1-0.1,0.1-0.1,0v-0.1
			c-0.1-0.1-0.1-0.2-0.2-0.1c0,0,0,0.1,0,0.1l0,0c0,0,0,0,0,0.1l-0.1,0.1l0,0l0.1,0.5c0.2,0.3,0.4,0.7,0.6,1c-0.1-0.1-0.1,0-0.2,0
			c0-0.2-0.2-0.4-0.2-0.6c0,0.1,0,0.1,0,0.1l0.2,0.4c-0.1,0,0,0.1,0,0.2c0.1-0.1,0.2,0.3,0.3,0.5s-0.1,0-0.2-0.2
			c0,0.3,0.3,0.2,0.3,0.5c0,0,0-0.1-0.1-0.1s0.2,0.4,0.2,0.3l0,0c0.2,0.4,0.7,1,0.8,1c-0.1,0-0.1,0-0.2,0l0.7,0.3
			c-0.1,0-0.1,0.3-0.3,0.1c0.1,0.1,0.2,0.2,0.3,0.3c0-0.1,0-0.2,0-0.2c0.1,0.1,0.1,0.3,0.2,0.4c0-0.1,0.1-0.1,0.2,0
			s-0.1,0.1-0.1,0.1l0.4,0.1c-0.1,0-0.1,0.1,0,0.2s0.3,0.2,0.3,0.2l0-0.2c0.3,0.3,0.5,0.1,0.8,0.3c-0.1,0-0.2,0.1,0,0.2
			c0.3-0.1,0.6-0.1,0.9,0v0.1c0.1,0,0.2,0,0.3,0.1c-0.3,0-0.7,0-1,0c0.1,0.1,0,0.1,0.2,0.2s-0.1,0-0.2,0l0.5,0.3
			c0-0.1,0.4,0.1,0.4,0c-0.2,0-0.4-0.1-0.6-0.2c0-0.1,0.4,0,0.8,0.1c0.1,0.1-0.1,0.1-0.1,0.1c0.1,0,0.3,0.1,0.4,0.1h-0.2
			c0.2,0.1,0.4,0,0.6,0.2c0.1,0,0.2,0.2,0.3,0.1c-0.1-0.1-0.1-0.3,0-0.5l0.5,0.2c0.1,0.1-0.2,0.1-0.1,0.2s0.1,0,0.1,0s0,0.1,0.2,0.1
			s0.4,0.1,0.1-0.1c0.2,0,0.2,0.1,0.4,0.1c-0.1-0.1,0.2-0.2,0.4-0.2c0,0,0,0.1,0,0.1c0.3,0,0.7,0,1,0c0,0,0.2,0,0.2,0.1
			c0.1,0,0.1-0.1,0.2-0.1c0.2,0-0.2,0-0.1,0.1c0,0,0.3-0.1,0.5-0.2c-0.1-0.1-0.4,0-0.5,0.1c0-0.1,0.3-0.2,0.6-0.4s0.2,0,0.2,0
			c0.6-0.1,0.4-0.3,0.9-0.4c0.2,0,0.1,0.1,0.1,0.2c-0.2,0.1-0.4,0.1-0.5,0.1h0.2c-0.1,0.1-0.2,0.1-0.3,0.1c0.5-0.1,0.9-0.2,1.4-0.4
			c0.1,0,0.2-0.1,0.1-0.1l-0.1,0.1c-0.1,0,0.2-0.2,0-0.1c0.2-0.1,0.4-0.3,0.6-0.4H48c0,0-0.2,0-0.2,0.1s0.4-0.1,0.5-0.3H48
			c0.2-0.2,0.4-0.3,0.6-0.4c-0.1,0,0,0-0.2,0.1c0.2,0-0.5,0.3-0.2,0.3c-0.2,0-0.3,0.1-0.5,0.1c0,0,0.1,0-0.1,0.1l0,0h0.1
			c-0.1,0.1-0.3,0.2-0.4,0.3s0,0,0,0L47,51c0,0-0.3,0-0.1-0.1L46.7,51c-0.1,0-0.3,0.1-0.4,0.1c-0.1,0-0.3,0.1-0.2,0.1l-0.4,0.1l0,0
			c-0.4,0.1-0.8,0.2-1.2,0.2c-0.2,0-0.3,0-0.5,0l0,0c-0.2,0-0.5-0.1-0.6,0c-0.3-0.1-0.7-0.2-1-0.2v0.1l-0.6-0.1v0.1
			c-0.3-0.1-0.6-0.2-0.9-0.3c0.1,0,0.1,0,0.2,0c-0.3-0.2-0.8-0.2-1.1-0.5c-0.1,0-0.1-0.1-0.2-0.1l0,0l0,0l-0.1-0.1
			c0,0,0.1,0.1,0.1,0.1l-0.2-0.1v-0.1l0,0c-0.1-0.1-0.1,0-0.1,0l-0.1,0c0-0.1-0.2-0.1-0.3-0.3c-0.1,0-0.4-0.3-0.5-0.3s0,0,0,0
			c-0.1-0.1-0.2-0.2-0.2-0.2v-0.1l-0.2-0.1C38.1,49,38,49,38.1,49c-0.3-0.2-0.2-0.2-0.5-0.4l0,0c-0.1-0.1-0.2-0.2-0.2-0.3
			c-0.3-0.5-0.6-1.1-0.9-1.7c-0.1,0.2-0.1-0.3-0.2-0.3s0-0.1,0.1,0c-0.1-0.2-0.2-0.5-0.3-0.7c0,0,0.1,0.1,0.1,0c0,0,0-0.1,0-0.1
			c0,0,0,0,0.1,0.1c-0.1-0.3-0.2-0.3-0.3-0.3c0-0.1,0-0.3-0.1-0.4c0-0.1,0-0.2,0.1,0c0-0.1-0.1-0.7-0.1-0.7c0-0.1,0-0.1,0-0.2
			c0-0.3,0-0.3,0-0.5v0.1c-0.1-0.1,0-0.2,0-0.4l0,0c0.1-0.5,0-0.2,0.1-0.7h-0.1c-0.1-0.1,0.1-0.4,0.1-0.7l0,0.1
			c0-0.2,0.3-0.4,0.3-0.5s0,0,0,0.1c0.2-0.4-0.1-0.1,0-0.4c0.1,0,0.1,0.1,0.2-0.1s0.1-0.6,0.2-0.8c0,0-0.1,0.1-0.1,0
			s0.3-0.5,0.3-0.7l0,0c0.1-0.2,0.2-0.4,0.2-0.6c0.2,0,0.5-0.9,0.7-0.7l0.3-0.4l0,0c0.1-0.1,0.3-0.3,0.3-0.4c0.1,0,0,0,0,0
			c0.2-0.2,0.5-0.4,0.7-0.6h0.1c0.1-0.1,0.6-0.3,1-0.6c0,0,0,0,0,0c0.4-0.3,1.2-0.3,1.3-0.6c0.1-0.1,0.2-0.1,0.3-0.2
			c-0.4,0.1,0-0.1-0.2-0.1c0.2,0,0.5,0,0.2,0l0,0c0,0.1,0.5-0.1,0.5,0c0.8-0.1,1.6-0.1,2.5,0l-0.1-0.1h0.3c0.1,0,0.1,0.1-0.1,0
			c0.1,0,0.2,0,0.3,0c0.4,0.1-0.2,0.1,0,0.1h0.2l0,0c0.1,0,0.3,0,0.4,0c0.2,0.1,0.1,0.1,0.1,0.1H46l0.3,0.1l-0.1-0.1
			c0.2,0,0.3,0.1,0.2,0c0.2,0.2,0.4,0.3,0.6,0.4c0.2,0.1,0.4,0.2,0.6,0.3c0.2,0.1,0.4,0.2,0.6,0.3c0,0,0-0.1,0.2,0
			c-0.2,0.1,0.3,0.3,0.4,0.5c-0.1-0.2,0.5,0.4,0.4,0.1c0.1,0.1,0,0,0,0.2c0.4,0.3,0.8,0.7,1,1.2c0,0,0-0.1,0.1,0l0.1,0.3
			c0.1,0.1,0.2,0,0.2,0.2c0,0,0-0.1,0,0c0.6,0.9,1,2,1.1,3.2c0-0.2,0-0.1,0,0c0-0.1,0.1,0,0.1,0c0,0.2,0,0.3,0,0.5s0,0.5,0.1,0.5
			v-0.2c0.1,0.2,0.2-0.3,0.3-0.3c-0.1-0.2,0.1-0.6-0.1-1c0-0.1,0,0.1,0.1,0c-0.1-0.1-0.1-0.3-0.1-0.4l0,0c-0.1-0.5-0.2-1-0.3-1.5
			v0.1c0-0.1-0.1-0.2-0.1-0.2c-0.2-0.1,0.2,0.4,0,0.3c0-0.2-0.5-0.9-0.4-1.1s0,0.1-0.1-0.1v-0.1h-0.1C51,38.7,51,38.6,51,38.6
			c0,0,0.1,0.1,0.1,0.1c-0.1-0.2-0.2-0.3-0.4-0.5l0.1,0.2c-0.4-0.5-0.9-1-1.4-1.4l0,0c-0.4-0.2-0.3-0.2-0.7-0.5l0,0
			c-0.1,0-0.2-0.1-0.3-0.2c0.1,0-0.2-0.2,0-0.1c-0.2-0.1-0.4-0.2-0.6-0.2V36c-0.1,0-0.2,0-0.4-0.1c0.2,0-0.1-0.1,0.1-0.1
			c-0.4-0.3-0.8-0.2-0.9-0.4c-0.3,0,0.4,0.2,0.3,0.2c0.1,0.1-0.2,0-0.4,0c-0.2-0.2-0.4-0.3-0.6-0.3h0c-0.2-0.1-0.3,0-0.5-0.1
			s-0.2,0-0.3,0h0.4c-0.3,0.1-0.5,0.1-0.8,0c0.1,0,0.1,0,0.2,0c-0.1,0-0.2,0-0.3,0c0-0.1,0.5,0,0.7,0c-0.1-0.1-0.5,0-0.3-0.1
			c-0.2,0.1-0.4-0.1-0.7,0v-0.1c-0.1,0-0.1,0-0.2,0l0.2-0.1c-0.2,0-0.5-0.1-0.7,0c0.5,0,0.1,0.1,0.3,0.1c-0.6,0.1-0.3-0.1-1-0.1
			c0.1,0,0.3,0,0.2,0c-0.1,0-0.2,0-0.4,0c-0.4,0.1,0.1,0-0.1,0.1s-0.2,0.1-0.4,0.1v-0.1c-0.5,0-0.1,0.1-0.5,0.2l0.2-0.1l-0.2,0.1
			v-0.1c-0.2,0.1-0.4,0.1-0.5,0.2c0.1,0,0,0.1-0.2,0.2s0.1-0.1-0.2,0c0.1-0.1,0.1-0.1,0.2-0.1c0,0,0,0,0-0.1c-0.2,0-0.3,0.1-0.5,0.2
			h0.1c-0.1,0.1-0.3,0.2-0.4,0.2c-0.1,0,0,0,0-0.1c-0.1,0.1-0.2,0.1-0.2,0.2c0-0.1,0-0.1,0.1-0.2l-0.4,0.2c0,0-0.2,0-0.2,0
			c-0.2,0.1-0.5,0.4-0.7,0.5c0,0,0,0.1-0.1,0.1c-0.3,0.1-0.5,0.3-0.7,0.6L38,37.1c-0.2,0.2,0.3-0.1,0,0.2s-0.1,0-0.2,0.1
			c-0.1,0.2-0.3,0.4-0.5,0.6C37.4,37.9,37.5,37.9,37.5,37.8z M35.9,40.7c0-0.1,0-0.2,0.1-0.2S36,40.6,35.9,40.7z M35.8,45.7
			c0-0.1,0-0.1,0-0.2C35.8,45.5,35.8,45.6,35.8,45.7L35.8,45.7z M46.6,51.1L46.6,51.1C46.4,51.1,46.5,51.1,46.6,51.1L46.6,51.1z
			 M46.8,51L46.8,51c0,0-0.1,0.1-0.1,0.1C46.7,51.1,46.8,51,46.8,51L46.8,51z M45.8,35.8L45.8,35.8C46,35.7,45.9,35.7,45.8,35.8
			L45.8,35.8z"/>
		<path class="st0" d="M35.6,45.1L35.6,45.1C35.6,45.1,35.6,45,35.6,45.1z"/>
		<path class="st0" d="M39.1,36.4L39.1,36.4z"/>
		<path class="st0" d="M42.5,51.9c0,0-0.1,0-0.1,0C42.4,51.9,42.4,51.9,42.5,51.9z"/>
		<path class="st0" d="M48.1,50.2L48,50.3C48,50.3,48.1,50.3,48.1,50.2C48.1,50.3,48.1,50.3,48.1,50.2z"/>
		<path class="st0" d="M49.6,49.6L49.6,49.6L49.6,49.6C49.5,49.6,49.5,49.7,49.6,49.6z"/>
		<path class="st0" d="M48.4,50.3c0,0,0.1,0,0.2-0.1l0,0C48.6,50.1,48.5,50.2,48.4,50.3z"/>
		<path class="st0" d="M48.6,50.2L48.6,50.2C48.7,50.1,48.7,50.1,48.6,50.2z"/>
		<path class="st0" d="M47.2,50.8C47.2,50.8,47.2,50.8,47.2,50.8C47.2,50.8,46.9,51,47.2,50.8z"/>
		<polygon class="st0" points="48.5,50.4 48.5,50.4 48.4,50.5 		"/>
		<path class="st0" d="M47.6,50.9l0.2-0.1c0,0,0,0,0,0C47.8,50.8,47.7,50.8,47.6,50.9z"/>
		<path class="st0" d="M47.9,50.8c0,0,0.1-0.1,0.1-0.1L47.9,50.8z"/>
		<polygon class="st0" points="48.3,50.6 48.2,50.6 48.1,50.7 		"/>
		<path class="st0" d="M45.5,51.6l-0.2,0C45.3,51.6,45.3,51.6,45.5,51.6C45.6,51.6,45.6,51.6,45.5,51.6z"/>
		<path class="st0" d="M46.2,51.6c-0.1,0-0.1,0-0.1,0v0.1L46.2,51.6z"/>
		<path class="st0" d="M45.6,51.8C45.6,51.8,45.3,51.9,45.6,51.8C45.6,51.8,45.8,51.7,45.6,51.8z"/>
		<polygon class="st0" points="42.2,51.6 42.2,51.7 42.3,51.5 		"/>
		<path class="st0" d="M39.2,50.7c0.2,0.2,0.1,0,0.3,0.1c0.1,0-0.2-0.1-0.1-0.1C39.3,50.7,39.2,50.6,39.2,50.7z"/>
		<path class="st0" d="M39.5,50.7L39.5,50.7L39.5,50.7z"/>
		<polygon class="st0" points="51.9,43.1 51.9,43.2 51.9,43.1 		"/>
		<path class="st0" d="M52,43.4L52,43.4L52,43.4C52,43.4,52,43.4,52,43.4z"/>
		<path class="st0" d="M35.6,41.1L35.6,41.1c0,0,0.1-0.1,0.1-0.1L35.6,41.1z"/>
		<polygon class="st0" points="36.6,38.9 36.6,39 36.7,38.9 		"/>
		<path class="st0" d="M37.9,37.3c-0.1,0.1-0.1,0.1-0.2,0.2C37.8,37.3,37.9,37.3,37.9,37.3z"/>
		<path class="st0" d="M34.3,36.5c-0.1,0.1,0,0.1,0,0.1C34.4,36.5,34.2,36.5,34.3,36.5z"/>
		<polygon class="st0" points="35.3,35 35.3,35 35.5,34.8 		"/>
		<path class="st0" d="M36.6,33.8c-0.2,0-0.5,0.4-0.7,0.6h-0.1v0.2C36.1,34.3,36.4,34.1,36.6,33.8z"/>
		<path class="st0" d="M37.5,33.5c-0.1,0,0.1-0.2-0.2,0.1l0,0L37.5,33.5z"/>
		<path class="st0" d="M37.4,33.6C37.3,33.7,37.5,33.6,37.4,33.6z"/>
		<path class="st0" d="M38.1,33.2l-0.2,0.2c0.1,0,0.2-0.1,0.2,0C38.3,33.2,38.2,33.2,38.1,33.2z"/>
		<path class="st0" d="M38.2,33L38.2,33C38.2,33.1,38.2,33,38.2,33z"/>
		<path class="st0" d="M37.9,33.2l0.2-0.2c0,0-0.1,0-0.1,0.1C38,33.1,38,33.2,37.9,33.2z"/>
		<path class="st0" d="M37.8,33.3c-0.1,0-0.3,0.1-0.1,0C37.3,33.5,37.4,33.5,37.8,33.3z"/>
		<path class="st0" d="M36.6,33.7c-0.1,0-0.1,0-0.2,0.1l-0.1,0.1C36.4,33.8,36.7,33.7,36.6,33.7z"/>
		<path class="st0" d="M39.4,32.6c0,0-0.1,0-0.1-0.1l-0.2,0.1C39.2,32.6,39.4,32.6,39.4,32.6z"/>
		<path class="st0" d="M39.3,32.5l0.2-0.2C39.3,32.5,39.3,32.5,39.3,32.5z"/>
		<polygon class="st0" points="38.2,32.8 37.9,33.1 38.3,32.8 		"/>
		<polygon class="st0" points="40.4,32.3 40.2,32.4 40.5,32.2 		"/>
		<path class="st0" d="M41,32.1c-0.1,0.1,0.2,0.1,0.1,0.1c0.2-0.1,0.3-0.1,0.4-0.2C41.3,32,41.2,32.1,41,32.1z"/>
		<path class="st0" d="M41.7,31.9L41.5,32C41.6,32,41.6,31.9,41.7,31.9z"/>
		<path class="st0" d="M40,32.2c0.1,0,0.1,0,0.2,0h-0.1H40z"/>
		<path class="st0" d="M40,32.2L40,32.2l0.2-0.1L40,32.2z"/>
		<path class="st0" d="M39.9,32.2L39.9,32.2z"/>
		<path class="st0" d="M38.9,32.6c0.1-0.1,0.4-0.3,0.1-0.2C38.9,32.5,39,32.4,38.9,32.6z"/>
		<path class="st0" d="M39.8,32.2c-0.1,0-0.2,0.1-0.3,0.1c0,0,0.1,0,0,0.1C39.6,32.3,39.7,32.2,39.8,32.2z"/>
		<polygon class="st0" points="39.9,32.1 39.8,32.2 39.9,32.2 		"/>
		<path class="st0" d="M41.2,31.9c0.1-0.1,0.2-0.1,0.4-0.1C41.5,31.8,41.3,31.8,41.2,31.9C41.1,31.9,41.1,31.9,41.2,31.9z"/>
		<path class="st0" d="M40.7,32L40.7,32L40.7,32z"/>
		<polygon class="st0" points="43.1,31.6 43,31.6 43,31.6 		"/>
		<path class="st0" d="M41.1,31.9c-0.1,0-0.2,0-0.2,0.1C41,31.9,41,31.9,41.1,31.9C41.1,31.9,41.1,31.8,41.1,31.9z"/>
		<path class="st0" d="M42.1,31.8h-0.2C42,31.8,42.1,31.8,42.1,31.8z"/>
		<path class="st0" d="M40.7,32L40.7,32C40.7,32,40.7,32,40.7,32z"/>
		<path class="st0" d="M40.7,32l0.1-0.1L40.7,32L40.7,32z"/>
		<path class="st0" d="M43.5,31c0,0.1-0.3,0.1-0.6,0.1s-0.1,0.3,0.2,0.4c0,0,0-0.1,0.3-0.1c-0.1-0.1-0.6,0-0.4-0.1s0.3,0,0.5,0
			c-0.2-0.1,0.5-0.1,0.4-0.3L43.5,31C43.5,31.1,43.6,31.1,43.5,31z"/>
		<path class="st0" d="M42.5,31.6h-0.1c0.1,0,0.3,0,0.4,0.1c0.2-0.1,0.2-0.1,0.2-0.1L42.5,31.6L42.5,31.6z"/>
		<path class="st0" d="M41.9,31.7c0.1-0.1,0.3-0.2,0.2-0.2c-0.3,0.1-0.2,0.1-0.4,0.2C42.2,31.5,41.5,31.7,41.9,31.7l-0.3,0.1
			L41.9,31.7L41.9,31.7L41.9,31.7L41.9,31.7L41.9,31.7C42,31.8,41.9,31.8,41.9,31.7L41.9,31.7c0.2,0,0.3,0,0.5-0.1
			C42.2,31.6,42.1,31.7,41.9,31.7z"/>
		<path class="st0" d="M39.2,32.1L39.2,32.1C39.2,32.1,39.2,32.1,39.2,32.1z"/>
		<path class="st0" d="M39.4,32.1c0,0.1-0.1,0.1-0.2,0.1c-0.1,0,0,0,0-0.1s-0.2,0.2,0,0.1l0,0c0.2-0.1,0.3-0.1,0.5-0.1
			C39.6,32.1,39.5,32.1,39.4,32.1z"/>
		<path class="st0" d="M40.7,31.8c0.1-0.1,0.3-0.1,0.4-0.1h-0.2l0,0C40.6,31.7,40.7,31.8,40.7,31.8z"/>
		<path class="st0" d="M43.1,31.6L43.1,31.6l0.2,0L43.1,31.6z"/>
		<polygon class="st0" points="43.7,31.6 43.7,31.6 43.8,31.6 		"/>
		<path class="st0" d="M49.2,55.3L49,55.3L49.2,55.3z"/>
		<path class="st0" d="M50.1,54.8L50.1,54.8C50.1,54.8,50,54.8,50.1,54.8z"/>
		<path class="st0" d="M55,38.9c0,0.2,0,0.4,0.1,0.4l0-0.1C55.1,39.1,55,39,55,38.9z"/>
		<path class="st0" d="M55.3,48.6L55.3,48.6v-0.2C55.3,48.5,55.3,48.5,55.3,48.6z"/>
		<path class="st0" d="M55.5,48.9l-0.2,0.2C55.4,49,55.5,48.9,55.5,48.9z"/>
		<path class="st0" d="M43.7,56.5l-0.2,0.1C43.8,56.5,43.7,56.5,43.7,56.5z"/>
		<path class="st0" d="M49.5,32.9l0.3,0.2C49.6,33,49.5,32.8,49.5,32.9z"/>
		<path class="st0" d="M49.2,54.3C49.1,54.4,49.1,54.4,49.2,54.3C49.1,54.5,49.1,54.4,49.2,54.3z"/>
		<path class="st0" d="M50.2,33.4L50.2,33.4l-0.4-0.2C49.9,33.2,50.1,33.3,50.2,33.4z"/>
		<path class="st0" d="M31.1,43.2L31.1,43.2C31.1,43.2,31.1,43.2,31.1,43.2z"/>
		<path class="st0" d="M33.3,37.9l-0.1,0.2C33.2,38,33.3,38,33.3,37.9z"/>
		<path class="st0" d="M46,31.8C45.9,31.8,46,31.8,46,31.8z"/>
		<path class="st0" d="M45.5,31.4C45.5,31.4,45.5,31.4,45.5,31.4C45.5,31.4,45.5,31.4,45.5,31.4z"/>
		<path class="st0" d="M51.5,33.7L51.5,33.7C51.5,33.7,51.5,33.6,51.5,33.7z"/>
		<path class="st0" d="M45.8,31.7l0.2,0L45.8,31.7z"/>
		<path class="st0" d="M45.9,31.8L45.9,31.8C45.8,31.8,45.8,31.8,45.9,31.8z"/>
		<path class="st0" d="M46.2,31.8H46l0,0H46.2z"/>
		<path class="st0" d="M35.3,52.8L35.3,52.8C35.2,52.7,35.2,52.7,35.3,52.8z"/>
		<polygon class="st0" points="56.6,41.9 56.6,41.9 56.6,41.9 		"/>
		<path class="st0" d="M56.8,42.3c-0.1-0.1-0.1-0.3-0.1-0.5l-0.2,0.2L56.8,42.3z"/>
		<path class="st0" d="M46.8,56.1h0.3c-0.4,0.2-0.7,0.2-0.3,0.2c0-0.2,1.3-0.4,1.2-0.6h0.2c0,0-0.1,0-0.1,0c0.5,0,0.2-0.3,0.8-0.5
			c0.2-0.1,0.3-0.1,0.2,0l0.4-0.2c0.1,0,0.1,0,0,0c0.2-0.1,0.4-0.2,0.6-0.3l0,0c0.1-0.1,0.2-0.2,0.3-0.3c0.2,0-0.1,0.1,0,0.1
			l0.3-0.2c0.2,0-0.1,0.2-0.3,0.3c0.4,0,0.2-0.2,0.9-0.5L51,54.3c0.3,0,0.5-0.2,0.8-0.3c-0.1,0-0.8,0.3-0.5,0
			c0.1-0.1,0.3-0.2,0.4-0.3c0,0.1,0.2-0.1,0.4-0.2l0.1,0.1c0.2-0.2,0.1-0.2,0.2-0.4c0.1-0.1,0.3-0.2,0.5-0.2
			c0.4-0.3-0.3,0.1,0.1-0.3c0.3-0.3,0.6-0.6,0.8-0.9c0.2-0.2,0,0.1,0.1,0l0.1-0.3c0,0,0,0,0.1,0c0.1-0.2-0.1-0.1,0.1-0.4
			c0-0.1,0.6-0.5,0.7-0.9c0.1-0.1,0,0.1,0.1,0.1c0.2-0.3,0.3-0.6,0.3-0.9l0.2-0.3c-0.2,0.2-0.1-0.2-0.1-0.5l-0.2,0.2
			c0.1-0.2,0.1-0.3,0.2-0.5c0,0,0.1,0,0.1,0.1v-0.1c0.1-0.2,0.1,0,0.2,0.1l-0.1,0.2c0,0.1,0,0.3,0.1,0.3v-0.2c0,0,0,0.1,0,0.1
			s0-0.1,0-0.2l0.2-0.1v0l0.3-0.6c0.1-0.5,0-1,0.1-1.7c0.1,0.2,0.2,0.1,0.3,0.1c-0.2,0.2-0.1,0.6-0.2,1c0.1-0.2,0.1-0.1,0.1-0.1
			l0.1-0.7c0.1,0,0.1-0.1,0.2-0.3c-0.2,0.1,0-0.6,0-0.9c0.1,0,0.1,0.1,0,0.4c0.2-0.4-0.1-0.5,0-0.9c0,0.1,0,0.1,0,0.2
			c0-0.2,0-0.7,0.1-0.6v0.1c0.1-0.6,0-1.3-0.2-1.8c0.1,0,0.2,0,0.2,0.1c-0.2-0.3-0.4-0.7-0.6-1c0.1,0.1,0.4-0.3,0.5,0.2
			c0-0.2,0-0.4-0.1-0.6c0,0.1-0.1,0.3-0.2,0.1c0-0.2,0.1-0.5,0.1-0.7c0,0.2-0.2,0-0.3-0.2c0,0,0.2-0.1,0.2,0
			c-0.1-0.2-0.2-0.3-0.3-0.5c0.1,0.1,0.2,0,0.2-0.2c0,0.1-0.1-0.5-0.2-0.6v0.2c-0.2-0.6-0.5-0.5-0.7-1.1c0.1,0,0.3,0.1,0.2-0.2
			c-0.4-0.2-0.8-0.5-1.1-0.8v-0.1c-0.1-0.1-0.2-0.2-0.3-0.3c0.4,0.2,0.9,0.6,1.2,0.9c-0.1-0.2,0-0.1-0.2-0.4c0-0.1,0.2,0.1,0.2,0.2
			L55.2,37c-0.1,0.1-0.4-0.5-0.5-0.4c0.2,0.2,0.4,0.5,0.6,0.7c-0.1,0.1-0.5-0.3-0.9-0.8c0-0.2,0.2,0,0.3-0.1
			c-0.2-0.1-0.3-0.3-0.4-0.5l0.2,0.2c-0.2-0.3-0.4-0.3-0.6-0.7c-0.1-0.1-0.1-0.4-0.2-0.4c0,0.3-0.3,0.6-0.4,0.5l-0.4-0.8
			c-0.1-0.2,0.4,0,0.4-0.2c-0.1,0-0.1,0-0.2-0.1c-0.1-0.1,0.1,0-0.1-0.2c-0.1,0-0.4-0.5-0.2,0c-0.2-0.2-0.2-0.2-0.5-0.5
			c0,0.1-0.4,0-0.7-0.1c0,0,0-0.1,0-0.1c-0.4-0.3-0.8-0.6-1.2-0.9c0-0.1-0.2-0.2-0.1-0.2c-0.1,0-0.2,0-0.3-0.1
			c-0.2-0.2,0.4,0.2,0.2-0.1c-0.1,0-0.5-0.1-0.7-0.2c0,0.1,0.5,0.3,0.8,0.3c-0.1,0.1-0.5,0.1-1.1-0.1s-0.1-0.2-0.2-0.2
			C48,32,48,32.3,47.4,32c-0.2-0.2,0-0.2,0-0.3c0.3,0.1,0.5,0.2,0.8,0.3l-0.3-0.2c0.2,0,0.3,0.1,0.5,0.2c-0.6-0.3-1.3-0.5-2-0.7
			c-0.1,0-0.3,0-0.2,0.1h0.2c0.2,0.1-0.4,0-0.2,0.1c-0.3,0-0.7,0-1,0l-0.1-0.1c0.1,0.1,0.2,0.1,0.4,0.1c-0.2,0-0.6-0.2-0.8-0.1
			l0.3,0.1c-0.3,0.1-0.7,0.1-1,0.1c0.2,0.1,0.1,0,0.3,0.1c-0.2-0.2,0.9,0.1,0.5-0.1c0.2,0.2,0.4,0.1,0.7,0.3c0,0-0.1-0.1,0.2,0h0.1
			l0,0l-0.1-0.1c0.3,0,0.5,0,0.8,0c0.2,0-0.1,0,0,0.1h0.2c0,0.1,0.4,0.3,0,0.2l0.3,0.1c0.2,0.1,0.4,0.2,0.7,0.2
			c0.2,0.1,0.4,0.1,0.3,0.1l0.6,0.2l0,0c0.3,0.1,0.5,0.2,0.8,0.3c0.3,0.1,0.6,0.3,0.8,0.5c0.2,0.1,0.4,0.2,0.6,0.4v0.1
			c0.2,0.1,0.5,0.5,0.7,0.5c0.1,0.3,0.8,0.8,1.1,1.1h0.1c0.2,0.2,0.4,0.4,0.7,0.7v-0.1c0.3,0.2,0.4,0.7,0.7,1.1c0,0-0.1-0.1-0.2-0.2
			c0.2,0.6,0.8,1,0.9,1.6c0.1,0.1,0.1,0.2,0.1,0.3l0,0v0v0.2c0-0.1,0-0.1,0-0.2c0.1,0.1,0.1,0.3,0.2,0.4L55,39.4l0,0
			c0,0.2,0.1,0.1,0.1,0l0.1,0.2c-0.1,0.2,0.2,0.4,0.1,0.6c0.1,0.1,0.2,0.3,0.2,0.4c0.1,0.2,0.1,0.4,0.2,0.4s0,0.1,0,0
			c0,0.2,0,0.3,0.1,0.5l-0.1,0.1c0.1,0.1,0.2,0.2,0.2,0.3c0,0.2-0.1,0.3-0.2,0.1c0.2,0.5,0.1,0.4,0.3,0.9h-0.1c0,0.2,0.1,0.4,0,0.5
			c0,0.9-0.2,1.9-0.4,2.8c0.3-0.1-0.2,0.4,0,0.5c-0.1,0-0.1,0.2-0.1,0c-0.1,0.3-0.2,0.7-0.2,1c-0.1,0,0-0.1-0.1-0.1s0,0.2-0.1,0.2
			s0-0.1,0-0.2c-0.2,0.5,0,0.6,0.1,0.7C55,48.5,55,48.7,55,48.8c-0.1,0.1-0.2,0.2-0.1-0.1c-0.1,0.2-0.5,0.9-0.5,1
			c-0.1,0.1-0.1,0.2-0.2,0.2c-0.2,0.3-0.2,0.4-0.5,0.7l0.1-0.1c0,0.2-0.2,0.3-0.3,0.5l0,0c-0.5,0.5-0.1,0.3-0.7,0.7H53
			c0.1,0.2-0.5,0.4-0.8,0.7l0.1-0.1c-0.1,0.2-0.7,0.2-0.8,0.3s0-0.1,0.1-0.1c-0.5,0.3,0,0.1-0.3,0.5c-0.1,0,0-0.2-0.2,0
			s-0.6,0.7-1,0.8c0.1,0,0.2,0,0,0.1s-0.8,0.3-1,0.5H49c-0.3,0.1-0.5,0.3-0.8,0.5c-0.3-0.2-1.4,0.6-1.5,0.3L46,55.6l0,0
			c-0.3,0-0.5,0.1-0.8,0.2c-0.1,0,0,0,0-0.1c-0.4,0-0.9,0-1.3,0.2l-0.1-0.1c-0.2,0.1-1-0.2-1.7-0.2c0,0,0,0,0.1,0
			c-0.4,0-0.8-0.1-1.2-0.3c-0.4-0.1-0.7-0.2-0.9-0.1c-0.2,0-0.3-0.1-0.5-0.1c0.6,0.3-0.1,0.1,0.1,0.2c-0.2-0.1-0.6-0.3-0.3-0.2l0,0
			c0.2-0.1-0.7-0.3-0.7-0.5c-1.1-0.5-2.1-1.3-3-2.1c0,0.1,0,0.1,0,0.2l-0.3-0.3c0-0.1,0-0.2,0.2,0c-0.1-0.1-0.3-0.2-0.4-0.3
			c-0.4-0.5,0.3,0,0.2-0.1L35.3,52l0,0c-0.2-0.1-0.2,0-0.5-0.3s0-0.2-0.1-0.2s0,0-0.1-0.1L34.3,51v0.2c-0.2-0.2-0.3-0.4-0.2-0.1
			c-0.1-0.4-0.3-0.7-0.6-1c-0.2-0.3-0.4-0.6-0.5-0.9c-0.2-0.3-0.4-0.6-0.5-0.9c0,0.1-0.1,0.2-0.2-0.1c0.3,0-0.1-0.6,0-1
			c-0.1,0.3-0.3-0.9-0.4-0.5c0-0.3,0.1,0,0.1-0.3c-0.1-0.8-0.2-1.6-0.1-2.4c0,0-0.1,0.1-0.1,0l0.2-0.5c0-0.2-0.2-0.2-0.1-0.5
			c0,0-0.1,0.1-0.1,0c0.2-1.6,0.4-3.4,1.4-4.8c-0.2,0.2-0.1,0,0-0.1c-0.1,0.1-0.1,0-0.1,0c0.2-0.2,0.3-0.4,0.4-0.6
			c0-0.2,0.4-0.6,0.3-0.8L33.8,37c0-0.3-0.5,0.2-0.6,0.1c-0.1,0.3-0.6,0.7-0.7,1.3c-0.1,0.1,0-0.1-0.1-0.1c0,0.2-0.1,0.4-0.2,0.6
			l0,0c-0.3,0.7-0.6,1.5-0.8,2.2l0.1-0.1c0,0.1-0.1,0.2-0.1,0.3c0.1,0.3,0.1-0.6,0.2-0.3c-0.1,0.3-0.2,0.6-0.2,0.9
			c-0.1,0.4-0.1,0.7-0.2,0.8c0,0.3,0.1-0.1,0.1,0.2l-0.1,0.1l0.1,0.1c0,0.2-0.1,0.3-0.1,0.3s0-0.2,0-0.2c0,0.3,0,0.6,0,0.9v-0.3
			c0,1,0.2,2,0.5,2.9v-0.1c0.2,0.6,0.1,0.5,0.4,1.2l0,0c0.1,0.2,0.2,0.3,0.2,0.5c-0.1-0.2,0.1,0.4-0.1,0.2c0.4,0.6,0.2,0.3,0.5,0.7
			v0.1c0.1,0.1,0.3,0.3,0.4,0.4c-0.2-0.2,0,0.3-0.2,0c0.2,0.8,0.8,0.9,0.8,1.3c0.4,0.2-0.3-0.6-0.2-0.5c0-0.2,0.3,0.2,0.4,0.4
			c0.1,0.4,0.3,0.7,0.5,1c0,0-0.1,0-0.1-0.1c0.1,0.2,0.3,0.3,0.5,0.6c0.2,0,0.3,0.3,0.4,0.2l-0.4-0.4c0.3,0.2,0.7,0.4,0.9,0.7
			c-0.1,0-0.2-0.1-0.3-0.2c0.1,0.1,0.2,0.2,0.3,0.3c-0.1,0.1-0.5-0.5-0.9-0.6c0.1,0.2,0.5,0.4,0.3,0.4c0.3,0,0.4,0.5,0.9,0.6l-0.1,0
			c0.1,0,0.2,0.1,0.3,0.2H36c0.3,0.1,0.5,0.5,0.8,0.6c-0.6-0.4-0.1-0.2-0.3-0.4c0.8,0.4,0.3,0.5,1.1,1c-0.1,0-0.4-0.3-0.2-0.2
			s0.3,0.3,0.4,0.3c0.6,0.3,0-0.1,0.2,0s0.3,0.1,0.6,0.2v0.1c0.6,0.3,0.2-0.1,0.8,0.2h-0.3l0.3,0.1l-0.1,0.1
			c0.3,0.1,0.6,0.1,0.8,0.3c-0.1-0.1,0.1-0.2,0.4-0.1s-0.1,0,0.3,0.2c-0.1,0.1-0.3,0-0.4-0.1c0,0-0.1,0-0.1,0
			c0.2,0.1,0.5,0.2,0.7,0.2L40.9,56c0.2,0,0.4,0,0.7,0c0.1,0,0,0.1-0.1,0.1c0.1,0,0.2,0,0.4,0c-0.1,0.1-0.1,0.1-0.3,0.1h0.6
			c0,0,0.3,0.1,0.2,0.2c0.3,0.1,0.9-0.1,1.3,0c0.1,0,0.1,0,0.2,0c0.5,0.1,0.9,0,1.3-0.1l0.3,0.1c0.4-0.1-0.4-0.1,0.2-0.2
			c0.5-0.1,0.2,0.1,0.4,0.1c0.3-0.2,0.6-0.3,1-0.3C47.1,56,47,56,46.8,56.1z M51.4,54c-0.1,0.1-0.2,0.2-0.3,0.2S51.2,54,51.4,54z
			 M55.7,48c0,0.1-0.1,0.2-0.1,0.3C55.6,48.2,55.7,48.1,55.7,48z M47.3,32L47.3,32C47.5,32.1,47.5,32.1,47.3,32z M47,31.9L47,31.9
			c0.1,0,0.2,0,0.2,0C47.2,31.9,47.1,31.9,47,31.9z M34.8,51.4L34.8,51.4C34.7,51.3,34.8,51.3,34.8,51.4z"/>
		<path class="st0" d="M55.5,48.8C55.5,48.8,55.5,48.8,55.5,48.8C55.5,48.8,55.5,48.9,55.5,48.8z"/>
		<path class="st0" d="M43.8,56.4L43.8,56.4L43.8,56.4z"/>
		<path class="st0" d="M53.1,34.5c0,0,0.1,0.1,0.1,0.2C53.2,34.7,53.2,34.7,53.1,34.5z"/>
		<path class="st0" d="M44.8,31.7H45C44.9,31.7,44.8,31.7,44.8,31.7C44.8,31.6,44.8,31.7,44.8,31.7z"/>
		<path class="st0" d="M42.4,31.2c0,0-0.1,0-0.1,0l0,0C42.5,31.2,42.6,31.2,42.4,31.2z"/>
		<path class="st0" d="M44.5,31.4c0-0.1-0.2-0.1-0.4,0l0,0C44.1,31.4,44.3,31.4,44.5,31.4z"/>
		<path class="st0" d="M44.1,31.3h-0.2C43.9,31.3,44,31.3,44.1,31.3z"/>
		<path class="st0" d="M46.4,31.8c-0.1,0-0.1,0.1-0.1,0S46.9,31.8,46.4,31.8z"/>
		<polygon class="st0" points="44.4,31.1 44.5,31.2 44.6,31.1 		"/>
		<path class="st0" d="M45.9,31.3l-0.3-0.1c0,0,0,0-0.1,0C45.7,31.3,45.9,31.4,45.9,31.3z"/>
		<path class="st0" d="M45.5,31.3c-0.1,0-0.2,0-0.2,0H45.5z"/>
		<polygon class="st0" points="44.8,31.1 44.9,31.1 45.1,31.2 		"/>
		<path class="st0" d="M49.1,32.3l0.3,0.1c0,0,0-0.1-0.2-0.1S49,32.2,49.1,32.3z"/>
		<path class="st0" d="M48.2,31.7c0,0,0.1,0.1,0.1,0.1v-0.1L48.2,31.7z"/>
		<path class="st0" d="M49.2,32C49.2,32,49.6,32.2,49.2,32C49.2,32,48.9,31.9,49.2,32z"/>
		<polygon class="st0" points="53.2,35.2 53.2,35.1 53,35.2 		"/>
		<path class="st0" d="M56,38.8c-0.1-0.4-0.1,0-0.2-0.4c-0.1-0.1,0.1,0.3,0,0.2C55.9,38.8,55.9,39,56,38.8z"/>
		<path class="st0" d="M55.8,38.6L55.8,38.6L55.8,38.6z"/>
		<polygon class="st0" points="33.8,37.2 34,37 33.9,37.1 		"/>
		<path class="st0" d="M34,36.7h0.1v-0.2C34.1,36.5,34,36.6,34,36.7z"/>
		<path class="st0" d="M52.1,53.7L52.1,53.7c0,0-0.1,0-0.2,0.1L52.1,53.7z"/>
		<polygon class="st0" points="48.9,55.5 49,55.5 48.8,55.4 		"/>
		<path class="st0" d="M46,56.5c0.1,0,0.3-0.1,0.4-0.1C46.1,56.5,45.9,56.3,46,56.5z"/>
		<path class="st0" d="M61,37.9c0-0.2-0.1-0.1-0.2-0.1C61,38.1,61,37.9,61,37.9z"/>
		<polygon class="st0" points="61.9,40.6 61.9,40.5 62,40.9 		"/>
		<path class="st0" d="M62.2,43.2c0.2-0.2-0.1-0.9-0.1-1.4v-0.1L62,41.5C62.1,42,62.2,42.6,62.2,43.2z"/>
		<path class="st0" d="M61.7,44.5c0.1-0.1,0.1,0.3,0-0.3v0.1V44.5z"/>
		<path class="st0" d="M61.7,44.3C61.7,44,61.7,44.4,61.7,44.3z"/>
		<path class="st0" d="M61.7,45.5v-0.4c0,0.1-0.1,0.4-0.1,0.3C61.5,45.8,61.6,45.7,61.7,45.5z"/>
		<path class="st0" d="M61.8,45.8v-0.2C61.8,45.7,61.7,45.7,61.8,45.8z"/>
		<path class="st0" d="M61.8,45.3v0.4c0,0,0.1,0,0-0.2C61.8,45.5,61.8,45.4,61.8,45.3z"/>
		<path class="st0" d="M61.8,45c0.1-0.2,0.1-0.5,0.2-0.1C62,44.3,61.8,44.4,61.8,45z"/>
		<path class="st0" d="M62.4,43.3c0-0.1,0.1-0.2,0.1-0.3l-0.1-0.2C62.4,42.9,62.3,43.3,62.4,43.3z"/>
		<path class="st0" d="M61.2,47.6c0,0,0.1-0.1,0.2-0.1v-0.3C61.3,47.4,61.3,47.6,61.2,47.6z"/>
		<path class="st0" d="M61.4,47.5v0.4C61.5,47.6,61.4,47.5,61.4,47.5z"/>
		<polygon class="st0" points="62,45.9 61.9,45.3 62,46.1 		"/>
		<polygon class="st0" points="60.8,49.1 60.8,48.8 60.8,49.2 		"/>
		<path class="st0" d="M60.5,50c0-0.2-0.2,0.2-0.2,0c-0.1,0.2-0.1,0.5-0.1,0.7C60.2,50.4,60.3,50.2,60.5,50z"/>
		<path class="st0" d="M60.1,51c0-0.1,0-0.2,0.1-0.3C60.1,50.8,60.1,50.9,60.1,51z"/>
		<path class="st0" d="M61.2,48.6c0,0-0.1,0.1-0.2,0.3l0.2-0.1L61.2,48.6z"/>
		<path class="st0" d="M61.1,48.7L61.1,48.7L61,49L61.1,48.7z"/>
		<path class="st0" d="M61.2,48.5L61.2,48.5C61.2,48.5,61.2,48.6,61.2,48.5z"/>
		<path class="st0" d="M61.7,47c0,0.2,0,0.7,0.2,0.3C61.9,47.1,61.7,47.3,61.7,47z"/>
		<path class="st0" d="M61.4,48.4c0.1-0.1,0.1-0.3,0.1-0.4c0,0-0.1,0.1-0.1-0.1C61.4,48.1,61.4,48.2,61.4,48.4z"/>
		<polygon class="st0" points="61.4,48.6 61.4,48.4 61.3,48.5 		"/>
		<path class="st0" d="M60.5,50.4c0,0.2-0.1,0.4-0.2,0.6c0.1-0.2,0.2-0.4,0.3-0.6C60.6,50.3,60.6,50.2,60.5,50.4z"/>
		<path class="st0" d="M60.8,49.6L60.8,49.6C60.8,49.6,60.8,49.6,60.8,49.6z"/>
		<polygon class="st0" points="59.3,53 59.3,52.9 59.3,52.9 		"/>
		<path class="st0" d="M60.6,50.3c0.1-0.1,0.1-0.2,0.1-0.4C60.8,50.1,60.7,50.2,60.6,50.3C60.5,50.5,60.6,50.4,60.6,50.3z"/>
		<path class="st0" d="M59.9,51.6c0.1-0.1,0.1-0.2,0.2-0.2C60,51.4,59.9,51.6,59.9,51.6z"/>
		<path class="st0" d="M60.8,49.7L60.8,49.7C60.8,49.7,60.7,49.7,60.8,49.7z"/>
		<path class="st0" d="M60.8,49.7c0,0.1,0,0.2,0,0.2C60.8,49.9,60.8,49.8,60.8,49.7L60.8,49.7z"/>
		<path class="st0" d="M59.5,53.9c-0.1-0.1,0.1-0.5,0.4-0.8c0.1-0.4-0.3-0.3-0.7-0.2c0,0,0.1,0.1-0.1,0.4c0.2-0.1,0.6-0.7,0.5-0.4
			c-0.2,0.5-0.3,0.4-0.5,0.6c0.2-0.1-0.2,0.7,0,0.7L59.5,53.9C59.5,53.8,59.4,54,59.5,53.9z"/>
		<path class="st0" d="M59.7,52.2l0.1-0.2c-0.1,0.2-0.3,0.3-0.4,0.4c-0.1,0.3-0.1,0.3-0.1,0.4L59.7,52.2L59.7,52.2z"/>
		<path class="st0" d="M60.1,51.4c0.1,0.2-0.1,0.5,0.1,0.4c0.2-0.5,0.1-0.4,0.1-0.7C60.1,51.9,60.4,50.9,60.1,51.4
			c0.1-0.1,0.1-0.3,0.2-0.4C60.2,51.1,60.1,51.3,60.1,51.4L60.1,51.4L60.1,51.4L60.1,51.4C60.1,51.4,60.1,51.4,60.1,51.4
			C60,51.6,60.1,51.4,60.1,51.4L60.1,51.4c-0.1,0.2-0.2,0.4-0.4,0.7C59.9,51.9,60,51.7,60.1,51.4z"/>
		<path class="st0" d="M62,47.7L62,47.7C62,47.7,62,47.8,62,47.7z"/>
		<path class="st0" d="M61.9,48c0-0.1,0-0.2,0-0.3c0.1-0.2,0.1,0,0.1,0s0-0.4-0.1-0.1v0.1c-0.1,0.2-0.2,0.4-0.3,0.6
			C61.7,48.3,61.8,48.2,61.9,48z"/>
		<path class="st0" d="M61.1,49.8c0,0.2-0.1,0.4-0.2,0.7l0.2-0.3h-0.1C61.3,49.8,61.1,49.9,61.1,49.8z"/>
		<path class="st0" d="M59.2,53l-0.1-0.2c0,0.2,0,0.3-0.1,0.4L59.2,53z"/>
		<polygon class="st0" points="58.7,53.7 58.6,53.6 58.5,53.8 		"/>
		<path class="st0" d="M25.1,39.5v-0.2C25.1,39.3,25.1,39.4,25.1,39.5z"/>
		<path class="st0" d="M24.9,41L24.9,41C24.9,41,24.9,40.9,24.9,41z"/>
		<path class="st0" d="M39.9,61c-0.3-0.2-0.5-0.4-0.5-0.3v0.1C39.5,60.9,39.7,60.9,39.9,61z"/>
		<path class="st0" d="M27.8,52.8L27.8,52.8L28,53C27.9,52.9,27.9,52.9,27.8,52.8z"/>
		<path class="st0" d="M27.2,52.9l-0.1-0.4C27.2,52.6,27.2,52.7,27.2,52.9z"/>
		<path class="st0" d="M28.5,31.8c0-0.1,0-0.2,0-0.3C28.3,31.9,28.4,31.8,28.5,31.8z"/>
		<path class="st0" d="M52,59.5c-0.2,0.1-0.4,0.1-0.6,0.2C51.8,59.7,52,59.7,52,59.5z"/>
		<path class="st0" d="M26.2,40.3c0-0.1,0-0.2,0-0.2S26.2,40.3,26.2,40.3z"/>
		<path class="st0" d="M50.8,60h0.1c0.2-0.1,0.3-0.2,0.5-0.2C51.2,59.8,51,59.9,50.8,60z"/>
		<path class="st0" d="M55.7,28.2L55.7,28.2C55.7,28.2,55.8,28.2,55.7,28.2z"/>
		<path class="st0" d="M60.2,35.5L60,35.2C60.1,35.3,60.1,35.4,60.2,35.5z"/>
		<path class="st0" d="M56.4,56.3C56.5,56.2,56.4,56.3,56.4,56.3z"/>
		<path class="st0" d="M57.4,56C57.4,56,57.4,56.1,57.4,56C57.4,56.1,57.4,56.1,57.4,56z"/>
		<path class="st0" d="M49.3,61.4L49.3,61.4C49.3,61.4,49.3,61.4,49.3,61.4z"/>
		<path class="st0" d="M56.6,56.2l-0.2,0.1L56.6,56.2z"/>
		<path class="st0" d="M56.6,56.2l0.1-0.1C56.7,56.1,56.7,56,56.6,56.2z"/>
		<path class="st0" d="M56.2,56.5l0.2-0.2l0,0L56.2,56.5z"/>
		<path class="st0" d="M40.3,24.9L40.3,24.9C40.6,24.8,40.5,24.8,40.3,24.9z"/>
		<polygon class="st0" points="34.8,60.3 34.8,60.3 34.8,60.3 		"/>
		<path class="st0" d="M34.1,60.1c0.2,0,0.5,0.1,0.7,0.3v-0.4L34.1,60.1z"/>
		<path class="st0" d="M26.2,36l-0.3,0.4c0.1-0.6,0.3-1,0-0.6c0.2,0.1-0.1,0.6-0.2,1s-0.3,0.9-0.1,1l-0.2,0.3c0-0.1,0-0.1,0-0.2
			c-0.4,0.6,0.1,0.5-0.1,1.3c-0.1,0.3-0.2,0.5-0.2,0.3l0,0.6c0,0.2-0.1,0.1-0.1,0c0,0.3-0.1,0.7-0.1,1l0,0c0,0.2,0.1,0.4,0.1,0.6
			c-0.1,0.2,0-0.1-0.1-0.1s0,0.4,0,0.5s-0.2-0.2-0.1-0.6c-0.4,0.5,0,0.5-0.2,1.5v-0.5c-0.2,0.3-0.2,0.7-0.3,1.3
			c0.1-0.2,0.4-1.2,0.5-0.6c-0.1,0.2-0.1,0.5,0,0.7c-0.1,0-0.1,0.3,0,0.7h-0.2c0.1,0.4,0.2,0.4,0.3,0.6c0,0.3,0,0.5-0.2,0.7
			c0.1,0.8,0.1-0.5,0.3,0.3c0,0.6,0.2,1.2,0.5,1.8c0,0.4-0.1,0-0.1,0.1l0.2,0.3c0,0.1,0,0.1,0,0.1c0.1,0.3,0.2,0,0.4,0.5
			c0.1,0,0.1,0.3,0.1,0.6c0,0.4,0.1,0.7,0.4,1c0,0.2-0.1,0-0.2,0c0.2,0.4,0.5,0.9,0.9,1.2l0.2,0.6c-0.1-0.5,0.3,0,0.6,0.3
			c0-0.2,0-0.3,0-0.4c0.1,0.2,0.3,0.4,0.5,0.6c0,0.1-0.1,0.1-0.2,0l0.1,0.1c0.1,0.3-0.1,0.2-0.3,0.1L27.8,53
			c-0.2-0.1-0.4-0.2-0.4-0.1c0.1,0.1,0.1,0.1,0.2,0.2c0,0-0.1,0-0.1,0s0.1,0.1,0.2,0.2l-0.1,0.2h0.1l0.5,0.9
			c0.3,0.2,0.6,0.4,0.9,0.6c0.4,0.3,0.7,0.6,1.1,0.9c-0.3-0.1-0.2,0.1-0.4,0.2c-0.1-0.4-0.6-0.7-1-1.2c0.2,0.3,0.1,0.3,0,0.2
			l0.8,0.8c-0.1,0.1,0.1,0.2,0.2,0.5c0-0.3,0.7,0.5,1.1,0.7c0,0.1-0.2,0.1-0.5-0.3c0.3,0.6,0.7,0.3,1.1,0.8
			c-0.1-0.1-0.1-0.1-0.2-0.1c0.3,0.1,0.8,0.7,0.6,0.6l-0.1-0.1c0.7,0.7,1.5,1.2,2.4,1.5c-0.1,0.1-0.2,0.1-0.3,0.2
			c0.6,0,1.2,0.1,1.7,0.1c-0.2,0.1,0,0.8-0.7,0.5c0.2,0.2,0.5,0.3,0.8,0.4c-0.1-0.1-0.2-0.4,0-0.3c0.2,0.3,0.5,0.5,0.8,0.7
			c-0.2-0.1,0.2-0.3,0.5-0.2c-0.1,0-0.1,0.3-0.2,0.3c0.3,0,0.6,0,0.9,0c-0.2,0-0.1,0.2,0,0.4c-0.1-0.1,0.7,0.2,0.9,0.3l-0.3-0.2
			c0.9,0.4,1-0.2,1.9,0.1c-0.1,0-0.4,0.3,0.1,0.5c0.6-0.3,1.2-0.5,1.9-0.6l0.2,0.1c0.2,0,0.4,0,0.6,0c-0.7,0.3-1.4,0.6-2.2,0.7
			c0.3,0.1,0.1,0.1,0.6,0.2c0.2,0.1-0.3,0.1-0.5,0.1l1.2,0.2c0-0.1,0.2-0.1,0.5-0.1s0.5-0.1,0.5-0.2c-0.5,0.1-0.9,0.1-1.4,0.1
			c0-0.2,0.8-0.4,1.7-0.4c0.2,0.1-0.2,0.3-0.2,0.4c0.3-0.1,0.6-0.1,0.9,0l-0.4,0.1c0.5,0.1,0.8-0.2,1.4-0.1c0.2,0,0.6,0.2,0.7,0.1
			c-0.4-0.2-0.5-0.8-0.3-1l1.3,0.2c0.3,0.1-0.4,0.5-0.1,0.6c0,0,0.2-0.2,0.2-0.2c0.2,0-0.1,0.2,0.4,0.1c0-0.2,0.9-0.2,0.2-0.2
			c0.4-0.1,0.5,0,1-0.2c-0.2-0.1,0.3-0.5,0.8-0.7c0,0,0.1,0.1,0.2,0.1c0.7-0.2,1.4-0.4,2.1-0.7c0.1,0,0.5-0.1,0.4,0
			c0.1-0.1,0.3-0.2,0.4-0.3c0.5-0.1-0.5,0.3-0.1,0.3c0-0.1,0.5-0.5,0.8-0.7c-0.2-0.1-0.8,0.4-1.1,0.6c-0.1-0.2,0.4-0.7,1.1-1.2
			s0.3,0,0.4-0.1c1.1-0.7,0.7-0.9,1.7-1.4c0.4-0.1,0.2,0.2,0.3,0.2c-0.3,0.3-0.7,0.5-1.1,0.7l0.4-0.2c-0.2,0.2-0.4,0.3-0.6,0.5
			c0.9-0.5,1.8-1.2,2.6-1.9c0.1-0.2,0.3-0.4,0.1-0.4l-0.2,0.2c-0.3,0.1,0.3-0.5,0-0.3c0.3-0.4,0.6-0.8,0.9-1.2h0.2
			c0,0-0.3,0.2-0.4,0.4c0.1-0.2,0.8-0.5,0.8-0.9l-0.4,0.2c0.2-0.4,0.5-0.9,0.7-1.3c-0.3,0.1,0,0.1-0.4,0.3c0.4-0.1-0.9,1-0.3,0.8
			c-0.4,0.1-0.5,0.5-1,0.7c0,0,0.2,0-0.1,0.2c0,0,0,0.1,0,0.1l0,0l0,0l0,0c0.1,0,0.1-0.1,0.2-0.1c-0.1,0.2-0.6,0.7-0.7,0.9
			s0-0.1-0.1-0.1c-0.1,0.1-0.1,0.2-0.2,0.3c-0.1-0.1-0.7,0.3-0.2-0.2l-0.4,0.3c-0.3,0.2-0.6,0.4-0.8,0.6c-0.2,0.1-0.5,0.5-0.3,0.3
			l-0.7,0.5l0,0c-0.3,0.2-0.7,0.5-1.1,0.7c-0.4,0.3-0.8,0.4-1.3,0.5c-0.3,0.2-0.7,0.3-1,0.4l-0.1-0.1c-0.3,0.2-1.1,0.2-1.2,0.4
			c-0.8,0.1-1.6,0.2-2.4,0.4v0.2c-0.4,0-0.9,0.1-1.4,0.2v0.1c-0.7,0.1-1.3,0-2-0.1c0,0,0.2,0,0.4,0c-0.4-0.1-0.8-0.2-1.2-0.2
			c-0.4,0-0.9,0-1.3-0.2c-0.2,0-0.3,0-0.5-0.1h0h-0.1L39.9,61c0.1,0,0.1,0.1,0.2,0.1c-0.2,0-0.4-0.1-0.6-0.1l-0.1-0.2l0,0
			c-0.2-0.1-0.2,0-0.1,0.2c-0.1,0-0.2,0-0.3,0c-0.1-0.3-0.6-0.1-0.8-0.4c-0.2,0-0.4,0-0.7-0.1c-0.3-0.1-0.6-0.2-0.7-0.1s0-0.1,0.1,0
			c-0.2-0.1-0.5-0.2-0.7-0.3v-0.2c-0.2,0-0.4,0-0.6,0c-0.3-0.3-0.3-0.4,0-0.3c-0.8-0.2-0.6-0.2-1.3-0.4l0.1-0.1
			c-0.2-0.1-0.6-0.2-0.7-0.4c-1.1-0.9-2.1-1.9-3-3c-0.1,0.4-0.3-0.6-0.5-0.5c0-0.1-0.1-0.3,0.1-0.2c-0.5-0.5-0.6-0.9-1-1.2
			c0-0.1,0.2,0.1,0.2,0s-0.2-0.2-0.2-0.2s0.1,0.1,0.2,0.1c-0.4-0.6-0.6-0.5-0.9-0.5c-0.1-0.3-0.2-0.5-0.5-0.7c0-0.2,0-0.4,0.2,0
			c-0.1-0.2-0.6-1.5-0.8-1.4c0-0.1-0.1-0.3-0.2-0.4C27,50.1,27,50,26.8,49.5v0.2c-0.3-0.1-0.2-0.5-0.4-0.9l0,0
			c-0.1-1.1-0.2-0.4-0.3-1.5L26,47.3c-0.3,0,0-1-0.2-1.6V46c-0.2-0.3,0.3-1,0.3-1.3c0-0.1,0,0.1,0.1,0.2c0.1-0.9-0.2-0.1-0.3-0.8
			c0.1-0.1,0.2,0.1,0.2-0.3c0.1-0.2-0.3-1.3,0-1.9c-0.1,0.1-0.2,0.2-0.2-0.1c0-0.5,0.4-1.2,0.3-1.7c0,0,0.1-0.1,0.1-0.1
			c0.1-0.5,0.1-0.9,0.1-1.4c0.5-0.2,0.5-2.2,0.9-2l0.4-1l0,0c0.2-0.3,0.4-0.7,0.4-1.1c0.1-0.1,0.1,0,0.1,0c0.4-0.5,0.8-1.1,1-1.8
			h0.2c0-0.3,1.1-1,1.6-1.9c0,0,0,0,0,0.1c0.4-0.5,0.9-0.9,1.4-1.2c0.5-0.3,0.9-0.6,0.9-1c0.2-0.2,0.4-0.4,0.5-0.5
			c-0.8,0.5,0-0.3-0.4-0.1c0.3-0.2,0.9-0.4,0.5-0.1h-0.1c0,0.3,1.1-0.6,1.2-0.4c1.6-0.9,3.4-1.5,5.2-1.9L40,25.7l0.6-0.1
			c0.2,0,0.2,0.1-0.2,0.2c0.3,0,0.5-0.1,0.7-0.3c0.9-0.1-0.3,0.3,0,0.2l0.3-0.1h-0.1c0.2-0.2,0.5-0.3,0.8-0.3c0.3,0,0.2,0.1,0.3,0.1
			s0,0,0.2,0h0.8l-0.3-0.1c0.3-0.1,0.7,0,0.4-0.2c0.6,0.2,1.1,0.2,1.7,0.2c0.5,0,1,0.1,1.5,0.2c0.5,0,1.1,0,1.6,0.2
			c-0.1-0.1-0.2-0.3,0.3-0.1c-0.3,0.3,0.9,0.4,1.2,0.8c-0.1-0.1,0.2,0,0.5,0s0.6,0.2,0.4,0c0.4,0.2,0,0.1,0.2,0.4
			c1,0.4,2,0.9,2.9,1.6c0,0-0.1-0.2,0.2-0.1l0.4,0.6c0.2,0.1,0.4-0.1,0.6,0.3c0-0.1-0.1-0.2,0.1-0.1c0.9,0.9,1.8,1.7,2.7,2.7
			c0.4,0.5,0.8,1,1.1,1.5c0.3,0.5,0.6,1.1,0.8,1.7c-0.1-0.3,0-0.2,0.2,0.1c-0.1-0.2,0.1-0.1,0.2-0.1c0.1,0.3,0.2,0.7,0.3,1
			c0.2,0.1,0.4,1,0.6,1.1L61,36.9c0.4,0.3,0.2-0.8,0.5-0.8c-0.4-0.4-0.3-1.4-1-2c0-0.2,0.1,0.1,0.2,0c-0.3-0.2-0.5-0.5-0.6-0.8h0.1
			c-0.6-1-1.3-1.9-2-2.9v0.2c-0.1-0.1-0.2-0.3-0.3-0.5c-0.4-0.1,0.6,0.7,0.2,0.6c-0.2-0.4-0.5-0.8-0.8-1.1c-0.4-0.4-0.8-0.7-0.8-1
			c-0.4-0.3,0,0.2-0.4-0.1l0-0.1h-0.2c-0.2-0.2-0.3-0.4-0.3-0.5s0.2,0.1,0.3,0.2c-0.4-0.3-0.7-0.6-1.1-0.8l0.4,0.3
			c-1.2-0.9-2.6-1.5-4-2l0.1,0.1c-1-0.3-0.8-0.3-1.8-0.6l0,0c-0.3,0-0.6-0.1-0.8-0.1c0.3,0-0.5-0.3-0.1-0.2c-0.4-0.1-0.9-0.1-1.3,0
			l-0.2-0.1c-0.3,0.1-0.6,0.1-0.8,0.1c0.5,0-0.3-0.2,0.2-0.3c-1.2-0.4-1.8,0.1-2.3-0.2c-0.5,0.3,1,0.2,0.7,0.2
			c0.2,0.1-0.5,0.2-0.8,0.2c-0.5-0.2-1-0.3-1.6-0.3c0.1,0,0.1,0,0.2,0c-0.4,0-0.7,0.1-1.1,0.1c-0.2,0.2-0.6,0.1-0.6,0.3l0.8-0.2
			C41,24.8,40.4,25,39.8,25c0.1-0.1,0.3-0.2,0.4-0.2c-0.2,0-0.4,0.1-0.7,0.1c0-0.2,1-0.2,1.5-0.5c-0.3,0-1,0.3-0.7,0
			c-0.2,0.2-0.4,0.2-0.7,0.2c-0.3,0-0.6,0.1-0.8,0.3v0c-0.1,0.1-0.3,0.2-0.5,0.2l0.3-0.2c-0.5,0.3-1,0.1-1.5,0.4c1-0.4,0.3,0,0.7,0
			c-1.1,0.6-0.8-0.1-2.1,0.5c0.2-0.1,0.7-0.2,0.5,0s-0.6,0.2-0.8,0.2c-0.8,0.5,0.2,0-0.1,0.3c-0.4,0-0.4,0.3-0.7,0.5l-0.1-0.1
			c-1,0.5-0.1,0.4-1,0.8l0.2-0.4l-0.4,0.3v-0.3c-0.3,0.3-0.6,0.5-1,0.8c0.2,0,0.1,0.2-0.3,0.5c-0.3,0.1,0.1-0.2-0.5,0.2
			c0.1-0.2,0.2-0.4,0.5-0.4c0,0,0.1-0.2,0.1-0.2c-0.3,0.2-0.6,0.4-0.9,0.7c0.1-0.1,0.1-0.1,0.2-0.1c-0.2,0.3-0.4,0.5-0.6,0.8
			c-0.1,0.1-0.1,0,0-0.2c-0.1,0.1-0.2,0.3-0.4,0.5c0-0.1-0.1-0.2,0.1-0.5L30,30.1c-0.1,0-0.4,0.3-0.4,0.1c-0.4,0.4-0.7,1.1-1.2,1.6
			c0,0.1-0.1,0.2-0.1,0.2c-0.5,0.5-0.8,1.1-1.1,1.7l-0.4,0.3c-0.3,0.6,0.5-0.4,0.1,0.5c-0.3,0.7-0.3,0.2-0.4,0.4
			c0,0.5-0.2,1.1-0.4,1.6C26.1,36.3,26.1,36.2,26.2,36z M24.7,43.3c0-0.1-0.1-0.4,0-0.5C24.9,42.9,24.8,43,24.7,43.3L24.7,43.3z
			 M28.1,53.9c-0.1-0.1-0.2-0.2-0.2-0.4C28,53.6,28.1,53.7,28.1,53.9L28.1,53.9z M54.9,57.8L54.9,57.8
			C54.7,57.9,54.8,57.9,54.9,57.8L54.9,57.8z M55.5,57.4C55.5,57.4,55.5,57.4,55.5,57.4c0-0.1-0.1,0.1-0.2,0.2
			C55.2,57.6,55.3,57.5,55.5,57.4L55.5,57.4z M42.5,25.5h-0.1C42.6,25.4,42.6,25.5,42.5,25.5L42.5,25.5z"/>
		<path class="st0" d="M27.3,52.9C27.3,52.8,27.3,52.8,27.3,52.9C27.3,52.8,27.3,52.8,27.3,52.9z"/>
		<path class="st0" d="M28.5,31.9L28.5,31.9L28.5,31.9z"/>
		<path class="st0" d="M46.8,62.5c-0.1,0-0.2,0-0.3,0C46.6,62.5,46.6,62.5,46.8,62.5z"/>
		<path class="st0" d="M57.6,54.9l-0.2,0.3C57.5,55.1,57.6,55.1,57.6,54.9C57.7,55,57.6,55,57.6,54.9z"/>
		<path class="st0" d="M60.3,52.5c0-0.1,0.1-0.1,0.1-0.2h-0.1C60.2,52.5,60.2,52.7,60.3,52.5z"/>
		<path class="st0" d="M58.2,54.9c0.1,0,0.3-0.2,0.4-0.4l0,0C58.5,54.4,58.4,54.7,58.2,54.9z"/>
		<path class="st0" d="M58.7,54.4l0.2-0.2C58.8,54.1,58.7,54.3,58.7,54.4z"/>
		<path class="st0" d="M56,56.8c0.1-0.1,0-0.2,0-0.2C56.1,56.5,55.5,57.4,56,56.8z"/>
		<polygon class="st0" points="58.7,55 58.5,55 58.5,55.1 		"/>
		<path class="st0" d="M57.1,56.6l0.4-0.3c0,0,0-0.1,0-0.1C57.3,56.4,57,56.6,57.1,56.6z"/>
		<path class="st0" d="M57.5,56.2c0.1-0.1,0.2-0.2,0.2-0.3L57.5,56.2z"/>
		<polygon class="st0" points="58.3,55.5 58.2,55.6 58,55.8 		"/>
		<path class="st0" d="M53.1,59.6l-0.4,0.3c0,0.1,0.1,0,0.3-0.1S53.2,59.6,53.1,59.6z"/>
		<path class="st0" d="M54.6,59.1c-0.1,0-0.2,0-0.2,0l0.1,0.2L54.6,59.1z"/>
		<path class="st0" d="M53.4,59.9c0,0.1-0.6,0.5,0,0.2C53.4,60,53.8,59.7,53.4,59.9z"/>
		<polygon class="st0" points="46,62.1 46.1,62.1 46,61.8 		"/>
		<path class="st0" d="M39.1,62.3c0.6,0.2,0.2-0.1,0.7,0.1c0.2,0-0.4-0.2-0.3-0.2C39.1,62.1,39,62,39.1,62.3z"/>
		<path class="st0" d="M39.5,62.1L39.5,62.1z"/>
		<polygon class="st0" points="60.6,36.8 60.7,37.2 60.7,37 		"/>
		<path class="st0" d="M61.1,37.4l-0.1,0.2l0.2,0.2C61.1,37.7,61.1,37.5,61.1,37.4z"/>
		<path class="st0" d="M24.4,44.4L24.4,44.4c0.1-0.1,0.1-0.2,0-0.3L24.4,44.4z"/>
		<polygon class="st0" points="25.1,38.9 25,39 25.2,38.9 		"/>
		<path class="st0" d="M26.5,34.5c-0.1,0.2-0.2,0.4-0.2,0.6C26.4,34.7,26.7,34.6,26.5,34.5z"/>
		<path class="st0" d="M30.3,66.7c0.2,0.2,0.2,0,0.3,0C30.2,66.5,30.3,66.8,30.3,66.7z"/>
		<polygon class="st0" points="26.7,64.7 26.8,64.7 26.2,64.4 		"/>
		<path class="st0" d="M23.8,62c0,0.5,1,1,1.5,1.5v0.1h0.4C25,63.1,24.4,62.6,23.8,62z"/>
		<path class="st0" d="M23,60c0,0.2-0.4-0.3,0.3,0.4v-0.1L23,60z"/>
		<path class="st0" d="M23.2,60.3C23.5,60.6,23.2,60.1,23.2,60.3z"/>
		<path class="st0" d="M22.1,58.9l0.4,0.4c0-0.1-0.2-0.5-0.1-0.4C22,58.4,22,58.6,22.1,58.9z"/>
		<path class="st0" d="M21.6,58.6l0.2,0.2C21.8,58.7,21.8,58.7,21.6,58.6z"/>
		<path class="st0" d="M22.2,59.2l-0.4-0.4c0,0.1-0.1,0.2,0.2,0.2C21.9,59,22,59,22.2,59.2z"/>
		<path class="st0" d="M22.4,59.5c0.1,0.3,0.3,0.6-0.1,0.2C23,60.5,23,60.3,22.4,59.5z"/>
		<path class="st0" d="M23.5,62.1c0.1,0.1,0.1,0.2,0.2,0.4l0.3,0.2C23.9,62.5,23.5,62,23.5,62.1z"/>
		<path class="st0" d="M20.5,56c-0.1,0-0.1,0.2-0.1,0.3l0.2,0.3C20.6,56.4,20.4,56,20.5,56z"/>
		<path class="st0" d="M20.4,56.3L20,55.8C20.2,56.3,20.3,56.4,20.4,56.3z"/>
		<polygon class="st0" points="21.3,58.7 22,59.4 21.2,58.5 		"/>
		<polygon class="st0" points="19.5,54 19.8,54.2 19.4,53.8 		"/>
		<path class="st0" d="M19,52.6c0.2,0.2,0.1-0.4,0.2-0.2c-0.1-0.3-0.3-0.6-0.5-0.9C18.9,51.9,19,52.2,19,52.6z"/>
		<path class="st0" d="M18.4,51.1c0.1,0.2,0.2,0.3,0.3,0.5C18.6,51.4,18.5,51.2,18.4,51.1z"/>
		<path class="st0" d="M19.6,54.9c0.1-0.2,0.1-0.3,0-0.5l-0.1,0.3L19.6,54.9z"/>
		<path class="st0" d="M19.5,54.7L19.5,54.7l-0.2-0.5L19.5,54.7z"/>
		<path class="st0" d="M19.6,55L19.6,55C19.6,54.9,19.6,55,19.6,55z"/>
		<path class="st0" d="M20.6,57.3c-0.3-0.2-0.7-0.8-0.5-0.2C20.3,57.3,20.2,56.9,20.6,57.3z"/>
		<path class="st0" d="M19.5,55.3c0.1,0.2,0.2,0.4,0.3,0.6c0,0,0-0.2,0.2,0C19.8,55.7,19.6,55.5,19.5,55.3z"/>
		<polygon class="st0" points="19.3,55.1 19.5,55.3 19.4,55.1 		"/>
		<path class="st0" d="M18.5,52.1c-0.2-0.3-0.3-0.5-0.4-0.8c0.1,0.3,0.2,0.7,0.3,1C18.5,52.4,18.7,52.5,18.5,52.1z"/>
		<path class="st0" d="M19,53.4L19,53.4C19,53.4,18.9,53.4,19,53.4z"/>
		<polygon class="st0" points="17.4,48.1 17.4,48.2 17.4,48.2 		"/>
		<path class="st0" d="M18.5,52.4c0,0.2,0.1,0.4,0.2,0.5C18.6,52.8,18.5,52.6,18.5,52.4C18.4,52.3,18.4,52.3,18.5,52.4z"/>
		<path class="st0" d="M18,50.2c0,0.2,0,0.3,0,0.5C18.1,50.5,18.1,50.2,18,50.2z"/>
		<path class="st0" d="M18.9,53.2L18.9,53.2C19,53.2,18.9,53.2,18.9,53.2z"/>
		<path class="st0" d="M18.9,53.2c-0.1-0.1-0.2-0.2-0.2-0.3C18.8,53.1,18.8,53.2,18.9,53.2C18.9,53.3,18.9,53.3,18.9,53.2z"/>
		<path class="st0" d="M16.1,47.3c0.2,0,0.4,0.7,0.4,1.4c0.3,0.6,0.7,0.1,0.9-0.5c-0.1,0-0.2,0-0.3-0.6c-0.1,0.2,0,1.4-0.2,0.9
			c-0.3-0.8,0-0.7,0-1.1c-0.2,0.4-0.4-1-0.7-0.8l0.2,0.7C16.3,47.3,16.2,47,16.1,47.3z"/>
		<path class="st0" d="M17.6,49.3l0.1,0.2c0-0.3,0-0.6,0-0.9c-0.2-0.4-0.2-0.5-0.3-0.5L17.6,49.3L17.6,49.3z"/>
		<path class="st0" d="M18,50.7c-0.2-0.1-0.4-0.7-0.5-0.3c0.2,0.7,0.3,0.5,0.5,0.9C17.5,50.1,18.2,51.6,18,50.7
			c0,0.2,0.1,0.4,0.2,0.6C18.1,51.1,18.1,50.9,18,50.7L18,50.7L18,50.7C18.1,50.7,18.1,50.8,18,50.7L18,50.7L18,50.7
			C17.9,50.3,18,50.6,18,50.7L18,50.7c-0.1-0.4-0.1-0.8-0.3-1.2C17.8,49.9,17.9,50.3,18,50.7z"/>
		<path class="st0" d="M19.4,56.7C19.4,56.7,19.4,56.7,19.4,56.7C19.4,56.7,19.4,56.6,19.4,56.7z"/>
		<path class="st0" d="M19.3,56.2c0.1,0.1,0.2,0.2,0.3,0.4c0.1,0.2-0.1,0-0.1,0.1c0.1,0.1,0.4,0.5,0.2,0l-0.1-0.1
			c-0.1-0.3-0.2-0.7-0.2-1.1C19.3,55.8,19.3,56,19.3,56.2z"/>
		<path class="st0" d="M18.4,53.5c-0.2-0.3-0.3-0.6-0.4-0.9v0.5l0.1-0.1C18.2,53.6,18.3,53.4,18.4,53.5z"/>
		<path class="st0" d="M17.5,48l0.2,0.1c-0.1-0.2-0.2-0.3-0.4-0.5L17.5,48z"/>
		<polygon class="st0" points="17.3,46.7 17.5,46.7 17.3,46.4 		"/>
		<path class="st0" d="M69.2,29.3l0.2,0.2C69.3,29.5,69.2,29.4,69.2,29.3z"/>
		<path class="st0" d="M68,27.4L68,27.4C68,27.4,68,27.5,68,27.4z"/>
		<path class="st0" d="M31.2,19.8c0.5-0.1,1-0.1,0.8-0.2l-0.2-0.1C31.7,19.6,31.5,19.8,31.2,19.8z"/>
		<path class="st0" d="M52.9,17l-0.1-0.1L52.5,17C52.6,17,52.8,17,52.9,17z"/>
		<path class="st0" d="M53.5,16.4l0.5,0.3C53.8,16.6,53.6,16.5,53.5,16.4z"/>
		<path class="st0" d="M73,41.3c0.1,0.1,0.2,0.2,0.2,0.4C73.2,41,73.1,41.3,73,41.3z"/>
		<path class="st0" d="M19,33.5c0.2-0.3,0.3-0.5,0.4-0.8C19.1,33.1,18.9,33.3,19,33.5z"/>
		<path class="st0" d="M67.1,29.5c0.1,0.1,0.2,0.2,0.2,0.2S67.1,29.5,67.1,29.5z"/>
		<path class="st0" d="M19.9,31.7l-0.1,0.2c-0.1,0.3-0.2,0.5-0.3,0.8C19.6,32.4,19.8,32.1,19.9,31.7z"/>
		<path class="st0" d="M46,72.4h-0.1C45.9,72.4,45.9,72.4,46,72.4z"/>
		<path class="st0" d="M33.7,68.6c0.1,0,0.3,0.1,0.5,0.2C34,68.7,33.8,68.7,33.7,68.6z"/>
		<path class="st0" d="M17.2,41.4C17.2,41.7,17.2,41.4,17.2,41.4z"/>
		<path class="st0" d="M16.4,42.8c0-0.1,0-0.1-0.1-0.1C16.4,42.7,16.4,42.7,16.4,42.8z"/>
		<path class="st0" d="M20.3,28.7L20.3,28.7C20.2,28.8,20.2,28.7,20.3,28.7z"/>
		<path class="st0" d="M17.1,41.8c0-0.1,0.1-0.2,0.1-0.3C17.2,41.5,17.2,41.7,17.1,41.8z"/>
		<path class="st0" d="M17.2,41.8V42C17.2,42,17.2,42,17.2,41.8z"/>
		<path class="st0" d="M17.3,41c0,0.1,0,0.3,0,0.4c0,0,0-0.1,0-0.1L17.3,41z"/>
		<path class="st0" d="M66.5,60.9L66.5,60.9C66.4,61.2,66.4,61.1,66.5,60.9z"/>
		<path class="st0" d="M37.6,15.5L37.6,15.5z"/>
		<path class="st0" d="M38.6,15.1c-0.3,0.2-0.6,0.4-1,0.4l0.5,0.4L38.6,15.1z"/>
		<path class="st0" d="M71.4,34.4l-0.1-0.8c0.5,0.8,0.7,1.5,0.7,0.7c-0.3,0-0.5-0.7-0.8-1.3s-0.6-1.4-0.9-1.3l-0.1-0.5
			c0.1,0.1,0.1,0.1,0.2,0.3c-0.1-1-0.7-0.5-1.2-1.6c-0.2-0.4-0.2-0.7,0-0.5l-0.6-0.8c-0.1-0.2,0-0.2,0.1,0c-0.3-0.4-0.6-0.8-0.8-1.2
			l0,0c-0.2-0.1-0.6-0.4-0.8-0.6c-0.1-0.4,0.2,0.1,0.2,0c-0.2-0.2-0.4-0.4-0.6-0.6c-0.1-0.4,0.4,0.1,0.7,0.6c0-1-0.5-0.5-1.3-1.9
			l0.6,0.5c-0.1-0.6-0.6-1-1-1.8c0.1,0.2,0.8,1.7,0.1,1.1c-0.2-0.3-0.4-0.6-0.7-0.8c0.2-0.1-0.2-0.4-0.7-0.8l0.2-0.2
			c-0.5-0.4-0.6-0.3-0.9-0.4c-0.3-0.2-0.5-0.6-0.5-1c-0.8-0.7,0.4,0.7-0.7-0.1c-0.6-0.6-1.4-1.1-2.2-1.5c-0.5-0.4,0.2-0.1,0-0.3
			l-0.6-0.1c-0.1-0.1,0-0.1,0-0.1c-0.5-0.2-0.2,0.2-0.9-0.1c-0.2,0.1-0.4-0.2-0.8-0.6c-0.4-0.4-0.8-0.6-1.3-0.7
			c-0.2-0.2,0.2-0.1,0.2-0.2c-0.7-0.3-1.4-0.5-2.2-0.5L54,16.7c0.5,0.4-0.3,0.3-1.1,0.3c0.2,0.2,0.3,0.3,0.4,0.4
			c-0.4-0.1-0.7-0.2-1.1-0.2c-0.1-0.1,0-0.1,0.2-0.2h-0.2c-0.4-0.2-0.1-0.3,0.2-0.4l0.3,0.3c0.3,0,0.6-0.1,0.6-0.3
			c-0.1,0-0.3,0-0.4-0.1c0.1,0,0.2,0,0.1-0.1c-0.1,0-0.2,0-0.4,0l-0.2-0.4l-0.1,0.1l-1.5-0.6h-0.8l-0.9,0.1c-0.7,0.1-1.4,0.1-2.2,0
			c0.5-0.2,0.1-0.4,0.2-0.6c0.4,0.3,1.4,0.1,2.3,0.3c-0.5-0.1-0.3-0.2-0.2-0.2h-1.7c0.1-0.2-0.3-0.2-0.7-0.3
			c0.3,0.4-1.2,0.2-1.9,0.3c0-0.1,0.1-0.3,0.9-0.2c-0.9-0.4-1.2,0.4-2,0.1c0.2,0,0.3,0,0.4-0.1c-0.5,0.1-1.6,0.1-1.3-0.1h0.2
			c-0.3,0-0.7,0-1.2,0s-0.9,0.1-1.3,0.2c-0.8,0.2-1.5,0.3-1.6,0.5c0-0.2,0.1-0.4,0.2-0.5c-0.7,0.5-1.4,1.1-2,1.7
			c0.1-0.3-0.8-0.9,0.2-1.3c-0.5,0-0.9,0.1-1.3,0.3c0.2,0,0.6,0.3,0.3,0.4c-0.5,0-1.1,0-1.6,0c0.3,0,0.1,0.5-0.3,0.7
			c0-0.1-0.2-0.4,0-0.5c-0.4,0.3-0.7,0.6-1,0.9c0.3-0.2-0.1-0.4-0.4-0.4c0.2,0-1,0.4-1.3,0.6l0.5-0.1c-1.4,0.5-1,1.2-2.2,1.8
			c0.1-0.2,0.1-0.7-0.6-0.4c-0.1,0.2-0.3,0.6-0.5,1.1c-0.2,0.5-0.6,1-1,1.5h-0.3c-0.2,0.2-0.4,0.4-0.6,0.7c0.5-1,1-2,1.7-2.9
			c-0.5,0.2-0.2-0.1-0.9,0.4c-0.3,0.1,0.2-0.4,0.5-0.5l-1.6,1c0.1,0.1-0.1,0.4-0.4,0.6s-0.5,0.5-0.4,0.6c0.5-0.5,0.9-1,1.5-1.4
			c0.2,0.2-0.5,1.2-1.5,2.1c-0.3,0.1-0.1-0.5-0.2-0.6c-0.3,0.4-0.6,0.7-1,1l0.3-0.5c-0.6,0.4-0.7,1-1.5,1.5
			c-0.2,0.2-0.9,0.4-0.8,0.5c0.6-0.1,1.4,0.5,1.3,0.9l-1.6,1.1c-0.5,0.2,0-1-0.4-0.8c0,0.1-0.1,0.3-0.1,0.5
			c-0.2,0.2-0.1-0.2-0.5,0.3c0.1,0.3-0.9,1.1,0,0.4c-0.3,0.6-0.5,0.5-0.9,1.2c0.3-0.1,0.1,1-0.2,1.5c0-0.1-0.2,0-0.3,0l-0.5,0.8
			l-0.4,0.7c-0.3,0.4-0.5,0.9-0.8,1.4c-0.1,0.1-0.5,0.6-0.5,0.3c0,0.3,0,0.5-0.1,0.8c-0.5,0.6,0.3-0.8-0.2-0.4
			c0.1,0.1-0.2,1-0.3,1.6c0.3-0.1,0.5-1.2,0.6-1.8c0.3,0.2,0.3,1.2,0,2.5c-0.3,1-0.4,0.3-0.4,0.5c-0.2,0.6-0.3,1.2-0.2,1.8
			c0,0.5,0,1-0.2,1.5c-0.3,0.6-0.4-0.1-0.6,0c0-0.3,0.1-0.7,0.2-1c0.1-0.3,0.2-0.5,0.3-0.8l-0.3,0.7c0-0.4,0.1-0.8,0.2-1.1
			c-0.4,0.5-0.8,3.2-1.1,4.7c0,0.3,0.1,0.8,0.2,0.5v-0.5c0.2-0.4,0.2,0.9,0.3,0.3c0.1,0.7,0.2,1.5,0.1,2.2l-0.3,0.2
			c0.1-0.3,0.1-0.6,0.1-0.8c0.1,0.4-0.3,1.4,0,1.8l0.2-0.6c0.2,0.7,0.4,1.4,0.4,2.2c0.2-0.4,0-0.2,0.2-0.7c-0.4,0.5,0-2-0.4-1.2
			c0.4-0.6,0.1-1,0.4-1.7c-0.1,0-0.2,0.2-0.1-0.4c0,0-0.1-0.1-0.1-0.1l0,0l0,0c0,0.1-0.1,0.2-0.1,0.3c-0.1-0.6-0.2-1.2-0.2-1.7
			c0.1-0.4,0.1,0.2,0.2,0c0-0.2-0.1-0.4-0.1-0.5c0.2,0,0.5-1,0.4-0.1l0.1-0.9c0.2-0.5,0.3-1,0.3-1.5c0.1-0.4,0.1-1,0.1-0.6l0.2-1.3
			l0,0c0.1-0.6,0.4-1.2,0.5-1.9c0.2-0.7,0.5-1.3,1-1.9c0.2-0.5,0.4-1,0.7-1.4l0.2,0c0.2-0.5,1-1.3,1-1.6c0.4-0.1,0.7-0.7,1.1-1.2
			s0.8-1.2,1.2-1.5l-0.1-0.2c0.4-0.5,0.9-1,1.4-1.6l-0.2-0.1c0.4-0.6,1.5-1.1,2.3-1.9c0,0.1-0.2,0.3-0.4,0.4
			c0.3-0.1,0.6-0.3,0.9-0.6c0.3-0.2,0.5-0.4,0.8-0.7c0.5-0.5,1-0.9,1.6-1.1c0.2-0.2,0.4-0.3,0.6-0.4c0,0,0,0-0.1,0l0.1-0.1l0.4-0.1
			l-0.4,0.1c0.3-0.2,0.5-0.3,0.8-0.5l0.2,0.1l0.1,0c0.3-0.1,0.2-0.2,0-0.3c0.1-0.1,0.3-0.2,0.4-0.3c0.4,0.2,0.8-0.5,1.3-0.3
			c0.3-0.2,0.5-0.4,0.8-0.5c0.4-0.2,0.8-0.4,0.8-0.6c0,0,0.1,0,0,0.1c0.4-0.1,0.8-0.2,1.1-0.4l0.2,0.2c0.2-0.2,0.5-0.4,0.7-0.6
			c0.5,0,0.8,0.1,0.3,0.4c1.2-0.6,1-0.3,1.9-0.8v0.2c0.4,0,1-0.3,1.2-0.2c0.9,0.1,4.2-0.3,6.3,0.3c-0.2-0.2,0.1-0.2,0.4-0.1
			s0.7,0.3,0.7,0.1c0.1,0.1,0.4,0.2,0,0.3c0.8,0.2,1.6,0.3,2.4,0.3c0.1,0.1-0.3,0.1-0.2,0.2c0.2,0,0.3,0,0.5,0.1
			c0.1,0.1-0.2,0-0.4,0.1c1.1,0.3,1.3,0,1.5-0.3c0.4,0.3,0.8,0.4,1.2,0.3c0.2,0.2,0.4,0.4-0.2,0.2c0.4,0.2,2.2,1,2.3,0.8
			c0.2,0.1,0.4,0.2,0.6,0.3c0.8,0.4,0.8,0.5,1.6,0.9l-0.2-0.1c0.5-0.1,0.7,0.3,1.3,0.7l0,0c1.2,1.1,0.7,0.2,1.8,1.4l0-0.2
			c0.4-0.2,1,1.1,1.8,1.5l-0.2-0.3c0.5,0.2,0.6,1.4,1,1.8c0,0.1-0.2-0.1-0.3-0.2c0.8,1.1,0.3-0.1,1,0.6c0,0.2-0.4,0.1,0,0.6
			c0.1,0.3,1.6,1.1,1.9,2c0-0.2,0-0.5,0.3-0.1c0.4,0.6,0.8,1.8,1.3,2.1c0,0.1,0,0.1,0,0.2c0.4,0.6,0.8,1.1,1.3,1.7
			c-0.4,0.7,1.7,3,1,3.2l0.5,1.6h-0.1c0.1,0.6,0.3,1.2,0.7,1.7c0,0.2-0.1,0.1-0.1,0.1c0.1,1,0.3,2,0.7,2.9L71.1,41
			c0.2,0.3-0.2,2.2,0,3.7c0,0-0.1,0-0.1-0.2c0,0.9-0.1,1.8-0.3,2.7c-0.2,0.9-0.4,1.6-0.1,2c0,0.4,0,0.8-0.1,1.1
			c0.5-1.4,0.3,0.3,0.6-0.3c-0.1,0.6-0.6,1.4-0.5,0.7l0.1-0.1c-0.3-0.4-0.6,1.7-0.9,1.6c-1,2.6-2.3,5-4,7.2c0.2,0,0.3,0,0.4-0.1
			c-0.2,0.2-0.4,0.5-0.6,0.7s-0.4,0.1,0-0.4c-0.3,0.2-0.5,0.6-0.5,1c-0.9,1,0-0.6-0.2-0.3L64.6,61l0.1-0.1c-0.2,0.4-0.1,0.6-0.7,1.1
			c-0.4,0.3-0.3,0.1-0.5,0.2c0,0-0.1,0-0.2,0.2l-0.8,0.8l0.5-0.2c-0.3,0.5-0.8,0.8-0.2,0.6c-0.8,0.4-1.5,0.9-2.1,1.5
			c-0.6,0.5-1.3,0.9-1.9,1.3c-0.6,0.6-1.3,1-2,1.3c0.2-0.1,0.5,0.1-0.2,0.4c0-0.3-0.3-0.2-0.8,0c-0.4,0.2-0.9,0.3-1.3,0.3
			c0.3,0-0.2,0.2-0.7,0.5s-0.9,0.4-0.4,0.4c-0.6,0.2-0.1-0.2-0.6-0.2c-1.4,0.7-3.3,0.8-5.1,1.1c0,0.1,0.3,0.2-0.1,0.3l-1-0.2
			c-0.4,0.1-0.3,0.5-1,0.2c0.1,0.1,0.2,0.2,0,0.2c-1.9-0.1-3.8-0.1-5.7-0.4c-0.9-0.1-1.9-0.3-2.8-0.6c-0.5-0.2-0.9-0.3-1.3-0.5
			c-0.4-0.2-0.9-0.4-1.2-0.7c0.4,0.3,0.1,0.2-0.3,0.1c0.2,0.1-0.1,0.2-0.1,0.3c-0.5-0.3-0.9-0.5-1.4-0.8c-0.4,0.1-1.5-0.8-1.8-0.6
			l0.5,0.2c-0.8,0,0.5,1,0.3,1.4c0.8,0.1,1.7,1.3,3.1,1.3c0.2,0.2-0.3,0-0.2,0.2c0.5,0,1,0.1,1.4,0.3h-0.1c1.7,0.5,3.4,0.9,5.1,1.2
			L40.9,72c0.3,0,0.6,0.1,0.8,0.2c0.6-0.3-1.4-0.1-0.8-0.4c0.6,0.2,1.3,0.4,2,0.4c0.8,0.1,1.7,0,1.9,0.2c0.8,0-0.2-0.2,0.5-0.2
			l0.2,0.1l0.2-0.2c0.5,0,0.8,0.1,0.8,0.2c-0.2,0-0.3,0.1-0.5,0.1c0.7,0,1.3-0.1,2-0.2h-0.7c2.2-0.3,4.4-0.8,6.4-1.7h-0.2
			c1.4-0.7,1.2-0.4,2.7-1.1l0,0c0.3-0.3,0.7-0.5,1-0.7c-0.3,0.3,0.8-0.2,0.4,0.2c1.4-1,0.7-0.5,1.4-1.4h0.3c0.2-0.4,0.5-0.7,0.9-0.9
			c-0.5,0.5,0.6-0.1,0,0.5c0.4-0.2,0.7-0.4,1-0.6c0.2-0.2,0.4-0.4,0.7-0.6c0.3-0.4,0.7-0.7,1.2-0.8c0.3-0.8-1.3,0.8-1,0.4
			c-0.4,0.1,0.3-0.7,0.7-1c0.8-0.3,1.5-0.7,2.1-1.3c-0.1,0.1-0.1,0.1-0.2,0.2c0.4-0.3,0.7-0.8,1.2-1.2c0-0.5,0.6-0.7,0.4-0.9
			l-0.8,1.1c0.3-0.8,0.8-1.6,1.4-2.2c-0.1,0.2-0.2,0.5-0.3,0.7c0.3-0.2,0.4-0.5,0.7-0.8c0.2,0.3-0.9,1.3-1.2,2.1
			c0.3-0.2,0.8-1.3,0.8-0.8c0-0.4,0.2-0.7,0.5-0.9c0.3-0.3,0.5-0.7,0.6-1.2l0.1,0.2c0.1-0.2,0.2-0.5,0.3-0.7l-0.1,0.6
			c0.2-0.8,1-1.2,1.2-1.9c-0.7,1.4-0.4,0.2-0.8,0.7c0.7-1.8,1-0.7,1.9-2.7c-0.1,0.3-0.6,1-0.5,0.5s0.5-0.8,0.7-1
			c0.5-1.4-0.3,0.1-0.2-0.5c0.4-0.4,0.2-0.7,0.3-1.3l0.2,0.1c0.7-1.5-0.3-0.5,0.3-1.9l0.1,0.7l0.1-0.8l0.2,0.2
			c0.1-0.6,0.2-1.3,0.4-1.9c-0.2,0.2-0.3-0.2-0.2-0.9c0.2-0.5,0.1,0.3,0.3-0.7c0.1,0.3,0.1,0.6-0.1,0.9c0,0.1,0.1,0.2,0.1,0.3
			c0.2-0.5,0.3-1.1,0.3-1.7c0,0.1-0.1,0.3-0.1,0.4c0-0.5,0-1-0.1-1.5c0.1-0.2,0.1,0,0.2,0.2c0-0.3-0.1-0.5-0.1-1
			c0.2,0.1,0.3,0.1,0.3,0.8l0-1.4c0.1-0.1,0.2-0.7,0.3-0.5c0.1-0.8-0.3-2-0.3-3c-0.1-0.1-0.1-0.2-0.1-0.4c0-1-0.1-2-0.4-3l0.1-0.7
			c-0.3-0.9-0.2,1-0.6-0.5c-0.3-1,0.2-0.5,0.1-0.8c-0.5-0.7-0.9-1.4-1-2.3C71.3,33.8,71.3,34.1,71.4,34.4z M65.8,24.7
			c0.2,0.1,0.6,0.4,0.6,0.6C66,25.2,66,25,65.8,24.7z M51.5,16.2c0.2,0,0.5,0.1,0.6,0.2C51.9,16.4,51.7,16.3,51.5,16.2z M17.5,38.4
			L17.5,38.4C17.6,37.9,17.6,38.1,17.5,38.4L17.5,38.4z M17.2,39.3C17.2,39.4,17.2,39.4,17.2,39.3c0-0.1,0.1-0.3,0.1-0.5
			C17.3,38.9,17.2,39,17.2,39.3L17.2,39.3z M63.5,62.3l0.2-0.1C63.4,62.5,63.5,62.4,63.5,62.3L63.5,62.3z"/>
		<path class="st0" d="M53.4,16.5c0,0,0,0.1,0,0.1C53.5,16.6,53.5,16.6,53.4,16.5z"/>
		<path class="st0" d="M73,41.2L73,41.2L73,41.2z"/>
		<path class="st0" d="M21.9,25.1c0.1-0.1,0.2-0.2,0.3-0.2C22.3,24.8,22.1,24.8,21.9,25.1z"/>
		<path class="st0" d="M17.3,44.3l-0.1-0.6c0,0.2,0,0.4,0,0.5C17.2,44.2,17.3,44.1,17.3,44.3z"/>
		<path class="st0" d="M16.7,49.7c0,0.1,0.1,0.2,0.1,0.3h0.1C16.8,49.5,16.7,49.3,16.7,49.7z"/>
		<path class="st0" d="M16.6,44.9c-0.1,0-0.1,0.4,0,0.9v-0.1C16.8,45.8,16.7,45.3,16.6,44.9z"/>
		<path class="st0" d="M16.6,45.8c0,0.1,0,0.3,0,0.4S16.7,46.1,16.6,45.8z"/>
		<path class="st0" d="M17.2,40.5c0,0.2,0.2,0.2,0.1,0.3C17.5,41,17.2,39.4,17.2,40.5z"/>
		<polygon class="st0" points="16.1,45.2 16.3,45.1 16.1,44.8 		"/>
		<path class="st0" d="M16.2,41.8l-0.1,0.7c0,0,0,0.1,0.1,0.2C16.2,42.3,16.3,41.8,16.2,41.8z"/>
		<path class="st0" d="M16.2,42.7c0,0.2,0,0.4,0,0.6V42.7z"/>
		<polygon class="st0" points="16,44.3 16,44.1 16,43.6 		"/>
		<path class="st0" d="M17.7,34.5l0.2-0.7c0-0.1-0.2,0.1-0.2,0.3S17.6,34.6,17.7,34.5z"/>
		<path class="st0" d="M16.5,36.6c0.1-0.1,0.1-0.2,0.2-0.3l-0.2-0.1V36.6z"/>
		<path class="st0" d="M17.1,34.4c0-0.1,0.2-1.1-0.1-0.2C17,34.3,16.8,35,17.1,34.4z"/>
		<polygon class="st0" points="23.2,24.6 23.1,24.8 23.4,25 		"/>
		<path class="st0" d="M30.9,17.6c-0.9,0.4-0.1,0.3-0.9,0.6c-0.1,0.2,0.7-0.2,0.5-0.1C30.9,17.8,31.2,17.7,30.9,17.6z"/>
		<path class="st0" d="M30.5,18.2l-0.2,0.2C30.3,18.3,30.4,18.2,30.5,18.2z"/>
		<polygon class="st0" points="31.9,67.5 31.4,67.2 31.7,67.5 		"/>
		<path class="st0" d="M30.8,67.3V67l-0.4,0.1C30.5,67.1,30.7,67.2,30.8,67.3z"/>
		<path class="st0" d="M65.1,23.1L65.1,23.1c-0.1,0.1,0,0.2,0.2,0.4L65.1,23.1z"/>
		<polygon class="st0" points="69.8,29.9 69.7,29.8 69.6,30.1 		"/>
		<path class="st0" d="M72.6,36.2c-0.1-0.3-0.2-0.6-0.3-0.9C72.5,36,72.3,36.4,72.6,36.2z"/>
		<path class="st0" d="M66.6,10.1c-0.3-0.2-0.3,0.1-0.4,0.1C66.8,10.5,66.7,10,66.6,10.1z"/>
		<polygon class="st0" points="71.8,13.5 71.7,13.5 72.6,14 		"/>
		<path class="st0" d="M75.9,17.8c0-0.7-1.5-1.5-2-2.4v-0.2l-0.6-0.1C74.2,15.9,75.1,16.8,75.9,17.8z"/>
		<path class="st0" d="M76.9,20.9c0-0.2,0.5,0.5-0.4-0.6c0,0,0,0.1,0,0.1L76.9,20.9z"/>
		<path class="st0" d="M76.6,20.4C76.2,19.9,76.7,20.8,76.6,20.4z"/>
		<path class="st0" d="M78.2,22.6L77.7,22c0,0.2,0.3,0.8,0.1,0.6C78.3,23.3,78.3,23.1,78.2,22.6z"/>
		<path class="st0" d="M78.9,23.1l-0.3-0.3C78.6,22.9,78.7,23,78.9,23.1z"/>
		<path class="st0" d="M78,22.1l0.6,0.7c0-0.1,0.1-0.2-0.2-0.3C78.5,22.5,78.3,22.4,78,22.1z"/>
		<path class="st0" d="M77.8,21.7c-0.1-0.5-0.4-1,0.1-0.4C77,20.1,77,20.4,77.8,21.7z"/>
		<path class="st0" d="M76.4,17.7c-0.1-0.2-0.2-0.4-0.3-0.6l-0.5-0.3c0.2,0.2,0.3,0.3,0.4,0.5C76.3,17.6,76.4,17.8,76.4,17.7z"/>
		<path class="st0" d="M80.3,27.1c0.1,0,0.1-0.4,0.2-0.5l-0.3-0.5C80.2,26.5,80.4,27,80.3,27.1z"/>
		<path class="st0" d="M80.5,26.7l0.5,0.7C80.7,26.7,80.6,26.6,80.5,26.7z"/>
		<polygon class="st0" points="79.4,23 78.3,21.9 79.5,23.2 		"/>
		<polygon class="st0" points="81.5,30.2 81.2,29.8 81.8,30.6 		"/>
		<path class="st0" d="M82.3,32.3c-0.3-0.3-0.2,0.6-0.4,0.2c0.2,0.5,0.4,1,0.7,1.5C82.4,33.5,82.3,32.9,82.3,32.3z"/>
		<path class="st0" d="M83,34.7c-0.1-0.2-0.2-0.5-0.4-0.7C82.7,34.2,82.8,34.5,83,34.7z"/>
		<path class="st0" d="M81.6,28.8c-0.1,0.2-0.1,0.5,0,0.8l0.1-0.4L81.6,28.8z"/>
		<path class="st0" d="M81.7,29.1L81.7,29.1l0.2,0.7L81.7,29.1z"/>
		<path class="st0" d="M81.5,28.7L81.5,28.7C81.5,28.8,81.6,28.8,81.5,28.7z"/>
		<path class="st0" d="M80.3,25.2c0.3,0.4,1,1.3,0.7,0.3C80.7,25.2,80.8,25.8,80.3,25.2z"/>
		<path class="st0" d="M81.7,28.2c-0.1-0.3-0.2-0.6-0.3-0.9c-0.1,0-0.1,0.2-0.3,0C81.3,27.6,81.5,27.9,81.7,28.2z"/>
		<polygon class="st0" points="81.9,28.6 81.7,28.2 81.8,28.5 		"/>
		<path class="st0" d="M82.8,33.1c0.2,0.4,0.4,0.8,0.5,1.3c-0.1-0.5-0.2-1.1-0.3-1.6C82.9,32.7,82.7,32.5,82.8,33.1z"/>
		<path class="st0" d="M82.4,31.1L82.4,31.1C82.4,31.2,82.4,31.1,82.4,31.1z"/>
		<polygon class="st0" points="84.2,39.2 84.2,39.2 84.2,39.2 		"/>
		<path class="st0" d="M83,32.7c0-0.3-0.1-0.6-0.3-0.8C82.8,32.1,82.9,32.4,83,32.7C83,32.8,83.1,32.8,83,32.7z"/>
		<path class="st0" d="M83.4,36c0-0.2,0-0.5,0-0.7C83.4,35.5,83.3,36,83.4,36z"/>
		<path class="st0" d="M82.4,31.4L82.4,31.4C82.3,31.5,82.4,31.4,82.4,31.4z"/>
		<path class="st0" d="M82.4,31.4c0.1,0.2,0.2,0.3,0.3,0.5c-0.1-0.2-0.2-0.4-0.3-0.6C82.4,31.3,82.4,31.3,82.4,31.4z"/>
		<path class="st0" d="M86,40.6c-0.3-0.1-0.5-1.1-0.4-2.1c-0.3-0.9-1-0.2-1.4,0.7c0.1,0,0.2,0,0.4,0.9c0.2-0.3,0.1-2.1,0.4-1.3
			c0.3,1.2,0,1-0.1,1.7c0.3-0.5,0.5,1.6,1,1.3l-0.2-1.1C85.8,40.5,85.9,40.9,86,40.6z"/>
		<path class="st0" d="M84,37.4L83.9,37c0,0.5,0,0.9-0.1,1.4c0.2,0.6,0.3,0.7,0.4,0.8l-0.2-1.9L84,37.4z"/>
		<path class="st0" d="M83.6,35.3c0.4,0.2,0.6,1.1,0.8,0.5c-0.2-1.1-0.4-0.7-0.7-1.4C84.2,36.2,83.4,34,83.6,35.3
			c-0.1-0.3-0.2-0.6-0.3-0.9c0,0.3,0.1,0.6,0.1,0.9l0,0l0,0c0-0.1,0-0.1,0,0s0,0,0,0L83.6,35.3c0,0.6-0.1,0.1-0.2,0l0,0
			c0.2,0.6,0.3,1.1,0.5,1.7C83.8,36.4,83.7,35.9,83.6,35.3z"/>
		<path class="st0" d="M82,26.1C82,26.2,82,26.2,82,26.1C82,26.2,82.1,26.3,82,26.1z"/>
		<path class="st0" d="M82.1,26.9c-0.2-0.2-0.3-0.4-0.4-0.6c-0.1-0.4,0.1,0,0.2-0.1c-0.2-0.2-0.6-0.8-0.3,0l0.1,0.1
			c0.2,0.5,0.3,1.1,0.2,1.7C82.1,27.7,82.2,27.3,82.1,26.9z"/>
		<path class="st0" d="M83.2,31.1c0.2,0.5,0.4,1,0.6,1.4v-0.8l-0.1,0.1C83.4,31,83.3,31.2,83.2,31.1z"/>
		<path class="st0" d="M84.1,39.4l-0.3-0.2c0.2,0.3,0.3,0.5,0.5,0.8L84.1,39.4z"/>
		<polygon class="st0" points="84.2,41.4 83.9,41.3 84.1,41.8 		"/>
		<path class="st0" d="M4.9,62.3l-0.3-0.4C4.7,62,4.8,62.2,4.9,62.3z"/>
		<path class="st0" d="M6.5,65.3h0.2C6.5,65.2,6.4,65.2,6.5,65.3z"/>
		<path class="st0" d="M60.7,80.2c-0.7,0.1-1.5,0-1.3,0.3l0.3,0.2C60,80.4,60.4,80.3,60.7,80.2z"/>
		<path class="st0" d="M28,82.3l0.1,0.2l0.5-0.1C28.4,82.4,28.2,82.4,28,82.3z"/>
		<path class="st0" d="M27.1,83.2l-0.8-0.6C26.6,82.8,26.8,83,27.1,83.2z"/>
		<path class="st0" d="M0.3,44.1c-0.1-0.2-0.2-0.4-0.3-0.6C0,44.4,0.2,44,0.3,44.1z"/>
		<path class="st0" d="M80.4,60.9c-0.3,0.4-0.5,0.8-0.7,1.2C80.1,61.6,80.5,61.2,80.4,60.9z"/>
		<path class="st0" d="M8,62.2c-0.2-0.2-0.3-0.3-0.3-0.3C7.8,62.2,8,62.3,8,62.2z"/>
		<path class="st0" d="M78.9,63.5l0.2-0.2c0.2-0.4,0.4-0.7,0.6-1.2C79.3,62.5,79,63,78.9,63.5z"/>
		<path class="st0" d="M43.8,0h0.2C43.9,0,43.8,0,43.8,0z"/>
		<path class="st0" d="M61.8,7c-0.2-0.1-0.5-0.2-0.7-0.3C61.4,6.8,61.6,6.9,61.8,7z"/>
		<path class="st0" d="M83.7,49.2C83.7,48.8,83.7,49.2,83.7,49.2z"/>
		<path class="st0" d="M85.1,47.3c0,0.1,0,0.2,0.1,0.2C85.1,47.5,85.1,47.4,85.1,47.3z"/>
		<path class="st0" d="M78,68L78,68C78.1,67.9,78.1,67.9,78,68z"/>
		<path class="st0" d="M84,48.6c-0.1,0.2-0.1,0.3-0.2,0.5C83.9,49,84,48.8,84,48.6z"/>
		<path class="st0" d="M83.8,48.7l0.1-0.3C83.8,48.3,83.8,48.3,83.8,48.7z"/>
		<path class="st0" d="M83.7,49.8c0-0.2,0.1-0.4,0.1-0.7c0,0.1-0.1,0.1-0.1,0.1L83.7,49.8z"/>
		<path class="st0" d="M11.9,15.4L11.9,15.4C12.2,14.9,12,15.1,11.9,15.4z"/>
		<path class="st0" d="M50.8,86.1L50.8,86.1L50.8,86.1L50.8,86.1z"/>
		<path class="st0" d="M49.3,86.5c0.4-0.3,1-0.5,1.5-0.5l-0.6-0.7L49.3,86.5z"/>
		<path class="st0" d="M2,54.5v1.2c-0.7-1.2-0.8-2.2-0.9-1.1c0.4,0,0.7,1.1,1.1,2.1s0.8,2.1,1.2,2l0.1,0.8c-0.1-0.2-0.1-0.2-0.2-0.4
			c0.1,1.5,1,0.8,1.6,2.5c0.2,0.6,0.3,1.1,0,0.7l0.8,1.2c0.2,0.4,0,0.4-0.2,0c0.3,0.6,0.8,1.3,1.2,1.9l0,0c0.4,0.3,0.7,0.6,1.1,1
			c0.2,0.5-0.2-0.2-0.2,0C7.7,66.7,8,67,8.3,67.3c0.1,0.3-0.1,0.2-0.3,0c-0.3-0.3-0.5-0.6-0.7-1c-0.1,0.4,0.1,0.9,0.4,1.2
			c0.6,0.5,1,1.1,1.3,1.8l-0.8-0.9c0.1,0.9,0.7,1.5,1.3,2.8c-0.1-0.4-1-2.6,0-1.7c0.2,0.5,0.6,0.9,1,1.2c-0.2,0.2,0.3,0.7,0.9,1.3
			L11,72.3c0.7,0.6,0.8,0.4,1.3,0.7c0.4,0.4,0.6,1,0.6,1.5c1.2,1.2-0.5-1.1,1,0.2c0.4,0.5,0.9,0.9,1.4,1.3c0.6,0.4,1.2,0.8,1.8,1.2
			c0.7,0.7-0.3,0.1-0.1,0.4l0.9,0.3c0.2,0.1,0,0.2,0,0.2c0.7,0.3,0.3-0.3,1.3,0.3c0.2-0.1,0.6,0.4,1.1,0.9c0.5,0.6,1.2,1,1.9,1.2
			c0.2,0.3-0.3,0.1-0.2,0.3c1,0.5,2.1,0.9,3.2,1l1.1,0.8c-0.8-0.7,0.5-0.5,1.6-0.3c-0.3-0.3-0.5-0.5-0.6-0.7
			c0.5,0.2,1.1,0.4,1.7,0.5c0.2,0.1,0,0.2-0.4,0.3H29c0.5,0.3,0.1,0.5-0.4,0.5l-0.5-0.4c-0.5,0-1,0.1-1,0.4c0.2,0,0.4,0.1,0.6,0.1
			c-0.1,0-0.2,0-0.2,0.1s0.2,0.1,0.5,0.1l0.2,0.6l0.2-0.1l2.1,1l1.3,0.1l1.3-0.1c1.1,0,2.2,0,3.2,0.2c-0.7,0.2-0.2,0.5-0.3,0.9
			c-0.6-0.5-2-0.3-3.3-0.7c0.7,0.2,0.5,0.3,0.3,0.4l2.5,0.2c-0.1,0.3,0.5,0.4,1.1,0.6c-0.4-0.7,1.9-0.2,2.9-0.2
			c0,0.2-0.2,0.4-1.4,0.2c1.3,0.6,1.8-0.4,3.1,0c-0.3,0-0.5,0-0.6,0.1c0.7-0.2,2.4,0.1,2,0.2h-0.3c0.5,0,1.1,0.1,1.8,0.1
			s1.3-0.1,2-0.2c1.3-0.2,2.3-0.3,2.5-0.6c0,0.3-0.1,0.5-0.3,0.8c1.1-0.7,2.2-1.5,3.2-2.3c-0.2,0.5,1.2,1.4-0.4,1.9
			c0.7,0,1.4-0.1,2-0.4c-0.3,0-0.9-0.5-0.5-0.6c0.8,0.1,1.6,0.2,2.4,0.1c-0.5,0-0.2-0.8,0.6-1c-0.1,0.1,0.2,0.7,0,0.8
			c0.6-0.4,1.1-0.8,1.6-1.2c-0.4,0.3,0.1,0.6,0.6,0.6c-0.2-0.1,1.5-0.5,2-0.8l-0.8,0.1c2.1-0.6,1.6-1.7,3.5-2.5
			C62,81.6,62,82.5,63,82.1c0.1-0.3,0.5-0.8,0.9-1.6c0.4-0.8,1-1.5,1.6-2.1h0.4c0.4-0.3,0.7-0.6,1-0.9c-0.3,0.7-0.7,1.4-1.2,2
			c-0.5,0.8-1.1,1.5-1.7,2.2c0.8-0.2,0.3,0.1,1.3-0.5c0.5-0.1-0.4,0.6-0.7,0.8l2.5-1.3c-0.2-0.2,0.2-0.5,0.7-0.9s0.8-0.8,0.6-0.9
			c-0.7,0.7-1.5,1.4-2.3,2c-0.2-0.2,0.1-0.6,0.5-1.2c0.3-0.3,0.6-0.6,0.9-0.9c0.3-0.3,0.7-0.6,1.1-0.9c0.5-0.2,0.1,0.8,0.2,0.9
			c0.4-0.5,1-1,1.6-1.3l-0.5,0.7c0.4-0.3,0.8-0.6,1.1-1c0.3-0.5,0.7-0.8,1.2-1.1c0.3-0.3,1.4-0.5,1.3-0.8c-0.9,0.2-2-0.9-1.9-1.4
			l1.1-0.7c0.6-0.3,1.1-0.7,1.4-0.8c0.8-0.3-0.1,1.4,0.6,1.2c-0.1-0.1,0.1-0.5,0.2-0.7c0.4-0.3,0.1,0.4,0.8-0.4
			c-0.2-0.4,1.4-1.5,0.1-0.6c0.6-0.8,0.8-0.7,1.5-1.7c-0.4,0.1-0.1-1.4,0.4-2.3c0,0.1,0.3,0,0.4,0c0.3-0.4,0.6-0.8,0.9-1.1l0.7-1
			c0.4-0.6,0.9-1.2,1.3-2.1c0.2-0.1,0.8-0.8,0.7-0.4c0-0.4,0.1-0.8,0.3-1.1c0.8-0.9-0.5,1.2,0.3,0.6c-0.2-0.2,0.3-1.5,0.6-2.4
			c-0.5,0.1-0.9,1.7-1.1,2.6c-0.5-0.2-0.3-1.8,0.2-3.7c0.5-1.5,0.6-0.5,0.6-0.8c0.4-0.8,0.5-1.7,0.5-2.6c0-0.8,0.2-1.5,0.5-2.2
			c0.6-0.8,0.7,0.1,0.9,0c0,0.5-0.2,1-0.4,1.5c-0.2,0.4-0.4,0.7-0.6,1.1l0.5-1c-0.1,0.6-0.2,1.1-0.5,1.7c0.6-0.7,1.6-4.7,2.1-7
			c-0.1-0.4-0.1-1.1-0.2-0.8l-0.1,0.7c-0.3,0.6-0.2-1.4-0.4-0.5c0-0.5-0.1-1-0.1-1.6c0-0.3,0-0.6,0-0.9c0-0.3,0-0.6,0.1-1l0.4-0.2
			c-0.2,0.4-0.2,0.8-0.2,1.2c-0.1-0.6,0.6-2,0.1-2.7l-0.3,0.9c-0.2-1.1-0.4-2.2-0.4-3.3c-0.3,0.5,0.1,0.3-0.3,1.1
			c0.6-0.7-0.2,3,0.5,1.8c-0.6,0.8-0.2,1.5-0.8,2.5c0.1,0,0.3-0.4,0.1,0.6c0,0.1,0.1,0.1,0.1,0.2v0.1l0,0l0,0c0-0.2,0.1-0.3,0.3-0.5
			c0.1,0.9,0.1,1.7,0.1,2.6c-0.1,0.6-0.1-0.3-0.3,0c0,0.3,0.1,0.5,0.1,0.8c-0.3,0-0.8,1.4-0.7,0l-0.3,1.2c-0.3,0.7-0.6,1.5-0.6,2.3
			c-0.2,0.5-0.2,1.5-0.2,0.9l-0.5,1.9h-0.1c-0.3,0.9-0.6,1.8-1,2.8c-0.3,1-0.9,1.9-1.6,2.7c-0.3,0.7-0.7,1.4-1.1,2.1h-0.3
			c-0.3,0.8-1.6,1.8-1.6,2.3c-0.3,0.1-0.6,0.4-0.8,0.6c-0.3,0.3-0.6,0.7-1,1.1c-0.7,0.8-1.4,1.7-1.9,2.2l0.2,0.3
			c-0.7,0.7-1.4,1.4-2.2,2.3l0.2,0.2c-0.6,1-2.3,1.6-3.6,2.6c0-0.2,0.4-0.4,0.7-0.5c-0.5,0.2-1,0.4-1.4,0.7
			c-0.4,0.3-0.8,0.6-1.3,0.9c-0.7,0.7-1.6,1.2-2.5,1.5c-0.3,0.2-0.6,0.4-1,0.5c0,0,0.1,0,0.1-0.1L61.3,80l-0.6,0.1
			c0.2,0,0.4,0,0.5-0.1c-0.4,0.2-0.8,0.4-1.2,0.7l-0.3-0.2l-0.1,0.1c-0.5,0.1-0.3,0.3,0,0.4c-0.2,0.2-0.4,0.3-0.6,0.4
			c-0.6-0.3-1.2,0.6-2,0.3c-0.4,0.3-0.8,0.6-1.3,0.7c-0.6,0.2-1.2,0.5-1.3,0.8c0-0.1-0.2-0.1,0.1-0.1c-0.6,0-1.1,0.2-1.7,0.4
			l-0.3-0.3c-0.4,0.3-0.8,0.5-1.2,0.8c-0.8-0.1-1.2-0.2-0.4-0.6c-1.8,0.7-1.5,0.4-3,1.1l0.1-0.2c-0.6,0-1.5,0.4-1.8,0.2
			c-1.3-0.3-6.3,0-9.5-1c0.2,0.4-0.1,0.3-0.6,0.1s-1-0.5-1.1-0.2c-0.2-0.2-0.6-0.4,0-0.4c-1.7-0.2-2.3-0.8-3.5-0.8
			c-0.1-0.2,0.4-0.1,0.3-0.3c-0.1,0-0.5,0-0.7-0.2s0.3-0.1,0.5,0c-1.6-0.5-1.9-0.1-2.2,0.3c-0.3-0.2-0.6-0.4-0.9-0.5
			c-0.3-0.1-0.6-0.1-0.9-0.1c-0.2-0.3-0.6-0.6,0.4-0.2c-0.5-0.3-3.2-1.7-3.4-1.4c-0.2-0.2-0.5-0.4-0.9-0.5c-1.1-0.7-1.2-0.8-2.4-1.4
			l0.3,0.2c-0.7,0.2-1-0.5-1.9-1.1h0.1c-0.4-0.4-0.8-0.8-1.3-1.1c-0.2-0.1-0.3-0.2-0.4-0.3c-0.3-0.3-0.6-0.6-0.8-0.9L17.1,75
			c-0.6,0.3-1.3-1.7-2.5-2.5l0.2,0.5c-0.8-0.4-0.8-2.2-1.3-2.8c-0.1-0.2,0.2,0.1,0.4,0.3c-1-1.7-0.5,0.1-1.5-1c0-0.3,0.6-0.1,0-0.9
			c-0.3-0.5-0.8-0.9-1.2-1.3c-0.6-0.5-1.1-1.2-1.4-2c0,0.3,0,0.7-0.4,0.2c-0.6-0.9-1-2.7-1.8-3.3c0-0.2,0-0.2,0-0.2
			C7,61,6.4,60.1,5.8,59.3c0.3-0.5-0.2-1.7-0.7-2.7c-0.3-0.5-0.5-0.9-0.6-1.4c-0.1-0.4-0.1-0.7,0.2-0.7L4.1,52h0.1
			c-0.1-0.9-0.4-1.8-0.8-2.6c0-0.4,0.1-0.1,0.2-0.1c0-1.5-0.3-3-0.7-4.5l0.3-0.2c-0.1-0.7,0-1.5,0.1-2.2c0.1-0.5,0.1-1.1,0.2-1.7
			s0-1.2,0-1.8c0,0,0.1,0.1,0.1,0.3c0-0.7,0.1-1.3,0.2-2c0.1-0.7,0.3-1.3,0.5-2C4.7,34,5,33,4.6,32.4c0.1-0.6,0.1-1.1,0.3-1.7
			C4,32.8,4.5,30.2,4,31c0.2-0.9,1.1-2,0.8-1l-0.1,0.1c0.4,0.6,1.1-2.5,1.5-2.3c1.7-3.8,4-7.3,6.7-10.5c-0.2,0-0.4,0-0.6,0.1
			c0.3-0.4,0.6-0.7,1-1s0.6-0.1-0.1,0.6c0.5-0.4,0.8-0.9,0.9-1.5c1.4-1.3-0.1,0.9,0.3,0.5l0.5-0.6l-0.2,0.1c0.2-0.3,0.2-0.5,0.3-0.7
			c0.2-0.3,0.4-0.6,0.8-0.9c0.6-0.4,0.5-0.1,0.7-0.2c0,0,0.1,0,0.4-0.3l1.3-1.1l-0.8,0.2c0.5-0.7,1.3-1.1,0.4-0.9
			c1.2-0.5,2.3-1.2,3.3-2c1-0.7,2-1.3,3-1.8c0.2-0.2,0.4-0.4,0.6-0.6c0.2-0.2,0.5-0.3,0.7-0.4C26,6.5,26.6,6.3,27.2,6
			c-0.3,0.1-0.7-0.2,0.4-0.7c0,0.5,0.5,0.3,1.2,0.1c0.7-0.2,1.4-0.3,2.1-0.3c-0.5,0,0.3-0.3,1-0.6c0.7-0.3,1.4-0.5,0.7-0.6
			c1-0.2,0.2,0.3,0.9,0.3c2.2-0.9,5-0.9,7.8-1.2c0-0.1-0.5-0.2,0.2-0.5L42.8,3c0.6-0.1,0.5-0.7,1.5-0.3c-0.1-0.1-0.4-0.2,0-0.3
			C47.2,2.8,50,3,52.8,3.5c1.4,0.3,2.8,0.7,4.2,1.2c0.7,0.3,1.3,0.5,2,0.8c0.6,0.3,1.2,0.7,1.8,1.1c-0.6-0.5-0.1-0.3,0.4-0.1
			c-0.3-0.2,0.1-0.2,0.1-0.4c0.7,0.5,1.3,0.9,2,1.4c0.6-0.1,2.2,1.3,2.6,1.1l-0.7-0.3c1.1,0.1-0.7-1.6-0.3-2.1
			c-0.3-0.1-0.6-0.2-0.9-0.4c-0.3-0.2-0.7-0.4-1-0.7c-0.7-0.6-1.6-1-2.5-1.1c-0.3-0.3,0.4,0,0.2-0.2c-0.7,0-1.5-0.2-2.1-0.6h0.1
			c-1.5-0.5-2.5-0.9-3.6-1.2l-1.7-0.5C52.7,1.2,52,1,51.2,0.9l0.2,0.3C51,1.1,50.6,1,50.2,0.8c-0.9,0.3,2.1,0.3,1.2,0.7
			c-0.9-0.4-2-0.7-3-0.7c-1.2-0.2-2.5-0.2-2.8-0.6c-1.2,0,0.3,0.4-0.8,0.3l-0.3-0.2l-0.3,0.2c-0.8-0.1-1.1-0.2-1.2-0.4
			c0.2,0,0.5,0,0.7-0.1c-1,0-2.1,0-3.1,0.2l1.1,0.1c-0.8,0.1-1.6,0.1-2.5,0.2l-2.5,0.4l-1.3,0.2l-1.2,0.3c-0.8,0.2-1.6,0.5-2.3,0.8
			l0.3,0.1c-0.5,0.2-0.9,0.3-1.2,0.5c-0.2,0.1-0.5,0.2-0.8,0.2c-0.7,0.2-1.5,0.4-2.2,0.7l0.1-0.1c-0.5,0.3-1.1,0.7-1.6,0.9
			c0.5-0.4-1.2,0.2-0.5-0.3c-2.1,1.3-1,0.7-2.2,1.9h-0.4c-0.4,0.5-0.8,1-1.4,1.3c0.8-0.7-0.9,0.1,0-0.7c-0.6,0.2-1.1,0.5-1.6,0.8
			c-0.4,0.3-0.7,0.6-1,0.9c-0.5,0.5-1.1,0.9-1.8,1c-0.6,1.2,2.1-1.1,1.6-0.6c0.6-0.2-0.5,1-1.2,1.4s-1.6,0.3-3.2,1.7
			c0.2-0.1,0.1-0.2,0.3-0.3c-0.3,0.2-0.6,0.5-0.9,0.8c-0.3,0.3-0.6,0.6-1,0.9c-0.1,0.7-0.9,0.9-0.6,1.4l1.2-1.5
			c-0.7,0.9-0.9,2-2.3,3.2c0.1-0.4,0.3-0.7,0.5-1c-0.5,0.3-0.6,0.8-1.1,1.1c-0.3-0.5,1.5-1.8,2-3c-0.6,0.3-1.3,1.9-1.2,1.1
			c-0.1,0.6-0.4,1.1-0.9,1.5c-0.5,0.5-0.9,1.1-1.1,1.7l-0.2-0.3c-0.1,0.4-0.3,0.7-0.5,1l0.1-0.8c-0.4,1.1-1.6,1.6-2,2.7
			c0.6-1,0.8-1.1,0.8-1s0.1,0.3,0.5,0c-1.2,2.7-1.5,1-3.1,3.9c0.2-0.4,1-1.4,0.8-0.7C5.7,23,5.2,23.7,4.9,24c-0.9,2,0.4-0.2,0.2,0.8
			c-0.6,0.5-0.3,1-0.6,1.9l-0.3-0.1c-0.2,0.3-0.4,0.7-0.5,1.1c0,0.1,0,0.3,0.1,0.4c0.1,0.2,0.2,0.3-0.3,1.3l-0.1-1l-0.3,1.1L3,29.1
			c-0.1,0.5-0.2,1-0.3,1.4c-0.1,0.4-0.3,0.8-0.5,1.3c0.3-0.2,0.5,0.3,0.2,1.3c-0.3,0.7-0.2-0.5-0.5,1c-0.2-0.5-0.1-1,0.2-1.4
			C2,32.8,2,32.5,1.9,32.4c-0.3,0.8-0.5,1.6-0.6,2.5c0-0.2,0.1-0.4,0.2-0.6c0,0.4,0,0.8,0,1.1l0,1.1c-0.2,0.3-0.2,0-0.3-0.2
			c0,0.5,0.1,0.8,0,1.4c-0.2-0.2-0.5-0.2-0.5-1.1v2.2c-0.1,0.1-0.4,1.1-0.5,0.8c-0.2,1.2,0.3,3,0.1,4.5c0.1,0.2,0.1,0.4,0.2,0.6
			c0,0.7,0,1.4,0,2.2c0,0.4,0,0.8,0,1.1c0.1,0.4,0.2,0.8,0.3,1.2l-0.3,1c0.3,1.3,0.4-1.4,0.9,0.8c0.4,1.6-0.3,0.7-0.3,1.2
			c0.7,1,1.1,2.3,1.2,3.5C2.2,55.4,2.1,55,2,54.5z M9.5,69.6c-0.2-0.2-0.8-0.6-0.8-0.9C9.1,68.7,9.2,69.1,9.5,69.6L9.5,69.6z
			 M30,83.7c-0.3,0-0.7-0.2-0.9-0.4C29.4,83.4,29.8,83.5,30,83.7z M83.1,53.8L83.1,53.8C82.8,54.4,82.9,54.2,83.1,53.8L83.1,53.8z
			 M83.5,52.4C83.5,52.3,83.5,52.3,83.5,52.4c-0.1,0.2-0.1,0.4-0.2,0.7C83.4,53,83.5,52.8,83.5,52.4L83.5,52.4z M16.5,13.5l-0.3,0.1
			C16.7,13.1,16.6,13.3,16.5,13.5L16.5,13.5z"/>
		<path class="st0" d="M27.2,83.1c0-0.1-0.1-0.1-0.1-0.2C27,82.9,27,82.9,27.2,83.1z"/>
		<path class="st0" d="M0.3,44.2L0.3,44.2C0.3,44.2,0.3,44.2,0.3,44.2L0.3,44.2z"/>
		<path class="st0" d="M75.2,73.3c-0.2,0.1-0.3,0.2-0.5,0.3C74.7,73.7,74.8,73.6,75.2,73.3z"/>
		<path class="st0" d="M84,45v0.9c0-0.3,0.1-0.5,0.1-0.8C84.1,45.1,84,45.2,84,45z"/>
		<path class="st0" d="M85.3,36.9c-0.1-0.1,0-0.3-0.1-0.4l-0.1,0.1C85.2,37.1,85.4,37.5,85.3,36.9z"/>
		<path class="st0" d="M85,44.2c0.2-0.1,0.2-0.7,0.1-1.3V43C84.8,42.8,85,43.5,85,44.2z"/>
		<path class="st0" d="M85.1,42.7c0-0.2,0-0.4,0-0.6C85,42,85.1,42.3,85.1,42.7z"/>
		<path class="st0" d="M83.8,50.6c0.1-0.3-0.3-0.2-0.2-0.4C83.3,49.8,83.7,52.3,83.8,50.6z"/>
		<polygon class="st0" points="85.9,43.6 85.6,43.9 85.8,44.2 		"/>
		<path class="st0" d="M85.3,48.8l0.2-1c0,0-0.1-0.1-0.1-0.3C85.3,48.1,85.2,48.8,85.3,48.8z"/>
		<path class="st0" d="M85.4,47.5c0-0.3,0-0.6,0-0.8C85.4,46.8,85.4,47.2,85.4,47.5z"/>
		<polygon class="st0" points="85.9,45.1 85.8,45.4 85.8,46.1 		"/>
		<path class="st0" d="M82.4,59.5L82,60.6c0,0.2,0.2-0.1,0.4-0.5S82.5,59.4,82.4,59.5z"/>
		<path class="st0" d="M84.4,56.6c-0.1,0.2-0.2,0.3-0.4,0.4l0.3,0.2L84.4,56.6z"/>
		<path class="st0" d="M83.3,59.8c0,0.1-0.4,1.7,0.2,0.3C83.4,60,83.8,58.9,83.3,59.8z"/>
		<polygon class="st0" points="73.1,73.8 73.4,73.6 72.9,73.2 		"/>
		<path class="st0" d="M61.1,83.6c1.3-0.5,0.2-0.5,1.4-0.9c0.2-0.3-1,0.3-0.8,0C61,83.3,60.5,83.4,61.1,83.6z"/>
		<path class="st0" d="M61.7,82.8l0.3-0.3C61.9,82.6,61.8,82.7,61.7,82.8z"/>
		<polygon class="st0" points="64.4,8.7 65.1,9.3 64.7,8.8 		"/>
		<path class="st0" d="M66,9.2v0.4h0.6C66.4,9.5,66.1,9.3,66,9.2z"/>
		<path class="st0" d="M10.4,72h0.1c0-0.2-0.1-0.3-0.4-0.7L10.4,72z"/>
		<polygon class="st0" points="4,61.4 4.1,61.6 4.3,61.1 		"/>
		<path class="st0" d="M0.5,51.6c0.1,0.5,0.2,0.9,0.3,1.4C0.5,52.1,0.9,51.4,0.5,51.6z"/>
	</g>
</g>
</svg>
