<svg xmlns="http://www.w3.org/2000/svg" viewBox="0 0 85.98 86.54"><title>cercles</title><g id="Calque_2" data-name="Calque 2"><g id="Calque_1-2" data-name="Calque 1"><path d="M51.94,43.57c0-.07,0,0,0-.06C51.89,43.64,52,43.57,51.94,43.57Z"/><polygon points="51.95 44.81 51.93 44.78 51.95 44.97 51.95 44.81"/><path d="M51.69,45.94c.12-.08.09-.42.18-.61l0,0,0-.1A5.55,5.55,0,0,1,51.69,45.94Z"/><path d="M51.3,46.45c.05,0,0,.13.06-.13l0,0Z"/><path d="M51.34,46.34c0-.11-.05.06,0,0Z"/><path d="M51.15,46.85l0-.15s-.1.14-.09.09C51.05,46.94,51.08,46.92,51.15,46.85Z"/><path d="M51.14,47l0-.08S51.14,47,51.14,47Z"/><path d="M51.22,46.77l-.06.17s.05,0,0-.08S51.2,46.84,51.22,46.77Z"/><path d="M51.27,46.68c.06-.07.11-.17.08,0C51.44,46.38,51.38,46.4,51.27,46.68Z"/><path d="M51.76,46l.06-.11V45.8C51.82,45.86,51.73,46,51.76,46Z"/><path d="M50.64,47.69s.07,0,.1,0l0-.11S50.67,47.7,50.64,47.69Z"/><path d="M50.74,47.67l-.07.17C50.76,47.71,50.76,47.68,50.74,47.67Z"/><polygon points="51.22 47.08 51.28 46.79 51.19 47.13 51.22 47.08"/><polygon points="50.27 48.23 50.29 48.13 50.24 48.31 50.27 48.23"/><path d="M50,48.58c0-.07-.11,0-.07,0a1.34,1.34,0,0,0-.17.27A1.09,1.09,0,0,1,50,48.58Z"/><path d="M49.69,49a.61.61,0,0,0,.07-.14Z"/><path d="M50.5,48.08a.28.28,0,0,0-.13.08l.09,0Z"/><path d="M50.46,48.14h0l-.09.11Z"/><path d="M50.51,48.07h0Z"/><path d="M51,47.47c0,.11-.12.31,0,.15S50.92,47.63,51,47.47Z"/><path d="M50.62,48l.11-.15s0,0,0,0A1.46,1.46,0,0,1,50.62,48Z"/><polygon points="50.58 48.12 50.62 48.04 50.57 48.09 50.58 48.12"/><path d="M49.94,48.76a1.34,1.34,0,0,1-.16.22l.23-.23S50,48.67,49.94,48.76Z"/><path d="M50.21,48.47h0Z"/><polygon points="49.07 49.65 49.09 49.65 49.09 49.64 49.07 49.65"/><path d="M50,48.74a.31.31,0,0,0,.1-.14l-.12.15Z"/><path d="M49.52,49.17l.12-.07A.54.54,0,0,0,49.52,49.17Z"/><path d="M50.17,48.5h0S50.16,48.5,50.17,48.5Z"/><path d="M50.17,48.5a.42.42,0,0,0,0,.1.75.75,0,0,0,.07-.12Z"/><path d="M49.05,50.1c0-.05.13-.2.3-.3s-.09-.19-.26-.15c0,0,0,0-.1.17.07,0,.35-.22.26-.08s-.17.11-.28.17c.12,0-.2.26-.1.3l.16-.16S49,50.13,49.05,50.1Z"/><path d="M49.35,49.42l.06-.06a1.29,1.29,0,0,1-.24.13c-.08.1-.09.13-.08.15l.28-.25Z"/><path d="M49.66,49.13c0,.08-.13.22,0,.18s.07-.14.15-.25c-.23.27,0-.1-.15.07l.12-.15-.14.12h0s0,0,0,0h0a0,0,0,0,1,0,0c-.07.07,0,0,0,0h0a3.08,3.08,0,0,1-.24.27Z"/><path d="M51,47.85h0S51,47.89,51,47.85Z"/><path d="M50.88,48a.26.26,0,0,1,0-.13c.06,0,0,0,0,0s.07-.18,0-.05v0c-.09.12-.25.24-.24.21A.43.43,0,0,0,50.88,48Z"/><path d="M50.3,48.6a2.27,2.27,0,0,1-.18.25l.14-.09h0C50.36,48.62,50.3,48.63,50.3,48.6Z"/><path d="M49,49.65v-.06l-.09.16Z"/><polygon points="48.73 49.89 48.71 49.84 48.64 49.93 48.73 49.89"/><path d="M36.59,39.15l0-.09Z"/><path d="M36.27,39.75v0S36.28,39.72,36.27,39.75Z"/><path d="M39.77,50.29c-.08-.11-.16-.24-.18-.18v.06A.7.7,0,0,1,39.77,50.29Z"/><path d="M35.83,45.15v0l.07.07Z"/><path d="M35.6,45.09v-.18A.87.87,0,0,0,35.6,45.09Z"/><path d="M39.08,36.4l.06-.11C39,36.39,39.08,36.37,39.08,36.4Z"/><path d="M45.1,51.41h-.28C45,51.43,45.07,51.46,45.1,51.41Z"/><path d="M37,39.65s0-.07,0-.08S36.93,39.66,37,39.65Z"/><path d="M44.51,51.44h.06l.25,0A.65.65,0,0,0,44.51,51.44Z"/><path d="M51.08,38.71v0S51.09,38.73,51.08,38.71Z"/><path d="M51.93,42.44l0-.15A.64.64,0,0,0,51.93,42.44Z"/><path d="M47.38,50.68c.08,0,0,0,0,0Z"/><path d="M47.84,50.69s0,0,0,0S47.83,50.7,47.84,50.69Z"/><path d="M43.68,51.79h0Z"/><path d="M47.51,50.65l-.11,0Z"/><path d="M47.48,50.63l.07,0S47.54,50.59,47.48,50.63Z"/><path d="M47.28,50.73l.12,0h0Z"/><path d="M45.07,35.15h0C45.18,35.15,45.14,35.15,45.07,35.15Z"/><polygon points="37.72 49.31 37.73 49.32 37.72 49.3 37.72 49.31"/><path d="M37.47,49.1a.48.48,0,0,1,.25.2l0-.18Z"/><path d="M37.54,37.82l-.18.14c.12-.26.27-.39.08-.27.09.12-.55.69-.43.82l-.11.1.05-.08c-.24.18,0,.24-.24.54-.08.1-.15.16-.12.08l-.11.26c0,.07-.06,0,0,0-.07.13-.13.27-.19.4h0a2.36,2.36,0,0,1,0,.28c-.07.09,0,0,0,0a2.17,2.17,0,0,0-.07.24c-.08.07,0-.13,0-.28-.25.14,0,.2-.31.62l.06-.22c-.14.1-.17.28-.31.51,0-.05.32-.44.26-.18a1.08,1.08,0,0,0-.09.3s-.07.12-.11.29l-.08,0c0,.19,0,.18,0,.3a.38.38,0,0,1-.19.27c-.06.33.13-.21.09.18a2.07,2.07,0,0,0-.06.8c0,.19,0,0-.07,0l.05.18s0,0,0,0,.08,0,.09.24c.07.06-.14.46,0,.74,0,.07,0,0-.07,0a1.8,1.8,0,0,0,.19.63v.27c0-.2.13,0,.22.24l0-.18a2.13,2.13,0,0,0,.11.33s0,0-.09,0l0,.06c0,.13-.06.07-.12,0v-.13c-.06-.08-.12-.15-.16-.12a.53.53,0,0,1,0,.11s0,0,0,0,0,.05.05.1l-.07.09h0l.06.46a10.79,10.79,0,0,1,.61,1c-.11-.09-.11,0-.18,0,0-.17-.17-.37-.25-.63,0,.13,0,.12,0,.09l.24.43c-.07,0,0,.11,0,.24.07-.14.23.29.35.45s-.09,0-.18-.22c0,.28.26.25.33.5,0-.05,0-.08-.07-.09s.25.4.18.35l0,0c.17.36.68,1,.79.95a.53.53,0,0,1-.16,0l.72.27c-.1,0-.1.34-.35.14a.9.9,0,0,0,.28.29c0-.06,0-.2,0-.15a2.68,2.68,0,0,0,.24.41c0-.08.12-.12.22,0s-.08.11-.13.08l.38.14c-.09,0-.09.08,0,.16s.26.2.35.24L39,50.36c.32.28.45.08.79.3-.06,0-.2.09,0,.21a2.51,2.51,0,0,1,.87,0l0,.07a2,2,0,0,0,.26.06,3.82,3.82,0,0,1-1,0c.13.1,0,.06.23.16s-.14,0-.21,0l.5.26c0-.08.42.1.43,0-.2,0-.39-.11-.59-.17,0-.09.4,0,.76.09.08.06-.12.11-.12.14a1.18,1.18,0,0,1,.39.11l-.17,0c.2.11.37,0,.6.16.08,0,.23.17.26.13a.36.36,0,0,1,0-.47l.51.25c.13.1-.25.14-.14.22s.1,0,.13,0,0,.07.15.09.41.07.11-.06c.2,0,.21.06.44.07-.07-.06.22-.17.42-.19,0,0,0,.06,0,.07a6.62,6.62,0,0,0,1,0s.22,0,.15.08a.76.76,0,0,1,.21-.08c.24,0-.25,0-.07.11,0-.05.29-.11.45-.17-.07-.06-.38,0-.54.1,0-.1.26-.25.62-.36s.15,0,.2,0c.56-.14.43-.28.89-.37.2,0,.06.13.11.16a1.9,1.9,0,0,1-.54.12l.21,0a1.1,1.1,0,0,1-.32.11,7,7,0,0,0,1.37-.42c.06-.05.18-.13.11-.13l-.13.07c-.13,0,.21-.18,0-.13a3,3,0,0,1,.56-.36l.08,0s-.17.05-.22.11.4-.12.45-.27l-.19,0A3.5,3.5,0,0,1,48.6,50c-.12,0,0,0-.21.06.18,0-.51.3-.25.28-.2,0-.27.13-.51.14,0,0,.1,0-.08.08l0,0h.11c-.06.1-.34.23-.43.3s0,0,0,0L47,51c0-.05-.32,0-.08-.1l-.23.08a1.67,1.67,0,0,0-.43.13c-.12,0-.27.13-.18.07l-.36.13v0a3,3,0,0,1-1.18.17,2,2,0,0,1-.47,0l0,0c-.16,0-.48-.07-.56,0a5.44,5.44,0,0,0-1-.18l0,.06-.62-.11v.06A3.76,3.76,0,0,1,41,51a.29.29,0,0,1,.16,0c-.33-.23-.81-.25-1.09-.5a.56.56,0,0,1-.19-.11h0l0,0-.09-.09a.6.6,0,0,0,.08.08l-.25-.13v-.07h0c-.07-.07-.08,0-.06.05l-.14-.05c0-.13-.23-.14-.26-.29-.1,0-.44-.29-.54-.26s0,0,0,0a1,1,0,0,0-.25-.22V49.3l-.25-.11c-.07-.15-.09-.21,0-.14-.31-.21-.23-.19-.5-.37l0,0c-.06-.09-.22-.19-.23-.27a10,10,0,0,1-.87-1.68c-.09.18-.06-.3-.16-.28s0-.14.07,0a4.62,4.62,0,0,0-.27-.67s.07.06.08,0a.19.19,0,0,1,0-.13s0,0,.07.08c-.09-.31-.2-.32-.3-.33a.51.51,0,0,0-.1-.36c0-.07,0-.17.08,0,0-.12-.06-.71-.13-.72a.58.58,0,0,0,0-.19c0-.27,0-.29,0-.55v.07c-.11-.1,0-.22,0-.43h0c.1-.48,0-.21.09-.68l-.06,0c-.12-.06.14-.41.13-.68l-.05.09c0-.16.27-.37.32-.51s0,0,0,.1c.17-.36-.06-.07,0-.36.06,0,.08.1.15-.09s.06-.58.24-.79c0,0-.11.08-.07-.05s.34-.46.35-.67c0,0,0,0,0,0A4.16,4.16,0,0,0,37.2,39c.25,0,.51-.87.67-.73l.32-.37v0a1.25,1.25,0,0,0,.33-.43c.06,0,0,0,0,0a3,3,0,0,0,.65-.61l.07,0c.06-.1.6-.28,1-.56,0,0,0,0,0,.05.41-.31,1.15-.33,1.26-.59a2.8,2.8,0,0,1,.3-.15c-.43.1,0-.11-.15-.1.17,0,.45,0,.25,0h0c-.05.13.53-.1.54,0a8.08,8.08,0,0,1,2.45,0l-.08-.1.28,0c.07,0,.08.08-.11,0a.42.42,0,0,0,.34,0c.38.09-.16.08-.05.1l.16,0,0,0a.68.68,0,0,1,.38,0c.15.06.07.08.12.1l.09,0,.33.1-.11-.11c.16,0,.32.09.18,0A2.88,2.88,0,0,0,47,36a4,4,0,0,1,.62.3,1.94,1.94,0,0,1,.63.31s0-.14.15,0c-.16.09.31.3.38.51-.08-.17.52.39.39.14.14.14,0,.05,0,.18a5.37,5.37,0,0,1,1.05,1.15s0-.11.09,0l.09.3c.07.09.18,0,.22.22,0,0,0-.08,0,0a6.7,6.7,0,0,1,1.1,3.15c0-.16,0-.06,0,0,0-.07.06,0,.08,0,0,.16,0,.31,0,.47s0,.5.11.55l0-.15c.1.2.19-.29.31-.27-.1-.22.07-.63-.13-1,0-.09,0,.06.07,0a.89.89,0,0,1-.13-.41l0,0A14.12,14.12,0,0,0,51.76,40l0,.07a1.67,1.67,0,0,1-.07-.24c-.15-.11.18.38,0,.28,0-.23-.45-.92-.42-1.09s0,.09-.14-.11v-.07l-.07,0q-.11-.2-.06-.24a1.06,1.06,0,0,0,.09.11,3.79,3.79,0,0,0-.37-.49l.12.19A6.54,6.54,0,0,0,49.44,37l0,0c-.38-.25-.27-.25-.68-.53h0a1.74,1.74,0,0,1-.33-.17c.12,0-.17-.17,0-.12a1.2,1.2,0,0,0-.56-.16l0-.07a.85.85,0,0,1-.36-.09c.2,0-.11-.13.11-.08-.42-.34-.75-.2-.92-.43-.27,0,.4.22.27.2.08.08-.22,0-.37,0a1.67,1.67,0,0,0-.63-.34H46c-.15-.07-.31,0-.49-.12s-.25,0-.29,0l.38,0a1.92,1.92,0,0,1-.78,0,.58.58,0,0,1,.21,0,2.87,2.87,0,0,0-.31,0c.05-.1.47,0,.71,0-.1-.06-.45,0-.32-.09-.18.1-.41-.08-.7,0l0-.06a1.17,1.17,0,0,1-.22,0l.15-.07c-.23.05-.45-.09-.67,0,.47,0,.1.06.3.1-.57.1-.33-.14-1-.08.09,0,.33,0,.2,0a3.46,3.46,0,0,1-.37,0c-.42.08.08,0-.1.12s-.2.06-.38.11v-.06c-.49.05-.1.14-.53.2L42,35.2l-.22.07,0-.07a2.81,2.81,0,0,1-.54.17c.06,0,0,.11-.2.19s.06-.09-.22,0a.28.28,0,0,1,.25-.13s.05-.05.05-.08a2.43,2.43,0,0,0-.48.17l.12,0a3,3,0,0,0-.37.25c-.08,0,0,0,0-.07a2,2,0,0,1-.24.16c0-.06,0-.1.14-.2l-.36.23s-.22,0-.18,0c-.22.1-.45.37-.73.51a.28.28,0,0,1-.08.09,2.36,2.36,0,0,0-.7.56l-.2.06c-.19.2.27-.09-.05.23s-.14,0-.23.09a1.47,1.47,0,0,1-.45.58C37.43,37.94,37.49,37.89,37.54,37.82ZM35.9,40.69c0-.06,0-.19.07-.23S36,40.6,35.9,40.69Zm-.06,5a.4.4,0,0,1,0-.2A.88.88,0,0,1,35.84,45.64Zm10.73,5.42h0C46.43,51.09,46.48,51.09,46.57,51.06Zm.27-.07s0,0,0,0a.3.3,0,0,1-.14.07S46.77,51,46.84,51Zm-1-15.28,0,0C46,35.7,45.93,35.7,45.89,35.71Z"/><path d="M35.63,45.1s0,0,0,0S35.63,45.05,35.63,45.1Z"/><path d="M39.07,36.42h0Z"/><path d="M42.49,51.9a.28.28,0,0,1-.11,0S42.4,51.88,42.49,51.9Z"/><path d="M48.11,50.25l-.14.1a.51.51,0,0,1,.15-.06S48.07,50.28,48.11,50.25Z"/><path d="M49.59,49.59l0-.06,0,0C49.53,49.59,49.49,49.66,49.59,49.59Z"/><path d="M48.36,50.33s.13,0,.23-.12h0C48.56,50.14,48.47,50.24,48.36,50.33Z"/><path d="M48.61,50.19l.09-.07S48.66,50.14,48.61,50.19Z"/><path d="M47.16,50.83c.06,0,0-.07,0-.07S46.88,51,47.16,50.83Z"/><polygon points="48.54 50.41 48.47 50.39 48.43 50.47 48.54 50.41"/><path d="M47.63,50.88l.2-.07s0,0,0-.05A1.52,1.52,0,0,0,47.63,50.88Z"/><path d="M47.87,50.76a.48.48,0,0,0,.13-.09Z"/><polygon points="48.31 50.58 48.25 50.6 48.12 50.67 48.31 50.58"/><path d="M45.54,51.58l-.22.05s0,0,.13,0S45.58,51.6,45.54,51.58Z"/><path d="M46.25,51.58c-.07,0-.08,0-.11,0v.08Z"/><path d="M45.6,51.76s-.32.11,0,.06C45.59,51.8,45.81,51.74,45.6,51.76Z"/><polygon points="42.18 51.63 42.24 51.65 42.26 51.52 42.18 51.63"/><path d="M39.25,50.72c.22.17.1,0,.29.13.08,0-.15-.13-.08-.12C39.3,50.67,39.23,50.61,39.25,50.72Z"/><path d="M39.46,50.73l.08,0Z"/><polygon points="51.92 43.06 51.9 43.22 51.94 43.12 51.92 43.06"/><path d="M52,43.37l-.08,0,.08.1A.22.22,0,0,1,52,43.37Z"/><path d="M35.59,41.12l0,0a.31.31,0,0,0,.06-.14Z"/><polygon points="36.64 38.92 36.62 38.95 36.72 38.92 36.64 38.92"/><path d="M37.86,37.26a1.16,1.16,0,0,0-.18.2C37.79,37.31,37.94,37.31,37.86,37.26Z"/><path d="M51.94,43.57c0-.07,0,0,0-.06C51.89,43.64,52,43.57,51.94,43.57Z"/><polygon points="51.95 44.81 51.93 44.78 51.95 44.97 51.95 44.81"/><path d="M51.69,45.94c.12-.08.09-.42.18-.61l0,0,0-.1A5.55,5.55,0,0,1,51.69,45.94Z"/><path d="M51.3,46.45c.05,0,0,.13.06-.13l0,0Z"/><path d="M51.34,46.34c0-.11-.05.06,0,0Z"/><path d="M51.15,46.85l0-.15s-.1.14-.09.09C51.05,46.94,51.08,46.92,51.15,46.85Z"/><path d="M51.14,47l0-.08S51.14,47,51.14,47Z"/><path d="M51.22,46.77l-.06.17s.05,0,0-.08S51.2,46.84,51.22,46.77Z"/><path d="M51.27,46.68c.06-.07.11-.17.08,0C51.44,46.38,51.38,46.4,51.27,46.68Z"/><path d="M51.76,46l.06-.11V45.8C51.82,45.86,51.73,46,51.76,46Z"/><path d="M50.64,47.69s.07,0,.1,0l0-.11S50.67,47.7,50.64,47.69Z"/><path d="M50.74,47.67l-.07.17C50.76,47.71,50.76,47.68,50.74,47.67Z"/><polygon points="51.22 47.08 51.28 46.79 51.19 47.13 51.22 47.08"/><polygon points="50.27 48.23 50.29 48.13 50.24 48.31 50.27 48.23"/><path d="M50,48.58c0-.07-.11,0-.07,0a1.34,1.34,0,0,0-.17.27A1.09,1.09,0,0,1,50,48.58Z"/><path d="M49.69,49a.61.61,0,0,0,.07-.14Z"/><path d="M50.5,48.08a.28.28,0,0,0-.13.08l.09,0Z"/><path d="M50.46,48.14h0l-.09.11Z"/><path d="M50.51,48.07h0Z"/><path d="M51,47.47c0,.11-.12.31,0,.15S50.92,47.63,51,47.47Z"/><path d="M50.62,48l.11-.15s0,0,0,0A1.46,1.46,0,0,1,50.62,48Z"/><polygon points="50.58 48.12 50.62 48.04 50.57 48.09 50.58 48.12"/><path d="M49.94,48.76a1.34,1.34,0,0,1-.16.22l.23-.23S50,48.67,49.94,48.76Z"/><path d="M50.21,48.47h0Z"/><polygon points="49.07 49.65 49.09 49.65 49.09 49.64 49.07 49.65"/><path d="M50,48.74a.31.31,0,0,0,.1-.14l-.12.15Z"/><path d="M49.52,49.17l.12-.07A.54.54,0,0,0,49.52,49.17Z"/><path d="M50.17,48.5h0S50.16,48.5,50.17,48.5Z"/><path d="M50.17,48.5a.42.42,0,0,0,0,.1.75.75,0,0,0,.07-.12Z"/><path d="M49.05,50.1c0-.05.13-.2.3-.3s-.09-.19-.26-.15c0,0,0,0-.1.17.07,0,.35-.22.26-.08s-.17.11-.28.17c.12,0-.2.26-.1.3l.16-.16S49,50.13,49.05,50.1Z"/><path d="M49.35,49.42l.06-.06a1.29,1.29,0,0,1-.24.13c-.08.1-.09.13-.08.15l.28-.25Z"/><path d="M49.66,49.13c0,.08-.13.22,0,.18s.07-.14.15-.25c-.23.27,0-.1-.15.07l.12-.15-.14.12h0s0,0,0,0h0a0,0,0,0,1,0,0c-.07.07,0,0,0,0h0a3.08,3.08,0,0,1-.24.27Z"/><path d="M51,47.85h0S51,47.89,51,47.85Z"/><path d="M50.88,48a.26.26,0,0,1,0-.13c.06,0,0,0,0,0s.07-.18,0-.05v0c-.09.12-.25.24-.24.21A.43.43,0,0,0,50.88,48Z"/><path d="M50.3,48.6a2.27,2.27,0,0,1-.18.25l.14-.09h0C50.36,48.62,50.3,48.63,50.3,48.6Z"/><path d="M49,49.65v-.06l-.09.16Z"/><polygon points="48.73 49.89 48.71 49.84 48.64 49.93 48.73 49.89"/><path d="M36.59,39.15l0-.09Z"/><path d="M36.27,39.75v0S36.28,39.72,36.27,39.75Z"/><path d="M39.77,50.29c-.08-.11-.16-.24-.18-.18v.06A.7.7,0,0,1,39.77,50.29Z"/><path d="M35.83,45.15v0l.07.07Z"/><path d="M35.6,45.09v-.18A.87.87,0,0,0,35.6,45.09Z"/><path d="M39.08,36.4l.06-.11C39,36.39,39.08,36.37,39.08,36.4Z"/><path d="M45.1,51.41h-.28C45,51.43,45.07,51.46,45.1,51.41Z"/><path d="M37,39.65s0-.07,0-.08S36.93,39.66,37,39.65Z"/><path d="M44.51,51.44h.06l.25,0A.65.65,0,0,0,44.51,51.44Z"/><path d="M51.08,38.71v0S51.09,38.73,51.08,38.71Z"/><path d="M51.93,42.44l0-.15A.64.64,0,0,0,51.93,42.44Z"/><path d="M47.38,50.68c.08,0,0,0,0,0Z"/><path d="M47.84,50.69s0,0,0,0S47.83,50.7,47.84,50.69Z"/><path d="M43.68,51.79h0Z"/><path d="M47.51,50.65l-.11,0Z"/><path d="M47.48,50.63l.07,0S47.54,50.59,47.48,50.63Z"/><path d="M47.28,50.73l.12,0h0Z"/><path d="M45.07,35.15h0C45.18,35.15,45.14,35.15,45.07,35.15Z"/><polygon points="37.72 49.31 37.73 49.32 37.72 49.3 37.72 49.31"/><path d="M37.47,49.1a.48.48,0,0,1,.25.2l0-.18Z"/><path d="M37.54,37.82l-.18.14c.12-.26.27-.39.08-.27.09.12-.55.69-.43.82l-.11.1.05-.08c-.24.18,0,.24-.24.54-.08.1-.15.16-.12.08l-.11.26c0,.07-.06,0,0,0-.07.13-.13.27-.19.4h0a2.36,2.36,0,0,1,0,.28c-.07.09,0,0,0,0a2.17,2.17,0,0,0-.07.24c-.08.07,0-.13,0-.28-.25.14,0,.2-.31.62l.06-.22c-.14.1-.17.28-.31.51,0-.05.32-.44.26-.18a1.08,1.08,0,0,0-.09.3s-.07.12-.11.29l-.08,0c0,.19,0,.18,0,.3a.38.38,0,0,1-.19.27c-.06.33.13-.21.09.18a2.07,2.07,0,0,0-.06.8c0,.19,0,0-.07,0l.05.18s0,0,0,0,.08,0,.09.24c.07.06-.14.46,0,.74,0,.07,0,0-.07,0a1.8,1.8,0,0,0,.19.63v.27c0-.2.13,0,.22.24l0-.18a2.13,2.13,0,0,0,.11.33s0,0-.09,0l0,.06c0,.13-.06.07-.12,0v-.13c-.06-.08-.12-.15-.16-.12a.53.53,0,0,1,0,.11s0,0,0,0,0,.05.05.1l-.07.09h0l.06.46a10.79,10.79,0,0,1,.61,1c-.11-.09-.11,0-.18,0,0-.17-.17-.37-.25-.63,0,.13,0,.12,0,.09l.24.43c-.07,0,0,.11,0,.24.07-.14.23.29.35.45s-.09,0-.18-.22c0,.28.26.25.33.5,0-.05,0-.08-.07-.09s.25.4.18.35l0,0c.17.36.68,1,.79.95a.53.53,0,0,1-.16,0l.72.27c-.1,0-.1.34-.35.14a.9.9,0,0,0,.28.29c0-.06,0-.2,0-.15a2.68,2.68,0,0,0,.24.41c0-.08.12-.12.22,0s-.08.11-.13.08l.38.14c-.09,0-.09.08,0,.16s.26.2.35.24L39,50.36c.32.28.45.08.79.3-.06,0-.2.09,0,.21a2.51,2.51,0,0,1,.87,0l0,.07a2,2,0,0,0,.26.06,3.82,3.82,0,0,1-1,0c.13.1,0,.06.23.16s-.14,0-.21,0l.5.26c0-.08.42.1.43,0-.2,0-.39-.11-.59-.17,0-.09.4,0,.76.09.08.06-.12.11-.12.14a1.18,1.18,0,0,1,.39.11l-.17,0c.2.11.37,0,.6.16.08,0,.23.17.26.13a.36.36,0,0,1,0-.47l.51.25c.13.1-.25.14-.14.22s.1,0,.13,0,0,.07.15.09.41.07.11-.06c.2,0,.21.06.44.07-.07-.06.22-.17.42-.19,0,0,0,.06,0,.07a6.62,6.62,0,0,0,1,0s.22,0,.15.08a.76.76,0,0,1,.21-.08c.24,0-.25,0-.07.11,0-.05.29-.11.45-.17-.07-.06-.38,0-.54.1,0-.1.26-.25.62-.36s.15,0,.2,0c.56-.14.43-.28.89-.37.2,0,.06.13.11.16a1.9,1.9,0,0,1-.54.12l.21,0a1.1,1.1,0,0,1-.32.11,7,7,0,0,0,1.37-.42c.06-.05.18-.13.11-.13l-.13.07c-.13,0,.21-.18,0-.13a3,3,0,0,1,.56-.36l.08,0s-.17.05-.22.11.4-.12.45-.27l-.19,0A3.5,3.5,0,0,1,48.6,50c-.12,0,0,0-.21.06.18,0-.51.3-.25.28-.2,0-.27.13-.51.14,0,0,.1,0-.08.08l0,0h.11c-.06.1-.34.23-.43.3s0,0,0,0L47,51c0-.05-.32,0-.08-.1l-.23.08a1.67,1.67,0,0,0-.43.13c-.12,0-.27.13-.18.07l-.36.13v0a3,3,0,0,1-1.18.17,2,2,0,0,1-.47,0l0,0c-.16,0-.48-.07-.56,0a5.44,5.44,0,0,0-1-.18l0,.06-.62-.11v.06A3.76,3.76,0,0,1,41,51a.29.29,0,0,1,.16,0c-.33-.23-.81-.25-1.09-.5a.56.56,0,0,1-.19-.11h0l0,0-.09-.09a.6.6,0,0,0,.08.08l-.25-.13v-.07h0c-.07-.07-.08,0-.06.05l-.14-.05c0-.13-.23-.14-.26-.29-.1,0-.44-.29-.54-.26s0,0,0,0a1,1,0,0,0-.25-.22V49.3l-.25-.11c-.07-.15-.09-.21,0-.14-.31-.21-.23-.19-.5-.37l0,0c-.06-.09-.22-.19-.23-.27a10,10,0,0,1-.87-1.68c-.09.18-.06-.3-.16-.28s0-.14.07,0a4.62,4.62,0,0,0-.27-.67s.07.06.08,0a.19.19,0,0,1,0-.13s0,0,.07.08c-.09-.31-.2-.32-.3-.33a.51.51,0,0,0-.1-.36c0-.07,0-.17.08,0,0-.12-.06-.71-.13-.72a.58.58,0,0,0,0-.19c0-.27,0-.29,0-.55v.07c-.11-.1,0-.22,0-.43h0c.1-.48,0-.21.09-.68l-.06,0c-.12-.06.14-.41.13-.68l-.05.09c0-.16.27-.37.32-.51s0,0,0,.1c.17-.36-.06-.07,0-.36.06,0,.08.1.15-.09s.06-.58.24-.79c0,0-.11.08-.07-.05s.34-.46.35-.67c0,0,0,0,0,0A4.16,4.16,0,0,0,37.2,39c.25,0,.51-.87.67-.73l.32-.37v0a1.25,1.25,0,0,0,.33-.43c.06,0,0,0,0,0a3,3,0,0,0,.65-.61l.07,0c.06-.1.6-.28,1-.56,0,0,0,0,0,.05.41-.31,1.15-.33,1.26-.59a2.8,2.8,0,0,1,.3-.15c-.43.1,0-.11-.15-.1.17,0,.45,0,.25,0h0c-.05.13.53-.1.54,0a8.08,8.08,0,0,1,2.45,0l-.08-.1.28,0c.07,0,.08.08-.11,0a.42.42,0,0,0,.34,0c.38.09-.16.08-.05.1l.16,0,0,0a.68.68,0,0,1,.38,0c.15.06.07.08.12.1l.09,0,.33.1-.11-.11c.16,0,.32.09.18,0A2.88,2.88,0,0,0,47,36a4,4,0,0,1,.62.3,1.94,1.94,0,0,1,.63.31s0-.14.15,0c-.16.09.31.3.38.51-.08-.17.52.39.39.14.14.14,0,.05,0,.18a5.37,5.37,0,0,1,1.05,1.15s0-.11.09,0l.09.3c.07.09.18,0,.22.22,0,0,0-.08,0,0a6.7,6.7,0,0,1,1.1,3.15c0-.16,0-.06,0,0,0-.07.06,0,.08,0,0,.16,0,.31,0,.47s0,.5.11.55l0-.15c.1.2.19-.29.31-.27-.1-.22.07-.63-.13-1,0-.09,0,.06.07,0a.89.89,0,0,1-.13-.41l0,0A14.12,14.12,0,0,0,51.76,40l0,.07a1.67,1.67,0,0,1-.07-.24c-.15-.11.18.38,0,.28,0-.23-.45-.92-.42-1.09s0,.09-.14-.11v-.07l-.07,0q-.11-.2-.06-.24a1.06,1.06,0,0,0,.09.11,3.79,3.79,0,0,0-.37-.49l.12.19A6.54,6.54,0,0,0,49.44,37l0,0c-.38-.25-.27-.25-.68-.53h0a1.74,1.74,0,0,1-.33-.17c.12,0-.17-.17,0-.12a1.2,1.2,0,0,0-.56-.16l0-.07a.85.85,0,0,1-.36-.09c.2,0-.11-.13.11-.08-.42-.34-.75-.2-.92-.43-.27,0,.4.22.27.2.08.08-.22,0-.37,0a1.67,1.67,0,0,0-.63-.34H46c-.15-.07-.31,0-.49-.12s-.25,0-.29,0l.38,0a1.92,1.92,0,0,1-.78,0,.58.58,0,0,1,.21,0,2.87,2.87,0,0,0-.31,0c.05-.1.47,0,.71,0-.1-.06-.45,0-.32-.09-.18.1-.41-.08-.7,0l0-.06a1.17,1.17,0,0,1-.22,0l.15-.07c-.23.05-.45-.09-.67,0,.47,0,.1.06.3.1-.57.1-.33-.14-1-.08.09,0,.33,0,.2,0a3.46,3.46,0,0,1-.37,0c-.42.08.08,0-.1.12s-.2.06-.38.11v-.06c-.49.05-.1.14-.53.2L42,35.2l-.22.07,0-.07a2.81,2.81,0,0,1-.54.17c.06,0,0,.11-.2.19s.06-.09-.22,0a.28.28,0,0,1,.25-.13s.05-.05.05-.08a2.43,2.43,0,0,0-.48.17l.12,0a3,3,0,0,0-.37.25c-.08,0,0,0,0-.07a2,2,0,0,1-.24.16c0-.06,0-.1.14-.2l-.36.23s-.22,0-.18,0c-.22.1-.45.37-.73.51a.28.28,0,0,1-.08.09,2.36,2.36,0,0,0-.7.56l-.2.06c-.19.2.27-.09-.05.23s-.14,0-.23.09a1.47,1.47,0,0,1-.45.58C37.43,37.94,37.49,37.89,37.54,37.82ZM35.9,40.69c0-.06,0-.19.07-.23S36,40.6,35.9,40.69Zm-.06,5a.4.4,0,0,1,0-.2A.88.88,0,0,1,35.84,45.64Zm10.73,5.42h0C46.43,51.09,46.48,51.09,46.57,51.06Zm.27-.07s0,0,0,0a.3.3,0,0,1-.14.07S46.77,51,46.84,51Zm-1-15.28,0,0C46,35.7,45.93,35.7,45.89,35.71Z"/><path d="M35.63,45.1s0,0,0,0S35.63,45.05,35.63,45.1Z"/><path d="M39.07,36.42h0Z"/><path d="M42.49,51.9a.28.28,0,0,1-.11,0S42.4,51.88,42.49,51.9Z"/><path d="M48.11,50.25l-.14.1a.51.51,0,0,1,.15-.06S48.07,50.28,48.11,50.25Z"/><path d="M49.59,49.59l0-.06,0,0C49.53,49.59,49.49,49.66,49.59,49.59Z"/><path d="M48.36,50.33s.13,0,.23-.12h0C48.56,50.14,48.47,50.24,48.36,50.33Z"/><path d="M48.61,50.19l.09-.07S48.66,50.14,48.61,50.19Z"/><path d="M47.16,50.83c.06,0,0-.07,0-.07S46.88,51,47.16,50.83Z"/><polygon points="48.54 50.41 48.47 50.39 48.43 50.47 48.54 50.41"/><path d="M47.63,50.88l.2-.07s0,0,0-.05A1.52,1.52,0,0,0,47.63,50.88Z"/><path d="M47.87,50.76a.48.48,0,0,0,.13-.09Z"/><polygon points="48.31 50.58 48.25 50.6 48.12 50.67 48.31 50.58"/><path d="M45.54,51.58l-.22.05s0,0,.13,0S45.58,51.6,45.54,51.58Z"/><path d="M46.25,51.58c-.07,0-.08,0-.11,0v.08Z"/><path d="M45.6,51.76s-.32.11,0,.06C45.59,51.8,45.81,51.74,45.6,51.76Z"/><polygon points="42.18 51.63 42.24 51.65 42.26 51.52 42.18 51.63"/><path d="M39.25,50.72c.22.17.1,0,.29.13.08,0-.15-.13-.08-.12C39.3,50.67,39.23,50.61,39.25,50.72Z"/><path d="M39.46,50.73l.08,0Z"/><polygon points="51.92 43.06 51.9 43.22 51.94 43.12 51.92 43.06"/><path d="M52,43.37l-.08,0,.08.1A.22.22,0,0,1,52,43.37Z"/><path d="M35.59,41.12l0,0a.31.31,0,0,0,.06-.14Z"/><polygon points="36.64 38.92 36.62 38.95 36.72 38.92 36.64 38.92"/><path d="M37.86,37.26a1.16,1.16,0,0,0-.18.2C37.79,37.31,37.94,37.31,37.86,37.26Z"/><path d="M34.27,36.5c-.08.08,0,.09,0,.11C34.38,36.46,34.25,36.49,34.27,36.5Z"/><polygon points="35.34 34.98 35.34 35.03 35.47 34.78 35.34 34.98"/><path d="M36.63,33.83c-.21,0-.47.42-.73.58h-.06l0,.17A8.87,8.87,0,0,1,36.63,33.83Z"/><path d="M37.55,33.54c-.07,0,.14-.15-.18.11h0Z"/><path d="M37.41,33.64c-.15.1.12,0,0,0Z"/><path d="M38.1,33.18l-.19.15c.06,0,.25-.09.19,0C38.3,33.16,38.24,33.16,38.1,33.18Z"/><path d="M38.25,33l-.1.07S38.2,33.05,38.25,33Z"/><path d="M37.94,33.23l.21-.17s-.07,0-.1.08C38.05,33.09,38,33.15,37.94,33.23Z"/><path d="M37.8,33.28c-.13,0-.28.12-.11-.05C37.32,33.5,37.42,33.53,37.8,33.28Z"/><path d="M36.62,33.67a.85.85,0,0,0-.17.08l-.09.13C36.4,33.81,36.65,33.69,36.62,33.67Z"/><path d="M39.44,32.6s-.1,0-.13-.06l-.15.09C39.25,32.62,39.42,32.57,39.44,32.6Z"/><path d="M39.31,32.54l.22-.15C39.32,32.48,39.28,32.51,39.31,32.54Z"/><polygon points="38.21 32.84 37.88 33.14 38.29 32.8 38.21 32.84"/><polygon points="40.37 32.27 40.25 32.37 40.47 32.2 40.37 32.27"/><path d="M41,32.06c-.09.08.17.06.06.12a2.24,2.24,0,0,0,.44-.2A1.22,1.22,0,0,1,41,32.06Z"/><path d="M41.71,31.87,41.5,32A1.06,1.06,0,0,0,41.71,31.87Z"/><path d="M40,32.24a.33.33,0,0,0,.22,0l-.12,0Z"/><path d="M40.05,32.21h0l.21-.06Z"/><path d="M39.93,32.25h0Z"/><path d="M38.87,32.59c.12-.1.4-.28.08-.21C38.87,32.47,39.05,32.43,38.87,32.59Z"/><path d="M39.78,32.2a2.14,2.14,0,0,0-.27.09s.07,0,0,.07A2.26,2.26,0,0,1,39.78,32.2Z"/><polygon points="39.9 32.13 39.77 32.2 39.88 32.17 39.9 32.13"/><path d="M41.23,31.9a1.41,1.41,0,0,1,.38-.12,2.43,2.43,0,0,0-.47.08S41.06,31.94,41.23,31.9Z"/><path d="M40.65,32h0S40.65,32,40.65,32Z"/><polygon points="43.06 31.57 43.04 31.56 43.04 31.57 43.06 31.57"/><path d="M41.11,31.85a.49.49,0,0,0-.25.08,1.91,1.91,0,0,1,.28-.07S41.14,31.83,41.11,31.85Z"/><path d="M42.1,31.76h-.21C42,31.76,42.08,31.78,42.1,31.76Z"/><path d="M40.72,32h0S40.74,32,40.72,32Z"/><path d="M40.72,32l.14-.09-.18.09Z"/><path d="M43.49,31.05c0,.08-.34.13-.63.09s-.06.31.18.42c0,0,0-.08.28-.12-.1-.06-.63,0-.4-.14s.31,0,.49,0c-.16-.09.47-.14.39-.28l-.33.06S43.58,31.06,43.49,31.05Z"/><path d="M42.52,31.61l-.11,0a1.68,1.68,0,0,1,.4.06c.18-.06.22-.09.23-.12l-.56.06Z"/><path d="M41.9,31.7c.07-.1.34-.16.16-.23-.33.06-.22.11-.41.19.52-.14-.15.07.24,0l-.28.09.28,0h0s0,0,0,0h0l0,0c.15,0,0,0,0,0h0a4.54,4.54,0,0,1,.53-.12A3.87,3.87,0,0,0,41.9,31.7Z"/><path d="M39.16,32.1h0S39.22,32.08,39.16,32.1Z"/><path d="M39.38,32.06a.39.39,0,0,1-.17.11c-.11,0,0,0,0-.06s-.23.16,0,.1l0,0a1.14,1.14,0,0,1,.48-.06A.6.6,0,0,0,39.38,32.06Z"/><path d="M40.65,31.79a2.45,2.45,0,0,1,.43-.15l-.24,0,0,0C40.6,31.71,40.67,31.75,40.65,31.79Z"/><path d="M43.12,31.6l0,.09.25-.13Z"/><polygon points="43.7 31.58 43.68 31.65 43.83 31.6 43.7 31.58"/><path d="M49.17,55.26l-.13.08Z"/><path d="M50.09,54.82v0S50.05,54.84,50.09,54.82Z"/><path d="M55,38.89c0,.2,0,.43.07.38l.05-.08A1,1,0,0,1,55,38.89Z"/><path d="M55.32,48.6l0,0,0-.16A1.5,1.5,0,0,1,55.32,48.6Z"/><path d="M55.55,48.87l-.16.21A1.8,1.8,0,0,0,55.55,48.87Z"/><path d="M43.73,56.46l-.17.07C43.82,56.54,43.7,56.49,43.73,56.46Z"/><path d="M49.45,32.88l.35.23C49.64,33,49.53,32.84,49.45,32.88Z"/><path d="M49.17,54.34q-.11.06-.09.09T49.17,54.34Z"/><path d="M50.2,33.36l-.06-.07-.34-.18A1.09,1.09,0,0,0,50.2,33.36Z"/><path d="M31.09,43.18v0S31.09,43.15,31.09,43.18Z"/><path d="M33.3,37.89l-.1.2A.59.59,0,0,0,33.3,37.89Z"/><path d="M46,31.79c-.12,0,0,0,0,0Z"/><path d="M45.47,31.37a.06.06,0,0,0,.06,0A.09.09,0,0,1,45.47,31.37Z"/><path d="M51.52,33.66h0S51.51,33.63,51.52,33.66Z"/><path d="M45.85,31.72l.15.05Z"/><path d="M45.86,31.76l-.1,0S45.75,31.76,45.86,31.76Z"/><path d="M46.19,31.81l-.19,0,0,0Z"/><path d="M35.33,52.76l0,0C35.2,52.67,35.24,52.71,35.33,52.76Z"/><polygon points="56.64 41.87 56.63 41.86 56.63 41.88 56.64 41.87"/><path d="M56.75,42.34a.72.72,0,0,1-.12-.46l-.21.18Z"/><path d="M46.85,56.06h.34c-.37.2-.67.22-.33.25,0-.22,1.27-.36,1.23-.63l.23,0a.69.69,0,0,1-.13.05c.46,0,.24-.27.76-.45.19-.06.32-.08.22,0l.36-.22c.12,0,.11,0,0,.05.2-.1.38-.22.57-.33h0a2.83,2.83,0,0,1,.3-.3c.16,0-.06.06,0,.07l.28-.23c.16,0-.06.19-.29.3.43,0,.24-.19.92-.49l-.27.22c.26,0,.46-.2.84-.35-.11,0-.78.26-.49,0a1,1,0,0,0,.37-.29c0,.07.2-.08.4-.25l.06.1c.19-.21.14-.24.23-.39a.57.57,0,0,1,.46-.16c.36-.35-.34.14.06-.3a3.27,3.27,0,0,0,.76-.93c.21-.2,0,.09.11,0l.09-.27s.05,0,.06,0c.1-.19-.08-.09.1-.37,0-.14.57-.45.66-.9.09-.07,0,.08.09.08a3.12,3.12,0,0,0,.32-.93l.25-.33c-.22.23-.14-.16-.07-.48l-.21.18a4,4,0,0,0,.16-.49s.06,0,.07.11v-.1c.11-.15.14,0,.15.11l-.14.15c0,.14,0,.28.1.29l0-.17s0,.07,0,.06,0-.07,0-.16l.16-.06,0-.05.33-.62c.07-.5,0-1,.1-1.73.07.21.15.07.26.11-.16.18-.11.6-.24,1,.07-.2.11-.14.12-.08l.08-.73c.09,0,.11-.13.18-.31-.21.1,0-.56,0-.86.07,0,.12.07,0,.43.2-.38-.11-.54,0-.91,0,.09,0,.13,0,.17,0-.21,0-.7.08-.58v.09a3.86,3.86,0,0,0-.15-1.85.5.5,0,0,1,.23.1c-.21-.34-.43-.66-.64-1,.14.08.42-.32.55.15a1.36,1.36,0,0,0-.09-.6c0,.1-.14.26-.18.14a3.55,3.55,0,0,0,.06-.71c0,.15-.24,0-.28-.18,0,0,.2-.07.24,0A5.36,5.36,0,0,0,56,40c.08.13.18,0,.19-.16,0,.07-.14-.46-.21-.6l0,.25c-.16-.62-.48-.49-.71-1.06.07,0,.32.07.22-.24a3.78,3.78,0,0,1-1.07-.77v-.12c-.09-.1-.17-.21-.27-.31a6.36,6.36,0,0,1,1.23.9c-.07-.23,0-.09-.15-.4,0-.14.17.13.23.22L55.17,37c-.08.09-.43-.49-.51-.39a7.89,7.89,0,0,1,.57.7c-.11.1-.53-.29-.86-.76,0-.15.25,0,.28-.07a1.88,1.88,0,0,1-.39-.47l.2.17c-.15-.3-.43-.35-.6-.71-.08-.11-.14-.42-.21-.39,0,.27-.27.58-.44.54l-.41-.75c-.08-.23.42,0,.36-.15a.4.4,0,0,1-.19-.07c-.09-.12.11,0-.12-.23-.12.05-.44-.45-.18,0-.24-.17-.2-.25-.47-.47,0,.13-.43,0-.68-.13,0,0,0-.09,0-.12a11.63,11.63,0,0,0-1.19-.9c0-.06-.25-.23-.12-.22a1,1,0,0,1-.33-.09c-.25-.25.36.16.19-.07-.06,0-.45-.12-.7-.19,0,.14.5.28.75.35-.08.14-.54.09-1.08-.1s-.14-.18-.22-.19c-.81-.32-.77,0-1.41-.34-.25-.17,0-.19,0-.27a2.45,2.45,0,0,1,.77.31l-.27-.16a1.3,1.3,0,0,1,.48.16,10.28,10.28,0,0,0-2-.69c-.13,0-.34,0-.25.06l.22,0c.17.11-.42,0-.16.12a4.38,4.38,0,0,1-1,0l-.06-.12a.6.6,0,0,0,.37.06c-.17,0-.6-.2-.79-.06l.27.1a4.88,4.88,0,0,1-1,.09c.16.11.09,0,.33.12-.21-.18.87.07.54-.13.24.18.44.08.74.27,0,0-.1-.09.18,0l.07,0h0l-.14-.08a5.08,5.08,0,0,1,.78,0c.16.05-.09,0,0,.09l.24,0c0,.09.41.26,0,.2l.35.1a2.14,2.14,0,0,0,.65.21c.16.08.44.07.27.08l.56.16v0c.27.09.53.21.81.32a2.3,2.3,0,0,1,.79.5,3.61,3.61,0,0,1,.6.36v.09c.23.11.53.51.67.51.1.29.85.8,1.12,1.12l.08,0c.21.21.39.42.66.67l0-.06c.28.19.44.68.74,1.09,0,0-.12-.12-.15-.21.2.58.76,1,.9,1.57a.58.58,0,0,1,.12.3v0l0,.05,0,.19a.7.7,0,0,0,0-.16,2.88,2.88,0,0,0,.2.37l-.06.09v0c0,.15.09.1.12,0l.12.18c-.1.16.17.37.08.58a2.17,2.17,0,0,1,.21.4c.06.18.13.36.22.38s0,.06,0,0a1.31,1.31,0,0,0,.12.49l-.1.1a2.56,2.56,0,0,1,.22.35c0,.24-.07.34-.19.12.2.53.11.44.29.9l-.07,0c0,.17.11.44,0,.54a15.26,15.26,0,0,1-.4,2.8c.26-.14-.19.41-.05.49-.06,0-.12.16-.13,0a8,8,0,0,0-.25,1c-.07,0,0-.12-.08-.08s0,.16-.06.19,0-.08,0-.16c-.17.47,0,.57.08.66a.83.83,0,0,0-.19.54c-.09.06-.2.17-.07-.11-.09.15-.55.93-.46,1a.88.88,0,0,0-.16.25c-.22.34-.25.36-.45.69l.08-.08c0,.22-.16.29-.35.55v0c-.54.5-.14.29-.71.74l.1,0c.09.17-.53.38-.76.72l.14-.07c-.12.22-.66.22-.84.35s0-.07.09-.13c-.52.29,0,.14-.3.45-.1,0,0-.19-.25,0s-.58.65-1,.76c.1,0,.2,0,0,.12s-.82.26-1,.51h-.07a4.48,4.48,0,0,0-.79.5c-.3-.22-1.37.61-1.46.3l-.71.17v0a1.73,1.73,0,0,0-.77.23c-.11,0,0-.05,0-.06a4.52,4.52,0,0,0-1.33.17l-.06-.09c-.16.08-1-.17-1.66-.15,0,0,0,0,.08,0a4.55,4.55,0,0,1-1.19-.27c-.36-.14-.68-.23-.86-.11a4.37,4.37,0,0,1-.5-.09c.6.26-.14.1.09.25-.25-.08-.59-.34-.28-.24l0,0c.17-.13-.74-.35-.67-.46a12.79,12.79,0,0,1-3-2.09,1.21,1.21,0,0,0,0,.19l-.3-.29c0-.1,0-.18.18,0a.66.66,0,0,0-.43-.28c-.38-.45.28,0,.15-.09l-.18-.16,0,0c-.17-.1-.25,0-.47-.33s0-.15-.07-.22,0,0-.08-.11l-.33-.4,0,.23c-.19-.15-.31-.39-.25-.13a4.12,4.12,0,0,0-.56-1,6.31,6.31,0,0,1-.5-.91,2.69,2.69,0,0,1-.49-.92c0,.1-.07.2-.2-.13.27,0-.12-.63,0-.95-.06.27-.3-.93-.36-.51,0-.29.09,0,.1-.27A8.17,8.17,0,0,1,32,44s-.08.13-.14,0l.16-.45c0-.16-.21-.15-.07-.45,0,0-.08.1-.08,0,.22-1.62.38-3.42,1.4-4.8-.16.17-.09,0,0-.12-.06.1-.07,0-.12,0,.15-.19.28-.38.43-.56,0-.17.4-.64.34-.77l-.1.2c0-.32-.48.19-.62.07-.06.35-.63.7-.7,1.3-.09.1,0-.12-.07-.08a1.3,1.3,0,0,1-.19.62v0a20.72,20.72,0,0,0-.77,2.2l.1-.06a1.66,1.66,0,0,1-.12.35c.09.27.11-.61.22-.35a2.54,2.54,0,0,0-.25.88c-.06.37-.07.73-.19.82,0,.34.11-.09.09.25l-.06.09.06.08c0,.22-.08.34-.13.34s0-.15,0-.21a6.25,6.25,0,0,0,0,.92l0-.33a10.37,10.37,0,0,0,.48,2.91l0-.08c.24.64.11.54.36,1.24v0a3.68,3.68,0,0,1,.25.49c-.12-.15.06.36-.09.16.37.64.19.32.54.68v.13a1.31,1.31,0,0,1,.36.43c-.2-.24,0,.26-.21,0,.23.78.75.89.76,1.32.36.19-.3-.62-.15-.47,0-.18.28.16.4.37a2.79,2.79,0,0,0,.48,1s-.06,0-.1-.09c.13.21.34.33.49.57.2,0,.27.27.41.2l-.44-.38a3.32,3.32,0,0,1,.92.72.77.77,0,0,1-.28-.15c.09.14.23.2.33.33-.14.09-.53-.46-.86-.62.08.16.55.39.31.38.32,0,.44.45.88.59l-.08.05a2,2,0,0,1,.3.17l-.25,0c.33.14.47.49.79.62-.59-.38-.07-.16-.27-.39.77.38.28.46,1.12.95-.12,0-.39-.31-.19-.23s.34.26.42.35c.58.27,0-.13.22,0s.3.1.56.2l0,.08c.64.35.25-.09.82.22h-.3l.33.09-.1.07a3.35,3.35,0,0,1,.81.27c-.06-.09.09-.15.4-.06s-.14,0,.3.15a.4.4,0,0,1-.41-.06s-.11,0-.14,0a2.7,2.7,0,0,0,.73.22L40.86,56a3.73,3.73,0,0,0,.67,0c.1.05,0,.07-.08.08.14,0,.24,0,.43,0-.06.07-.06.14-.34.13l.64,0s.31.13.22.15c.35.06.88-.07,1.34,0a.41.41,0,0,1,.17,0,3.91,3.91,0,0,0,1.35-.06l.31.09c.4-.08-.42-.12.24-.24.47-.1.2.09.37.09a2.25,2.25,0,0,1,1-.32C47.1,56,47,56,46.85,56.06ZM51.36,54c-.07.07-.2.23-.28.22S51.21,54.05,51.36,54Zm4.38-6a.53.53,0,0,1-.13.28A1.38,1.38,0,0,1,55.74,48ZM47.35,32h0C47.55,32.11,47.48,32.08,47.35,32ZM47,31.87s0,0,0,0a.52.52,0,0,1,.23.05A.31.31,0,0,0,47,31.87ZM34.82,51.37l0,.07C34.72,51.32,34.77,51.34,34.82,51.37Z"/><path d="M55.53,48.83a.11.11,0,0,1-.07,0S55.48,48.9,55.53,48.83Z"/><path d="M43.76,56.44h0s0,0,0,0Z"/><path d="M53.07,34.55a.54.54,0,0,1,.09.16S53.16,34.65,53.07,34.55Z"/><path d="M44.76,31.67H45a.56.56,0,0,1-.23-.05S44.84,31.68,44.76,31.67Z"/><path d="M42.39,31.2a.61.61,0,0,0-.13,0l0,0C42.45,31.24,42.57,31.19,42.39,31.2Z"/><path d="M44.53,31.36c0-.07-.2-.08-.39-.05h0C44.12,31.41,44.32,31.37,44.53,31.36Z"/><path d="M44.1,31.31h-.18S44,31.33,44.1,31.31Z"/><path d="M46.43,31.79c-.08,0-.07.09-.11.05S46.92,31.83,46.43,31.79Z"/><polygon points="44.38 31.1 44.45 31.2 44.56 31.13 44.38 31.1"/><path d="M45.9,31.32l-.31-.07s0,0-.08,0C45.7,31.3,45.9,31.35,45.9,31.32Z"/><path d="M45.51,31.26a1,1,0,0,0-.25,0Z"/><polygon points="44.8 31.11 44.9 31.13 45.11 31.16 44.8 31.11"/><path d="M49.06,32.29l.32.12s0-.07-.15-.11S49,32.23,49.06,32.29Z"/><path d="M48.2,31.67a.34.34,0,0,1,.12.12l0-.1Z"/><path d="M49.15,32s.48.15.09,0C49.2,32,48.87,31.86,49.15,32Z"/><polygon points="53.21 35.15 53.15 35.08 53.02 35.22 53.21 35.15"/><path d="M56,38.81c-.12-.4-.14,0-.24-.41-.08-.07.08.3,0,.22C55.9,38.83,55.92,39,56,38.81Z"/><path d="M55.75,38.62l-.07-.1Z"/><polygon points="33.85 37.15 34.01 36.96 33.88 37.06 33.85 37.15"/><path d="M34,36.66l.13,0v-.19S34,36.64,34,36.66Z"/><path d="M52.1,53.73v0c-.05,0-.1,0-.2.12Z"/><polygon points="48.9 55.51 48.96 55.48 48.81 55.43 48.9 55.51"/><path d="M46,56.47c.13,0,.27-.06.39-.08C46.1,56.47,45.91,56.34,46,56.47Z"/><path d="M61,37.93c0-.16-.12-.07-.15-.09C61,38.1,61.05,37.91,61,37.93Z"/><polygon points="61.92 40.56 61.87 40.52 62.05 40.9 61.92 40.56"/><path d="M62.18,43.15c.19-.25-.1-.94-.06-1.41l0-.08L62,41.47A11.51,11.51,0,0,1,62.18,43.15Z"/><path d="M61.72,44.52c.08-.08.06.29,0-.32l0,.06Z"/><path d="M61.73,44.26c0-.27-.07.17,0,0Z"/><path d="M61.68,45.5l0-.36c0,.07-.1.38-.12.26C61.52,45.76,61.58,45.69,61.68,45.5Z"/><path d="M61.78,45.85v-.19S61.74,45.74,61.78,45.85Z"/><path d="M61.76,45.27v.39s.11,0,0-.18C61.83,45.52,61.78,45.43,61.76,45.27Z"/><path d="M61.82,45.05c.07-.19.1-.45.15-.09C62,44.27,61.84,44.37,61.82,45.05Z"/><path d="M62.38,43.28a1.27,1.27,0,0,0,.06-.28l-.08-.23C62.4,42.89,62.33,43.3,62.38,43.28Z"/><path d="M61.2,47.64s.13-.09.19-.1v-.27C61.34,47.4,61.26,47.64,61.2,47.64Z"/><path d="M61.39,47.54l0,.4C61.46,47.6,61.44,47.53,61.39,47.54Z"/><polygon points="61.99 45.94 61.92 45.27 61.98 46.07 61.99 45.94"/><polygon points="60.78 49.07 60.76 48.83 60.77 49.25 60.78 49.07"/><path d="M60.48,50c0-.18-.22.15-.2,0a2.8,2.8,0,0,0-.14.7A1.77,1.77,0,0,1,60.48,50Z"/><path d="M60.08,51a2.81,2.81,0,0,0,.06-.35A1.35,1.35,0,0,0,60.08,51Z"/><path d="M61.18,48.58s-.12.06-.21.26l.16-.11Z"/><path d="M61.13,48.72h0L61,49Z"/><path d="M61.19,48.54v0S61.2,48.56,61.19,48.54Z"/><path d="M61.72,47c0,.24,0,.74.18.29C61.86,47.06,61.74,47.32,61.72,47Z"/><path d="M61.39,48.4a3.1,3.1,0,0,0,.13-.4s-.09.06-.1-.06C61.41,48.09,61.41,48.25,61.39,48.4Z"/><polygon points="61.37 48.61 61.39 48.4 61.34 48.55 61.37 48.61"/><path d="M60.47,50.43a2.38,2.38,0,0,1-.19.57c.12-.21.23-.43.33-.64C60.59,50.31,60.57,50.19,60.47,50.43Z"/><path d="M60.83,49.61v0S60.85,49.62,60.83,49.61Z"/><polygon points="59.26 52.95 59.29 52.93 59.28 52.91 59.26 52.95"/><path d="M60.64,50.33a.66.66,0,0,0,.12-.38c0,.13-.09.26-.15.41S60.63,50.38,60.64,50.33Z"/><path d="M59.87,51.61a1.29,1.29,0,0,0,.2-.25C60,51.43,59.86,51.57,59.87,51.61Z"/><path d="M60.77,49.7v0S60.74,49.72,60.77,49.7Z"/><path d="M60.77,49.7a2.18,2.18,0,0,0,0,.25,1.77,1.77,0,0,0,.06-.3Z"/><path d="M59.52,53.93c-.08-.1.14-.53.43-.85.13-.41-.31-.35-.66-.15,0,0,.09.07-.1.44.15-.07.6-.72.51-.36-.22.52-.28.37-.47.56.24-.11-.24.7,0,.72l.22-.45S59.41,54,59.52,53.93Z"/><path d="M59.69,52.25l.07-.16a2.39,2.39,0,0,1-.42.44c-.09.27-.08.35-.06.38l.42-.72Z"/><path d="M60.12,51.42c.07.18-.11.55.14.39.22-.45.06-.36.14-.66-.3.76,0-.24-.26.27a3.44,3.44,0,0,1,.14-.42q-.11.2-.21.36h0s0,0,0,0h0a.14.14,0,0,1,0,.06c-.11.2,0,0,0-.06h0a6.88,6.88,0,0,1-.32.74A4.43,4.43,0,0,0,60.12,51.42Z"/><path d="M62.05,47.73s0,0,0,0S62,47.83,62.05,47.73Z"/><path d="M61.91,48.05a.53.53,0,0,1,0-.31c.08-.16.06,0,.1,0s0-.42-.13-.07v.06a1.67,1.67,0,0,1-.35.63A1.11,1.11,0,0,0,61.91,48.05Z"/><path d="M61.12,49.82c0,.23-.13.44-.2.66l.23-.28h-.06C61.26,49.84,61.14,49.89,61.12,49.82Z"/><path d="M59.17,53l-.06-.15c0,.15,0,.28-.07.42Z"/><polygon points="58.69 53.71 58.61 53.62 58.54 53.85 58.69 53.71"/><path d="M25.12,39.48v-.22A2,2,0,0,0,25.12,39.48Z"/><path d="M24.85,41l0,0C24.88,41,24.86,40.93,24.85,41Z"/><path d="M39.87,61c-.26-.17-.52-.39-.52-.26l0,.13A1.32,1.32,0,0,1,39.87,61Z"/><path d="M27.79,52.81v.1L28,53A2.08,2.08,0,0,1,27.79,52.81Z"/><path d="M27.25,52.87l-.11-.4A3.23,3.23,0,0,0,27.25,52.87Z"/><path d="M28.46,31.82c0-.09,0-.18.05-.27C28.28,31.86,28.44,31.77,28.46,31.82Z"/><path d="M52,59.55a3.09,3.09,0,0,0-.58.22C51.75,59.69,52,59.67,52,59.55Z"/><path d="M26.24,40.3c0-.12,0-.18,0-.18S26.21,40.32,26.24,40.3Z"/><path d="M50.8,60l.13,0c.16-.09.33-.16.53-.25A1.41,1.41,0,0,0,50.8,60Z"/><path d="M55.71,28.18l0,.05S55.75,28.2,55.71,28.18Z"/><path d="M60.19,35.53l-.16-.3A1.87,1.87,0,0,0,60.19,35.53Z"/><path d="M56.39,56.35c.12-.14,0,0,0,0Z"/><path d="M57.38,56.05s0,.07,0,.09A.1.1,0,0,1,57.38,56.05Z"/><path d="M49.28,61.37h0C49.32,61.38,49.31,61.38,49.28,61.37Z"/><path d="M56.62,56.19l-.19.14Z"/><path d="M56.56,56.18l.12-.11S56.66,56.05,56.56,56.18Z"/><path d="M56.21,56.53l.22-.2,0,0Z"/><path d="M40.34,24.88h0C40.57,24.8,40.49,24.83,40.34,24.88Z"/><polygon points="34.79 60.35 34.81 60.35 34.79 60.34 34.79 60.35"/><path d="M34.12,60.08a1.06,1.06,0,0,1,.67.26l0-.42Z"/><path d="M26.19,36l-.3.42c.08-.63.32-1,0-.64.16.11-.06.56-.2,1s-.29.94-.12,1l-.18.29a1.46,1.46,0,0,1,.05-.2c-.38.57.12.53-.12,1.32-.09.27-.19.46-.19.26l-.05.64c-.05.18-.11.13-.06,0-.05.32-.07.65-.1,1h0a6.37,6.37,0,0,1,.11.63c-.09.24,0-.13-.08-.07s0,.36,0,.54-.18-.24-.11-.61c-.44.47,0,.45-.22,1.54l0-.52c-.22.32-.16.73-.31,1.33.08-.15.37-1.18.45-.58a1.52,1.52,0,0,0,0,.7c-.14,0-.08.31-.05.7h-.17c.08.42.17.38.26.62a.85.85,0,0,1-.2.7c.1.75.13-.54.31.33a4.85,4.85,0,0,0,.46,1.75c.05.44-.13,0-.14.12l.24.33c0,.1,0,.08,0,.07.14.3.18,0,.36.45.12,0,.1.31.15.64a1.89,1.89,0,0,0,.35,1c0,.17-.13,0-.17,0a4.26,4.26,0,0,0,.86,1.2l.17.59c-.09-.45.31,0,.65.34,0-.17,0-.31-.05-.4a7.11,7.11,0,0,0,.46.62c0,.09-.06.06-.2,0l.12.1c.09.26-.07.2-.27.08l-.06-.29c-.18-.12-.36-.22-.44-.13a.72.72,0,0,1,.16.2c-.05,0-.08,0-.09,0s.06.09.18.17l-.08.25h.1l.46.94A7.69,7.69,0,0,0,29,55a10,10,0,0,1,1.09.94c-.31-.11-.22.11-.36.22-.08-.36-.63-.66-1-1.16.18.26.08.26,0,.21l.81.75c-.12.07.06.25.23.49,0-.34.7.45,1.06.71,0,.08-.18.08-.54-.33.27.58.74.34,1.07.83-.1-.08-.14-.14-.21-.14.29.14.81.67.63.62l-.1-.08a5.65,5.65,0,0,0,2.37,1.45,1,1,0,0,1-.32.19c.59,0,1.18.06,1.73.07-.21.11,0,.8-.66.54a2,2,0,0,0,.81.42c-.12-.08-.19-.41,0-.34a5.38,5.38,0,0,0,.8.69c-.17-.12.17-.32.47-.18-.07,0-.09.3-.22.29a8.81,8.81,0,0,0,.89,0c-.22,0-.13.24,0,.38-.06-.09.69.23.92.27l-.32-.18c.89.36,1-.15,1.9.07-.12,0-.36.33.1.47A5.83,5.83,0,0,1,42,61.64l.15.11a4.18,4.18,0,0,0,.61,0,9.25,9.25,0,0,1-2.17.69c.34.13.08.12.61.18.18.11-.31.1-.47.08l1.24.21c0-.09.23-.11.47-.12s.48-.07.46-.15a10.24,10.24,0,0,1-1.36.07c0-.21.83-.38,1.68-.36.22.08-.18.33-.16.39a2.59,2.59,0,0,1,.91,0l-.37.09c.49.08.79-.22,1.38-.1.21,0,.63.2.66.08-.36-.18-.46-.84-.26-1l1.27.17c.35.11-.43.47-.14.57,0,0,.18-.15.25-.18.22,0-.06.17.39.07,0-.2.93-.15.19-.2.43-.14.48,0,1-.16-.19-.08.35-.53.75-.7,0,0,.1.09.16.1a14.73,14.73,0,0,0,2.13-.66c.1,0,.5-.09.37,0a1.72,1.72,0,0,1,.4-.31c.53-.09-.51.29-.08.29,0-.12.54-.45.84-.68-.18-.1-.78.36-1.08.59-.1-.21.37-.72,1.08-1.21s.33,0,.42-.11c1.1-.69.73-.89,1.65-1.42.42-.14.2.23.34.25a4.16,4.16,0,0,1-1.07.67l.44-.2a2.25,2.25,0,0,1-.62.45,14.62,14.62,0,0,0,2.64-1.87c.1-.16.28-.42.14-.36l-.22.24c-.29.12.31-.54,0-.3a6.31,6.31,0,0,1,.93-1.17l.2,0c-.05,0-.33.23-.4.39.1-.24.76-.55.77-.9l-.36.24a8.13,8.13,0,0,1,.74-1.27c-.27.09-.05.11-.42.29.4-.09-.86,1-.33.77-.43.14-.48.46-1,.67,0,0,.2-.05-.13.23a.38.38,0,0,1,0,.1l0,0h0s0,0,0,0a.67.67,0,0,1,.22-.09c-.06.24-.56.73-.69.94s0-.12-.1-.07a3.28,3.28,0,0,1-.2.31c-.11-.07-.67.27-.24-.16l-.43.33a3.17,3.17,0,0,0-.84.6c-.23.12-.47.47-.33.27l-.68.53,0,0c-.35.24-.72.46-1.11.69a3.48,3.48,0,0,1-1.3.52,5,5,0,0,1-1,.41l-.12-.06c-.33.17-1.08.2-1.19.36a13.14,13.14,0,0,0-2.37.37v.15c-.44,0-.86.1-1.4.2l0,.12a8,8,0,0,1-2-.07s.24,0,.37,0A5.22,5.22,0,0,0,42,61.37a3,3,0,0,1-1.31-.15,1.06,1.06,0,0,1-.48-.11h.05l-.08,0L39.87,61a1.5,1.5,0,0,0,.22.11,6.31,6.31,0,0,0-.63-.09l-.06-.15h0c-.21-.09-.2,0-.1.15-.13,0-.23,0-.32,0-.12-.27-.61-.13-.78-.42a2.8,2.8,0,0,1-.66-.1c-.28-.08-.56-.15-.67-.07s0-.07.07,0a2.2,2.2,0,0,0-.71-.3l0-.2a3.14,3.14,0,0,1-.61,0c-.26-.26-.35-.38,0-.33-.82-.23-.63-.25-1.34-.44l.08-.07c-.21-.14-.62-.25-.7-.41a25.13,25.13,0,0,1-3.05-3c-.06.43-.33-.6-.55-.49,0-.12-.08-.3.12-.16-.51-.53-.61-.91-1.05-1.23,0-.11.18.07.18,0s-.18-.16-.19-.25.12.06.2.13c-.41-.61-.65-.55-.87-.48a1.22,1.22,0,0,0-.48-.71c0-.16,0-.39.2,0-.1-.24-.65-1.47-.8-1.43a1.08,1.08,0,0,0-.17-.41c-.21-.56-.21-.61-.44-1.15l0,.16c-.3-.14-.2-.45-.36-.9h0c-.13-1.09-.24-.43-.28-1.51l-.12.08c-.3,0,0-1-.21-1.56l0,.23c-.17-.32.31-1,.31-1.31,0-.07.05.11.07.21.11-.88-.18-.1-.27-.75.09-.13.24.14.25-.29.09-.21-.29-1.28-.05-1.87-.09.12-.18.25-.19-.06,0-.47.4-1.22.27-1.67,0,0,.06-.07.08-.07a7,7,0,0,0,.08-1.4c.54-.18.48-2.22.92-2l.42-1,0,0a2.81,2.81,0,0,0,.41-1.14c.1-.13.08,0,.09,0a6.45,6.45,0,0,0,1-1.77h.16c0-.26,1.08-1,1.64-1.88,0,0,0,0,0,.12a6.64,6.64,0,0,1,1.37-1.21c.49-.32.88-.62.9-1a6.75,6.75,0,0,1,.54-.53c-.84.5,0-.26-.38-.11.31-.23.93-.42.54-.14l-.08,0c0,.32,1.07-.59,1.15-.4a18.81,18.81,0,0,1,5.21-1.85l-.24-.16.61-.1c.18,0,.25.12-.19.18a1,1,0,0,0,.72-.26c.87-.07-.29.29,0,.25l.35-.08h-.08a1.42,1.42,0,0,1,.82-.27c.35,0,.19.11.32.11s0,0,.2,0l.78,0-.31-.14c.34-.11.74,0,.37-.2a5.9,5.9,0,0,0,1.71.21,10.87,10.87,0,0,1,1.54.19,4.2,4.2,0,0,1,1.56.22c-.14-.07-.18-.27.32-.13-.27.29.88.41,1.18.81-.14-.14.21,0,.54.05s.62.21.4,0c.38.2,0,.14.23.35A12.52,12.52,0,0,1,54,28.52s-.09-.21.18-.11l.4.58c.21.12.38-.12.62.31,0-.07-.06-.18.08-.08.89.87,1.84,1.7,2.66,2.67a9.53,9.53,0,0,1,1.13,1.54,6.74,6.74,0,0,1,.8,1.72c-.08-.35,0-.15.16.08-.06-.16.11-.06.15-.11.1.34.22.67.31,1,.23.1.42,1,.62,1.08l-.15-.3c.36.35.2-.75.47-.8-.37-.4-.29-1.39-1-2,0-.2.14.1.15,0a2,2,0,0,1-.58-.78l.06,0a33.48,33.48,0,0,0-2-2.87l0,.17a1.74,1.74,0,0,1-.32-.46c-.41-.13.64.68.23.58a3.45,3.45,0,0,0-.84-1.07c-.4-.4-.83-.74-.84-1-.39-.33,0,.21-.37-.12l-.05-.15h-.17c-.24-.23-.33-.39-.3-.46s.21.12.28.17a9.42,9.42,0,0,0-1.13-.79l.37.32a15.4,15.4,0,0,0-4-2l.07.1c-1-.27-.75-.33-1.82-.65h0a5.92,5.92,0,0,1-.83-.12c.3,0-.48-.26-.1-.25a2.4,2.4,0,0,0-1.31.05l-.15-.12a1.82,1.82,0,0,1-.84.07c.46,0-.34-.2.19-.26-1.16-.4-1.75.13-2.28-.24-.54.27,1,.18.71.24.24.1-.45.2-.81.16a4.33,4.33,0,0,0-1.59-.28c.1,0,.1,0,.19,0-.36,0-.68.12-1.12.09-.22.21-.56.09-.59.32l.84-.2a4.75,4.75,0,0,1-1.69.48,1.9,1.9,0,0,1,.43-.21c-.24,0-.44.11-.69.11,0-.25,1-.23,1.52-.49-.27-.05-1,.33-.74.05a1,1,0,0,1-.66.24,2,2,0,0,0-.84.3V25a1.82,1.82,0,0,1-.46.21l.28-.25c-.46.28-1,.13-1.46.41,1-.38.27.05.72,0-1.14.61-.81-.07-2.14.53.17-.1.72-.2.45,0s-.61.19-.79.21c-.85.46.19,0-.14.31-.36,0-.39.27-.74.51l-.06-.12c-1,.47-.11.39-1,.81l.25-.38-.41.32V27.3a5,5,0,0,1-1,.75c.16,0,.09.24-.28.54-.3.15.07-.21-.46.23a.64.64,0,0,1,.45-.44c0-.05.07-.16.07-.21a4.42,4.42,0,0,0-.91.7.9.9,0,0,1,.23-.15,6.84,6.84,0,0,0-.62.8c-.15.07-.09,0,0-.16-.13.15-.19.3-.39.51,0-.13-.11-.2.15-.53l-.6.75c-.08,0-.44.26-.38.15-.39.37-.69,1.12-1.18,1.62a1,1,0,0,1-.1.24,5.45,5.45,0,0,0-1.11,1.69l-.39.29c-.26.56.51-.4.08.52-.29.65-.28.15-.44.36A3.31,3.31,0,0,1,26,36.52,5.76,5.76,0,0,1,26.19,36Zm-1.45,7.3c0-.14-.1-.44,0-.54C24.87,42.9,24.79,43,24.74,43.27Zm3.4,10.59a.88.88,0,0,1-.22-.4A1.67,1.67,0,0,1,28.14,53.86Zm26.79,3.9h0C54.65,57.92,54.75,57.87,54.93,57.76Zm.52-.35c0-.06,0-.07,0-.07s-.12.15-.25.24C55.25,57.58,55.33,57.55,55.45,57.41Zm-13-31.92-.13,0C42.64,25.41,42.56,25.45,42.49,25.49Z"/><path d="M27.32,52.87a.16.16,0,0,1,0-.09S27.28,52.75,27.32,52.87Z"/><path d="M28.45,31.88l0,0s0,0,0,0Z"/><path d="M46.83,62.46a1,1,0,0,1-.28,0S46.62,62.49,46.83,62.46Z"/><path d="M57.64,54.91l-.23.33a1,1,0,0,1,.26-.25S57.56,55,57.64,54.91Z"/><path d="M60.3,52.45c0-.06.06-.11.08-.17l-.06,0C60.19,52.49,60.15,52.67,60.3,52.45Z"/><path d="M58.22,54.9c.1,0,.26-.16.4-.41l0,0C58.52,54.37,58.39,54.65,58.22,54.9Z"/><path d="M58.65,54.43l.15-.22C58.77,54.14,58.73,54.29,58.65,54.43Z"/><path d="M56,56.84c.12-.07,0-.17.05-.19C56.08,56.45,55.54,57.4,56,56.84Z"/><polygon points="58.66 54.95 58.49 54.95 58.47 55.14 58.66 54.95"/><path d="M57.06,56.6l.36-.3s0-.06,0-.12C57.27,56.38,57,56.58,57.06,56.6Z"/><path d="M57.47,56.18a1.25,1.25,0,0,0,.23-.29Z"/><polygon points="58.28 55.47 58.17 55.56 57.95 55.8 58.28 55.47"/><path d="M53.1,59.6l-.43.27c0,.06.11,0,.27-.08S53.19,59.6,53.1,59.6Z"/><path d="M54.61,59.1a.48.48,0,0,1-.25,0l.08.16Z"/><path d="M53.36,59.94c0,.06-.61.46,0,.15C53.36,60,53.79,59.74,53.36,59.94Z"/><polygon points="45.97 62.11 46.1 62.09 46.05 61.81 45.97 62.11"/><path d="M39.07,62.26c.6.2.19-.14.72.07.16,0-.43-.17-.27-.19C39.13,62.12,39,62,39.07,62.26Z"/><path d="M39.52,62.14h0Z"/><polygon points="60.61 36.84 60.69 37.21 60.69 36.95 60.61 36.84"/><path d="M61.07,37.44l-.14.15.24.15A.57.57,0,0,1,61.07,37.44Z"/><path d="M24.39,44.4l.05,0a.66.66,0,0,0,0-.35Z"/><polygon points="25.06 38.94 25.03 39.03 25.23 38.9 25.06 38.94"/><path d="M26.47,34.53a4.75,4.75,0,0,0-.25.56C26.36,34.69,26.68,34.58,26.47,34.53Z"/><path d="M30.33,66.73c.2.15.21,0,.26,0C30.22,66.48,30.31,66.78,30.33,66.73Z"/><polygon points="26.71 64.67 26.81 64.66 26.22 64.41 26.71 64.67"/><path d="M23.84,62c0,.47,1.05,1,1.47,1.52l0,.13.38,0A20,20,0,0,1,23.84,62Z"/><path d="M23,60c0,.17-.36-.28.28.39l0-.09Z"/><path d="M23.25,60.32c.27.3-.09-.26,0,0Z"/><path d="M22.08,58.88l.38.38c0-.14-.25-.53-.12-.42C22,58.43,22,58.56,22.08,58.88Z"/><path d="M21.62,58.58l.19.21C21.81,58.73,21.77,58.67,21.62,58.58Z"/><path d="M22.22,59.22l-.41-.43c0,.09-.07.15.18.2C21.89,59,22,59.05,22.22,59.22Z"/><path d="M22.37,59.52c.1.29.33.61-.09.25C23,60.54,23,60.3,22.37,59.52Z"/><path d="M23.49,62.07a2.6,2.6,0,0,0,.21.36l.33.18C23.85,62.53,23.53,62,23.49,62.07Z"/><path d="M20.49,56c-.07,0-.06.23-.11.31l.25.31C20.57,56.41,20.42,56.05,20.49,56Z"/><path d="M20.38,56.3,20,55.83C20.24,56.3,20.33,56.36,20.38,56.3Z"/><polygon points="21.29 58.69 22.03 59.37 21.18 58.53 21.29 58.69"/><polygon points="19.54 53.97 19.8 54.22 19.37 53.76 19.54 53.97"/><path d="M19,52.61c.19.2.09-.38.24-.16a4.05,4.05,0,0,0-.52-.93A2.84,2.84,0,0,1,19,52.61Z"/><path d="M18.38,51.06a4.92,4.92,0,0,0,.29.46A2.52,2.52,0,0,0,18.38,51.06Z"/><path d="M19.58,54.91a.73.73,0,0,0,0-.5l-.07.29Z"/><path d="M19.49,54.71h0l-.19-.47Z"/><path d="M19.6,55l0-.06S19.57,55,19.6,55Z"/><path d="M20.59,57.28c-.26-.25-.71-.85-.49-.15C20.32,57.29,20.2,56.89,20.59,57.28Z"/><path d="M19.51,55.33c.08.2.18.38.26.58,0,0,.05-.17.17,0C19.8,55.69,19.64,55.52,19.51,55.33Z"/><polygon points="19.34 55.07 19.51 55.33 19.44 55.11 19.34 55.07"/><path d="M18.55,52.13a3.35,3.35,0,0,1-.37-.83c.08.35.17.72.28,1.05C18.53,52.38,18.67,52.5,18.55,52.13Z"/><path d="M19,53.4l0,0S18.92,53.42,19,53.4Z"/><polygon points="17.4 48.09 17.38 48.15 17.41 48.16 17.4 48.09"/><path d="M18.45,52.42a1.24,1.24,0,0,0,.23.54c-.07-.19-.15-.39-.22-.61C18.43,52.34,18.41,52.34,18.45,52.42Z"/><path d="M18,50.21a1.89,1.89,0,0,0,0,.47C18.07,50.54,18.09,50.25,18,50.21Z"/><path d="M18.93,53.25l0,0C19,53.19,18.94,53.2,18.93,53.25Z"/><path d="M18.93,53.25a2.49,2.49,0,0,0-.25-.29,3.33,3.33,0,0,0,.24.39A.16.16,0,0,1,18.93,53.25Z"/><path d="M16.14,47.26c.18,0,.36.73.35,1.38.26.59.7.08.89-.49-.07,0-.17,0-.33-.6-.09.24.05,1.41-.21.92-.26-.81-.05-.69,0-1.11-.16.38-.42-1-.7-.81l.2.73S16.16,47,16.14,47.26Z"/><path d="M17.61,49.31l.08.25a3.6,3.6,0,0,1,0-.91c-.17-.4-.25-.47-.31-.49l.25,1.23Z"/><path d="M18,50.68c-.25-.14-.43-.74-.55-.31.2.73.3.47.5.88-.41-1.15.2.31,0-.56a5.64,5.64,0,0,1,.25.61,4.76,4.76,0,0,1-.11-.62v0h0c0,.05,0,.07,0,0v0l-.08,0c-.07-.35,0-.07.08,0h0c-.16-.37-.24-.77-.37-1.15A6.16,6.16,0,0,0,18,50.68Z"/><path d="M19.44,56.74c0-.05,0-.05,0-.06S19.37,56.6,19.44,56.74Z"/><path d="M19.29,56.23a1,1,0,0,1,.29.37c.07.25-.08,0-.12.08.12.14.41.48.22,0l-.07-.07a2.78,2.78,0,0,1-.23-1.06A1.59,1.59,0,0,0,19.29,56.23Z"/><path d="M18.41,53.45a9.83,9.83,0,0,1-.43-.93l0,.55.08-.06C18.24,53.58,18.32,53.41,18.41,53.45Z"/><path d="M17.46,48l.22.09a6.06,6.06,0,0,1-.35-.53Z"/><polygon points="17.29 46.67 17.45 46.7 17.31 46.37 17.29 46.67"/><path d="M69.16,29.34l.19.25A1.73,1.73,0,0,0,69.16,29.34Z"/><path d="M68,27.37h-.1C68,27.43,68,27.45,68,27.37Z"/><path d="M31.23,19.83c.46-.07,1-.09.85-.23l-.19-.09A2.45,2.45,0,0,1,31.23,19.83Z"/><path d="M52.92,17l-.11-.1-.34.09A3.49,3.49,0,0,1,52.92,17Z"/><path d="M53.46,16.41l.52.32A4.73,4.73,0,0,0,53.46,16.41Z"/><path d="M73,41.26c.07.12.15.24.21.36C73.17,41,73.09,41.3,73,41.26Z"/><path d="M19,33.51a7.79,7.79,0,0,0,.44-.82C19.14,33.06,18.86,33.34,19,33.51Z"/><path d="M67.08,29.53c.12.14.19.19.22.17S67.1,29.47,67.08,29.53Z"/><path d="M19.87,31.72l-.13.16c-.09.26-.21.5-.34.81A2.26,2.26,0,0,0,19.87,31.72Z"/><path d="M46,72.43l-.11,0S45.92,72.43,46,72.43Z"/><path d="M33.65,68.61c.12,0,.31.11.48.17A2.53,2.53,0,0,0,33.65,68.61Z"/><path d="M17.25,41.42c0,.28,0,0,0,0Z"/><path d="M16.44,42.75c0-.06,0-.11-.08-.12A.2.2,0,0,1,16.44,42.75Z"/><path d="M20.26,28.72v0C20.2,28.75,20.21,28.74,20.26,28.72Z"/><path d="M17.14,41.83a2.61,2.61,0,0,0,.08-.35C17.2,41.54,17.18,41.65,17.14,41.83Z"/><path d="M17.23,41.78l0,.24S17.24,42,17.23,41.78Z"/><path d="M17.27,41a3,3,0,0,1-.05.44s0-.07,0-.06Z"/><path d="M66.54,60.86l-.06,0C66.36,61.18,66.43,61.07,66.54,60.86Z"/><path d="M37.56,15.48h0Z"/><path d="M38.58,15.12a1.54,1.54,0,0,1-1,.37l.45.43Z"/><path d="M71.44,34.36l-.08-.78c.53.78.65,1.46.65.7-.3,0-.5-.67-.8-1.35s-.61-1.35-.89-1.28l-.09-.51c.06.14.09.14.15.28-.14-1-.67-.49-1.18-1.61-.17-.39-.24-.7,0-.47l-.59-.78c-.13-.25,0-.24.12,0-.26-.42-.57-.8-.85-1.2h0c-.19-.13-.57-.44-.75-.59-.14-.36.16.11.16,0-.19-.2-.37-.4-.57-.58-.09-.36.44.09.73.57,0-1-.48-.48-1.28-1.94l.55.55c-.07-.59-.55-1-1-1.79.06.23.75,1.68.07,1.09a2.34,2.34,0,0,0-.72-.77c.15-.14-.22-.43-.65-.83l.22-.16c-.51-.4-.57-.26-.91-.44a1.32,1.32,0,0,1-.48-1c-.85-.74.4.74-.68-.06a7.39,7.39,0,0,0-2.24-1.51c-.5-.43.18-.07,0-.26l-.6-.14c-.12-.08-.05-.11,0-.13-.45-.19-.18.21-.86-.15-.16.08-.42-.24-.79-.56a3,3,0,0,0-1.35-.73c-.17-.17.18-.09.16-.22a6.56,6.56,0,0,0-2.16-.49l-.78-.5c.55.43-.33.34-1.06.26.18.18.33.33.44.42a7.09,7.09,0,0,0-1.13-.24c-.12-.08,0-.14.24-.19h-.23c-.37-.2-.12-.29.22-.35l.35.26c.32,0,.63-.11.63-.28a1.57,1.57,0,0,1-.39-.08c.09,0,.15,0,.12-.07a.68.68,0,0,0-.37,0l-.16-.35-.1.09-1.46-.6-.85,0-.89.1a13.66,13.66,0,0,1-2.15,0c.45-.19.13-.35.18-.6.44.33,1.36.11,2.26.32-.46-.11-.34-.21-.21-.24l-1.65,0c.06-.21-.32-.22-.74-.33.27.44-1.24.18-1.91.26,0-.14.13-.27.94-.18-.88-.36-1.17.37-2,.14.2,0,.3,0,.38-.06-.46.14-1.58.06-1.32-.06h.19c-.32,0-.74,0-1.18,0s-.89.11-1.32.18c-.84.16-1.54.33-1.6.54a1.37,1.37,0,0,1,.16-.54c-.71.54-1.37,1.11-2,1.65.13-.34-.82-.88.2-1.28a3.19,3.19,0,0,0-1.32.34c.22,0,.62.27.35.37a8.69,8.69,0,0,0-1.6,0c.33,0,.14.53-.34.66.05-.09-.19-.43,0-.53a9.37,9.37,0,0,0-1,.87c.26-.2-.09-.39-.4-.4.16,0-1,.42-1.3.59l.54-.11c-1.35.48-1,1.18-2.21,1.81.1-.16.08-.72-.58-.43-.08.19-.27.59-.5,1.09a4.87,4.87,0,0,1-1,1.46l-.27,0a6.81,6.81,0,0,0-.64.67A13.64,13.64,0,0,1,29,19c-.5.2-.21-.06-.86.4-.31.06.25-.41.45-.55l-1.61,1c.12.09-.14.35-.39.61s-.48.55-.38.62a15.08,15.08,0,0,1,1.46-1.42c.23.21-.55,1.24-1.53,2.07-.33.13-.13-.54-.2-.6a4.09,4.09,0,0,1-1,1l.33-.47c-.64.39-.68,1-1.46,1.48-.23.2-.9.4-.82.55.59-.14,1.35.49,1.3.88l-1.59,1.08c-.5.22,0-1-.42-.78,0,.07-.06.34-.1.45-.25.21-.1-.25-.51.31.15.27-.89,1.08,0,.4-.34.58-.52.5-.94,1.17.28-.1.13.95-.16,1.54,0-.07-.2,0-.27,0l-.53.75-.41.68c-.26.43-.52.86-.81,1.43-.12.07-.47.59-.47.3a2.19,2.19,0,0,1-.13.76c-.5.62.29-.83-.2-.41.14.11-.16,1.05-.27,1.6.3-.07.52-1.18.63-1.75.32.15.31,1.19,0,2.45-.26,1-.35.35-.37.53a4.21,4.21,0,0,0-.23,1.76,3.42,3.42,0,0,1-.22,1.48c-.33.58-.44-.06-.62.05a3.3,3.3,0,0,1,.22-1,5.81,5.81,0,0,0,.32-.78l-.3.66a3.12,3.12,0,0,1,.25-1.13c-.39.46-.83,3.22-1.11,4.72.05.28.1.75.2.54v-.48c.21-.42.18.92.31.32a11,11,0,0,1,.12,2.24l-.26.17a1.32,1.32,0,0,0,.06-.84c.12.37-.31,1.38,0,1.78l.16-.63a11.42,11.42,0,0,1,.43,2.17c.21-.37,0-.18.19-.74-.36.5,0-2-.4-1.2.35-.58.09-1,.44-1.71-.09,0-.18.25-.09-.4a.61.61,0,0,1-.07-.14v0s0,0,0,0a.78.78,0,0,1-.15.33,11.15,11.15,0,0,1-.16-1.74c.07-.39.09.17.19,0a3.35,3.35,0,0,1-.08-.54c.19,0,.48-1,.43-.06L17.5,39a4.75,4.75,0,0,0,.34-1.5c.15-.36.07-1,.12-.63l.23-1.27h0c.15-.61.35-1.23.55-1.88a5,5,0,0,1,.95-1.87,8.27,8.27,0,0,1,.68-1.43l.2-.05c.19-.52,1-1.29,1-1.59.36-.11.68-.69,1.12-1.23s.84-1.19,1.17-1.54l-.14-.16c.43-.5.86-1,1.37-1.62l-.17-.1c.37-.65,1.45-1.14,2.29-1.87,0,.1-.24.27-.42.37a3.49,3.49,0,0,0,.87-.56c.27-.21.54-.43.8-.66a4.58,4.58,0,0,1,1.63-1.13,1.61,1.61,0,0,1,.65-.35.1.1,0,0,0-.06.05l.11-.06.41-.12-.35.08a7.19,7.19,0,0,0,.78-.51l.23.11.06-.05c.33-.1.2-.22,0-.26a4.6,4.6,0,0,0,.37-.31c.39.19.81-.46,1.29-.29a3.73,3.73,0,0,1,.85-.55c.39-.19.78-.39.81-.59,0,0,.13,0-.05.09a3,3,0,0,0,1.09-.37l.23.2a5.75,5.75,0,0,1,.74-.56c.55,0,.77.09.32.39,1.15-.56,1-.34,1.94-.84l0,.17c.37-.05.95-.34,1.2-.24.86.13,4.21-.26,6.35.29-.18-.25.07-.19.37-.08s.66.27.73.09c.11.13.4.25,0,.29a15.28,15.28,0,0,0,2.39.34c.09.15-.27.1-.18.2a.86.86,0,0,1,.46.09c.09.1-.18.05-.36.06,1.07.28,1.29,0,1.46-.33a1.82,1.82,0,0,0,1.25.33c.15.17.42.4-.25.18.37.17,2.2,1,2.34.81a1.48,1.48,0,0,0,.59.29c.79.43.85.48,1.64.86l-.19-.15c.47-.13.67.3,1.29.66h0c1.23,1.1.69.25,1.82,1.42l.05-.21c.38-.25,1,1.09,1.79,1.54l-.19-.3c.51.21.63,1.42,1,1.79.05.1-.17-.08-.3-.16.76,1.09.31-.07,1,.58,0,.22-.41.07,0,.57.11.33,1.61,1.15,1.92,2.05,0-.23,0-.46.27-.13.42.58.75,1.78,1.35,2.15,0,.1,0,.14,0,.16a11.57,11.57,0,0,0,1.29,1.66c-.42.73,1.67,3,1,3.2l.53,1.57-.07,0a4.39,4.39,0,0,0,.67,1.69c0,.25-.08.09-.12.08a9.63,9.63,0,0,0,.68,2.93l-.19.16c.21.34-.18,2.24,0,3.74,0,0-.06-.05-.08-.17a9.76,9.76,0,0,1-.34,2.72c-.23.86-.37,1.58-.06,2a8.62,8.62,0,0,1-.1,1.14c.46-1.4.26.29.55-.26-.12.58-.63,1.39-.47.69l.06-.09c-.31-.36-.6,1.73-.88,1.59a28,28,0,0,1-4,7.25c.15,0,.3,0,.44-.06-.19.25-.4.48-.6.73s-.39.11,0-.4a1.49,1.49,0,0,0-.54,1c-.91.95,0-.62-.21-.31l-.32.44.1-.08c-.19.41-.07.57-.66,1.13-.4.32-.32.06-.46.19,0,0-.07,0-.22.21l-.84.82.49-.16c-.27.46-.79.77-.21.59a8.77,8.77,0,0,0-2.13,1.48,16.57,16.57,0,0,1-1.93,1.3,6.36,6.36,0,0,1-2,1.32c.22-.07.46.1-.24.45,0-.32-.33-.18-.78,0a3.26,3.26,0,0,1-1.35.29c.3,0-.19.25-.65.48s-.91.38-.42.43c-.63.16-.11-.18-.62-.16-1.38.71-3.27.83-5.12,1.13,0,.08.32.15-.07.31l-1-.25c-.36.07-.3.5-1,.25.09.06.25.15,0,.18-1.86-.1-3.76-.08-5.65-.36a14.76,14.76,0,0,1-2.79-.6q-.69-.23-1.35-.48a7.52,7.52,0,0,1-1.25-.67c.42.32.1.21-.27.07.23.13-.07.17-.06.28-.45-.29-.92-.54-1.36-.84-.37.11-1.51-.76-1.78-.6l.47.19c-.75,0,.53,1,.28,1.36.8.08,1.69,1.28,3.06,1.29.24.18-.26,0-.15.18a3,3,0,0,1,1.42.3l-.09,0A47.44,47.44,0,0,0,41,72.21L40.86,72a3,3,0,0,1,.81.2c.59-.26-1.38-.12-.83-.41a5.58,5.58,0,0,0,2,.36c.85.06,1.67,0,1.9.24.76,0-.23-.22.53-.23l.21.11.18-.16c.5,0,.76.11.79.22a2.83,2.83,0,0,0-.47.1,14.93,14.93,0,0,0,2-.25H47.3a22.88,22.88,0,0,0,6.41-1.7l-.17,0c1.37-.68,1.17-.36,2.69-1.08l0,0a8.35,8.35,0,0,1,1-.68c-.32.3.8-.19.37.18,1.36-1,.67-.5,1.42-1.37h.29a2.65,2.65,0,0,1,.88-.9c-.49.49.57-.11,0,.47a5.61,5.61,0,0,0,1-.58,8,8,0,0,0,.65-.64A2,2,0,0,1,63,65.11c.34-.84-1.32.8-1,.44-.38.13.3-.67.74-1A6.26,6.26,0,0,0,64.8,63.3c-.1.1-.08.13-.18.23.44-.32.65-.82,1.17-1.23,0-.45.55-.65.36-.94l-.75,1.06a7.15,7.15,0,0,1,1.41-2.22,2.77,2.77,0,0,1-.27.66c.29-.22.39-.55.66-.81.24.3-.91,1.28-1.21,2.07.35-.22.76-1.33.79-.79a1.42,1.42,0,0,1,.5-.93,2.91,2.91,0,0,0,.63-1.17l.14.16a3.34,3.34,0,0,1,.3-.69l-.06.57c.24-.78,1-1.17,1.23-1.92-.73,1.41-.36.21-.82.71.68-1.82,1-.73,1.88-2.73-.09.29-.6,1-.47.5s.51-.83.69-1c.49-1.36-.27.13-.15-.49.4-.36.16-.69.32-1.3l.19.07c.65-1.51-.26-.54.3-1.89l.1.67.14-.76.18.21a7.35,7.35,0,0,1,.41-1.87c-.17.15-.34-.18-.22-.89.2-.46.14.3.29-.71a1,1,0,0,1-.06.93c0,.06.08.25.14.31a7.4,7.4,0,0,0,.32-1.69,1.5,1.5,0,0,1-.12.39,10.93,10.93,0,0,0-.09-1.51c.09-.22.14,0,.18.16,0-.31-.07-.52-.06-1,.16.13.33.11.35.75L73,44.77c.08-.09.24-.73.29-.54.07-.8-.33-1.95-.28-3a1.08,1.08,0,0,1-.13-.38,8.11,8.11,0,0,0-.43-3l.14-.71c-.26-.89-.16,1-.6-.51-.32-1,.16-.45.14-.84a5,5,0,0,1-1-2.28C71.28,33.81,71.32,34.07,71.44,34.36ZM65.81,24.7c.18.14.56.39.57.58C66,25.24,66,25,65.81,24.7ZM51.48,16.18a1.19,1.19,0,0,1,.64.22A2.44,2.44,0,0,1,51.48,16.18Zm-34,22.21v0C17.64,37.94,17.59,38.09,17.5,38.39Zm-.25.92c0,.09,0,.09.07.06a1.16,1.16,0,0,1,.05-.52C17.31,38.91,17.25,39,17.25,39.31Zm46.27,23,.16-.1C63.43,62.55,63.48,62.43,63.52,62.31Z"/><path d="M53.39,16.47a.24.24,0,0,1,0,.14C53.53,16.61,53.54,16.57,53.39,16.47Z"/><path d="M73,41.2v0a.05.05,0,0,0,0,0Z"/><path d="M21.93,25.06a1.21,1.21,0,0,1,.33-.25S22.14,24.82,21.93,25.06Z"/><path d="M17.28,44.28l-.07-.6a1.59,1.59,0,0,1-.05.55S17.27,44.1,17.28,44.28Z"/><path d="M16.72,49.69a2.14,2.14,0,0,0,.09.27l.08,0C16.8,49.54,16.67,49.29,16.72,49.69Z"/><path d="M16.62,44.87c-.15.05-.13.44,0,.87v-.08C16.83,45.77,16.69,45.32,16.62,44.87Z"/><path d="M16.61,45.83c0,.14,0,.27.05.4S16.66,46.07,16.61,45.83Z"/><path d="M17.18,40.5c-.05.2.21.15.13.26C17.5,41,17.17,39.4,17.18,40.5Z"/><polygon points="16.07 45.25 16.28 45.08 16.11 44.85 16.07 45.25"/><path d="M16.24,41.81l-.11.69s.05.08.06.19C16.23,42.26,16.31,41.79,16.24,41.81Z"/><path d="M16.19,42.69a2.25,2.25,0,0,0,0,.56Z"/><polygon points="15.99 44.3 16.03 44.09 16.03 43.59 15.99 44.3"/><path d="M17.72,34.5l.22-.72c0-.1-.16.08-.23.35S17.61,34.59,17.72,34.5Z"/><path d="M16.52,36.56a.7.7,0,0,1,.25-.28l-.25-.09Z"/><path d="M17.09,34.38c0-.1.22-1.12-.13-.2C17,34.28,16.8,35,17.09,34.38Z"/><polygon points="23.24 24.61 23.11 24.75 23.44 25.01 23.24 24.61"/><path d="M30.85,17.58c-.88.36-.08.34-.88.64-.14.19.66-.24.5-.06C30.91,17.8,31.2,17.71,30.85,17.58Z"/><path d="M30.47,18.16l-.22.19A1.29,1.29,0,0,0,30.47,18.16Z"/><polygon points="31.88 67.54 31.42 67.21 31.67 67.5 31.88 67.54"/><path d="M30.76,67.33l0-.3-.43.06C30.47,67.14,30.71,67.23,30.76,67.33Z"/><path d="M65.08,23.08l-.08,0c0,.11.12.21.32.42Z"/><polygon points="69.76 29.88 69.69 29.75 69.61 30.1 69.76 29.88"/><path d="M72.55,36.24a8.75,8.75,0,0,0-.27-.87C72.52,36,72.26,36.39,72.55,36.24Z"/><path d="M66.63,10.08c-.29-.24-.32.06-.4.06C66.77,10.47,66.66,10,66.63,10.08Z"/><polygon points="71.85 13.52 71.7 13.53 72.56 13.96 71.85 13.52"/><path d="M75.88,17.78c0-.71-1.47-1.54-2-2.43l0-.2-.57-.1A26.55,26.55,0,0,1,75.88,17.78Z"/><path d="M76.93,20.85c0-.25.52.45-.37-.61a.68.68,0,0,0,0,.13Z"/><path d="M76.6,20.37c-.37-.48.11.4,0,0Z"/><path d="M78.21,22.65,77.68,22c0,.2.33.82.14.63C78.3,23.33,78.3,23.13,78.21,22.65Z"/><path d="M78.88,23.13l-.27-.32C78.61,22.89,78.65,23,78.88,23.13Z"/><path d="M78,22.12l.57.69c0-.14.12-.22-.25-.32C78.51,22.48,78.31,22.39,78,22.12Z"/><path d="M77.85,21.66c-.14-.45-.44-.95.14-.37C77,20.07,77,20.42,77.85,21.66Z"/><path d="M76.42,17.73a4.87,4.87,0,0,0-.28-.56l-.48-.31a2.6,2.6,0,0,1,.45.53C76.26,17.6,76.37,17.79,76.42,17.73Z"/><path d="M80.31,27.13c.11,0,.12-.35.2-.45l-.34-.49C80.24,26.49,80.42,27,80.31,27.13Z"/><path d="M80.51,26.68l.53.73C80.72,26.69,80.59,26.59,80.51,26.68Z"/><polygon points="79.38 23.01 78.34 21.92 79.53 23.25 79.38 23.01"/><polygon points="81.54 30.24 81.17 29.84 81.78 30.57 81.54 30.24"/><path d="M82.29,32.33c-.27-.31-.18.57-.38.22a6.31,6.31,0,0,0,.7,1.45A4.35,4.35,0,0,1,82.29,32.33Z"/><path d="M83,34.7c-.11-.23-.25-.46-.39-.7A3.25,3.25,0,0,0,83,34.7Z"/><path d="M81.57,28.83a1.15,1.15,0,0,0,0,.75l.13-.42Z"/><path d="M81.69,29.14v0l.24.71Z"/><path d="M81.54,28.74l0,.09S81.59,28.76,81.54,28.74Z"/><path d="M80.3,25.18c.35.41,1,1.34.71.27C80.69,25.19,80.83,25.8,80.3,25.18Z"/><path d="M81.71,28.21c-.09-.31-.22-.59-.33-.89-.06,0-.08.24-.26,0C81.31,27.64,81.54,27.91,81.71,28.21Z"/><polygon points="81.94 28.62 81.71 28.21 81.81 28.55 81.94 28.62"/><path d="M82.85,33.09a5.61,5.61,0,0,1,.47,1.28,16.17,16.17,0,0,0-.32-1.6C82.9,32.72,82.7,32.53,82.85,33.09Z"/><path d="M82.37,31.15l0,.08C82.41,31.17,82.41,31.12,82.37,31.15Z"/><polygon points="84.17 39.24 84.21 39.16 84.16 39.15 84.17 39.24"/><path d="M83,32.67a1.66,1.66,0,0,0-.31-.83c.1.28.19.59.28.93C83,32.79,83.07,32.79,83,32.67Z"/><path d="M83.42,36a3.46,3.46,0,0,0,0-.72C83.41,35.52,83.34,36,83.42,36Z"/><path d="M82.39,31.38l0-.05C82.35,31.47,82.37,31.44,82.39,31.38Z"/><path d="M82.39,31.38a3.4,3.4,0,0,0,.33.46,4.32,4.32,0,0,0-.31-.61A.68.68,0,0,1,82.39,31.38Z"/><path d="M86,40.62c-.28-.06-.48-1.14-.4-2.11-.33-.9-1-.18-1.37.65.1,0,.24,0,.43.93.17-.35.07-2.12.41-1.35.31,1.23,0,1-.07,1.65.27-.54.53,1.58,1,1.29l-.22-1.12C85.8,40.54,85.93,40.94,86,40.62Z"/><path d="M84,37.4,83.88,37a5.89,5.89,0,0,1-.13,1.36c.21.61.32.73.41.77l-.25-1.88Z"/><path d="M83.6,35.32c.36.23.57,1.14.78.52-.22-1.12-.39-.73-.65-1.37.51,1.76-.28-.48-.11.83a9,9,0,0,1-.3-.93c0,.32.08.64.1.93v0h0c0-.08,0-.11,0,0s0,0,0,0l.12.06c.07.53,0,.1-.12-.06h0A17.45,17.45,0,0,1,83.88,37,9.09,9.09,0,0,0,83.6,35.32Z"/><path d="M82,26.11c0,.06,0,.07,0,.08S82.05,26.32,82,26.11Z"/><path d="M82.14,26.88a1.27,1.27,0,0,1-.4-.58c-.09-.38.11-.05.19-.11-.18-.21-.57-.76-.34,0l.09.1A3.69,3.69,0,0,1,81.92,28,2.28,2.28,0,0,0,82.14,26.88Z"/><path d="M83.18,31.12a12.7,12.7,0,0,1,.55,1.45l0-.83-.13.07C83.44,31,83.3,31.19,83.18,31.12Z"/><path d="M84.06,39.43l-.31-.17c.19.27.31.55.47.83Z"/><polygon points="84.2 41.38 83.95 41.33 84.13 41.83 84.2 41.38"/><path d="M4.87,62.29l-.26-.41A3,3,0,0,0,4.87,62.29Z"/><path d="M6.47,65.35h.15C6.48,65.25,6.41,65.22,6.47,65.35Z"/><path d="M60.71,80.2c-.68.07-1.46,0-1.29.26l.29.17A3.37,3.37,0,0,1,60.71,80.2Z"/><path d="M28,82.34l.15.16.52-.09A5.66,5.66,0,0,1,28,82.34Z"/><path d="M27.11,83.17l-.75-.55A5.88,5.88,0,0,0,27.11,83.17Z"/><path d="M.28,44.06c-.1-.19-.2-.37-.28-.56C0,44.38.15,44,.28,44.06Z"/><path d="M80.42,60.92a9.64,9.64,0,0,0-.74,1.19C80.1,61.58,80.54,61.18,80.42,60.92Z"/><path d="M8,62.2c-.16-.23-.26-.31-.31-.27C7.85,62.16,8,62.28,8,62.2Z"/><path d="M78.88,63.51l.2-.22c.16-.38.38-.73.6-1.18A3.3,3.3,0,0,0,78.88,63.51Z"/><path d="M43.75,0l.15,0S43.85,0,43.75,0Z"/><path d="M61.84,7c-.17-.06-.45-.19-.71-.3A4,4,0,0,0,61.84,7Z"/><path d="M83.74,49.24c0-.41,0-.07,0,0Z"/><path d="M85.09,47.34c0,.09,0,.16.1.18A.24.24,0,0,1,85.09,47.34Z"/><path d="M78,68l0,0C78.1,67.93,78.08,67.94,78,68Z"/><path d="M84,48.64a4.42,4.42,0,0,0-.16.51A4,4,0,0,0,84,48.64Z"/><path d="M83.81,48.7l.08-.35C83.85,48.29,83.81,48.33,83.81,48.7Z"/><path d="M83.67,49.82a6.18,6.18,0,0,1,.12-.67c0,.08-.05.11-.05.09Z"/><path d="M11.86,15.35l.08,0C12.16,14.89,12,15.05,11.86,15.35Z"/><path d="M50.82,86.1l0,0H50.8Z"/><path d="M49.26,86.54a2.31,2.31,0,0,1,1.54-.46l-.64-.69Z"/><path d="M2,54.55l0,1.17c-.72-1.23-.83-2.25-.9-1.11.45,0,.67,1.06,1.06,2.1s.78,2.07,1.2,2l.09.77c-.07-.21-.13-.22-.19-.43.1,1.53,1,.79,1.6,2.52.22.61.3,1.07,0,.72l.8,1.21c.17.38,0,.37-.17,0,.34.65.77,1.25,1.15,1.88h0a11.93,11.93,0,0,1,1.06,1c.18.54-.22-.2-.23,0,.27.31.51.63.8.93.05.26-.11.22-.35,0a4.86,4.86,0,0,1-.69-1,1.2,1.2,0,0,0,.41,1.21,4.71,4.71,0,0,1,1.32,1.82l-.78-.87c.05.88.73,1.52,1.29,2.78-.08-.37-1-2.6,0-1.65a3.42,3.42,0,0,0,1,1.22c-.23.2.3.68.9,1.32l-.35.21c.73.64.83.45,1.33.74a1.93,1.93,0,0,1,.61,1.54c1.21,1.2-.52-1.14,1,.16a9.62,9.62,0,0,0,1.41,1.32,10.82,10.82,0,0,0,1.8,1.16c.7.69-.29.09-.08.39l.9.27c.16.13.05.17,0,.19.66.33.29-.29,1.27.3.25-.09.61.41,1.13.93a4.48,4.48,0,0,0,1.94,1.22c.25.28-.26.12-.25.31a9.58,9.58,0,0,0,3.19,1l1.11.81c-.78-.69.53-.47,1.62-.28-.26-.28-.47-.52-.63-.66a12.19,12.19,0,0,0,1.67.47c.18.13,0,.2-.37.26H29c.53.35.15.46-.36.52l-.5-.44c-.48,0-1,.11-1,.37a2.1,2.1,0,0,1,.57.14c-.13,0-.22,0-.18.1s.23.08.55.07l.21.55.16-.14,2.12,1,1.27.06,1.34-.07a20.64,20.64,0,0,1,3.24.19c-.7.23-.24.5-.34.88-.63-.54-2-.3-3.35-.7.68.21.49.35.29.37l2.47.21c-.12.31.46.37,1.08.57-.37-.69,1.87-.16,2.87-.21,0,.21-.22.39-1.42.18,1.29.63,1.79-.44,3.06,0-.3,0-.45,0-.58.06.7-.16,2.37.06,2,.23h-.3c.49,0,1.11.07,1.77.1s1.35-.09,2-.15c1.29-.15,2.35-.33,2.46-.64a2,2,0,0,1-.3.78c1.11-.73,2.16-1.52,3.17-2.26-.22.49,1.15,1.38-.43,1.88a4.72,4.72,0,0,0,2-.37c-.33,0-.91-.46-.49-.6a11.52,11.52,0,0,0,2.39.13c-.49,0-.15-.8.58-1-.09.13.25.67,0,.81a16.68,16.68,0,0,0,1.6-1.2c-.4.27.1.59.56.64-.23-.07,1.55-.54,2-.77l-.81.11c2.07-.59,1.59-1.67,3.48-2.49-.17.24-.19,1.07.82.7.14-.28.46-.85.87-1.58a7.05,7.05,0,0,1,1.63-2.09h.4a11.35,11.35,0,0,0,1-.94,11.33,11.33,0,0,1-1.22,2A22.94,22.94,0,0,1,64,81.7c.77-.25.31.1,1.34-.52.46-.05-.43.59-.73.78l2.5-1.33c-.17-.15.24-.51.65-.86s.77-.79.63-.9a24.48,24.48,0,0,1-2.33,2c-.16-.15.07-.63.54-1.18a11.6,11.6,0,0,1,.86-.87,8.21,8.21,0,0,1,1.09-.91c.5-.15.14.83.25.92a6.07,6.07,0,0,1,1.55-1.35l-.54.67a3.64,3.64,0,0,0,1.09-1,3.21,3.21,0,0,1,1.25-1.07c.35-.28,1.38-.51,1.27-.75-.89.15-2-.87-1.86-1.45l1.13-.65c.57-.29,1.09-.71,1.36-.8.77-.29-.1,1.44.55,1.2-.06-.1.12-.5.2-.66.39-.29.12.39.79-.41-.2-.42,1.44-1.53.06-.61.57-.83.83-.69,1.53-1.65-.44.12-.1-1.43.38-2.29,0,.11.3,0,.42,0,.31-.4.59-.75.86-1.07l.68-1c.44-.63.87-1.25,1.35-2.06.19-.1.76-.84.73-.42a3.37,3.37,0,0,1,.27-1.11c.82-.88-.51,1.22.26.63-.19-.19.34-1.55.56-2.37-.46.08-.89,1.72-1.11,2.56-.46-.25-.34-1.81.25-3.66.49-1.46.57-.49.61-.77a6.18,6.18,0,0,0,.51-2.6,5.28,5.28,0,0,1,.47-2.2c.55-.84.66.13.94,0A5.06,5.06,0,0,1,84,55.41a7.46,7.46,0,0,0-.55,1.14l.5-1a4.67,4.67,0,0,1-.47,1.66c.63-.65,1.55-4.74,2.12-7-.06-.42-.07-1.13-.25-.82l-.06.72c-.35.61-.18-1.39-.43-.51,0-.49-.08-1-.08-1.56a8.51,8.51,0,0,1,0-.86,6.41,6.41,0,0,1,.08-.95l.39-.23a2.12,2.12,0,0,0-.17,1.25c-.14-.56.61-2,.14-2.67l-.31.93a17.85,17.85,0,0,1-.43-3.29c-.35.54.06.27-.35,1.1.58-.71-.15,3,.48,1.84-.58.82-.23,1.46-.82,2.51.13,0,.29-.36.1.6a1.13,1.13,0,0,1,.08.22l0,.07,0,0s0,0,0,0a1.14,1.14,0,0,1,.26-.47,15.2,15.2,0,0,1,.06,2.62c-.14.57-.1-.27-.28,0a5.79,5.79,0,0,1,.07.82c-.29,0-.82,1.41-.66,0l-.3,1.18A7.09,7.09,0,0,0,82.48,55c-.25.52-.19,1.47-.23.93l-.48,1.87H81.7c-.28.91-.64,1.82-1,2.77a7.44,7.44,0,0,1-1.61,2.71,11.32,11.32,0,0,1-1.14,2.07l-.31,0c-.34.76-1.64,1.84-1.63,2.28a2.19,2.19,0,0,0-.84.63c-.28.33-.59.73-1,1.11-.69.8-1.37,1.7-1.89,2.19l.18.26c-.69.7-1.38,1.36-2.2,2.29l.24.16c-.61,1-2.28,1.56-3.61,2.59,0-.16.39-.39.67-.51a4.73,4.73,0,0,0-1.36.74c-.43.29-.85.59-1.26.92a6.78,6.78,0,0,1-2.55,1.52,2.42,2.42,0,0,1-1,.46.33.33,0,0,0,.1-.06l-.17.08-.64.13a2.87,2.87,0,0,0,.55-.09,12.36,12.36,0,0,0-1.23.7l-.32-.18-.11.06c-.5.11-.32.3,0,.39-.22.17-.43.29-.58.43-.57-.32-1.25.61-2,.31a5.64,5.64,0,0,1-1.32.74c-.61.24-1.21.51-1.28.8,0-.06-.19-.06.08-.13a4.84,4.84,0,0,0-1.65.44l-.33-.31a9.63,9.63,0,0,1-1.16.76c-.82-.11-1.15-.2-.44-.6-1.77.71-1.46.4-3,1.06l.06-.25c-.57,0-1.46.42-1.82.23-1.28-.27-6.34,0-9.48-1,.25.4-.12.28-.56.09s-1-.46-1.09-.2c-.15-.21-.57-.42,0-.44-1.65-.24-2.35-.78-3.55-.75-.13-.23.41-.12.28-.28-.13,0-.54,0-.67-.18s.28-.06.54,0c-1.58-.53-1.93-.09-2.22.34a3.15,3.15,0,0,0-.94-.49,2,2,0,0,0-.9-.12c-.21-.28-.59-.64.39-.25-.53-.29-3.19-1.73-3.42-1.44a2.16,2.16,0,0,0-.86-.5c-1.14-.71-1.22-.8-2.37-1.44l.28.24c-.73.16-1-.52-1.87-1.1l.06,0a5.6,5.6,0,0,0-1.34-1.12,2,2,0,0,1-.42-.29,4.24,4.24,0,0,1-.83-.9l-.09.32c-.6.33-1.34-1.73-2.52-2.49l.25.47c-.75-.36-.82-2.18-1.26-2.77-.07-.16.24.13.42.28-1-1.71-.46.07-1.52-1,0-.35.63-.07,0-.86a6.35,6.35,0,0,0-1.23-1.3,4.61,4.61,0,0,1-1.43-2c0,.35,0,.7-.43.17-.57-.9-1-2.74-1.8-3.35,0-.15,0-.21,0-.23a18,18,0,0,0-1.77-2.62c.32-.54-.19-1.67-.71-2.72a8.61,8.61,0,0,1-.63-1.43c-.09-.4-.07-.68.16-.74L4.09,52l.11,0a6.39,6.39,0,0,0-.85-2.6c0-.37.14-.12.19-.1a14.41,14.41,0,0,0-.73-4.46l.3-.21a6,6,0,0,1,.13-2.16c.07-.52.14-1.1.17-1.69s0-1.19,0-1.76c0,0,.09.08.11.26a10.38,10.38,0,0,1,.24-2,13.76,13.76,0,0,1,.54-2c.43-1.26.71-2.32.27-2.93a13.51,13.51,0,0,1,.26-1.69C4,32.75,4.5,30.24,4,31c.23-.86,1.07-2,.77-1l-.11.14c.44.57,1.08-2.53,1.48-2.3a42.22,42.22,0,0,1,6.73-10.47c-.22,0-.45,0-.65.06.3-.36.64-.68,1-1s.6-.13-.09.6A2.28,2.28,0,0,0,14,15.56c1.45-1.32-.13.93.28.49l.52-.62-.16.1c.16-.31.21-.51.33-.74a2.6,2.6,0,0,1,.76-.88c.63-.44.49-.05.72-.24,0,0,.11,0,.35-.3l1.33-1.14-.75.2c.46-.67,1.26-1.09.38-.87a13.34,13.34,0,0,0,3.33-2,24.35,24.35,0,0,1,3-1.77,6.93,6.93,0,0,1,.64-.56c.23-.15.48-.29.73-.42C26,6.54,26.58,6.29,27.2,6c-.33.07-.69-.21.4-.66,0,.48.48.29,1.16.12a5.12,5.12,0,0,1,2.06-.31c-.46,0,.31-.35,1-.64s1.4-.49.67-.61c1-.17.15.28.91.3,2.15-.93,5-.92,7.77-1.2,0-.11-.45-.25.15-.45L42.85,3c.56-.06.51-.72,1.53-.28-.14-.1-.36-.25,0-.26,2.79.32,5.62.49,8.43,1.08A21.79,21.79,0,0,1,57,4.76c.67.26,1.33.54,2,.84a12.25,12.25,0,0,1,1.82,1.13c-.6-.52-.14-.32.39-.08-.32-.21.13-.25.12-.41.66.47,1.33.89,2,1.39.56-.14,2.19,1.28,2.61,1.07l-.69-.33c1.12.13-.69-1.61-.28-2.06a1.92,1.92,0,0,1-.91-.42c-.32-.2-.65-.44-1-.71a4.9,4.9,0,0,0-2.55-1.11c-.34-.29.4,0,.25-.25a4.51,4.51,0,0,1-2.1-.58l.14,0c-1.47-.46-2.46-.94-3.57-1.24l-1.74-.55A13.48,13.48,0,0,0,51.18.85l.21.33A5.23,5.23,0,0,1,50.18.8c-.91.33,2.07.32,1.21.7a8.23,8.23,0,0,0-3-.74C47.15.59,45.92.59,45.6.21c-1.15,0,.33.36-.82.31l-.3-.2-.29.22C43.44.46,43.06.31,43,.14a4.78,4.78,0,0,0,.72-.1,20.12,20.12,0,0,0-3.1.17l1.11.05c-.78.1-1.61.12-2.45.23L36.76.88l-1.27.21-1.22.34c-.8.23-1.57.48-2.27.75l.26.08c-.55.19-.92.34-1.22.45a5.44,5.44,0,0,1-.76.22,11.28,11.28,0,0,0-2.16.69l.07-.06a13,13,0,0,1-1.63.92c.51-.42-1.22.21-.54-.31C23.88,5.5,25,4.86,23.77,6.08h-.44a3.94,3.94,0,0,1-1.4,1.27c.78-.69-.87.1,0-.71a8.32,8.32,0,0,0-1.58.77,9.92,9.92,0,0,0-1,.89,2.94,2.94,0,0,1-1.77,1c-.58,1.23,2.06-1.06,1.59-.55.58-.16-.52,1-1.21,1.4s-1.61.27-3.21,1.69c.16-.13.14-.18.3-.32a3.8,3.8,0,0,0-.88.82,6.39,6.39,0,0,1-1,.9c-.09.67-.87.92-.61,1.37l1.22-1.51c-.66.91-.91,2-2.33,3.19a3.94,3.94,0,0,1,.47-1c-.46.31-.64.8-1.07,1.15-.33-.48,1.49-1.83,2-3-.55.28-1.26,1.9-1.25,1.1A2.16,2.16,0,0,1,10.71,16a4.31,4.31,0,0,0-1.07,1.69l-.18-.26a5.43,5.43,0,0,1-.52,1l.14-.84c-.43,1.14-1.62,1.64-2,2.74.6-1,.75-1.08.83-1s.08.34.46,0c-1.2,2.66-1.54,1-3.08,3.9.16-.42,1-1.35.76-.69-.4.49-.85,1.18-1.14,1.46-.87,2,.41-.16.18.75-.63.51-.31,1-.6,1.92l-.28-.12a2.82,2.82,0,0,0-.45,1.09.68.68,0,0,0,.07.4c.1.18.21.32-.26,1.32l-.09-1-.28,1.12-.24-.34a7.66,7.66,0,0,1-.31,1.43c-.14.38-.32.75-.49,1.34.27-.22.48.31.24,1.35-.35.68-.18-.47-.5,1a1.41,1.41,0,0,1,.19-1.4c-.08-.09-.11-.38-.18-.47a10.29,10.29,0,0,0-.65,2.5,2.55,2.55,0,0,1,.21-.58c0,.38-.05.76-.05,1.14l.05,1.14c-.16.33-.21,0-.26-.25,0,.45.06.78,0,1.44C1,37.6.71,37.61.73,36.65l0,2.16c-.14.13-.43,1.07-.49.78-.18,1.2.31,3,.13,4.52a1.67,1.67,0,0,1,.16.58c0,.74,0,1.44,0,2.18A7.33,7.33,0,0,0,.52,48a8.8,8.8,0,0,0,.33,1.21l-.29,1c.31,1.35.35-1.41.85.82.39,1.56-.28.66-.29,1.24a7.18,7.18,0,0,1,1.2,3.51A10.79,10.79,0,0,1,2,54.55Zm7.48,15c-.25-.22-.79-.63-.79-.93C9.14,68.72,9.18,69.05,9.43,69.55ZM30.05,83.7a1.74,1.74,0,0,1-.94-.4A3.68,3.68,0,0,1,30.05,83.7Zm53-29.94v0C82.82,54.42,82.92,54.2,83.08,53.76Zm.46-1.35c0-.14-.05-.14-.1-.09a1.64,1.64,0,0,1-.13.77C83.41,53,83.51,52.84,83.54,52.41Zm-67-38.93-.26.13C16.67,13.13,16.59,13.3,16.52,13.48Z"/><path d="M27.22,83.08a.32.32,0,0,1-.06-.21C27,82.86,27,82.91,27.22,83.08Z"/><path d="M.34,44.16v0a.13.13,0,0,0-.06,0Z"/><path d="M75.15,73.29a1.94,1.94,0,0,1-.52.33C74.68,73.68,74.81,73.62,75.15,73.29Z"/><path d="M84,45l0,.9a2.5,2.5,0,0,1,.14-.8C84.09,45.07,84,45.24,84,45Z"/><path d="M85.35,36.92c-.06-.13,0-.29-.11-.42l-.13.06C85.2,37.14,85.38,37.52,85.35,36.92Z"/><path d="M85,44.15c.24-.07.24-.65.13-1.3V43C84.8,42.78,85,43.46,85,44.15Z"/><path d="M85.13,42.7a4,4,0,0,1,0-.59C85,42,85.08,42.35,85.13,42.7Z"/><path d="M83.75,50.63c.11-.29-.29-.24-.16-.39C83.33,49.85,83.67,52.28,83.75,50.63Z"/><polygon points="85.88 43.63 85.55 43.86 85.79 44.23 85.88 43.63"/><path d="M85.29,48.77l.23-1s-.07-.12-.07-.29C85.35,48.09,85.19,48.78,85.29,48.77Z"/><path d="M85.45,47.45a2.59,2.59,0,0,0,0-.84C85.44,46.79,85.45,47.18,85.45,47.45Z"/><polygon points="85.91 45.06 85.83 45.37 85.78 46.11 85.91 45.06"/><path d="M82.37,59.55,82,60.62c0,.15.24-.11.38-.51S82.54,59.43,82.37,59.55Z"/><path d="M84.36,56.59A1.14,1.14,0,0,1,84,57l.35.16Z"/><path d="M83.3,59.81c0,.14-.44,1.65.17.3C83.44,60,83.8,58.86,83.3,59.81Z"/><polygon points="73.14 73.83 73.36 73.63 72.88 73.2 73.14 73.83"/><path d="M61.07,83.61c1.34-.46.15-.5,1.38-.87.23-.27-1,.3-.75,0C61,83.28,60.55,83.39,61.07,83.61Z"/><path d="M61.7,82.78l.34-.27A1.89,1.89,0,0,0,61.7,82.78Z"/><polygon points="64.4 8.73 65.05 9.27 64.69 8.81 64.4 8.73"/><path d="M66,9.16,66,9.6l.64,0C66.45,9.47,66.11,9.31,66,9.16Z"/><path d="M10.36,72h.12c0-.17-.15-.34-.42-.67Z"/><polygon points="4.03 61.42 4.11 61.61 4.28 61.1 4.03 61.42"/><path d="M.47,51.63A10.15,10.15,0,0,0,.79,53C.48,52.06.91,51.43.47,51.63Z"/></g></g></svg>