<svg xmlns="http://www.w3.org/2000/svg" viewBox="0 0 294.31 294.31"><defs><style>.cls-1{fill:#dbc3a3;}</style></defs><title>Fichier 5</title><g id="Calque_2" data-name="Calque 2"><g id="Calque_2-2" data-name="Calque 2"><path class="cls-1" d="M212.54,293.58c.13.45.64.06.78.08C212.89,293,212.4,293.66,212.54,293.58Z"/><polygon class="cls-1" points="208.26 286.97 208.55 287 207.53 286.18 208.26 286.97"/><path class="cls-1" d="M205.5,280.27c-.73,1,1.16,2.36,1.3,3.7l-.14.29,1,.2C207,283.07,205.64,281.4,205.5,280.27Z"/><path class="cls-1" d="M206.16,275.81c-.3.38-.65-.63.22.89a.69.69,0,0,1,0-.19A5.55,5.55,0,0,1,206.16,275.81Z"/><path class="cls-1" d="M206.42,276.51c.32.69.13-.6,0,0Z"/><path class="cls-1" d="M204.85,273.34l.73.79c.14-.29-.15-1.14.14-.9C205.14,272.36,205,272.65,204.85,273.34Z"/><path class="cls-1" d="M203.76,272.76l.35.42C204.17,273.06,204.15,272.92,203.76,272.76Z"/><path class="cls-1" d="M204.84,274.08l-.73-.9c-.11.2-.42.35.3.42C204.08,273.64,204.45,273.73,204.84,274.08Z"/><path class="cls-1" d="M204.92,274.72c0,.61.15,1.33-.58.54C205.21,277,205.8,276.43,204.92,274.72Z"/><path class="cls-1" d="M204.33,280.35v.82l.58.46C204.62,281.4,204.62,280.18,204.33,280.35Z"/><path class="cls-1" d="M203,267.35c-.23,0-.43.54-.67.72l.53.59C202.82,268.25,202.67,267.52,203,267.35Z"/><path class="cls-1" d="M202.29,268.07l-.78-.87C201.84,268.13,202.08,268.23,202.29,268.07Z"/><polygon class="cls-1" points="202.59 273.05 204.05 274.42 202.45 272.73 202.59 273.05"/><polygon class="cls-1" points="201.37 263.42 202.1 263.8 200.93 263.07 201.37 263.42"/><path class="cls-1" d="M200.21,260.85c.58.27.43-.87.87-.52a5.17,5.17,0,0,0-1.5-1.55A3,3,0,0,1,200.21,260.85Z"/><path class="cls-1" d="M198.75,258.06a6.14,6.14,0,0,0,.83.72A3.29,3.29,0,0,0,198.75,258.06Z"/><path class="cls-1" d="M200.89,265.4a1.23,1.23,0,0,0,.26-1l-.42.65C200.77,265.12,200.83,265.26,200.89,265.4Z"/><path class="cls-1" d="M200.71,265l0,0-.33-.89C200.44,264.23,200.54,264.5,200.71,265Z"/><path class="cls-1" d="M200.93,265.51a.49.49,0,0,1,0-.11C200.84,265.47,200.83,265.5,200.93,265.51Z"/><path class="cls-1" d="M202,270.14c-.58-.47-1.46-1.58-1.46-.15C201.14,270.25,201.14,269.44,202,270.14Z"/><path class="cls-1" d="M200.39,266.32l.32,1.14c.15-.08.29-.38.58-.15Z"/><polygon class="cls-1" points="199.98 265.86 200.39 266.32 200.28 265.89 199.98 265.86"/><path class="cls-1" d="M199,260.16a4,4,0,0,1-1-1.44,11.71,11.71,0,0,0,.6,2C198.82,260.68,199.27,260.82,199,260.16Z"/><path class="cls-1" d="M199.77,262.54l-.08-.09C199.67,262.54,199.67,262.59,199.77,262.54Z"/><path class="cls-1" d="M195.63,253s0,.09-.07.14l.11,0Z"/><path class="cls-1" d="M198.53,260.83a1.24,1.24,0,0,0,.64.92,7.19,7.19,0,0,1-.57-1.07C198.5,260.67,198.44,260.69,198.53,260.83Z"/><path class="cls-1" d="M197.81,256.58a7.44,7.44,0,0,0,0,.94C197.91,257.21,198,256.6,197.81,256.58Z"/><path class="cls-1" d="M199.79,262.22l.05.06C199.91,262.08,199.85,262.12,199.79,262.22Z"/><path class="cls-1" d="M199.79,262.22a3.38,3.38,0,0,0-.62-.47,4,4,0,0,0,.52.7A1.15,1.15,0,0,1,199.79,262.22Z"/><path class="cls-1" d="M191.11,252.83c.59-.14,1.6.88,1.46,2.19.84.87,2.36-.56,3-1.89-.25.07-.47.16-1.24-.78-.14.5.29,2.68-.59,2-.87-1.31-.29-1.25-.28-2.06-.44.87-1.75-1.4-2.63-.68l.88,1.11C191.55,252.78,191.11,252.43,191.11,252.83Z"/><path class="cls-1" d="M196.36,255.21l.25.41a4.48,4.48,0,0,1,.11-1.84c-.57-.63-.84-.7-1.05-.67l.83,2.21Z"/><path class="cls-1" d="M197.44,257.61c-.75-.1-1.44-1.06-1.82-.14.58,1.28.88.71,1.46,1.38-1-2,.58.46.29-1.2a6.46,6.46,0,0,1,.63,1.07q-.12-.62-.18-1.2s0,.05,0,.07h0c0,.12-.07.17-.07,0l0,0a.76.76,0,0,1-.26,0c-.13-.66.11-.16.26,0h.11l-1.2-2A9,9,0,0,0,197.44,257.61Z"/><path class="cls-1" d="M198.81,269.4a.21.21,0,0,1,.11-.13C198.79,269.17,198.72,269.14,198.81,269.4Z"/><path class="cls-1" d="M198.81,268.39a.92.92,0,0,1,.58.66c0,.51-.28.12-.47.22.28.24.86.88.76-.18l-.14-.12c-.14-.93.15-2.33.29-2.21A4.43,4.43,0,0,0,198.81,268.39Z"/><path class="cls-1" d="M198,263l-1-1.63-.15,1.11.29-.18C197.36,263.35,197.66,263,198,263Z"/><polygon class="cls-1" points="195.85 252.67 196.57 252.64 195.26 252 195.85 252.67"/><polygon class="cls-1" points="194.83 250.43 195.41 250.28 194.83 249.82 194.83 250.43"/><path class="cls-1" d="M134.85,124.87l-.37-.45A2.94,2.94,0,0,0,134.85,124.87Z"/><path class="cls-1" d="M136.35,128.61l.31,0C136.44,128.47,136.3,128.45,136.35,128.61Z"/><path class="cls-1" d="M171.62,194.58c.21-1,.65-2.13.07-1.78l-.5.48A2.35,2.35,0,0,1,171.62,194.58Z"/><path class="cls-1" d="M152.18,157.8c0,.1-.06.2-.09.3l.79.26C152.66,158.2,152.43,158,152.18,157.8Z"/><path class="cls-1" d="M149.48,158.3l0-1.15A3.74,3.74,0,0,0,149.48,158.3Z"/><path class="cls-1" d="M125.79,104.79l-.87-.35C125.32,105.38,125.45,104.84,125.79,104.79Z"/><path class="cls-1" d="M185,227.22a6.42,6.42,0,0,0-.31-1.77C184.63,226.38,184.37,227.22,185,227.22Z"/><path class="cls-1" d="M141.84,123.69c-.24-.27-.42-.35-.55-.29C141.52,123.68,141.72,123.82,141.84,123.69Z"/><path class="cls-1" d="M183.88,223.59a2.67,2.67,0,0,0,0,.4,5.9,5.9,0,0,1,.77,1.46A2,2,0,0,0,183.88,223.59Z"/><path class="cls-1" d="M95.73,30.82a1.33,1.33,0,0,1,0-.2C95.64,30.64,95.67,30.72,95.73,30.82Z"/><path class="cls-1" d="M92.9,6.82c.12.19.26.54.41.86A2.52,2.52,0,0,0,92.9,6.82Z"/><path class="cls-1" d="M191.3,241.16c.24.47.1.05,0,0Z"/><path class="cls-1" d="M189.89,244.5a.4.4,0,0,0-.37-.08A.48.48,0,0,1,189.89,244.5Z"/><path class="cls-1" d="M178.14,220.33s0,0,0,0C178.07,220.48,178.08,220.45,178.14,220.33Z"/><path class="cls-1" d="M191.33,242a3.57,3.57,0,0,0-.08-.69A3.58,3.58,0,0,0,191.33,242Z"/><path class="cls-1" d="M191.57,241.79c0,.18.08.31.12.44S191.85,242.17,191.57,241.79Z"/><path class="cls-1" d="M191,240.51a4.38,4.38,0,0,1,.26.8c0-.11,0-.16.05-.15S191.14,240.83,191,240.51Z"/><path class="cls-1" d="M113.71,69.68s0-.08,0-.13C113.27,69.17,113.4,69.36,113.71,69.68Z"/><path class="cls-1" d="M160.18,184.61s0,0,0,0,0-.06,0-.08Z"/><path class="cls-1" d="M159,183.06c1.06.43,1.14.89,1.21,1.51l1.5-1.29Z"/><path class="cls-1" d="M131,116l0,1.44c-1.5-1.1-1.64-2.29-1.92-.83,1.95-.61,2.15,4.65,4.1,4l-.06,1c-.08-.24-.21-.23-.28-.47-.26,1.94,1.84.6,2.4,2.72.15.76.08,1.36-.34,1l1.11,1.36c.15.47-.22.5-.37,0l1.13,2.32h-.06a9.66,9.66,0,0,1,1.56,1.09c0,.72-.32-.22-.49,0l1,1.13c-.27.74-1.19-.16-1.5-1.1-1.37,2,.93.9.93,4l-.75-1.14c-.74,1.24.05,2,0,3.74.21-.48.51-3.52,1.57-2.28a2.25,2.25,0,0,0,.87,1.64c-.66.28-.18,1,.24,1.89l-.91.31c.68.91,1.1.64,1.74,1.08a1.91,1.91,0,0,1-.67,2.2c.61,1.87.58-1.72,1.64.37.29,1.65,1.09,2.57,2.37,4.16.14,1.18-.62,0-.71.52l1.09.65c.08.23-.17.25-.29.26.6.68.91-.3,1.67.84,1.11-.07-.37,3.14,1.37,4.22-.09.49-.62,0-.91.3a13.92,13.92,0,0,0,3,2.93l0,1.71c.21-1.36,1.57-.3,2.72.65a9,9,0,0,0,.35-1.24l1.28,1.74c-.05.3-.43.23-.93.06a3.36,3.36,0,0,0,.36.27c0,.83-.7.68-1.4.39.07-.31.16-.62.25-.92a2.49,2.49,0,0,0-2-.15,1.77,1.77,0,0,1,.5.54c-.2-.06-.36-.09-.43,0s.22.23.57.45l-.8.85.44,0,.43,2.79c1.74,1.4,3.86,2.38,5.46,5.09-1-.42-1.24.33-2.12.65.58-1.16-1.31-2.07-1.74-3.64.22.82-.26.82-.48.68l1.93,2.32c-.73.23-.29.78-.3,1.6,1.17-1.1,1.75,1.6,2.63,2.51-.44.26-1,.19-1.46-1.17-.44,1.89,2.41,1.2,2.11,3-.14-.31-.14-.52-.43-.55.73.59,1.16,2.56.58,2.3l-.15-.32c.73,2.21,2.69,6.53,4,6.36a8.8,8.8,0,0,1-1.83.28l5.55,2.18c-1.16.08-3,2.37-4.34.83a3.63,3.63,0,0,0,1,2.2c0-.41,1.11-1.47,1.4-1-.59,1.77-.23,1.16-.52,3.17,0-.62,1.82-.69,2.12.15-.3,0-1.54.72-1.83.49l2.4,1.4c-.49-.39-1.35.46-1.6,1.1.21-.34.7,1.79,1.08,2.27v-1c.73,2.41,3.14,1.38,4,3.71-.43-.14-2.26.14-2,1.39,1,.2,4.82.78,6.28,2.56l-.3.58,1.17,1.34a34.54,34.54,0,0,1-6.86-3.23c0,1-.44.46.14,1.74-.24.64-.94-.44-1.13-.81l1,3.14c.88-.52,1.89,1.92,2.62,1.49l-2.33-2.89c.88-.51,3.43.81,4.16,3-.15.69-1.83.28-2.12.45.43.14,1.45,1.78,1.31,2.07l-.88-.7c.14,1.33,2,1.43,1.75,3.23.14.52-.59,2,0,1.83.72-1.24,4-2.76,5-2.56a18.74,18.74,0,0,1-.23,3.8c-.5,1.16-2.5-.4-2.92.59.26-.07.76.25.94.39,0,.61-.88.12-.29,1.2,1-.21.87,2.32,1,.2.72,1,.29,1.25.87,2.53.44-.66,2.56.31,3.28,1.3-.26,0-.47.41-.57.59.85,2.3.93,3.69,1.8,5.81-.15.29,0,1.42-.59,1.15a2.51,2.51,0,0,1,1,1c-.3,1.6-.73-1.39-1.32,0,.59-.14,1.46,1.37,2.19,2.16.73-.64-.73-2.21-1.46-3,1.17-.49,3.07.62,4.52,2.6,1,1.64-.44,1.08-.15,1.31,1.16,3.38,3.21,2,3.49,5-.29,1.4-1.46.67-1.9,1.13-.87-1.31-.43-2.39-.86-3.34l.14,1.33a3,3,0,0,1-1-1.83c-.29,1.19,2.18,5.62,2.61,8.41.44.35,1,1,1.17.53l-.44-.76c.29-1,1.46,1.17,1.32,0,.87.91,2,1.84,2.32,3.5l-.73.64c.23-.14.09-1.21-.34-1.53.64.48-.19,2.81,1.21,3l.15-1.31c.87.91,2.33,1.87,2.62,3.33.58-1-.23-.27.36-1.63-.88,1.33-1.37-3.47-2.11-1.6.74-1.46-.22-1.9.23-3.59-.27.16-.35.68-.68-.51a1.07,1.07,0,0,1-.35-.14.28.28,0,0,1,0-.09s0,.05,0,.08-.07,0,0,0a1.35,1.35,0,0,1-.19.75c-.88-.29-1.6-2.1-2.18-2.57-.15-.72.43.15.58-.34l-.87-.7c.58-.35.29-2.21,1.31-.78l-.56-1.43a4.55,4.55,0,0,0-.89-2.8c-.14-.72-1.39-1.4-.66-1l-1.31-2.07.15-.08c-.83-2.24-2.91-4.1-2.82-7.08a7.27,7.27,0,0,1-1.31-2.67l.44-.47c-.59-.87-.65-3.08-1.38-3.25,1-1.63-1.59-4.74-2-6.52l-.73.23a17,17,0,0,0-2-3.5l-.59.34c-1-1-.87-3.35-1.74-5.27.29,0,.44.56.44,1,.44-2.91-3.06-4.49-2.91-7a1.64,1.64,0,0,1-.52-1.28.27.27,0,0,0,.09.12l-.08-.22c0-.28,0-.57,0-.87a2.58,2.58,0,0,0-.07.75,9.75,9.75,0,0,0-.92-1.52l.56-.53-.08-.14c0-.69-.51-.34-.88.18a3.82,3.82,0,0,0-.74-.63c.88-.92-1-1.43-.14-2.56-.72-.17-1.67-2.86-3-2.69.14-.08.14-.29.28,0a3,3,0,0,0-.87-1.92l.73-.64-1.74-1c.14-1.11.29-1.6,1.31-1-1.89-1.72-1.1-1.57-2.84-3l.58-.14c-.29-.64-1.45-1.37-1.16-1.95.44-1.89-2.84-7.26-3.41-11.39-1.32,1.39,0-2-1.31-1.66.29-.38.29-1,.87-.52-1.16-1.75-.58-3.11-2.18-4,.3-.38.73.18.88-.11-.15-.12-.58-.47-.44-.76s.44.14.73.38c-.87-1.92-2.13-1.63-3.29-1.31.11-1.21-.17-1.67-1.19-2.08.22-.49.36-1.22,1-.07-.23-.7-1.2-4.37-2.11-4.07.14-.31-.33-1-.5-1.12a27.52,27.52,0,0,0-1.26-3.17l0,.47c-1.31-.15-.75-1.15-1.38-2.3h.12c-.37-3.09-.86-1-1.11-4.14l-.61.42c-1.53.34-.15-2.77-1.36-4.13L146,139c-.85-.66.94-3.22.76-4.17,0-.24.32.22.52.45-.1-2.63-1,.06-1.89-1.55.34-.51,1.36-.09,1-1.27.15-.73-2.89-2.68-2.64-4.61-.22.49-.44,1-1,.31-.63-1.16,0-3.84-1.58-4.45,0-.2.11-.3.2-.34-.68-.8-1.73-2.8-2.58-3.1,1.94-1.8-3.5-5.28-1.37-6.13l-1.29-2.8h.25a4,4,0,0,0-2.16-2.73c0-.48.29-.26.42-.27-.67-2.83-.87-3.06-2.85-4.84l.59-.52c-.65-.44-.51-4.28-2.39-6.55a.52.52,0,0,1,.43.16c-2-2.6-1-7.8-4-7.84L125,87.1c.84,2.58-1.24.07-1.23,1.27-.56-.92-.3-2.85.33-1.7l0,.25c1.49-.1-.82-3.3.09-3.6-2.1-4.89-3.36-10-5.21-14.62l-.8,1L117.5,68c.07-.52.56-.89,1,.27.32-.84-1.28-1.72-1.52-1.66-.51-2.42,1.55.39,1.29-.31l-.46-.91,0,.26c-.72-.58-1.19-.47-1.71-1.87-.16-.95.44-.7.34-1.06.07,0,0-.16-.19-.54l-.75-2.06L115,61.28c-.77-.73-.75-1.92-1.27-.61.83-2-2.62-7.76-2.54-8.78A9,9,0,0,1,109,48.06c0,.45-.81,1-1.25-.32,2-.28-.2-2.76.69-4.38-.49,1.32-1.78-3.68-2.42-1.66-.3-1.16.67-.35.76-1.37-1.81-2.34-1.93-6-3.52-9.15-.27.05-.42.75-1.07.2l.51-2.22c-.39-.59-1.65,0-1.29-1.53-.14.25-.35.62-.6.22C99.36,21,94.45,15.23,94,7.83c-.11,1.08-.4.51-.69-.15.06.48-.61.24-.9.46L92.2,5.05c-1.12-.11-1.27-2.88-2.26-2.8l.51.79c-1.5-.71-1.63,2.55-3,2.94,1.71.79-.35,4.09,2.21,5.49-.08.57-.6-.22-.8.15.79.3,1.17.89,1.41,2.19l-.2-.08c1.53,3.29,1.56,4.95,2.74,8.86l.54-.55a3.31,3.31,0,0,1,.1,1.54c1.38.52-.88-2.28.57-1.9-.89,1.63,2.34,5.7,1.12,7.05.5,1.25.61-.68,1.11.57l-.27.5.66.09a1.41,1.41,0,0,1-.43,1.65,3.3,3.3,0,0,0-.45-.72c0,1.25,1.4,2.91,1.39,3.33l-.24-1.29c1.79,3.22,3,7.58,5.15,10.51l.21-.38c1.6,2.26.49,2.14,1.89,4.78L104,47.7a4.12,4.12,0,0,1,1.27,1.85c-.65-.54-.16,1.6-.94.86,1.74,2.45,1,1.14,2.93,2.45l-.34.62a2.94,2.94,0,0,1,1.68,1.69c-.9-.94-.42,1.2-1.52.18.06,3.34,2.9,3.8,1.8,5.8,2,.73-.24-2.82.37-2.2.21-.82,1.52.64,1.75,1.61s-1.17,2.31-.19,4.61c-.09-.23-.2-.2-.29-.44,0,1,1.19,1.5,1,2.8,1.11.24.52,1.4,1.69,1.11l-1.13-2c.78,1.08,2.53,1.68,2.73,3.91a3.58,3.58,0,0,1-1.15-.86c-.08.71.68,1,.59,1.76-1.17.28-1.3-2.48-2.67-3.42-.21.82,1.8,2.11.34,2,1.9.31.76,2.36,2.56,3.45l-.7.16a3.38,3.38,0,0,1,.9,1.06l-1.2-.48c1.26,1,.38,2.71,1.28,3.76-1.08-2.53.55-.9.59-2.17,2.18,2.77-1,2.51.8,5.9-.29-.44-.35-2,.26-1.33a5.31,5.31,0,0,1,.08,2.26c1.11,2.27.53-.64,1.35.19-.48,1.12.8,1,1.48,1.92l-.67.28c.67,2.83,1.68.13,2.16,2.73l-1.35-.62.76,1.14-.87.06a4.7,4.7,0,0,1,1.49,3c.34-.51,1.28-.33,1.79.83-.06,1-.82-.18,0,1.44-.58-.2-1.27-.39-1-1.37-.25,0-.57-.2-.82-.19-.1,1.06.8,2.21,1,2.82a1.81,1.81,0,0,1-.11-.72l1.92,2c-.09.48-.42.26-.74,0,.28.46.72.67,1.08,1.36-.62,0-1.16.32-1.84-.59L123.79,99c-.18.25-.17,1.45-.49,1.23.21,1.41,2.35,2.69,2.63,4.56a1.15,1.15,0,0,1,.54.5c.54,1.64.45,3.33,2,4.9l-.53,1.47c.83,1.38.62-2,2,.35,1,1.61-.56,1-.58,1.72.85.66,2.47,1.75,2.34,3.67A7.31,7.31,0,0,1,131,116Zm8,18c-.29-.29-1-.82-.73-1.24C139.16,132.87,138.92,133.34,139,134ZM152,161c-.33-.17-.39-.62-.33-1.18A2.11,2.11,0,0,1,152,161Zm36.56,75.09,0,0C188.45,235.18,188.46,235.5,188.57,236.1Zm.38,1.75c.16.13.25.08.32,0-.22,0-.38-.4-.51-.84C188.63,237.17,188.6,237.43,189,237.85ZM116.08,62.66l0,.39C115.54,62.41,115.8,62.54,116.08,62.66Z"/><path class="cls-1" d="M149.8,158.25a.79.79,0,0,1,.3-.3C149.93,157.86,149.8,157.91,149.8,158.25Z"/><path class="cls-1" d="M125.94,104.85s0,0,0,0a.23.23,0,0,0-.14,0Z"/><path class="cls-1" d="M172.81,214.91a1.5,1.5,0,0,1,.08-.79C172.71,214.17,172.64,214.38,172.81,214.91Z"/><path class="cls-1" d="M193.67,246l-.61-1a1.68,1.68,0,0,1,.17,1C193.38,246,193.52,245.71,193.67,246Z"/><path class="cls-1" d="M193.29,256.82c.15.12.15.32.29.44l.29-.17C193.58,256.45,193.15,256.1,193.29,256.82Z"/><path class="cls-1" d="M191.85,247.92c-.53.32-.07.89.34,1.58a.5.5,0,0,1-.05-.13C193,249.26,192.43,248.59,191.85,247.92Z"/><path class="cls-1" d="M192.28,249.67a3.11,3.11,0,0,1,.3.67C192.93,250.29,192.53,250,192.28,249.67Z"/><path class="cls-1" d="M190.18,239.77c0,.41.81-.08.66.21C191.72,240.07,189,238,190.18,239.77Z"/><polygon class="cls-1" points="190.24 249.28 190.83 248.73 190.1 248.55 190.24 249.28"/><path class="cls-1" d="M188.36,243.29l.29,1.25c.11-.07.24.05.37.21C188.74,244,188.55,243.17,188.36,243.29Z"/><path class="cls-1" d="M189,244.75a2.22,2.22,0,0,0,.5.9A5,5,0,0,0,189,244.75Z"/><polygon class="cls-1" points="189.37 247.77 189.37 247.36 189.08 246.51 189.37 247.77"/><path class="cls-1" d="M183.28,230.65l-.73-1.19c-.29,0-.29.37,0,.81C182.84,230.51,183.13,230.94,183.28,230.65Z"/><path class="cls-1" d="M183,235.3c0-.4.14-.49.29-.78l-.87.32Z"/><path class="cls-1" d="M181.23,231.66c-.29,0-1.45-1.57-.72,0C180.8,231.72,181.52,232.91,181.23,231.66Z"/><polygon class="cls-1" points="174.35 211.96 174.5 212.28 175.89 211.65 174.35 211.96"/><path class="cls-1" d="M164,196.4c.29,1.65,1,0,1.16,1.54.48.22-.12-1.26.32-1C164.7,196.16,164.7,195.59,164,196.4Z"/><path class="cls-1" d="M165.43,196.92a3.83,3.83,0,0,0,.41.38A2,2,0,0,0,165.43,196.92Z"/><polygon class="cls-1" points="92.18 2.94 92.07 1.84 91.85 2.67 92.18 2.94"/><path class="cls-1" d="M90.36,1.5l.8-.6L90.1.65C90.23.86,90.49,1.25,90.36,1.5Z"/><path class="cls-1" d="M138.25,137.48h.25c.17-.25.1-.48-.06-1Z"/><polygon class="cls-1" points="133.46 124 133.54 124.24 134.17 123.48 133.46 124"/><path class="cls-1" d="M127.83,113.36c.16.46.56.92.71,1.39C128,113.82,128.8,112.81,127.83,113.36Z"/><path class="cls-1" d="M.61,91.19c-.42-.23-.5.41-.61.49C.78,91.85.65,91,.61,91.19Z"/><polygon class="cls-1" points="8.31 92.83 8.08 93.02 9.38 92.87 8.31 92.83"/><path class="cls-1" d="M15,95.62c-.23-1.26-2.49-.85-3.54-1.69l-.1-.31-.87.57C12,94.67,14.09,94.92,15,95.62Z"/><path class="cls-1" d="M17.68,99.23c-.06-.47.91,0-.78-.46.06.07.07.11.11.16S17.35,99.07,17.68,99.23Z"/><path class="cls-1" d="M17,98.93c-.72-.27.32.51,0,0Z"/><path class="cls-1" d="M20.35,100.06l-1.07,0c.1.3.91.7.53.73C20.84,101,20.74,100.65,20.35,100.06Z"/><path class="cls-1" d="M21.53,99.7l-.54,0C21,99.78,21.15,99.86,21.53,99.7Z"/><path class="cls-1" d="M19.84,99.53l1.15.12c-.07-.22.05-.55-.51-.09C20.68,99.3,20.36,99.5,19.84,99.53Z"/><path class="cls-1" d="M19.33,99.14c-.43-.43-1-.85,0-.8C17.52,97.74,17.5,98.54,19.33,99.14Z"/><path class="cls-1" d="M15.76,94.73l-.57-.57-.74.08C14.82,94.2,15.68,95.06,15.76,94.73Z"/><path class="cls-1" d="M25.92,103c.15-.18-.08-.69,0-1l-.79,0C25.39,102.22,26,102.63,25.92,103Z"/><path class="cls-1" d="M25.89,102l1.17.06C26.16,101.62,25.93,101.72,25.89,102Z"/><polygon class="cls-1" points="22.15 98.67 20.15 98.73 22.48 98.79 22.15 98.67"/><polygon class="cls-1" points="29.83 104.61 29.05 104.86 30.39 104.55 29.83 104.61"/><path class="cls-1" d="M32.47,105.6c-.6.23.3.93-.25,1a5,5,0,0,0,2.15,0A3.1,3.1,0,0,1,32.47,105.6Z"/><path class="cls-1" d="M35.47,106.55a6.26,6.26,0,0,0-1.1.08A3.24,3.24,0,0,0,35.47,106.55Z"/><path class="cls-1" d="M28.77,102.87a1.2,1.2,0,0,0,.56.93l-.16-.76Z"/><path class="cls-1" d="M29.16,103v0l.86.4Z"/><path class="cls-1" d="M28.67,102.82l.1.05C28.75,102.79,28.74,102.76,28.67,102.82Z"/><path class="cls-1" d="M24.62,100.32c.74-.08,2.14.08,1.14-.93C25.16,99.62,25.73,100.2,24.62,100.32Z"/><path class="cls-1" d="M28.47,101.87l-1-.58c0,.16.06.47-.31.51Z"/><polygon class="cls-1" points="29.08 101.91 28.47 101.88 28.86 102.09 29.08 101.91"/><path class="cls-1" d="M33.83,105.22a4,4,0,0,1,1.7.33,11.09,11.09,0,0,0-1.8-1C33.56,104.75,33.16,105,33.83,105.22Z"/><path class="cls-1" d="M31.58,104.1h.12C31.66,104,31.61,104,31.58,104.1Z"/><path class="cls-1" d="M41.26,107.93l0-.15-.06.1Z"/><path class="cls-1" d="M33.67,104.44a1.2,1.2,0,0,0-1.11-.2,7.09,7.09,0,0,1,1.17.36C33.8,104.53,33.83,104.48,33.67,104.44Z"/><path class="cls-1" d="M37.18,106.94a5.24,5.24,0,0,0-.67-.66C36.67,106.56,37,107.06,37.18,106.94Z"/><path class="cls-1" d="M31.79,104.34h-.08C31.81,104.53,31.82,104.46,31.79,104.34Z"/><path class="cls-1" d="M31.79,104.34a3.12,3.12,0,0,0,.77-.1,3.9,3.9,0,0,0-.86-.13A.65.65,0,0,1,31.79,104.34Z"/><path class="cls-1" d="M44.57,104.85c-.31.51-1.75.51-2.57-.52-1.22,0-1.28,2.07-.79,3.45.13-.22.22-.44,1.44-.32-.26-.46-2.1-1.69-1-1.81,1.54.31,1.09.68,1.66,1.25-.3-.93,2.23-.24,2.34-1.37l-1.4-.17C44.3,105.2,44.86,105.13,44.57,104.85Z"/><path class="cls-1" d="M39.18,106.88l-.47-.12a4.49,4.49,0,0,1,1.22,1.38c.85,0,1.09-.1,1.22-.26l-2.15-1Z"/><path class="cls-1" d="M36.72,105.94c.59-.45,1.76-.27,1.38-1.18-1.32-.5-1.12.12-2,.06,2.16.72-.74.08.63,1.05a7.19,7.19,0,0,1-1.2-.32,9.24,9.24,0,0,1,1,.73l0-.06h0c-.06-.11-.07-.17,0-.09h.05a.86.86,0,0,1,.19-.19c.56.38,0,.2-.19.19,0,0-.05.05-.06.08h0l2.24.54A8.85,8.85,0,0,0,36.72,105.94Z"/><path class="cls-1" d="M27.41,98.57a.21.21,0,0,1,0,.17C27.59,98.72,27.66,98.7,27.41,98.57Z"/><path class="cls-1" d="M28.13,99.29a1,1,0,0,1-.89-.06c-.36-.36.12-.28.18-.49-.36,0-1.22,0-.41.67h.19c.76.55,1.54,1.75,1.35,1.77A4.35,4.35,0,0,0,28.13,99.29Z"/><path class="cls-1" d="M32.55,102.49l1.87.43-.68-.88-.08.32C32.71,101.83,32.77,102.3,32.55,102.49Z"/><polygon class="cls-1" points="41.34 108.31 40.84 108.84 42.22 108.37 41.34 108.31"/><polygon class="cls-1" points="43.64 109.18 43.33 109.69 44.07 109.61 43.64 109.18"/><path class="cls-1" d="M174.84,155.55l.58.06A2,2,0,0,0,174.84,155.55Z"/><path class="cls-1" d="M171.13,154l-.2.23C171.16,154.12,171.28,154,171.13,154Z"/><path class="cls-1" d="M99.54,132.26c.54.82,1,2,1.21,1.31l0-.7A2.38,2.38,0,0,1,99.54,132.26Z"/><path class="cls-1" d="M139.29,144.52c0-.09-.09-.18-.14-.28l-.75.37Z"/><path class="cls-1" d="M140.85,142.25l.83.8A4.27,4.27,0,0,0,140.85,142.25Z"/><path class="cls-1" d="M195.44,163.34l.86-.37C195.36,162.59,195.64,163.07,195.44,163.34Z"/><path class="cls-1" d="M67,118.61a6.42,6.42,0,0,0,1.47,1C67.86,119,67.45,118.19,67,118.61Z"/><path class="cls-1" d="M170.73,161.32c.36,0,.55,0,.59-.18C171,161.11,170.72,161.15,170.73,161.32Z"/><path class="cls-1" d="M70.36,120.41a1.85,1.85,0,0,0-.28-.28,6.2,6.2,0,0,1-1.58-.49A2,2,0,0,0,70.36,120.41Z"/><path class="cls-1" d="M269,194.39c0,.05.1.09.14.14S269.12,194.42,269,194.39Z"/><path class="cls-1" d="M288,209.36a9.3,9.3,0,0,1-.9-.32A2.65,2.65,0,0,0,288,209.36Z"/><path class="cls-1" d="M52.69,113.23c-.5-.16-.11,0,0,0Z"/><path class="cls-1" d="M51.32,109.88a.4.4,0,0,0,.32-.21A.51.51,0,0,1,51.32,109.88Z"/><path class="cls-1" d="M76.72,118.66a.05.05,0,0,1,0,0C76.67,118.5,76.68,118.53,76.72,118.66Z"/><path class="cls-1" d="M52.07,112.66a4.39,4.39,0,0,0,.55.43A3.69,3.69,0,0,0,52.07,112.66Z"/><path class="cls-1" d="M52.05,113c-.15-.1-.28-.16-.39-.23S51.58,112.91,52.05,113Z"/><path class="cls-1" d="M53.37,113.48a4.08,4.08,0,0,1-.75-.39c.07.08.1.13.07.14Z"/><path class="cls-1" d="M228.81,179.63a.39.39,0,0,1,.08.1C229.48,179.68,229.25,179.63,228.81,179.63Z"/><path class="cls-1" d="M114.68,131.22h-.06l.06.05Z"/><path class="cls-1" d="M116.6,131.49a1.53,1.53,0,0,1-1.92-.22l-.15,2Z"/><path class="cls-1" d="M183.83,159.07l-1-1c1.84-.28,2.78.47,1.95-.76-.95,1.81-4.81-1.77-5.76,0l-.64-.73c.23.12.31,0,.53.13-1.19-1.54-1.73.88-3.62-.22-.65-.43-1-.91-.45-.93l-1.75-.18c-.44-.23-.2-.51.24-.29l-2.44-.83,0-.05a10.3,10.3,0,0,1-1.88.33c-.49-.52.39-.07.33-.37l-1.51-.09c-.33-.71.95-.73,1.84-.29-.46-2.38-1.29,0-3.5-2.17l1.35.27c-.36-1.4-1.49-1.41-2.63-2.66.19.48,2.13,2.84.5,2.72a2.21,2.21,0,0,0-1.77-.54c.27-.67-.56-.82-1.52-1.17l.44-.86c-1.13-.17-1.24.32-2,.47a1.92,1.92,0,0,1-1.08-2c-1.76-.9.8,1.62-1.42.89-1.38-1-2.59-1-4.62-1.26-.93-.74.41-.47.14-.88l-1.24.32c-.22-.11-.05-.3,0-.39-.91-.06-.43.86-1.78.58-.74.84-2-2.48-4-2-.27-.41.41-.47.44-.86a14.09,14.09,0,0,0-4.17,0l-1.24-1.19c.81,1.11-.9,1.32-2.39,1.47a11,11,0,0,0,.63,1.12l-2.13-.33c-.18-.24.14-.46.61-.7l-.44.07c-.56-.62,0-1,.72-1.27.16.27.32.55.47.83.7-.34,1.4-.75,1.51-1.31a1.66,1.66,0,0,1-.73,0c.18-.09.32-.19.29-.3s-.31,0-.72.08l0-1.17-.27.35-2.28-1.67c-2.23.24-4.41,1.05-7.46.27,1-.43.64-1.12,1-2,.41,1.23,2.39.53,3.81,1.34-.74-.42-.4-.76-.15-.82l-3-.28c.35-.67-.35-.76-.92-1.34-.05,1.61-2.37.11-3.63.08.13-.49.58-.86,1.86-.2-1-1.65-2.56.85-3.63-.63.33.12.48.27.7.08-.92.1-2.63-1-2-1.21l.33.12c-2.08-1.05-6.52-2.71-7.33-1.67a8.47,8.47,0,0,1,1.1-1.49l-5.47,2.39c.76-.88.46-3.82,2.48-3.66a3.63,3.63,0,0,0-2.24-.87c.29.29.26,1.82-.25,1.72-.84-1.67-.66-1-1.87-2.61.43.43-.8,1.78-1.61,1.39.23-.18.58-1.6.95-1.64l-2.7.71c.63-.07.64-1.28.37-1.91.08.39-1.77-.77-2.38-.84l.72.72c-2.22-1.19-3.19,1.25-5.46.21.41-.2,1.51-1.69.42-2.37-.86.57-4,2.85-6.25,2.63l-.2-.62-1.77-.13a34.86,34.86,0,0,1,7.13-2.56c-.71-.72,0-.64-1.33-1.14-.28-.61,1-.35,1.37-.22l-2.91-1.53c-.25,1-2.7,0-2.91.8l3.69.4c-.25,1-3,1.86-5.07.81-.39-.6,1.1-1.49,1.18-1.82a3.63,3.63,0,0,1-2.39-.54l1.11-.12c-1-.85-2.45.42-3.52-1.06-.47-.26-1-1.81-1.29-1.29.37,1.39-.84,4.75-1.71,5.32a18.82,18.82,0,0,1-2.52-2.85c-.47-1.17,2-1.48,1.65-2.48-.14.24-.72.37-1,.39-.43-.43.55-.7-.63-1-.58.87-2.26-1-.87.58-1.21-.19-1.09-.68-2.4-1.18.16.78-2,1.6-3.24,1.41.16-.21,0-.63,0-.82-2.23-1-3.26-2-5.37-2.84-.1-.31-1-1-.4-1.23a2.43,2.43,0,0,1-1.45,0c-.92-1.33,1.51.48,1-.9-.31.51-2,.06-3.06,0-.07,1,2.07,1,3.14,1.09-.48,1.17-2.6,1.73-5,1.35-1.87-.43-.45-1.07-.82-1-3.21-1.56-3.65.88-6-1.09-.77-1.2.57-1.51.55-2.14,1.55.31,2,1.38,3,1.75l-1.05-.85a3,3,0,0,1,2,.58c-.63-1-5.51-2.43-7.79-4.1-.56.06-1.45,0-1.2.45l.85.23c.49.91-1.86.2-1,.91-1.25,0-2.74.13-4.11-.83l.06-1c-.07.26.79.92,1.32.83-.79.12-1.85-2.11-3-1.29l.82,1c-1.25,0-3,.33-4.2-.5.26,1.1.35,0,.9,1.42-.32-1.57,3.42,1.47,2.62-.36.51,1.54,1.5,1.18,2.38,2.69.07-.3-.24-.73.84-.12a1.23,1.23,0,0,1,.35-.15l.06.06,0-.06c.06,0,.07,0,0,0a1.39,1.39,0,0,1-.4-.67c.83-.41,2.61.35,3.36.27.61.41-.42.21-.17.66l1.11-.12c-.17.66,1.35,1.77-.38,1.48l1.41.61a4.51,4.51,0,0,0,2.6,1.35c.62.41,2,0,1.2.26l2.38.53,0,.17c2.17,1,5,.84,7,3a7.44,7.44,0,0,1,2.82,1v.64c1,.2,2.64,1.72,3.28,1.33.42,1.87,4.48,2.22,6,3.17l.36-.67a17.66,17.66,0,0,0,3.86,1.08l.17-.66c1.44,0,3,1.75,5,2.5-.23.18-.7-.09-1-.38,1.74,2.37,5.33,1,7,2.91a1.63,1.63,0,0,1,1.27.54.26.26,0,0,0-.15,0l.22.09a8.59,8.59,0,0,0,.59.64,2.77,2.77,0,0,0-.48-.59,8.69,8.69,0,0,0,1.73.43l0,.77.15,0c.49.49.6-.12.5-.75a3.68,3.68,0,0,0,1-.07c0,1.27,1.73.29,1.91,1.71.64-.39,3.21.83,4-.21,0,.16.1.31-.23.18a3,3,0,0,0,2,.74l-.06,1,1.94-.53c.68.88.92,1.34-.24,1.62,2.56-.12,1.9.34,4.13.1l-.32.51c.66.25,2-.05,2.21.56,1,1.65,7.13,3.12,10.46,5.64-.06-1.92,1.43,1.44,2.1.25.06.47.49.9-.25,1,2.06.41,2.61,1.79,4.36,1.28.06.47-.64.39-.54.69.19,0,.74-.08.85.23s-.42.21-.79.25c2,.74,2.66-.36,3.26-1.4.77.93,1.29,1.06,2.3.63.2.5.61,1.12-.65.75.66.33,3.93,2.25,4.37,1.39.12.31.92.46,1.14.43a26.83,26.83,0,0,0,3.14,1.36l-.35-.32c1-.82,1.34.28,2.6.65l-.08.1c2.45,1.92,1.35.12,3.72,2.13l.12-.72c.85-1.33,2.08,1.84,3.89,2l-.42-.61c1.07-.13,1.62,2.94,2.41,3.48.14.21-.38.08-.68.06,1.93,1.79.66-.75,2.44-.25.11.6-.9,1,.2,1.59.42.62,3.95-.15,5.13,1.39-.19-.5-.38-1,.52-1,1.26.37,2.7,2.72,4.26,2a.45.45,0,0,1,.1.38c1.05.09,3.21.75,4,.36-.1,2.65,6.2,1.26,5.3,3.37l2.89,1.07-.16.18a4,4,0,0,0,3.46.41c.36.32,0,.39-.11.48,2.47,1.53,2.77,1.55,5.44,1.42l-.06.78c.77-.15,3.39,2.66,6.32,2.94a.49.49,0,0,1-.41.19c3.26.41,6.22,4.81,8.33,2.75l2.19.19c-2.42-1.23.82-.94,0-1.78,1,.26,2.23,1.81,1,1.44l-.14-.21c-1,1.12,2.92,1.75,2.48,2.61,4.95,2,9.44,4.68,14,6.65l-.11-1.24,1.59.73c.32.41.23,1-.9.51.37.82,2.13.31,2.25.11,2.08,1.34-1.37.82-.69,1.12l1,.32-.16-.21c.93-.1,1.18-.51,2.53.11.79.56.19.81.52,1,0,.07.07.15.51.25l2,.92-.48-1.13c1.06,0,1.89.83,1.33-.47.79,2,7.34,3.63,8,4.42a8.77,8.77,0,0,1,4.24,1.17c-.31-.33-.17-1.32,1.11-.66-1.25,1.65,2.09,1.81,2.61,3.59-.59-1.29,3.86,1.34,2.88-.54,1,.61-.22.72.44,1.51,2.93.37,5.6,2.87,9,4,.15-.22-.24-.82.61-.89l1.21,1.93c.69.14,1.17-1.17,2,.17-.08-.28-.2-.69.26-.59,5.88,3.83,13.43,4.42,19,9.34-.68-.84-.08-.64.6-.38-.39-.3.26-.6.31-1l2.33,2c.87-.71,2.93,1.14,3.57.39l-.92-.2c1.57-.56-.64-3,.07-4.22-1.76.64-2.64-3.14-5.44-2.32-.35-.47.57-.27.45-.68-.76.35-1.46.2-2.54-.55l.19-.08c-3.4-1.25-4.6-2.4-8.19-4.33v.77a3.39,3.39,0,0,1-1.16-1c-1.34.62,2.24,1,.94,1.75-.52-1.78-5.68-2.38-5.77-4.2-1.24-.52.05.91-1.19.39l-.16-.55-.53.4a1.38,1.38,0,0,1-.86-1.47,3.08,3.08,0,0,0,.82.2c-.85-.92-3-1.07-3.34-1.38l1.09.75c-3.55-1-7.46-3.27-11.08-3.79l.12.41c-2.73-.46-1.86-1.17-4.71-2l.13,0a4.26,4.26,0,0,1-2.21-.41c.84-.08-1-1.25.06-1.27-3-.51-1.54-.08-3.8.33l-.2-.68a2.93,2.93,0,0,1-2.38,0c1.3,0-.55-1.14.95-1.21-2.41-2.31-4.74-.63-5.38-2.82-1.91.88,2.16,1.82,1.29,1.82.43.72-1.53.61-2.37.09s-.81-2.46-3.13-3.39c.23.1.29,0,.52.1-.72-.72-1.9-.21-2.72-1.24-1,.61-1.35-.62-2,.41l2.22.62c-1.32-.21-3,.61-4.7-.84a3.7,3.7,0,0,1,1.43-.19c-.44-.57-1.2-.25-1.66-.83.62-1,2.67.83,4.3.52-.43-.72-2.76-.21-1.62-1.13-1.56,1.12-2.2-1.14-4.24-.63l.37-.62a3.23,3.23,0,0,1-1.38-.1l1.18-.51c-1.57.2-2.18-1.65-3.56-1.76,2.56,1,.25,1,1.12,2-3.5-.42-1.09-2.47-4.73-3.61.51.1,1.62,1.13.75,1.13a5.65,5.65,0,0,1-1.66-1.54c-2.38-.83.08.82-1.08.81-.46-1.13-1.28-.14-2.4-.31l.27-.67c-2.48-1.53-1.28,1.1-3.46-.41l1.4-.51-1.35-.27.57-.66a4.59,4.59,0,0,1-3.18-1.08c.11.6-.68,1.15-1.86.68-.64-.73.71-.45-1-1,.55-.27,1.18-.62,1.65.29.17-.18.55-.26.71-.44-.67-.82-2.12-1-2.73-1.25a1.73,1.73,0,0,1,.59.43L203,168c-.27-.41.11-.48.49-.56a12.09,12.09,0,0,1-1.73-.2c.42-.47.6-1.05,1.73-.88L201,166c-.06-.3-.91-1.14-.53-1.21-1.15-.85-3.57-.25-5.08-1.37a1.17,1.17,0,0,1-.74,0c-1.54-.78-2.67-2-4.86-2.07l-.67-1.41c-1.57-.39.94,1.82-1.67,1.17-1.87-.41-.3-1.1-.8-1.62-1.07.13-3,.51-4.26-.95A7.44,7.44,0,0,1,183.83,159.07ZM165.46,152c.41,0,1.29-.14,1.39.36C166.13,152.93,166,152.44,165.46,152Zm-28.31-9.85c.35-.11.71.17,1.06.61A2.12,2.12,0,0,1,137.15,142.12ZM58.2,114.88l0,0C58.93,115.45,58.69,115.23,58.2,114.88Zm-1.51-1c-.2,0-.23.12-.2.25.18-.13.55,0,.95.23C57.4,114.17,57.24,114,56.69,113.91ZM232.1,186.26l-.24-.31C232.65,186.06,232.38,186.15,232.1,186.26Z"/><path class="cls-1" d="M140.66,142.51a.75.75,0,0,1,0,.42C140.85,142.88,140.9,142.75,140.66,142.51Z"/><path class="cls-1" d="M195.28,163.4l.06,0a.29.29,0,0,0,.1-.09Z"/><path class="cls-1" d="M84.32,118.72a1.44,1.44,0,0,1,.51.61C84.91,119.17,84.82,119,84.32,118.72Z"/><path class="cls-1" d="M47.57,111.46l1.12.26a1.73,1.73,0,0,1-.86-.61C47.79,111.28,47.9,111.59,47.57,111.46Z"/><path class="cls-1" d="M40.21,103.57c-.19,0-.33-.13-.52-.11l-.08.33C40.26,104,40.82,104,40.21,103.57Z"/><path class="cls-1" d="M47.52,108.84c.15-.6-.59-.68-1.36-.88a.75.75,0,0,1,.13.06C45.75,108.72,46.64,108.78,47.52,108.84Z"/><path class="cls-1" d="M46,107.91a3.09,3.09,0,0,1-.68-.26C45.08,107.93,45.55,107.83,46,107.91Z"/><path class="cls-1" d="M54.46,113.43c-.28-.29-.51.62-.61.31C53.16,114.3,56.52,113.84,54.46,113.43Z"/><polygon class="cls-1" points="47.69 106.74 47.67 107.55 48.31 107.16 47.69 106.74"/><path class="cls-1" d="M53.27,109.65,52.18,109c0,.12-.21.13-.42.11C52.48,109.4,53.21,109.86,53.27,109.65Z"/><path class="cls-1" d="M51.76,109.08a2.31,2.31,0,0,0-1-.28A4.94,4.94,0,0,0,51.76,109.08Z"/><polygon class="cls-1" points="49.38 107.2 49.67 107.48 50.47 107.88 49.38 107.2"/><path class="cls-1" d="M65.79,115l1.36.33c.23-.18-.06-.47-.57-.57S65.69,114.68,65.79,115Z"/><path class="cls-1" d="M62.72,111.49c.28.29.24.45.34.76l.4-.84Z"/><path class="cls-1" d="M66.52,112.83c.23-.18,2.14.09.5-.53C66.79,112.48,65.43,112.15,66.52,112.83Z"/><polygon class="cls-1" points="85.32 121.89 84.99 121.77 84.45 123.2 85.32 121.89"/><path class="cls-1" d="M103.68,125.54c-1.37-1-.72.73-1.91-.26-.49.18,1,.8.49.94C103.32,126.25,103.72,126.65,103.68,125.54Z"/><path class="cls-1" d="M102.26,126.22a5.34,5.34,0,0,0-.55,0A1.41,1.41,0,0,0,102.26,126.22Z"/><polygon class="cls-1" points="291.23 211.59 292.08 212.29 291.65 211.55 291.23 211.59"/><path class="cls-1" d="M293.53,211.32l-.14,1,.92-.57C294.07,211.69,293.62,211.59,293.53,211.32Z"/><path class="cls-1" d="M163.51,149l-.17.19c.06.3.28.41.72.63Z"/><polygon class="cls-1" points="176.43 155.18 176.21 155.06 176.3 156.05 176.43 155.18"/><path class="cls-1" d="M187.94,158.73c-.44-.22-1.05-.26-1.49-.49C187.5,158.51,187.64,159.79,187.94,158.73Z"/><path class="cls-1" d="M293.58,84.44c.45-.13.06-.65.08-.78C293,84.09,293.66,84.58,293.58,84.44Z"/><polygon class="cls-1" points="286.97 88.72 287 88.43 286.18 89.45 286.97 88.72"/><path class="cls-1" d="M280.27,91.48c1,.73,2.36-1.16,3.7-1.3l.29.14.2-1C283.07,90,281.4,91.34,280.27,91.48Z"/><path class="cls-1" d="M275.81,90.82c.38.3-.63.65.89-.22a1.49,1.49,0,0,1-.19,0A5.55,5.55,0,0,1,275.81,90.82Z"/><path class="cls-1" d="M276.51,90.56c.69-.32-.6-.13,0,0Z"/><path class="cls-1" d="M273.34,92.13l.79-.73c-.29-.14-1.14.15-.9-.15C272.36,91.84,272.65,92,273.34,92.13Z"/><path class="cls-1" d="M272.76,93.22l.42-.35C273.06,92.81,272.92,92.83,272.76,93.22Z"/><path class="cls-1" d="M274.08,92.14l-.9.73c.2.11.35.42.42-.3C273.64,92.9,273.73,92.53,274.08,92.14Z"/><path class="cls-1" d="M274.72,92.05c.61,0,1.33-.14.54.59C277,91.77,276.43,91.18,274.72,92.05Z"/><path class="cls-1" d="M280.35,92.65h.82l.46-.58C281.4,92.36,280.18,92.36,280.35,92.65Z"/><path class="cls-1" d="M267.35,94c0,.24.54.44.72.68l.59-.53C268.25,94.16,267.52,94.31,267.35,94Z"/><path class="cls-1" d="M268.07,94.69l-.87.78C268.13,95.14,268.23,94.89,268.07,94.69Z"/><polygon class="cls-1" points="273.05 94.38 274.42 92.93 272.73 94.53 273.05 94.38"/><polygon class="cls-1" points="263.42 95.61 263.8 94.88 263.07 96.05 263.42 95.61"/><path class="cls-1" d="M260.85,96.77c.27-.58-.87-.44-.52-.87a5.17,5.17,0,0,0-1.55,1.5A3,3,0,0,1,260.85,96.77Z"/><path class="cls-1" d="M258.06,98.23a6.82,6.82,0,0,0,.72-.83A3.12,3.12,0,0,0,258.06,98.23Z"/><path class="cls-1" d="M265.4,96.09a1.23,1.23,0,0,0-1-.26l.65.42Z"/><path class="cls-1" d="M265,96.26h0l-.89.33Z"/><path class="cls-1" d="M265.51,96.05l-.11,0C265.47,96.13,265.5,96.14,265.51,96.05Z"/><path class="cls-1" d="M270.14,95c-.47.58-1.58,1.46-.15,1.46C270.25,95.84,269.44,95.84,270.14,95Z"/><path class="cls-1" d="M266.32,96.59l1.14-.32c-.08-.15-.38-.29-.15-.58Z"/><polygon class="cls-1" points="265.86 97 266.32 96.59 265.89 96.7 265.86 97"/><path class="cls-1" d="M260.16,98a4,4,0,0,1-1.44,1,11.71,11.71,0,0,0,2-.6C260.68,98.15,260.82,97.71,260.16,98Z"/><path class="cls-1" d="M262.54,97.21l-.09.08C262.54,97.31,262.59,97.31,262.54,97.21Z"/><path class="cls-1" d="M253,101.35a.46.46,0,0,1,.14.07.5.5,0,0,1,0-.12Z"/><path class="cls-1" d="M260.83,98.44a1.23,1.23,0,0,0,.92-.63,8.25,8.25,0,0,1-1.07.57C260.67,98.48,260.69,98.54,260.83,98.44Z"/><path class="cls-1" d="M256.58,99.17a6,6,0,0,0,.94,0C257.21,99.07,256.6,99,256.58,99.17Z"/><path class="cls-1" d="M262.22,97.19l.06,0C262.08,97.07,262.12,97.13,262.22,97.19Z"/><path class="cls-1" d="M262.22,97.19a3.38,3.38,0,0,0-.47.62,4,4,0,0,0,.7-.52A1.15,1.15,0,0,1,262.22,97.19Z"/><path class="cls-1" d="M252.83,105.87c-.14-.59.88-1.61,2.19-1.46.87-.84-.56-2.36-1.89-3,.07.25.16.47-.78,1.24.5.14,2.68-.29,2,.58-1.31.88-1.25.29-2.06.29.87.44-1.4,1.75-.68,2.62l1.11-.87C252.78,105.43,252.43,105.87,252.83,105.87Z"/><path class="cls-1" d="M255.21,100.62l.41-.25a4.66,4.66,0,0,1-1.84-.11c-.63.57-.7.84-.67,1l2.21-.82Z"/><path class="cls-1" d="M257.61,99.54c-.1.74-1.06,1.44-.14,1.81,1.28-.58.71-.87,1.38-1.45-2,1,.46-.58-1.2-.3a7.13,7.13,0,0,1,1.07-.62,10.49,10.49,0,0,1-1.2.17l.07,0h0c.12,0,.17.07,0,.06s0,0,0,0a.76.76,0,0,1,0,.26c-.66.13-.16-.12,0-.26,0,0,0-.07,0-.1h0l-2,1.2A9,9,0,0,0,257.61,99.54Z"/><path class="cls-1" d="M269.4,98.17a.21.21,0,0,1-.13-.11C269.17,98.19,269.14,98.26,269.4,98.17Z"/><path class="cls-1" d="M268.39,98.17a1,1,0,0,1,.66-.59c.51,0,.12.29.22.48.24-.28.88-.86-.18-.77l-.12.15c-.93.14-2.33-.15-2.21-.3A4.31,4.31,0,0,0,268.39,98.17Z"/><path class="cls-1" d="M263,99l-1.63,1,1.11.15-.18-.29C263.35,99.62,263,99.32,263,99Z"/><polygon class="cls-1" points="252.67 101.13 252.64 100.41 252 101.71 252.67 101.13"/><polygon class="cls-1" points="250.43 102.15 250.28 101.57 249.82 102.15 250.43 102.15"/><path class="cls-1" d="M124.87,162.13l-.45.37A2.94,2.94,0,0,0,124.87,162.13Z"/><path class="cls-1" d="M128.61,160.63l0-.31C128.47,160.54,128.45,160.68,128.61,160.63Z"/><path class="cls-1" d="M194.58,125.35c-1-.2-2.13-.65-1.78-.07l.48.51A2.46,2.46,0,0,1,194.58,125.35Z"/><path class="cls-1" d="M157.8,144.79l.3.1c.09-.29.18-.55.26-.79C158.2,144.31,158,144.55,157.8,144.79Z"/><path class="cls-1" d="M158.3,147.5l-1.15,0A4.09,4.09,0,0,0,158.3,147.5Z"/><path class="cls-1" d="M104.79,171.19l-.35.86C105.38,171.66,104.84,171.52,104.79,171.19Z"/><path class="cls-1" d="M227.22,112a6.42,6.42,0,0,0-1.77.31C226.38,112.35,227.22,112.61,227.22,112Z"/><path class="cls-1" d="M123.69,155.14c-.27.24-.35.42-.29.55C123.68,155.45,123.82,155.26,123.69,155.14Z"/><path class="cls-1" d="M223.59,113.1a2.67,2.67,0,0,0,.4,0,5.9,5.9,0,0,1,1.46-.77A2,2,0,0,0,223.59,113.1Z"/><path class="cls-1" d="M30.82,201.25h-.2C30.64,201.33,30.72,201.31,30.82,201.25Z"/><path class="cls-1" d="M6.82,204.08a7.91,7.91,0,0,1,.86-.41A2.52,2.52,0,0,0,6.82,204.08Z"/><path class="cls-1" d="M241.16,105.68c.47-.24.05-.1,0,0Z"/><path class="cls-1" d="M244.5,107.08a.42.42,0,0,0-.08.38A.52.52,0,0,1,244.5,107.08Z"/><path class="cls-1" d="M220.33,118.84h0C220.48,118.91,220.45,118.9,220.33,118.84Z"/><path class="cls-1" d="M242,105.65a3.57,3.57,0,0,0-.69.08A4.69,4.69,0,0,0,242,105.65Z"/><path class="cls-1" d="M241.79,105.41l.44-.12C242.25,105.17,242.17,105.12,241.79,105.41Z"/><path class="cls-1" d="M240.51,106a4.38,4.38,0,0,1,.8-.26c-.11,0-.16,0-.15,0Z"/><path class="cls-1" d="M69.68,183.27a.69.69,0,0,1-.13,0C69.17,183.71,69.36,183.58,69.68,183.27Z"/><path class="cls-1" d="M184.61,136.8s0,0,0-.05h-.08Z"/><path class="cls-1" d="M183.06,138c.43-1.06.89-1.14,1.51-1.21l-1.29-1.5Z"/><path class="cls-1" d="M116,166l1.44,0c-1.1,1.5-2.29,1.63-.83,1.92-.61-1.95,4.65-2.15,4-4.1l1,.06c-.24.08-.23.2-.47.28,1.94.26.6-1.84,2.72-2.41.76-.14,1.36-.07,1,.35l1.36-1.11c.47-.15.5.22,0,.37l2.32-1.14v.07a9.66,9.66,0,0,1,1.09-1.56c.72,0-.22.32,0,.49l1.13-1c.74.27-.16,1.19-1.1,1.5,2,1.37.9-.93,4-.93l-1.14.75c1.24.74,2,0,3.74,0-.48-.21-3.52-.51-2.28-1.57a2.27,2.27,0,0,0,1.64-.88c.28.67,1,.19,1.89-.24l.31.92c.91-.68.64-1.1,1.08-1.75a1.92,1.92,0,0,1,2.2.68c1.87-.62-1.72-.58.37-1.64,1.65-.29,2.57-1.09,4.16-2.37,1.18-.14,0,.62.52.71l.65-1.09c.23-.08.25.17.26.29.67-.6-.3-.91.84-1.67-.07-1.11,3.14.37,4.22-1.38.49.1,0,.62.3.92a13.92,13.92,0,0,0,2.93-3l1.71,0c-1.36-.21-.3-1.58.65-2.73-.52-.16-1-.3-1.24-.35l1.74-1.27c.3,0,.23.43.06.93a3.36,3.36,0,0,0,.27-.36c.83,0,.68.7.39,1.4-.31-.07-.62-.16-.92-.25a2.49,2.49,0,0,0-.15,2,1.77,1.77,0,0,1,.54-.5c-.06.2-.09.36,0,.43s.23-.22.45-.58l.85.81,0-.44,2.79-.43c1.4-1.75,2.38-3.86,5.09-5.46-.42,1,.33,1.24.65,2.12-1.16-.59-2.07,1.31-3.64,1.74.82-.23.82.25.68.48l2.32-1.93c.23.73.78.29,1.6.29-1.1-1.17,1.6-1.74,2.51-2.62.26.44.19,1-1.17,1.46,1.89.44,1.2-2.41,3-2.12-.31.15-.52.15-.55.44.59-.73,2.56-1.16,2.3-.58l-.32.15c2.21-.73,6.53-2.7,6.36-4a8.8,8.8,0,0,1,.28,1.83l2.18-5.55c.08,1.15,2.37,3,.83,4.34a3.59,3.59,0,0,0,2.2-1c-.41,0-1.47-1.1-1-1.39,1.77.59,1.16.23,3.17.52-.62,0-.69-1.83.15-2.12,0,.29.72,1.54.49,1.83l1.4-2.41c-.39.5.46,1.36,1.1,1.61-.34-.21,1.79-.7,2.27-1.09h-1c2.41-.72,1.38-3.14,3.71-4-.14.44.14,2.27,1.39,2,.2-1,.78-4.82,2.56-6.28l.58.3,1.34-1.17a34.54,34.54,0,0,1-3.23,6.86c1,0,.46.44,1.74-.14.64.24-.44.94-.81,1.13l3.14-1c-.52-.88,1.92-1.89,1.49-2.62l-2.89,2.33c-.51-.88.81-3.44,3-4.16.69.15.28,1.83.45,2.12.14-.43,1.78-1.45,2.07-1.31l-.7.88c1.33-.15,1.43-2,3.23-1.75.52-.14,2,.59,1.83,0-1.24-.73-2.76-4-2.56-5a18.74,18.74,0,0,1,3.8.23c1.16.5-.4,2.49.59,2.92-.07-.26.25-.76.39-.94.61,0,.12.87,1.2.29-.21-1,2.32-.87.2-1,1-.72,1.25-.29,2.53-.87-.66-.44.31-2.56,1.3-3.28,0,.26.41.47.59.57,2.3-.86,3.69-.93,5.81-1.8.29.15,1.42,0,1.15.59.24-.29.38-.73,1-1,1.6.3-1.39.73,0,1.31-.14-.58,1.37-1.45,2.16-2.18-.64-.73-2.21.73-3,1.45-.49-1.16.62-3.06,2.6-4.51,1.64-1,1.08.44,1.31.15,3.38-1.16,2-3.21,5-3.5,1.4.3.67,1.47,1.13,1.9-1.31.88-2.39.44-3.34.87l1.33-.14a3,3,0,0,1-1.83,1c1.19.29,5.61-2.18,8.41-2.61.35-.44,1-1,.53-1.17l-.76.44c-1-.3,1.17-1.46,0-1.32.91-.87,1.84-2,3.5-2.32l.64.73c-.14-.23-1.21-.09-1.53.34.48-.64,2.81.19,3-1.21l-1.31-.15c.91-.88,1.87-2.33,3.33-2.62-1-.59-.27.22-1.63-.36,1.33.88-3.47,1.37-1.6,2.1-1.46-.73-1.9.22-3.59-.22.16.27.68.35-.51.68a1.17,1.17,0,0,1-.14.35h0c0,.06,0,.07,0,0a1.35,1.35,0,0,1,.75.19c-.29.87-2.1,1.6-2.57,2.18-.72.15.15-.44-.34-.58l-.7.87c-.35-.58-2.21-.3-.78-1.31l-1.44.56a4.48,4.48,0,0,0-2.79.89c-.72.14-1.4,1.39-1,.66l-2.07,1.31-.08-.15c-2.24.83-4.1,2.91-7.08,2.82a7.27,7.27,0,0,1-2.67,1.31l-.47-.44c-.87.58-3.08.65-3.25,1.38-1.63-1-4.74,1.59-6.52,2l.23.73a17,17,0,0,0-3.5,2l.34.59c-1,1-3.35.87-5.27,1.74,0-.3.56-.44,1-.44-2.91-.44-4.49,3.05-7,2.91a1.64,1.64,0,0,1-1.28.52.27.27,0,0,0,.12-.09l-.22.08c-.28,0-.57,0-.87,0a2.63,2.63,0,0,0,.75.08,9,9,0,0,0-1.52.92l-.53-.56a1,1,0,0,0-.14.08c-.69,0-.34.51.18.88a3.78,3.78,0,0,0-.63.73c-.92-.87-1.43,1-2.56.14-.17.73-2.86,1.68-2.69,3-.08-.14-.29-.14,0-.29a3.06,3.06,0,0,0-1.92.87l-.64-.73-1,1.75c-1.11-.15-1.6-.29-1-1.31-1.72,1.89-1.57,1.09-3,2.84l-.14-.58c-.64.29-1.37,1.45-1.95,1.16-1.89-.44-7.26,2.84-11.39,3.41,1.39,1.32-2,0-1.66,1.31-.38-.29-1-.29-.52-.87-1.75,1.16-3.11.58-4,2.18-.38-.3.18-.73-.11-.88-.12.15-.47.58-.76.44s.14-.44.38-.73c-1.92.87-1.63,2.13-1.31,3.29-1.21-.11-1.67.16-2.08,1.18-.49-.21-1.22-.36-.07-1-.7.23-4.37,1.19-4.07,2.11-.31-.14-1,.33-1.12.5a27.52,27.52,0,0,0-3.17,1.26l.47,0c-.15,1.31-1.15.75-2.3,1.38v-.13c-3.09.38-1,.87-4.14,1.12l.42.6c.34,1.54-2.77.16-4.13,1.37l.73.14c-.66.85-3.22-.94-4.17-.76-.24,0,.22-.32.45-.53-2.63.1.06,1-1.55,1.9-.51-.34-.09-1.36-1.27-1-.73-.15-2.68,2.89-4.61,2.64.49.22,1,.44.31,1-1.16.63-3.84,0-4.45,1.57-.2,0-.3-.1-.34-.19-.8.68-2.8,1.73-3.1,2.58-1.8-1.94-5.28,3.5-6.13,1.37l-2.8,1.29v-.25a4,4,0,0,0-2.73,2.16c-.48,0-.26-.29-.27-.42-2.83.67-3.06.87-4.84,2.85l-.52-.59c-.44.65-4.28.51-6.55,2.39a.51.51,0,0,1,.16-.43c-2.6,2-7.8,1-7.84,3.94L87.1,172c2.58-.84.07,1.24,1.27,1.23-.92.55-2.85.3-1.7-.33l.25,0c-.1-1.49-3.3.82-3.6-.09-4.89,2.1-10,3.36-14.62,5.21l1,.8-1.64.6c-.52-.06-.89-.55.27-1-.84-.32-1.72,1.28-1.66,1.51-2.42.52.39-1.54-.31-1.28l-.91.46.26,0c-.58.73-.47,1.2-1.87,1.72-.95.16-.7-.44-1.06-.34,0-.07-.16-.06-.54.19l-2.06.75,1.14.47c-.73.76-1.92.74-.61,1.26-2-.83-7.76,2.63-8.78,2.55A9,9,0,0,1,48.06,188c.45,0,1,.81-.32,1.25-.28-2.06-2.76.2-4.38-.69,1.32.49-3.68,1.78-1.66,2.41-1.16.31-.35-.66-1.37-.75-2.34,1.81-6,1.93-9.15,3.52.05.27.75.42.2,1.07l-2.22-.51c-.59.39,0,1.65-1.53,1.29.25.14.62.35.22.6-6.86,1.45-12.62,6.37-20,6.82,1.08.11.51.4-.15.69.48-.07.24.61.46.9l-3.09.21C4.94,205.9,2.17,206,2.25,207l.79-.52c-.71,1.51,2.55,1.64,2.94,3,.79-1.71,4.09.34,5.49-2.21.57.08-.22.59.15.8.3-.79.89-1.17,2.19-1.41l-.08.19c3.29-1.52,4.95-1.55,8.86-2.73l-.55-.54a3.49,3.49,0,0,1,1.54-.11c.52-1.37-2.28.89-1.9-.56,1.63.89,5.7-2.34,7.05-1.12,1.25-.5-.68-.61.57-1.11l.5.27.09-.66a1.41,1.41,0,0,1,1.65.43c-.22,0-.52.33-.72.45,1.25.05,2.91-1.4,3.33-1.39l-1.29.24c3.22-1.79,7.58-3,10.51-5.15l-.38-.21c2.26-1.61,2.14-.49,4.78-1.89l-.07.12a4.12,4.12,0,0,1,1.85-1.27c-.54.65,1.6.16.86.94,2.45-1.74,1.14-1,2.45-2.93l.62.34a2.94,2.94,0,0,1,1.69-1.68c-.94.9,1.2.42.18,1.52,3.34-.06,3.8-2.9,5.8-1.8.73-2-2.82.24-2.2-.37-.82-.21.64-1.52,1.61-1.75s2.31,1.17,4.61.19c-.23.09-.2.2-.44.29,1,0,1.5-1.19,2.8-1,.24-1.11,1.4-.52,1.11-1.69l-2,1.13c1.08-.78,1.68-2.53,3.91-2.73a3.68,3.68,0,0,1-.86,1.15c.71.08,1-.68,1.76-.59.28,1.17-2.48,1.3-3.42,2.67.82.21,2.11-1.8,2-.34.31-1.9,2.36-.76,3.45-2.56l.16.7a3.38,3.38,0,0,1,1.06-.9l-.48,1.19c1-1.25,2.71-.37,3.76-1.27-2.53,1.07-.9-.56-2.17-.59,2.77-2.18,2.51,1,5.9-.8-.44.29-2,.35-1.33-.27a5.65,5.65,0,0,1,2.26-.08c2.27-1.1-.64-.52.19-1.34,1.12.47,1-.8,1.92-1.48l.28.67c2.83-.67.13-1.69,2.73-2.16l-.62,1.35,1.14-.76.06.87a4.65,4.65,0,0,1,3-1.49c-.51-.34-.33-1.29.83-1.79,1,.06-.18.82,1.44,0-.2.58-.39,1.27-1.37,1,0,.25-.2.57-.19.82,1.06.1,2.21-.8,2.81-1.05a1.74,1.74,0,0,1-.71.11l2-1.93c.48.1.26.43,0,.75.46-.28.67-.73,1.36-1.08,0,.62.32,1.16-.59,1.84L99,173.19c.25.18,1.45.16,1.23.49,1.41-.21,2.69-2.35,4.56-2.63a1.15,1.15,0,0,1,.5-.54c1.64-.54,3.33-.45,4.9-2l1.47.53c1.38-.83-2-.63.35-2,1.61-1,1,.56,1.72.58.66-.85,1.75-2.47,3.67-2.34A7.31,7.31,0,0,1,116,166Zm18-8c-.29.29-.82,1-1.24.72C132.87,157.82,133.34,158.06,134,158ZM161,145c-.17.33-.62.39-1.18.32A2.19,2.19,0,0,1,161,145Zm75.09-36.56s0,0,0,0C235.18,108.53,235.5,108.51,236.1,108.41Zm1.75-.38c.13-.16.08-.25,0-.32,0,.22-.4.38-.84.51C237.17,108.35,237.43,108.38,237.85,108ZM62.66,180.9l.39,0C62.41,181.44,62.54,181.18,62.66,180.9Z"/><path class="cls-1" d="M158.25,147.18a.79.79,0,0,1-.3-.3C157.86,147.05,157.91,147.18,158.25,147.18Z"/><path class="cls-1" d="M104.85,171l0,0a.23.23,0,0,0,0,.14Z"/><path class="cls-1" d="M214.91,124.17a1.5,1.5,0,0,1-.79-.08C214.17,124.26,214.38,124.34,214.91,124.17Z"/><path class="cls-1" d="M246,103.31l-1,.61a1.7,1.7,0,0,1,1-.18C246,103.6,245.71,103.45,246,103.31Z"/><path class="cls-1" d="M256.82,103.69c.12-.15.32-.15.44-.29l-.17-.3C256.45,103.39,256.1,103.83,256.82,103.69Z"/><path class="cls-1" d="M247.92,105.13c.32.53.89.06,1.58-.34l-.13,0C249.26,104,248.59,104.55,247.92,105.13Z"/><path class="cls-1" d="M249.67,104.7a3.11,3.11,0,0,1,.67-.3C250.29,104.05,250,104.45,249.67,104.7Z"/><path class="cls-1" d="M239.77,106.8c.41,0-.08-.81.21-.66C240.07,105.26,238,108,239.77,106.8Z"/><polygon class="cls-1" points="249.28 106.74 248.73 106.15 248.55 106.88 249.28 106.74"/><path class="cls-1" d="M243.29,108.62l1.25-.29c-.07-.11.05-.24.21-.37C244,108.24,243.17,108.43,243.29,108.62Z"/><path class="cls-1" d="M244.75,108a2.22,2.22,0,0,0,.9-.5A5,5,0,0,0,244.75,108Z"/><polygon class="cls-1" points="247.77 107.61 247.36 107.61 246.51 107.9 247.77 107.61"/><path class="cls-1" d="M230.65,113.7l-1.19.73c0,.29.37.29.81,0C230.51,114.14,230.94,113.85,230.65,113.7Z"/><path class="cls-1" d="M235.3,114c-.4,0-.49-.15-.78-.29l.32.87Z"/><path class="cls-1" d="M231.66,115.74c0,.3-1.57,1.46,0,.73C231.72,116.18,232.91,115.45,231.66,115.74Z"/><polygon class="cls-1" points="211.96 122.63 212.28 122.48 211.65 121.09 211.96 122.63"/><path class="cls-1" d="M196.4,133c1.65-.29,0-1,1.54-1.16.22-.48-1.26.12-1-.32C196.16,132.28,195.59,132.28,196.4,133Z"/><path class="cls-1" d="M196.92,131.55a3.83,3.83,0,0,0,.38-.41A2,2,0,0,0,196.92,131.55Z"/><polygon class="cls-1" points="2.94 204.8 1.84 204.91 2.67 205.13 2.94 204.8"/><path class="cls-1" d="M1.5,206.62l-.6-.8-.25,1.06C.86,206.74,1.25,206.49,1.5,206.62Z"/><path class="cls-1" d="M137.48,158.72v-.24c-.25-.17-.48-.1-1,.05Z"/><polygon class="cls-1" points="124 163.52 124.24 163.44 123.48 162.81 124 163.52"/><path class="cls-1" d="M113.36,169.15c.46-.16.92-.56,1.39-.71C113.82,169,112.81,168.18,113.36,169.15Z"/><path class="cls-1" d="M205.79.61c.23-.42-.41-.5-.49-.61C205.13.78,206,.65,205.79.61Z"/><polygon class="cls-1" points="204.15 8.31 203.96 8.08 204.1 9.38 204.15 8.31"/><path class="cls-1" d="M201.36,15c1.25-.23.85-2.49,1.69-3.54l.31-.1-.57-.87C202.31,12,202.06,14.09,201.36,15Z"/><path class="cls-1" d="M197.74,17.68c.48-.06,0,.91.47-.78l-.16.11A5.92,5.92,0,0,1,197.74,17.68Z"/><path class="cls-1" d="M198.05,17c.26-.72-.51.32,0,0Z"/><path class="cls-1" d="M196.92,20.35l0-1.07c-.3.1-.7.91-.74.53C196,20.84,196.32,20.74,196.92,20.35Z"/><path class="cls-1" d="M197.28,21.53l.05-.54C197.2,21,197.12,21.15,197.28,21.53Z"/><path class="cls-1" d="M197.45,19.84,197.33,21c.22-.07.55.05.09-.51C197.68,20.68,197.48,20.36,197.45,19.84Z"/><path class="cls-1" d="M197.84,19.33c.43-.43.84-1,.8,0C199.24,17.52,198.44,17.5,197.84,19.33Z"/><path class="cls-1" d="M202.24,15.76l.58-.57-.08-.74C202.78,14.82,201.92,15.68,202.24,15.76Z"/><path class="cls-1" d="M194,25.92c.19.15.69-.08,1,0l.05-.79C194.76,25.39,194.35,26,194,25.92Z"/><path class="cls-1" d="M195,25.89l-.06,1.17C195.36,26.16,195.26,25.93,195,25.89Z"/><polygon class="cls-1" points="198.31 22.15 198.25 20.15 198.19 22.48 198.31 22.15"/><polygon class="cls-1" points="192.37 29.83 192.12 29.05 192.43 30.39 192.37 29.83"/><path class="cls-1" d="M191.37,32.47c-.22-.6-.92.3-1-.25a5,5,0,0,0,0,2.15A3,3,0,0,1,191.37,32.47Z"/><path class="cls-1" d="M190.43,35.47a6.26,6.26,0,0,0-.08-1.1A3.24,3.24,0,0,0,190.43,35.47Z"/><path class="cls-1" d="M194.11,28.77a1.19,1.19,0,0,0-.93.56l.75-.16C194,29.05,194.05,28.91,194.11,28.77Z"/><path class="cls-1" d="M194,29.16h0c-.19.43-.33.73-.39.86Z"/><path class="cls-1" d="M194.16,28.67a.93.93,0,0,0,0,.1C194.19,28.75,194.21,28.74,194.16,28.67Z"/><path class="cls-1" d="M196.66,24.62c.08.74-.08,2.14.92,1.14C197.36,25.16,196.78,25.73,196.66,24.62Z"/><path class="cls-1" d="M195.1,28.47l.59-1c-.16,0-.47.06-.51-.31Z"/><polygon class="cls-1" points="195.07 29.08 195.1 28.47 194.89 28.86 195.07 29.08"/><path class="cls-1" d="M191.75,33.83a4,4,0,0,1-.32,1.7,11.09,11.09,0,0,0,.95-1.8C192.23,33.56,192,33.16,191.75,33.83Z"/><path class="cls-1" d="M192.88,31.58s0,.09,0,.12S193,31.61,192.88,31.58Z"/><path class="cls-1" d="M189.05,41.26l.14,0-.09-.06Z"/><path class="cls-1" d="M192.54,33.67a1.23,1.23,0,0,0,.2-1.11,7.09,7.09,0,0,1-.36,1.17C192.45,33.8,192.5,33.83,192.54,33.67Z"/><path class="cls-1" d="M190,37.18a5.24,5.24,0,0,0,.66-.67C190.42,36.67,189.92,37,190,37.18Z"/><path class="cls-1" d="M192.64,31.79v-.08C192.45,31.81,192.52,31.82,192.64,31.79Z"/><path class="cls-1" d="M192.64,31.79a2.71,2.71,0,0,0,.1.77,4.6,4.6,0,0,0,.13-.86A.73.73,0,0,1,192.64,31.79Z"/><path class="cls-1" d="M192.13,44.57c-.51-.31-.51-1.75.52-2.57,0-1.22-2.07-1.28-3.46-.79.23.13.45.22.33,1.44.46-.26,1.69-2.1,1.81-1-.31,1.54-.68,1.09-1.25,1.66.92-.3.24,2.23,1.37,2.34l.17-1.4C191.78,44.3,191.85,44.86,192.13,44.57Z"/><path class="cls-1" d="M190.1,39.18l.12-.47a4.49,4.49,0,0,1-1.38,1.22c0,.85.1,1.09.26,1.22l1-2.15Z"/><path class="cls-1" d="M191,36.72c.45.59.27,1.76,1.18,1.38.5-1.32-.12-1.12-.06-2-.72,2.16-.08-.74-1,.63a7.19,7.19,0,0,1,.32-1.2,9.24,9.24,0,0,1-.73,1l.06,0h0c.11-.06.17-.07.08,0s0,0,0,.05a.65.65,0,0,1,.18.19c-.37.56-.19,0-.18-.19,0,0,0-.05-.08-.06h0l-.54,2.24A9.36,9.36,0,0,0,191,36.72Z"/><path class="cls-1" d="M198.4,27.41a.18.18,0,0,1-.16,0C198.25,27.59,198.28,27.66,198.4,27.41Z"/><path class="cls-1" d="M197.68,28.13a1,1,0,0,1,.07-.89c.35-.36.28.12.49.18,0-.36,0-1.22-.68-.41l0,.19c-.55.76-1.75,1.54-1.77,1.35A4.31,4.31,0,0,0,197.68,28.13Z"/><path class="cls-1" d="M194.49,32.55l-.43,1.87.88-.68-.33-.08C195.15,32.71,194.68,32.77,194.49,32.55Z"/><polygon class="cls-1" points="188.67 41.34 188.13 40.84 188.61 42.22 188.67 41.34"/><polygon class="cls-1" points="187.8 43.64 187.29 43.33 187.37 44.07 187.8 43.64"/><path class="cls-1" d="M141.43,174.84l-.06.58A2,2,0,0,0,141.43,174.84Z"/><path class="cls-1" d="M143,171.13l-.23-.2C142.86,171.16,142.94,171.28,143,171.13Z"/><path class="cls-1" d="M164.72,99.54c-.82.54-2,1-1.31,1.21l.7,0A2.38,2.38,0,0,1,164.72,99.54Z"/><path class="cls-1" d="M152.46,139.29l.27-.14-.36-.75C152.4,138.67,152.43,139,152.46,139.29Z"/><path class="cls-1" d="M154.73,140.85l-.8.83A4.27,4.27,0,0,0,154.73,140.85Z"/><path class="cls-1" d="M133.64,195.44l.37.86C134.39,195.36,133.91,195.64,133.64,195.44Z"/><path class="cls-1" d="M178.37,67a6.42,6.42,0,0,0-1,1.47C178,67.86,178.79,67.45,178.37,67Z"/><path class="cls-1" d="M135.66,170.73c0,.36,0,.55.18.59C135.87,171,135.83,170.72,135.66,170.73Z"/><path class="cls-1" d="M176.57,70.36a2.47,2.47,0,0,0,.28-.28,5.82,5.82,0,0,1,.49-1.58A2,2,0,0,0,176.57,70.36Z"/><path class="cls-1" d="M102.59,269s-.09.1-.14.14S102.56,269.12,102.59,269Z"/><path class="cls-1" d="M87.62,288a9.3,9.3,0,0,1,.32-.9A2.65,2.65,0,0,0,87.62,288Z"/><path class="cls-1" d="M183.75,52.69c.16-.5,0-.11,0,0Z"/><path class="cls-1" d="M187.1,51.32a.4.4,0,0,0,.21.32A.51.51,0,0,1,187.1,51.32Z"/><path class="cls-1" d="M178.32,76.72a.05.05,0,0,1,0,0C178.48,76.67,178.45,76.68,178.32,76.72Z"/><path class="cls-1" d="M184.32,52.07a3.63,3.63,0,0,0-.43.55A3.69,3.69,0,0,0,184.32,52.07Z"/><path class="cls-1" d="M184,52.05l.23-.39C184.16,51.55,184.07,51.58,184,52.05Z"/><path class="cls-1" d="M183.5,53.37a4.08,4.08,0,0,1,.39-.75c-.08.07-.13.1-.14.07C183.7,52.83,183.63,53,183.5,53.37Z"/><path class="cls-1" d="M117.35,228.81a.39.39,0,0,1-.1.08C117.3,229.48,117.35,229.25,117.35,228.81Z"/><path class="cls-1" d="M165.76,114.68s0,0,0-.06l0,.06Z"/><path class="cls-1" d="M165.49,116.6a1.53,1.53,0,0,1,.22-1.92l-2-.15Z"/><path class="cls-1" d="M137.91,183.83l1-1c.29,1.84-.46,2.78.77,1.95-1.81-.95,1.77-4.81,0-5.76l.73-.64c-.12.23,0,.31-.13.53,1.54-1.19-.89-1.73.22-3.62.43-.65.91-1,.93-.45l.18-1.75c.23-.44.51-.2.28.24l.84-2.44.05,0a10.3,10.3,0,0,1-.33-1.88c.52-.49.07.39.37.33l.09-1.51c.71-.33.73,1,.28,1.84,2.39-.46,0-1.29,2.18-3.5l-.27,1.35c1.4-.36,1.41-1.49,2.66-2.63-.49.19-2.84,2.13-2.72.5a2.21,2.21,0,0,0,.54-1.77c.67.27.82-.56,1.17-1.52l.86.44c.17-1.13-.32-1.24-.47-2a1.92,1.92,0,0,1,2-1.08c.9-1.76-1.62.8-.89-1.42,1-1.38,1-2.59,1.26-4.62.74-.93.46.41.88.14l-.32-1.24c.11-.22.3-.05.39,0,0-.91-.86-.43-.58-1.78-.84-.74,2.48-2,2-4,.41-.27.47.41.86.44a14.09,14.09,0,0,0,0-4.17l1.19-1.24c-1.11.81-1.33-.9-1.47-2.39a11,11,0,0,0-1.12.63l.32-2.13c.25-.18.47.14.71.61,0-.16,0-.31-.07-.44.62-.56,1,0,1.27.72l-.84.47c.34.7.75,1.4,1.32,1.51a1.66,1.66,0,0,1,0-.73c.09.18.19.32.3.29s0-.31-.08-.72l1.17,0-.35-.27,1.67-2.28c-.24-2.23-1.05-4.41-.27-7.46.43,1,1.12.64,2,1-1.23.41-.54,2.39-1.34,3.81.42-.74.76-.4.82-.15l.28-3c.67.35.76-.35,1.33-.92-1.6-.05-.1-2.37-.07-3.63.49.13.86.58.2,1.86,1.65-1-.85-2.56.63-3.63-.12.33-.27.48-.08.7-.11-.92,1-2.63,1.21-2l-.12.33c1-2.08,2.71-6.52,1.66-7.33a7.79,7.79,0,0,1,1.49,1.1l-2.38-5.47c.87.76,3.82.46,3.66,2.48a3.63,3.63,0,0,0,.87-2.24c-.29.29-1.82.26-1.72-.25,1.67-.84,1-.66,2.61-1.87-.44.43-1.78-.8-1.39-1.61.18.23,1.59.58,1.63.95l-.7-2.7c.06.63,1.28.64,1.91.37-.39.08.76-1.77.84-2.38l-.73.72c1.2-2.22-1.24-3.19-.21-5.46.21.41,1.7,1.51,2.38.42-.58-.86-2.86-4-2.63-6.25l.62-.2.13-1.77a34.86,34.86,0,0,1,2.56,7.13c.72-.71.64,0,1.13-1.33.62-.28.36,1,.23,1.37l1.53-2.91c-1-.25,0-2.7-.81-2.91l-.39,3.69c-1-.25-1.86-3-.81-5.07.6-.39,1.49,1.1,1.82,1.18a3.63,3.63,0,0,1,.54-2.39l.12,1.11c.85-1-.43-2.45,1.06-3.52.26-.47,1.81-1,1.29-1.29-1.4.37-4.75-.84-5.33-1.71a19.49,19.49,0,0,1,2.86-2.52c1.17-.47,1.48,2,2.48,1.65-.24-.14-.37-.72-.39-1,.43-.43.7.55,1.05-.63-.87-.58,1-2.26-.58-.87.19-1.21.68-1.09,1.18-2.4-.78.16-1.6-2-1.41-3.24.21.16.63,0,.82,0,1-2.23,2-3.26,2.84-5.37.31-.1,1-1,1.23-.4a2.5,2.5,0,0,1,0-1.45c1.34-.92-.47,1.51.91,1-.52-.31-.06-2,0-3.06-1-.07-1.05,2.07-1.09,3.14-1.17-.48-1.73-2.6-1.36-5,.44-1.87,1.08-.45,1-.82,1.57-3.21-.88-3.65,1.1-6,1.2-.77,1.5.57,2.14.55-.31,1.55-1.38,2-1.75,3l.84-1.05a3,3,0,0,1-.57,2c1-.63,2.43-5.51,4.1-7.79-.06-.56,0-1.45-.45-1.2L187,55c-.91.49-.21-1.86-.91-1,0-1.25-.14-2.74.83-4.11l1,.06c-.26-.07-.92.79-.83,1.32-.12-.79,2.11-1.85,1.28-3l-1,.82c0-1.25-.32-3,.5-4.2-1.09.26,0,.35-1.41.9,1.57-.32-1.47,3.42.36,2.62-1.54.51-1.18,1.5-2.69,2.38.3.07.73-.24.12.84a1.23,1.23,0,0,1,.15.35l-.06.06.06,0c0,.06,0,.07,0,0a1.35,1.35,0,0,1,.67-.4c.41.83-.36,2.61-.27,3.36-.41.61-.21-.42-.66-.17l.12,1.11c-.66-.17-1.77,1.35-1.48-.38l-.62,1.41a4.55,4.55,0,0,0-1.34,2.6c-.41.62,0,2-.26,1.2L180,63.12l-.17,0c-1,2.17-.84,5-3,7a7.44,7.44,0,0,1-1,2.82h-.64c-.2,1-1.72,2.64-1.33,3.28-1.87.42-2.22,4.48-3.17,6l.67.36a17.66,17.66,0,0,0-1.08,3.86l.66.17c0,1.44-1.76,3-2.5,5-.18-.23.09-.7.37-1-2.36,1.74-1,5.33-2.9,7a1.63,1.63,0,0,1-.54,1.27.26.26,0,0,0,0-.15s-.06.13-.1.22c-.2.18-.42.37-.63.59a3,3,0,0,0,.59-.48,8.69,8.69,0,0,0-.43,1.73l-.77,0s0,.09,0,.15c-.49.49.12.6.75.5a3.29,3.29,0,0,0,.07,1c-1.27,0-.29,1.73-1.71,1.91.39.64-.83,3.21.21,4-.16,0-.31.1-.18-.23a3,3,0,0,0-.74,2l-1-.06.53,1.94c-.88.68-1.34.92-1.62-.24.11,2.56-.34,1.9-.1,4.13l-.51-.32c-.25.66,0,2-.56,2.21-1.65,1-3.13,7.13-5.64,10.46,1.91-.06-1.44,1.43-.25,2.1-.47.06-.91.49-1-.25-.41,2.06-1.79,2.61-1.28,4.36-.47.06-.39-.64-.7-.54,0,.19.09.74-.22.85s-.21-.42-.25-.79c-.74,2,.35,2.66,1.4,3.26-.93.77-1.06,1.29-.63,2.3-.5.2-1.12.61-.75-.65-.33.66-2.25,3.93-1.39,4.37-.32.12-.46.92-.43,1.14a26.83,26.83,0,0,0-1.36,3.14l.32-.35c.82,1-.28,1.34-.65,2.6l-.1-.08c-1.92,2.45-.12,1.35-2.14,3.72l.73.12c1.32.85-1.85,2.08-2,3.89l.62-.42c.13,1.07-2.95,1.62-3.48,2.41-.21.14-.08-.38-.06-.68-1.79,1.93.75.66.25,2.44-.6.11-1-.9-1.59.2-.62.42.15,3.95-1.4,5.13.51-.19,1-.38,1,.52-.37,1.26-2.72,2.7-2,4.26a.43.43,0,0,1-.37.1c-.09,1.05-.75,3.21-.37,4-2.64-.1-1.26,6.2-3.37,5.3L131,183.53l-.18-.16a4,4,0,0,0-.41,3.46c-.32.36-.39,0-.49-.11-1.52,2.47-1.54,2.77-1.41,5.44l-.78-.06c.15.77-2.67,3.39-2.94,6.32a.49.49,0,0,1-.19-.41c-.41,3.26-4.81,6.22-2.75,8.33l-.19,2.19c1.23-2.42.93.82,1.78,0-.26,1-1.81,2.23-1.44,1l.2-.14c-1.12-1-1.74,2.92-2.6,2.48-2,4.95-4.68,9.44-6.65,14l1.24-.11-.73,1.59c-.41.32-1,.23-.51-.9-.82.37-.31,2.13-.11,2.25-1.34,2.08-.82-1.37-1.13-.69l-.31,1,.21-.16c.1.93.51,1.18-.11,2.53-.56.79-.81.19-1,.52-.07,0-.16.07-.25.51l-.92,2,1.13-.48c0,1.06-.83,1.89.46,1.33-2,.79-3.63,7.34-4.41,8a8.88,8.88,0,0,1-1.17,4.24c.33-.31,1.32-.17.66,1.11-1.65-1.25-1.81,2.09-3.59,2.61,1.28-.59-1.34,3.86.54,2.88-.61,1-.72-.22-1.51.44-.37,2.93-2.87,5.6-4,9,.22.15.82-.24.89.61l-1.93,1.21c-.14.69,1.16,1.17-.17,2,.28-.08.69-.2.59.26-3.83,5.88-4.43,13.43-9.34,19,.84-.68.64-.08.38.6.3-.39.6.26,1,.31l-2,2.33c.71.87-1.15,2.93-.39,3.57l.2-.92c.56,1.57,3-.64,4.22.07-.65-1.76,3.14-2.64,2.32-5.44.47-.35.27.57.68.45-.35-.76-.2-1.46.54-2.54l.09.19c1.24-3.39,2.4-4.6,4.33-8.19h-.77a3.38,3.38,0,0,1,1-1.16c-.61-1.34-1,2.24-1.74.94,1.78-.52,2.38-5.68,4.2-5.77.52-1.24-.91.05-.39-1.19l.54-.16-.39-.53a1.37,1.37,0,0,1,1.46-.86,3.51,3.51,0,0,0-.19.82c.92-.85,1.07-3,1.38-3.34l-.75,1.09c1-3.55,3.27-7.46,3.79-11.08l-.41.12c.46-2.73,1.17-1.86,2-4.71l0,.13a4.26,4.26,0,0,1,.41-2.21c.08.84,1.25-1,1.27.06.51-3,.07-1.54-.34-3.8l.69-.2a2.93,2.93,0,0,1,0-2.38c0,1.3,1.14-.55,1.2.95,2.32-2.41.64-4.74,2.83-5.38-.88-1.91-1.82,2.16-1.82,1.29-.72.43-.61-1.53-.1-2.37s2.47-.81,3.4-3.13c-.1.23,0,.29-.1.52.72-.72.21-1.9,1.24-2.72-.62-1,.62-1.35-.41-2l-.62,2.22c.21-1.32-.61-3,.83-4.7a3.5,3.5,0,0,1,.2,1.43c.57-.44.25-1.2.83-1.66,1,.62-.83,2.67-.52,4.3.72-.43.21-2.76,1.13-1.62-1.13-1.56,1.14-2.2.63-4.24l.61.37a3.26,3.26,0,0,1,.11-1.38l.51,1.18c-.2-1.57,1.65-2.18,1.76-3.56-1,2.56-1,.25-2,1.12.42-3.5,2.47-1.09,3.61-4.73-.11.51-1.14,1.62-1.13.75a5.65,5.65,0,0,1,1.54-1.66c.83-2.38-.82.08-.81-1.08,1.12-.46.14-1.28.31-2.4l.67.27c1.53-2.48-1.1-1.28.41-3.46l.5,1.4.28-1.35.65.57a4.69,4.69,0,0,1,1.08-3.18c-.59.11-1.14-.68-.67-1.86.73-.64.45.71,1-1,.27.55.62,1.18-.3,1.65.19.17.27.55.45.71.82-.67,1-2.12,1.25-2.73a1.73,1.73,0,0,1-.43.59L129,203c.41-.27.48.11.56.49a12.09,12.09,0,0,1,.2-1.73c.47.42,1,.6.88,1.73L131,201c.3-.06,1.14-.91,1.21-.53.85-1.15.24-3.57,1.37-5.08a1.17,1.17,0,0,1,0-.74c.78-1.54,2-2.67,2.07-4.86l1.41-.67c.39-1.57-1.82.94-1.17-1.67.41-1.87,1.1-.3,1.62-.8-.13-1.07-.51-3,.94-4.26A6.84,6.84,0,0,1,137.91,183.83Zm7.1-18.37c0,.41.14,1.29-.36,1.39C144.05,166.13,144.54,166,145,165.46Zm9.84-28.31c.12.35-.16.71-.6,1.06A2.17,2.17,0,0,1,154.85,137.15ZM182.1,58.2l0,0C181.53,58.93,181.75,58.69,182.1,58.2Zm1-1.51c0-.2-.12-.23-.25-.2.13.18,0,.55-.24.95C182.81,57.4,183,57.24,183.07,56.69ZM110.72,232.1l.3-.24C110.92,232.65,110.83,232.38,110.72,232.1Z"/><path class="cls-1" d="M154.47,140.66a.75.75,0,0,1-.42,0C154.1,140.85,154.23,140.9,154.47,140.66Z"/><path class="cls-1" d="M133.58,195.28s0,0,0,.06a.29.29,0,0,0,.09.1Z"/><path class="cls-1" d="M178.26,84.32a1.44,1.44,0,0,1-.61.51C177.81,84.91,178,84.82,178.26,84.32Z"/><path class="cls-1" d="M185.52,47.57l-.26,1.12a1.73,1.73,0,0,1,.61-.86C185.7,47.79,185.39,47.9,185.52,47.57Z"/><path class="cls-1" d="M193.41,40.21c0-.19.13-.33.11-.52l-.33-.08C192.94,40.26,193,40.82,193.41,40.21Z"/><path class="cls-1" d="M188.14,47.52c.59.15.68-.59.87-1.36a.35.35,0,0,1,0,.13C188.26,45.75,188.2,46.64,188.14,47.52Z"/><path class="cls-1" d="M189.07,46a2.66,2.66,0,0,1,.26-.68C189.05,45.08,189.15,45.55,189.07,46Z"/><path class="cls-1" d="M183.55,54.46c.29-.28-.63-.51-.32-.61C182.68,53.16,183.14,56.52,183.55,54.46Z"/><polygon class="cls-1" points="190.24 47.69 189.43 47.67 189.82 48.31 190.24 47.69"/><path class="cls-1" d="M187.33,53.27l.68-1.09c-.13,0-.13-.21-.11-.42C187.58,52.48,187.11,53.21,187.33,53.27Z"/><path class="cls-1" d="M187.9,51.76a2.31,2.31,0,0,0,.28-1A4.94,4.94,0,0,0,187.9,51.76Z"/><polygon class="cls-1" points="189.78 49.38 189.49 49.67 189.1 50.47 189.78 49.38"/><path class="cls-1" d="M182,65.79l-.33,1.36c.18.23.47-.06.57-.57S182.3,65.69,182,65.79Z"/><path class="cls-1" d="M185.49,62.72c-.29.28-.45.24-.76.34l.84.4Z"/><path class="cls-1" d="M184.15,66.52c.18.23-.09,2.14.53.5C184.5,66.79,184.83,65.43,184.15,66.52Z"/><polygon class="cls-1" points="175.09 85.32 175.21 84.99 173.78 84.45 175.09 85.32"/><path class="cls-1" d="M171.43,103.68c1-1.37-.72-.72.27-1.91-.19-.49-.81,1-.94.49C170.73,103.32,170.33,103.72,171.43,103.68Z"/><path class="cls-1" d="M170.76,102.26a5.34,5.34,0,0,0,0-.55A1.41,1.41,0,0,0,170.76,102.26Z"/><polygon class="cls-1" points="85.39 291.23 84.69 292.08 85.42 291.65 85.39 291.23"/><path class="cls-1" d="M85.66,293.53l-1-.14.57.92C85.29,294.07,85.39,293.62,85.66,293.53Z"/><path class="cls-1" d="M147.94,163.51l-.18-.17c-.3.06-.41.28-.64.72Z"/><polygon class="cls-1" points="141.8 176.43 141.92 176.21 140.93 176.3 141.8 176.43"/><path class="cls-1" d="M138.25,187.94c.22-.44.26-1.05.48-1.49C138.47,187.5,137.19,187.64,138.25,187.94Z"/></g></g></svg>