<svg xmlns="http://www.w3.org/2000/svg" viewBox="0 0 128.55 233.95"><defs><style>.cls-1{fill:#dac3a3;}</style></defs><title>fleche_3</title><g id="Calque_2" data-name="Calque 2"><g id="Calque_1-2" data-name="Calque 1"><path class="cls-1" d="M113.29.91c.39-.28-.32-.75-.38-.91C112.48.69,113.46,1.05,113.29.91Z"/><polygon class="cls-1" points="109.11 7.79 108.96 7.45 108.74 8.86 109.11 7.79"/><path class="cls-1" d="M103.92,13c1.5.52,1.71-2,3-2.6l.39.08-.4-1.23C105.91,10.45,105,12.45,103.92,13Z"/><path class="cls-1" d="M99,13.53c.56.22-.26.93.77-.52a.88.88,0,0,1-.22,0A5.21,5.21,0,0,1,99,13.53Z"/><path class="cls-1" d="M99.53,13c.52-.57-.69,0,0,0Z"/><path class="cls-1" d="M97.24,15.77l.37-1.07c-.39-.09-1.08.5-1,.1C96.06,15.72,96.44,15.8,97.24,15.77Z"/><path class="cls-1" d="M97.29,17.18l.23-.52C97.36,16.63,97.22,16.69,97.29,17.18Z"/><path class="cls-1" d="M98,15.56l-.47,1.1c.27.06.6.38.25-.47C98,16.55,97.87,16.11,98,15.56Z"/><path class="cls-1" d="M98.59,15.27c.63-.19,1.28-.57.91.5C100.74,14.26,99.83,13.75,98.59,15.27Z"/><path class="cls-1" d="M104.7,14.26l.83-.24.13-.81C105.6,13.61,104.35,14,104.7,14.26Z"/><path class="cls-1" d="M92.24,19.71c.17.26.82.33,1.15.56l.28-.78C93.25,19.61,92.6,20,92.24,19.71Z"/><path class="cls-1" d="M93.39,20.27,93,21.43C93.71,20.76,93.67,20.46,93.39,20.27Z"/><polygon class="cls-1" points="98.29 18.43 98.82 16.35 98.05 18.69 98.29 18.43"/><polygon class="cls-1" points="89.19 22.71 89.14 21.77 89.09 23.32 89.19 22.71"/><path class="cls-1" d="M87.27,24.81c-.08-.74-1.16-.24-1.06-.84a4.47,4.47,0,0,0-.68,2.17A2.4,2.4,0,0,1,87.27,24.81Z"/><path class="cls-1" d="M85.28,27.31a5.69,5.69,0,0,0,.25-1.17A2.89,2.89,0,0,0,85.28,27.31Z"/><path class="cls-1" d="M91.51,22.67a1.39,1.39,0,0,0-1.24,0l.91.3Z"/><path class="cls-1" d="M91.21,23h0l-.7.64Z"/><path class="cls-1" d="M91.59,22.6l-.08.07C91.59,22.7,91.63,22.7,91.59,22.6Z"/><path class="cls-1" d="M95.66,20c-.13.81-.74,2.14.72,1.72C96.3,20.93,95.47,21.17,95.66,20Z"/><path class="cls-1" d="M92.73,23l1-.7c-.18-.14-.56-.22-.5-.62Z"/><polygon class="cls-1" points="92.51 23.57 92.73 22.96 92.37 23.23 92.51 23.57"/><path class="cls-1" d="M87.29,26.43A3.16,3.16,0,0,1,86.41,28,8.57,8.57,0,0,0,88,26.7C87.92,26.44,87.79,25.89,87.29,26.43Z"/><path class="cls-1" d="M89.25,24.81l0,.12C89.31,24.93,89.36,24.9,89.25,24.81Z"/><path class="cls-1" d="M82,32.39l.18,0-.09-.12Z"/><path class="cls-1" d="M88.24,26.73a1,1,0,0,0,.56-1,5.57,5.57,0,0,1-.76,1C88.1,26.82,88.15,26.88,88.24,26.73Z"/><path class="cls-1" d="M84.33,28.83a5.06,5.06,0,0,0,1-.3C84.92,28.53,84.24,28.6,84.33,28.83Z"/><path class="cls-1" d="M88.92,24.88a.19.19,0,0,1,0-.08C88.69,24.79,88.77,24.84,88.92,24.88Z"/><path class="cls-1" d="M88.92,24.88a3.06,3.06,0,0,0-.12.85,3.57,3.57,0,0,0,.41-.8A1,1,0,0,1,88.92,24.88Z"/><path class="cls-1" d="M84.52,37.61a1.61,1.61,0,0,1,1.36-2.31c.39-1.23-2-2.54-3.72-2.87.22.27.44.5-.06,1.66.6,0,2.56-1.13,2.37.08-.81,1.39-1.1.7-1.93.94,1.15.25-.39,2.42.87,3.21L84,37C84.2,37.13,84.1,37.74,84.52,37.61Z"/><path class="cls-1" d="M83.8,30.9l.28-.41a4.33,4.33,0,0,1-2,.43c-.3.84-.21,1.17-.06,1.39l1.77-1.61Z"/><path class="cls-1" d="M85.61,29c.34.88-.22,2,.94,2.12,1-1.05.2-1.22.53-2.08-1.47,1.77.13-.81-1.39,0a5.74,5.74,0,0,1,.72-1,7.8,7.8,0,0,1-1.12.56h.09c.15,0,.22,0,.09.07l0,0a1.3,1.3,0,0,1,.16.31c-.6.34-.23-.09-.16-.31l-.07-.11h0l-1.29,2A7.2,7.2,0,0,0,85.61,29Z"/><path class="cls-1" d="M96.82,23.85a.26.26,0,0,1-.19-.09C96.6,23.94,96.61,24,96.82,23.85Z"/><path class="cls-1" d="M95.79,24.15c0-.2-.12-.54.33-.86.52-.15.29.29.51.47.07-.39.37-1.24-.65-.81l0,.19c-.87.45-2.47.53-2.44.33A6,6,0,0,0,95.79,24.15Z"/><path class="cls-1" d="M90.81,26.75l-1.06,1.66L91,28.25,90.62,28C91.51,27.32,91,27.09,90.81,26.75Z"/><polygon class="cls-1" points="81.52 32.25 81.06 31.42 81.18 33.11 81.52 32.25"/><polygon class="cls-1" points="79.84 34.08 79.34 33.46 79.22 34.26 79.84 34.08"/><path class="cls-1" d="M26.17,133.55l.56.23A2.06,2.06,0,0,0,26.17,133.55Z"/><path class="cls-1" d="M23.33,130.63l-.34.2C23.27,130.82,23.44,130.76,23.33,130.63Z"/><path class="cls-1" d="M36.71,77.33c-1.1.06-2.56-.1-1.86.46l.79.43A1.94,1.94,0,0,1,36.71,77.33Z"/><path class="cls-1" d="M10.8,110.58h.35l-.19-1Z"/><path class="cls-1" d="M12.93,113.53l-1.16.36A3.71,3.71,0,0,0,12.93,113.53Z"/><path class="cls-1" d="M42.55,148.62l1.09-.16C42.91,147.73,42.91,148.37,42.55,148.62Z"/><path class="cls-1" d="M62.05,52.32a5,5,0,0,0-1.61.88C61.39,53,62.4,53,62.05,52.32Z"/><path class="cls-1" d="M18.53,138.92c.36.14.58.12.71,0C18.89,138.75,18.63,138.72,18.53,138.92Z"/><path class="cls-1" d="M59,54.64c.15,0,.27-.08.41-.12a4.39,4.39,0,0,1,1-1.32C59.73,53.38,59.06,53.73,59,54.64Z"/><path class="cls-1" d="M99.06,206.15c0,.07,0,.13.06.2S99.16,206.22,99.06,206.15Z"/><path class="cls-1" d="M109.48,229a7,7,0,0,1-.73-.63A1.93,1.93,0,0,0,109.48,229Z"/><path class="cls-1" d="M72.49,40.89c.34-.41,0-.13,0,0Z"/><path class="cls-1" d="M76.74,41.5a.58.58,0,0,0,.14.45A.75.75,0,0,1,76.74,41.5Z"/><path class="cls-1" d="M59.1,62.18l0,0C59.29,62.21,59.25,62.21,59.1,62.18Z"/><path class="cls-1" d="M73.34,40.61a2.71,2.71,0,0,0-.66.29A3.3,3.3,0,0,0,73.34,40.61Z"/><path class="cls-1" d="M73,40.39l.39-.26C73.3,40,73.19,40,73,40.39Z"/><path class="cls-1" d="M72,41.44a3.12,3.12,0,0,1,.67-.54c-.12,0-.18,0-.19,0Z"/><path class="cls-1" d="M66.87,177.24s0,.08,0,.14C67.52,177.5,67.31,177.37,66.87,177.24Z"/><path class="cls-1" d="M33.38,93.41s0,0,0-.07l-.08,0Z"/><path class="cls-1" d="M32.49,95.21c-.19-1.33.23-1.56.82-1.83L31.1,92.05Z"/><path class="cls-1" d="M33.24,140.26l-.39-1.49c2,.23,2.56,1.36,2.45-.3-2.06,1.79-3.86-3.46-5.9-1.67l-.22-1c.16.19.3.11.46.3-.29-2.12-2.29.5-3.57-1.33-.39-.69-.49-1.35.1-1.2l-1.68-.74c-.31-.38.11-.63.42-.25l-2-1.68.07,0a11.09,11.09,0,0,1-2.12-.18c-.19-.74.44,0,.56-.33L20,129.77c.08-.91,1.41-.55,2,.22,1-2.87-1.33-.36-2.26-3.53l1.2.72c.47-1.71-.67-2.07-1.08-3.84-.1.62.46,3.89-1.12,3.26a1.79,1.79,0,0,0-1.49-1.14c.68-.69-.07-1.11-.84-1.8l1-.85c-1.05-.53-1.45,0-2.32-.06-.79-1-.27-1.85.12-2.65-1.27-1.55-.16,2.1-2,.6a4.83,4.83,0,0,0-.69-1l-.1-.1,0,0a.47.47,0,0,0-.09-.06.79.79,0,0,0-.23-.09c-.33-.11-.84-.16-1.59-.36.08-.55.88-.23,1.13-.5a9.47,9.47,0,0,1-1.42,0c-.06-.09.33-.14.53-.17a3.78,3.78,0,0,0-1.16,0,2.27,2.27,0,0,1-1.36-.24c-.86,0-.75-.33-.47-.64.58-.2,1.2-.39,1.56-.56s.47-.36.15-.67c.57-.06.82.29,1.44.37a3,3,0,0,1-.3-1,10.29,10.29,0,0,1-.3-1.44c.24,0,.47-.08.7-.1s.56-.17.85-.26c-1.52.16-1.25-1.71-1-3.31a11.21,11.21,0,0,0-1.48,0l1-2c.33,0,.49.43.63,1.06a5,5,0,0,0,0-.5c.87-.2,1.12.6,1.24,1.49-.36,0-.73,0-1.1,0a3.81,3.81,0,0,0,1,2.33,1.39,1.39,0,0,1,.25-.73c.05.24.12.44.26.48s.1-.31.11-.79l1.35.67-.32-.48,2.6-1.33c.38-2.42.11-5.13,1.92-7.78.19,1.3,1.09,1.33,1.93,2.24-1.53-.32-1.33,2.11-2.67,3.08.7-.5,1,0,1,.34l1.21-2.9c.67.77,1,.1,1.81-.14-1.82-1,.59-2.48,1-3.75.52.43.81,1.11-.33,2,2.2-.06-.2-3.12,1.81-3.32-.24.26-.45.32-.3.66.16-1,1.92-2.09,2-1.34l-.23.25c1.82-1.48,5.05-5,4.09-6.48a15.27,15.27,0,0,1,1.38,2l-1.09-7c.77,1.29,4.23,2.75,3.44,4.71a2.82,2.82,0,0,0,1.67-1.76c-.42.12-2.17-.82-1.89-1.28,2.16.14,1.31-.09,3.54-.35-.63.18-1.8-1.89-1.11-2.47.14.34,1.65,1.54,1.59,1.94V86.25c-.11.68,1.28,1.42,2.08,1.51-.47-.15,1.4-1.34,1.67-1.92l-1,.3c2-1.55-.47-4,1.39-5.7.12.55,1.49,2.56,2.6,1.85-.4-1.23-2.09-5.75-1.14-8l.76.17.68-1.74a41.37,41.37,0,0,1,.8,8.82c1-.31.73.36,1.69-.69.8.08.12,1.21-.15,1.53l2.62-2.05c-1.06-.85.83-2.74,0-3.45l-1.55,3.53c-1-.85-1.23-4.17.59-5.66.8,0,1.38,2,1.73,2.29-.11-.54,1-2.19,1.33-2.11L51,76.19c1.28-.57.24-2.77,2.26-3,.44-.32,2.36.09,1.86-.54-1.7-.46-5.18-3.7-5.58-4.93a17.42,17.42,0,0,1,4-.87c1.48.22,1.08,3,2.34,3.17a1.91,1.91,0,0,1-.16-1.2c.62-.18.64,1,1.39,0-.82-1.11,1.86-1.69-.4-1.23.58-1.13,1.1-.71,2.06-1.75-.94-.3-1.22-3-.64-4.15a1.67,1.67,0,0,0,1,.48C60.93,60.51,62.31,60,64,58.39c.38.08,1.45-.42,1.53.33a2.26,2.26,0,0,1,.44-1.48c1.8-.14-1,1.25.75,1.51-.5-.62.53-2.07.89-3.14-1.08-.64-1.82,1.49-2.19,2.56-1.19-1.19-1.19-3.69,0-6,1.06-1.65,1.36.19,1.42-.22,2.76-2.33.09-4.25,3.06-5.5,1.6-.08,1.55,1.47,2.29,1.84-.82,1.39-2.18,1.21-2.9,2l1.28-.56a2.38,2.38,0,0,1-1.26,1.71c1.38,0,4.43-4.17,7-5.5.1-.61.44-1.47-.15-1.49l-.52.72c-1.18,0,.32-2-.75-1.51.4-1.27.66-2.88,2.18-3.71l1.09.65c-.28-.23-1.29.25-1.35.84.1-.87,3-.62,2.37-2.29l-1.42.22c.4-1.27.51-3.23,1.83-4-1.33-.39-.15.33-1.89.07,1.89.61-2.71,2.61-.37,2.89-1.92-.41-1.81.82-3.79.82.32.25.9.19-.11.93a2.22,2.22,0,0,1,.06.44l-.08,0,.08,0c0,.08,0,.1,0,0a1.47,1.47,0,0,1,.88,0c.22,1.09-1.19,2.45-1.32,3.26-.65.39-.11-.54-.7-.56l-.19,1.21c-.71-.57-2.43.32-1.58-1.28l-1.13,1.07a3.59,3.59,0,0,0-2.32,1.86c-.65.38-.6,2-.65,1.06l-1.33,2.12-.17-.15c-1.78,1.62-2.45,4.55-5.54,5.35a5.75,5.75,0,0,1-1.94,2.3l-.74-.36c-.54.92-2.75,1.65-2.5,2.54-2.27-.69-3.88,3.24-5.44,4.27l.67.77a13.32,13.32,0,0,0-2.39,3.29l.7.57c-.43,1.47-2.9,2-4.34,3.57-.14-.35.3-.67.72-.79-3.23.37-2.75,4.84-5.43,5.42a1.25,1.25,0,0,1-1,1,.24.24,0,0,0,.07-.13,1.15,1.15,0,0,0-.18.16c-.29.07-.6.13-.9.22a2.56,2.56,0,0,0,.82-.13,6.89,6.89,0,0,0-1,1.51l-.88-.49-.09.13c-.7.21,0,.69.72,1a2.91,2.91,0,0,0-.21,1c-1.47-.73-.85,1.59-2.53.92.26.89-1.91,2.78-1,4.23-.17-.14-.38-.08-.14-.34-.66.38-1.32.76-1.44,1.57l-1.09-.65,0,2.3c-1.22.16-1.81.14-1.79-1.21-.63,2.68-1,1.73-1.34,4.15l-.5-.63c-.48.52-.53,2.08-1.3,1.92-2.18.06-5.7,5.41-9.58,7.3,2.21,1.09-2.07.61-.91,2-.56-.22-1.18,0-1-.85-1.09,1.86-2.83,1.6-2.77,3.69-.56-.22-.26-.89-.64-1,0,.2-.13.81-.51.73s-.12-.54,0-1c-1.44,1.57-.39,2.93.63,4.16-1.3.23-1.6.69-1.41,2-.64-.11-1.47,0-.67-1.12l-.81.63-.58.47c-.22.19-.55.5-.81.75-1.09,1.06-1.95,2.13-1.36,2.45-.54.07-1.1,1-1.12,1.19A37.36,37.36,0,0,0,0,117.32l.71-.42c.53.25.61.46.43.69.52.41.43,1,1.35,1.72H2.26a3.91,3.91,0,0,0,1.62,2.06c.44.27.74.45,1.61,2.22.22-.24.44-.47.67-.69,1-.44,1.24.21,1.63,1.26s.56,2.09,1.45,2.43l-.05-.83c1.17.17-.11,3.85.38,4.71,0,.27-.44,0-.74-.14.9,2.62,1.12-.66,2.64.44-.24.72-1.53.91-.74,1.88,0,.83,4.12,1,4.4,3.13.11-.64.21-1.27,1.1-.94,1.06.81,1.13,3.92,3.13,3.6a.57.57,0,0,1-.12.46c1,.41,2.82,1.82,3.88,1.62-1.68,3,5.58,3.3,3.4,5.44L28.84,148l-.28.17a3.45,3.45,0,0,0,3.28,1.5c.18.47-.26.43-.4.52,1.62,2.49,1.91,2.6,4.71,3.24l-.52.88c.87.06,1.86,4.06,4.69,5.26a.68.68,0,0,1-.53.09c3.08,1.44,3.47,7.36,6.85,5.64l2.12.86c-1.73-2.13,1.4-.82,1-2,.91.61,1.19,2.74.13,1.94l0-.28c-1.67,1,1.93,2.88,1,3.73,3.87,3.74,6.84,8.18,10.34,11.79l.62-1.44,1.19,1.3c.08.57-.37,1.25-1.22.32-.12,1.05,2,1,2.23.8,1.32,2.15-1.88.52-1.38,1.08l.8.65,0-.29c1,.17,1.51-.23,2.52.89.47.88-.29,1-.06,1.28-.08.08,0,.2.37.44L67.72,188l.19-1.44c1.1.29,1.43,1.52,1.63-.13-.36,2.49,5.33,6.35,5.54,7.44a7,7,0,0,1,3.63,2.61c-.13-.47.61-1.56,1.53-.43-2.27,1.52,1.05,2.7.51,4.89.17-1.64,3.14,2.69,3.26.25.7,1-.65.76-.45,1.85,2.77,1.31,4,5,6.77,7.23.29-.21.25-1,1.16-.84l.08,2.57c.62.38,1.89-1,1.94.8.08-.34.2-.85.61-.6,3.72,6.14,11.07,9.08,13.79,16.36-.19-1.16.31-.75.84-.25-.22-.46.62-.61.89-1l1.16,3c1.32-.56,2.31,2.18,3.43,1.5l-.83-.5c1.94-.17,1.11-3.58,2.6-4.81-2.19.22-.83-4.38-4.17-4.28-.08-.63.74-.13.87-.64-1,.17-1.61-.2-2.27-1.38l.25,0c-2.73-2.44-3.26-4.12-5.78-7.41l-.46.89a3.1,3.1,0,0,1-.58-1.52c-1.73.3,1.69,1.81-.08,2.28.54-2.19-4.37-4.42-3.38-6.53-1-1-.5,1.06-1.45.09l.17-.67-.79.3a1.59,1.59,0,0,1,0-1.94c.11.19.54.33.73.47-.32-1.31-2.47-2.13-2.59-2.57l.67,1.18c-3-2.23-5.66-6-9-7.65l-.13.5c-2.51-1.34-1.2-1.89-3.59-3.74h.16a3.42,3.42,0,0,1-2-1.13c.9.16-.29-1.73.82-1.44-2.72-1.46-1.53-.54-4.09-.75l.21-.84A2.72,2.72,0,0,1,77,189c1.32.42.12-1.48,1.69-1.1-1.08-3.37-4.46-2.14-3.8-4.84-2.47.43,1.12,2.73.23,2.47,0,.95-1.92.24-2.47-.6s.64-3.06-1.17-4.82c.17.18.29.09.47.27-.3-1-1.82-.81-2-2.23-1.34.42-1-1.12-2.27-.13l1.9,1.38c-1.22-.64-3.41-.2-4.3-2.36a3.52,3.52,0,0,1,1.58.2c-.12-.78-1.08-.65-1.21-1.45,1.25-1,2.24,1.75,4.08,1.89,0-1-2.69-1.07-1-1.78-2.26.82-1.56-2-4-2l.75-.59a2.87,2.87,0,0,1-1.34-.54l1.51-.23c-1.73-.24-1.24-2.54-2.59-3.07,2,2-.36,1.25,0,2.57-3.33-1.53.36-3.15-2.68-5.54.46.27,1,1.78.09,1.52a5,5,0,0,1-.77-2.27c-1.93-1.66-.41,1-1.59.61.21-1.43-1.21-.55-2.27-1.07l.68-.69c-1.61-2.49-2,.88-3.28-1.5L55,163l-1.21-.72,1-.58c-1.62-.47-1.8-.94-2.6-2.19a1.37,1.37,0,0,1-2.31.22c-.21-1,1-.3-.38-1.49.71-.14,1.57-.36,1.5.83.28-.16.71-.14,1-.3-.2-1.13-1.57-1.78-2-2.24a1.44,1.44,0,0,1,.34.66l-2.81-.92c0-.55.4-.52.84-.49-.46-.31-1-.25-1.64-.75.69-.41,1.23-1,2.28-.49l-2.39-1.17c.12-.35-.25-1.57.18-1.54-.66-1.31-3.49-1.35-4.37-3.08a1.16,1.16,0,0,1-.77-.19c-1.1-1.36-1.51-3.13-3.73-3.82l.17-1.82c-1.36-.92-.13,2.37-2.41.85-1.66-1,.35-1.35.16-2.1-1.17-.17-3.36-.31-3.78-2.35C32.62,139.49,32.79,140,33.24,140.26Zm-14.5-13.62c.42.13,1.4.23,1.2.84C18.85,128,19,127.33,18.74,126.64Zm-4.56-16.82c0,.43-.41.63-1,.72A1.75,1.75,0,0,1,14.18,109.82ZM69,45.53a.17.17,0,0,0,0,.07C68.09,45.94,68.41,45.83,69,45.53Zm1.56-1a.27.27,0,0,0-.22-.35c.08.26-.19.55-.56.83C70,45.14,70.3,45.1,70.52,44.57ZM66.26,185.81l-.07-.42C66.94,185.75,66.61,185.77,66.26,185.81Z"/><path class="cls-1" d="M12.69,113.18a1.22,1.22,0,0,1-.49-.26C12.21,113.14,12.34,113.28,12.69,113.18Z"/><path class="cls-1" d="M42.35,148.65l0,0a.67.67,0,0,0,.17-.08Z"/><path class="cls-1" d="M56.76,69.9a1.54,1.54,0,0,1-.86.15C56.06,70.23,56.32,70.25,56.76,69.9Z"/><path class="cls-1" d="M76.05,36.72l-.63,1a1.41,1.41,0,0,1,1-.51C76.19,37.06,75.81,37,76.05,36.72Z"/><path class="cls-1" d="M87.29,33.93c0-.2.24-.26.27-.46l-.35-.29C86.73,33.71,86.63,34.31,87.29,33.93Z"/><path class="cls-1" d="M79.06,38.24c.64.51,1-.19,1.41-.86l-.1.1C79.74,36.51,79.4,37.37,79.06,38.24Z"/><path class="cls-1" d="M80.58,37.22a2.57,2.57,0,0,1,.51-.53C80.84,36.3,80.81,36.83,80.58,37.22Z"/><path class="cls-1" d="M71.74,42.59c.42-.12-.57-.91-.18-.82C71.13,40.74,70.65,44.44,71.74,42.59Z"/><polygon class="cls-1" points="81.41 39.67 80.5 39.17 80.75 40.05 81.41 39.67"/><path class="cls-1" d="M76.42,43.62l1.1-.71c-.13-.1-.09-.29,0-.48C76.94,43,76.19,43.43,76.42,43.62Z"/><path class="cls-1" d="M77.52,42.43a1.68,1.68,0,0,0,.61-.85A4.16,4.16,0,0,0,77.52,42.43Z"/><polygon class="cls-1" points="80.39 41.12 79.97 41.24 79.28 41.83 80.39 41.12"/><path class="cls-1" d="M66.56,53.21l-.79,1.19c.15.35.56.22.84-.24C66.67,53.75,67,53.29,66.56,53.21Z"/><path class="cls-1" d="M71.49,52.17c-.42.12-.59,0-1-.11l.85.91Z"/><path class="cls-1" d="M68.81,55.25c.15.34-.73,2.13.46.83C69.13,55.73,69.92,54.54,68.81,55.25Z"/><polygon class="cls-1" points="52.82 69.02 53.06 68.75 51.59 67.35 52.82 69.02"/><path class="cls-1" d="M43.16,85.58c1.51-.83-.62-1.17.87-1.8-.06-.61-1.21.51-1.23-.06C42.46,84.78,41.88,85,43.16,85.58Z"/><path class="cls-1" d="M42.8,83.72a3.75,3.75,0,0,0,.15-.58A1.54,1.54,0,0,0,42.8,83.72Z"/><polygon class="cls-1" points="111.46 232.48 111.92 233.53 111.91 232.56 111.46 232.48"/><path class="cls-1" d="M114,232.86l-.74,1.09,1.28-.38C114.31,233.44,113.9,233.19,114,232.86Z"/><path class="cls-1" d="M18.5,122.7l-.27.17c-.13.35,0,.55.35.94Z"/><polygon class="cls-1" points="28.02 133.6 27.86 133.4 27.36 134.56 28.02 133.6"/><path class="cls-1" d="M37.64,141.1c-.31-.38-.91-.61-1.22-1C37.33,140.72,36.7,142.23,37.64,141.1Z"/><path class="cls-1" d="M127.69,204.73c.21.32.71-.36.86-.43C128,204,127.55,204.9,127.69,204.73Z"/><polygon class="cls-1" points="121.92 201.65 122.24 201.49 120.99 201.43 121.92 201.65"/><path class="cls-1" d="M117.79,197.5c-.62,1.41,1.66,1.34,2,2.44l-.11.35,1.15-.48C119.84,199,118.14,198.42,117.79,197.5Z"/><path class="cls-1" d="M117.77,193.11c-.26.53-.82-.13.39.64a1.19,1.19,0,0,1,0-.19A3.06,3.06,0,0,1,117.77,193.11Z"/><path class="cls-1" d="M118.16,193.56c.47.41,0-.62,0,0Z"/><path class="cls-1" d="M115.93,191.77l.92.22c.11-.35-.35-.91,0-.89C116.08,190.7,116,191.06,115.93,191.77Z"/><path class="cls-1" d="M114.64,192l.45.15C115.14,192,115.09,191.85,114.64,192Z"/><path class="cls-1" d="M116,192.43l-1-.32c-.08.25-.4.58.4.18C115.14,192.54,115.56,192.37,116,192.43Z"/><path class="cls-1" d="M116.24,192.94c.1.54.38,1.1-.55.87C116.93,194.77,117.48,193.9,116.24,192.94Z"/><path class="cls-1" d="M116.53,198.34l.14.72.71,0C117,199.08,116.82,198,116.53,198.34Z"/><path class="cls-1" d="M112.87,187.67c-.25.18-.38.77-.61,1.09l.67.17C112.86,188.57,112.58,188,112.87,187.67Z"/><path class="cls-1" d="M112.26,188.76l-1-.27C111.78,189.1,112.06,189,112.26,188.76Z"/><polygon class="cls-1" points="113.42 192.98 115.24 193.25 113.21 192.79 113.42 192.98"/><polygon class="cls-1" points="110.48 185.22 111.33 185.08 109.94 185.19 110.48 185.22"/><path class="cls-1" d="M108.78,183.7c.68-.14.33-1.06.87-1a3.42,3.42,0,0,0-1.89-.4A1.6,1.6,0,0,1,108.78,183.7Z"/><path class="cls-1" d="M106.73,182.17a5.06,5.06,0,0,0,1,.1A2.22,2.22,0,0,0,106.73,182.17Z"/><path class="cls-1" d="M110.28,187.3a1.3,1.3,0,0,0,.12-1.11L110,187Z"/><path class="cls-1" d="M110,187.07v0l-.5-.57Z"/><path class="cls-1" d="M110.34,187.37l-.06-.07C110.25,187.39,110.24,187.42,110.34,187.37Z"/><path class="cls-1" d="M112.31,190.77c-.72,0-1.85-.45-1.62.82C111.37,191.44,111.24,190.72,112.31,190.77Z"/><path class="cls-1" d="M109.9,188.43l.53.82c.15-.18.26-.53.61-.51Z"/><polygon class="cls-1" points="109.38 188.29 109.9 188.43 109.7 188.13 109.38 188.29"/><path class="cls-1" d="M107.32,183.89a2.26,2.26,0,0,1-1.3-.64,5.78,5.78,0,0,0,1,1.34C107.25,184.45,107.75,184.28,107.32,183.89Z"/><path class="cls-1" d="M108.58,185.49l-.09,0C108.47,185.55,108.49,185.6,108.58,185.49Z"/><polygon class="cls-1" points="102.49 179.7 102.43 179.87 102.55 179.78 102.49 179.7"/><path class="cls-1" d="M107,184.77c.17.4.49.43.84.41a4.33,4.33,0,0,1-.8-.59C106.89,184.65,106.83,184.7,107,184.77Z"/><path class="cls-1" d="M105.46,181.46a4.17,4.17,0,0,0,.17.84C105.67,182,105.67,181.36,105.46,181.46Z"/><path class="cls-1" d="M108.55,185.19l.08,0C108.66,185,108.61,185.06,108.55,185.19Z"/><path class="cls-1" d="M108.55,185.19a2.35,2.35,0,0,0-.75,0,2.71,2.71,0,0,0,.69.28A.94.94,0,0,1,108.55,185.19Z"/><path class="cls-1" d="M97.53,182.51a1.21,1.21,0,0,1,2,1c1.07.23,2.49-2,3-3.63-.26.22-.49.45-1.48.11-.08.54.76,2.19-.31,2.14-1.17-.59-.53-.92-.66-1.65-.33,1.07-2.14-.1-3,1.11l1.13.42C98,182.17,97.46,182.15,97.53,182.51Z"/><path class="cls-1" d="M103.64,181.19l.35.21a3.28,3.28,0,0,1-.19-1.71c-.73-.18-1-.07-1.25.09l1.27,1.42Z"/><path class="cls-1" d="M105.22,182.63c-.82.39-1.74,0-2,1.05.85.77,1.08.06,1.82.28-1.45-1.15.71,0,.12-1.25a3.25,3.25,0,0,1,.86.54,5.94,5.94,0,0,1-.39-.95v.06h0c0,.13-.05.19-.07.09l0,0a1,1,0,0,1-.29.17c-.25-.5.1-.22.29-.17a.41.41,0,0,0,.11-.07v0l-1.63-1A4.59,4.59,0,0,0,105.22,182.63Z"/><path class="cls-1" d="M108.69,192.21a.31.31,0,0,1,.1-.19C108.63,192,108.55,192,108.69,192.21Z"/><path class="cls-1" d="M108.52,191.3c.18,0,.5-.15.75.22.08.45-.3.29-.48.5.34,0,1.08.21.8-.66h-.18a3.23,3.23,0,0,1,0-2.16A6.85,6.85,0,0,0,108.52,191.3Z"/><path class="cls-1" d="M106.68,187.08l-1.38-.78,0,1.08.29-.35C106.1,187.77,106.36,187.25,106.68,187.08Z"/><polygon class="cls-1" points="102.67 179.27 103.45 178.77 101.92 179.06 102.67 179.27"/><polygon class="cls-1" points="101.18 177.94 101.79 177.44 101.08 177.4 101.18 177.94"/><path class="cls-1" d="M45.75,98.78l.16-.48A1.33,1.33,0,0,0,45.75,98.78Z"/><path class="cls-1" d="M43.41,101l.22.34C43.58,101.12,43.52,101,43.41,101Z"/><path class="cls-1" d="M66.57,143.45c.06-1,.35-2.31-.23-1.62l-.47.75A1.21,1.21,0,0,1,66.57,143.45Z"/><path class="cls-1" d="M39.24,123.45l-.05.33.9-.28Z"/><path class="cls-1" d="M36.34,125.64c-.17-.44-.32-.86-.46-1.26A4,4,0,0,0,36.34,125.64Z"/><path class="cls-1" d="M57.68,85.55l-.26-1C56.85,85.14,57.42,85.2,57.68,85.55Z"/><path class="cls-1" d="M86.55,163.76a3.43,3.43,0,0,0-.63-1.37C86.05,163.23,85.91,164.14,86.55,163.76Z"/><path class="cls-1" d="M51.36,106.2c.08-.31,0-.52-.11-.65C51.16,105.86,51.16,106.09,51.36,106.2Z"/><path class="cls-1" d="M84.76,161.24c0,.13,0,.23.07.36a2.9,2.9,0,0,1,1.09.79C85.83,161.77,85.58,161.21,84.76,161.24Z"/><path class="cls-1" d="M103.8,40.44l.18,0C103.91,40.32,103.86,40.36,103.8,40.44Z"/><path class="cls-1" d="M123.28,33.34a3.43,3.43,0,0,1-.5.6C122.93,33.88,123.09,33.71,123.28,33.34Z"/><path class="cls-1" d="M95.79,172c.34.26.11,0,0,0Z"/><path class="cls-1" d="M94.81,175.89a.65.65,0,0,0-.41.18A.86.86,0,0,1,94.81,175.89Z"/><path class="cls-1" d="M78,162.09l0,0C77.92,162.27,77.92,162.23,78,162.09Z"/><path class="cls-1" d="M96,172.74a2.1,2.1,0,0,0-.2-.56A2,2,0,0,0,96,172.74Z"/><path class="cls-1" d="M96.19,172.39l.2.32C96.53,172.65,96.56,172.55,96.19,172.39Z"/><path class="cls-1" d="M95.34,171.63a2,2,0,0,1,.42.55c0-.1,0-.16,0-.17A5,5,0,0,1,95.34,171.63Z"/><path class="cls-1" d="M81,66.53h.13C81.17,66,81.08,66.14,81,66.53Z"/><path class="cls-1" d="M52.43,142.06h.06l0-.06Z"/><path class="cls-1" d="M50.9,141.45c1.22-.31,1.39,0,1.57.55l1.41-2.13Z"/><path class="cls-1" d="M51.09,93.09l-1.31.2c0-1.82,1-2.16-.51-2.23,1.82,2-2.73,3.12-.91,5.15l-.9.09c.16-.12.07-.26.23-.38-1.89,0,.67,2.1-.85,3.07-.58.29-1.16.31-1.09-.21l-.49,1.44c-.32.24-.58-.16-.27-.4l-1.32,1.62,0-.06a10,10,0,0,1,0,1.88c-.65.1,0-.39-.36-.53L43,104c-.83-.17-.63-1.33,0-1.82-2.68-1.16-.19,1.16-3,1.68l.53-1c-1.58-.59-1.79.4-3.34.59.56.15,3.45,0,3,1.34-.4.1-.79.36-.89,1.22-.68-.68-1,0-1.53.58l-.86-.94c-.37.89.14,1.3.18,2.08-.79.61-1.64.06-2.4-.37a1.72,1.72,0,0,0-.19.17s-.13.15-.16.2-.09.21,0,.26.42.08.72.1a1.23,1.23,0,0,1,.61.33.42.42,0,0,1,.05.32,2.67,2.67,0,0,1-.46.68c-1.88,1.19-2.63,2.68-3.46,4.59-1.49.87-.69-.41-1.46-.16a8.17,8.17,0,0,0,.26,1.18.65.65,0,0,1-.71,0c-.26.83,1.47.34.86,1.45.68.19-.13.55-1.28,1.11-.08.68.11,1.86,2,2.45-.09.43-1.1,0-1.59.22,1.66.92,2.26,1.24,2.88,1.53a14.56,14.56,0,0,0,2.6.87c.14.54.32,1.11.53,1.72-.1-.77.44-1,1.13-1s1.55.08,2.23.1l.21-1.29c.49.17,1.1.45,1.65.68,0,.29-.44.48-1,.66a3.08,3.08,0,0,0,.43,0c.1.77-.64,1.07-1.46,1.27,0-.33.08-.66.13-1a7.34,7.34,0,0,0-1.24.46,2.42,2.42,0,0,0-1,.67,2.1,2.1,0,0,1,.68.19.77.77,0,0,0-.47.28c0,.14.27.06.7,0l-.74,1.28.47-.34.94,2.2c2.14.11,4.61-.41,6.8,1-1.18.3-1.3,1.11-2.2,2,.44-1.41-1.77-1-2.51-2.09a.55.55,0,0,1-.4.91l2.49.8c-.76.68-.19.89-.06,1.62,1.09-1.74,2.17.28,3.28.52-.44.51-1.08.84-1.79-.09-.16,2,2.83-.5,2.81,1.29-.21-.19-.24-.37-.56-.21.88.05,1.69,1.52,1,1.67l-.21-.19c1.16,1.49,4,4,5.42,3a18.12,18.12,0,0,1-1.94,1.44l6.41-1.69c-1.24.83-2.91,4.09-4.59,3.57a1.85,1.85,0,0,0,1.42,1.33c-.07-.36,1-2,1.34-1.83-.34,2,0,1.17,0,3.15-.1-.54,1.88-1.81,2.34-1.24-.32.16-1.56,1.64-1.91,1.62l2.86-.32c-.61,0-1.41,1.29-1.57,2,.18-.44,1.07,1.13,1.56,1.31l-.17-.91c1.2,1.68,3.65-.82,5,.69-.5.15-2.44,1.59-1.92,2.52,1.14-.49,5.38-2.45,7.27-1.82l-.23.7,1.5.44a40.7,40.7,0,0,1-8,1.6c.17.9-.4.7.45,1.46-.15.72-1.1.22-1.36,0l1.58,2.15c.87-1,2.39.48,3.11-.38l-3-1.05c.87-1,3.88-1.52,5,0,0,.71-1.94,1.44-2.23,1.78.5-.15,1.88.64,1.77,1l-1.07-.05c.38,1.09,2.46-.06,2.44,1.73.25.37-.31,2.14.31,1.63a16.09,16.09,0,0,1,5-5.52,14,14,0,0,1,.38,3.53c-.35,1.35-2.78,1.27-3.08,2.43a1.86,1.86,0,0,1,1.09-.27c.1.54-.94.67-.12,1.25,1.08-.85,1.34,1.5,1.14-.48,1,.4.53.92,1.37,1.68.37-.88,2.84-1.4,3.8-1a1.91,1.91,0,0,0-.52.9c1.31,1.48,1.63,2.67,2.92,4-.11.36.24,1.27-.45,1.42.36,0,.86-.14,1.29.24-.06,1.61-1-.77-1.44.83.61-.51,1.82.27,2.74.49.69-1-1.16-1.49-2.08-1.72a5,5,0,0,1,5.35-.63c1.38.79-.3,1.24.06,1.26,1.83,2.24,3.82-.35,4.65,2.2-.09,1.43-1.48,1.54-1.88,2.24-1.17-.59-.88-1.84-1.51-2.4l.38,1.09c-.53,0-1.31-.42-1.41-1-.13,1.25,3.3,3.58,4.24,5.78.54,0,1.28.24,1.36-.29l-.6-.4c.16-1.07,1.78.09,1.44-.82,1.1.23,2.52.3,3.11,1.59l-.69,1c.24-.27-.09-1.13-.62-1.13.77,0,.26,2.61,1.83,1.91l-.06-1.26c1.11.23,2.85.14,3.41,1.25.48-1.24-.29-.1.12-1.69-.73,1.76-2.07-2.18-2.56,0,.56-1.77-.56-1.54-.36-3.33-.26.31-.26.83-.82,0a1.63,1.63,0,0,1-.41.1l0-.07v.08c-.07,0-.08,0,0,0a1.45,1.45,0,0,1-.08.79c-1,.31-2.1-.82-2.81-.86-.28-.55.5-.15.58-.68L92.59,172c.58-.69,0-2.16,1.3-1.56l-.85-.9a2.34,2.34,0,0,0-1.44-1.9c-.27-.55-1.75-.34-.89-.48l-1.77-1,.15-.17c-1.28-1.44-3.85-1.74-4.26-4.44A3.73,3.73,0,0,1,83,160.07l.4-.69c-.78-.4-1.22-2.32-2-2,.84-2.11-2.53-3.17-3.3-4.47l-.76.68a9,9,0,0,0-2.73-1.83l-.58.69c-1.28-.24-1.5-2.41-2.77-3.55.32-.16.56.21.63.57,0-2.87-4.08-2-4.34-4.34a.85.85,0,0,1-.78-.79.16.16,0,0,0,.12,0l-.13-.14c0-.25-.06-.52-.11-.79a2,2,0,0,0,0,.72,4.74,4.74,0,0,0-1.26-.75l.52-.84-.1-.07c-.12-.61-.62,0-.94.74a2.5,2.5,0,0,0-.9-.08c.8-1.4-1.35-.61-.58-2.19-.82.32-2.31-1.44-3.71-.44.15-.17.11-.35.32-.16-.28-.55-.55-1.11-1.27-1.14l.69-1-2.07.25c0-1.07.06-1.61,1.27-1.73-2.35-.3-1.46-.68-3.6-.79l.62-.51c-.43-.38-1.82-.27-1.6-1,.17-2-4.3-4.59-5.62-7.89-1.2,2.1-.33-1.81-1.7-.62.25-.53.15-1.07.87-1-1.56-.8-1.16-2.39-3-2.13.26-.52.83-.32.94-.67-.18,0-.71,0-.6-.39s.5-.15.85-.14c-1.27-1.13-2.59,0-3.8,1,0-.58-.16-.92-.41-1.08a1.3,1.3,0,0,0-1.18.06c.22-.53.46-1.06,1-.75a5.21,5.21,0,0,0-.63-1,1.28,1.28,0,0,0-1.45-.37c.26-.2-.27-.41-.52-.45a4.92,4.92,0,0,0-1.19-1.29,1.4,1.4,0,0,0-.12.18,3.24,3.24,0,0,1-1.4-.29c.12-.23,1-.46,1.19-.82l.19,0c1.3-.52,1.22-.62,1.23-.8s.07-.36,1.24-.63l-1-.37c-1-.51-.29-.74.48-.85.39-.06.81-.09,1.12-.17a.88.88,0,0,0,.69-.66l-.74,0c0-1,3.48.48,4.2.13.24,0,0,.39-.05.64,2.27-.54-.71-1.07.14-2.32.67.28,1,1.47,1.76.85.74,0,.49-3.61,2.38-3.65-.59-.16-1.17-.32-1-1.08.62-.88,3.42-.62,2.93-2.46a.56.56,0,0,1,.42.15c.28-.87,1.36-2.35,1.07-3.33,2.87,1.82,2.41-4.69,4.56-2.51l1.64-1.88.18.27a2.54,2.54,0,0,0,1-2.81c.41-.11.42.28.51.42,2.08-1.21,2.15-1.46,2.45-3.92l.84.56c0-.78,3.47-1.27,4.26-3.7a.68.68,0,0,1,.14.49c1-2.63,6.28-2.39,4.39-5.6l.56-1.83c-1.74,1.35-.87-1.33-1.93-1.12.46-.76,2.34-.8,1.72.07h-.24c1,1.61,2.39-1.45,3.25-.5,3-3.1,6.68-5.33,9.59-8.12l-1.37-.71L85,70.39c.5,0,1.16.45.4,1.12,1,.21.7-1.68.5-1.92,1.81-1,.66,1.74,1.11,1.34l.5-.65h-.25c.05-.89-.36-1.38.54-2.18.75-.34.92.36,1.17.18.07.08.18,0,.36-.29l1.34-1.16-1.32-.32c.15-1,1.22-1.14-.28-1.48,2.27.58,5.18-4.16,6.14-4.24a4.64,4.64,0,0,1,2-3c-.4.07-1.46-.71-.53-1.41,1.6,2.19,2.32-.68,4.35,0-1.5-.31,2.11-2.56-.11-2.91.84-.53.75.67,1.72.59.89-2.36,4.06-3.11,5.83-5.37-.22-.28-.94-.32-.87-1.12l2.3.18c.28-.52-1.07-1.8.52-1.66-.31-.11-.78-.27-.59-.62,5.15-2.73,7.06-9.05,13.34-10.77-1,.06-.71-.35-.32-.78-.38.15-.6-.62-1-.91l2.61-.74c-.63-1.24,1.73-1.86,1-2.93l-.37.69c-.35-1.76-3.33-1.35-4.58-2.81.41,2-3.86.3-3.44,3.32-.56,0-.19-.68-.66-.84.25.91,0,1.42-1,1.9l-.06-.23c-1.93,2.21-3.39,2.52-6.09,4.46l.84.5a2.13,2.13,0,0,1-1.3.37c.44,1.59,1.46-1.34,2.06.3-2-.7-3.54,3.5-5.54,2.4-.77.75,1,.55.23,1.3l-.63-.21.35.73a1.47,1.47,0,0,1-1.75-.19c.17-.08.25-.45.35-.61-1.14.16-1.67,2-2,2.07l1-.48c-1.7,2.49-4.81,4.5-6,7.37l.47.17c-1,2.13-1.58.89-3,2.85v-.13A2.36,2.36,0,0,1,93.39,54c.06-.8-1.53.09-1.38-.88-1,2.3-.33,1.32-.26,3.6L91,56.43c.09.85.31,1.13-.4,2.12.25-1.15-1.34-.26-1.15-1.63-2.93.63-1.49,3.79-4,2.93.64,2.27,2.34-.73,2.2,0,.86.09.41,1.76-.29,2.17s-2.83-.89-4.23.56c.15-.13,0-.25.2-.39-.91.17-.55,1.55-1.8,1.61.51,1.24-.91.8.11,2l1.05-1.57c-.45,1,.16,3-1.7,3.63a3.12,3.12,0,0,1,0-1.39c-.68,0-.47.9-1.18.94-1-1.23,1.35-1.84,1.29-3.49-.85-.09-.69,2.32-1.5.7,1,2.12-1.61,1.22-1.4,3.36l-.6-.73c0,.26,0,.89-.35,1.15l-.36-1.38c0,1.53-2.16.87-2.51,2,1.56-1.59,1.17.46,2.32.28-1,2.84-2.87-.64-4.72,1.86.2-.39,1.51-.71,1.36.06a3.64,3.64,0,0,1-2,.47c-1.3,1.58.91.47.71,1.49-1.31-.32-.38,1-.75,1.94l-.68-.68c-2.08,1.2,1,1.86-1,2.8l-.32-1.57-.53,1-.62-.94c-.26,1.42-.67,1.53-1.71,2.13a1.32,1.32,0,0,1,.43,2.09c-.9.09-.37-.92-1.3.21-.2-.66-.48-1.45.6-1.27-.18-.27-.2-.66-.37-.93-1,.07-1.45,1.24-1.82,1.61a1.1,1.1,0,0,1,.57-.24L64,81.87c-.49,0-.51-.41-.53-.8-.23.38-.12.9-.51,1.4-.44-.67-1-1.21-.67-2.1l-.81,2c-.33-.14-1.39.07-1.41-.32-1.11.47-.86,3-2.33,3.63a.92.92,0,0,1-.1.67c-1.11.86-2.66,1.05-3.06,3L53,89c-.68,1.14,2.15.36,1,2.25-.76,1.4-1.25-.44-1.91-.34,0,1,.06,3-1.74,3.16C50.45,93.58,50.86,93.47,51.09,93.09ZM40.28,104.78c.08-.36.07-1.24.63-1C41.44,104.81,40.88,104.63,40.28,104.78Zm-.7,21.64c-.38.06-.52-.3-.55-.84A1.15,1.15,0,0,1,39.58,126.42ZM92,169.3h0C91.69,168.56,91.75,168.83,92,169.3Zm.72,1.3a.3.3,0,0,0,.33-.23c-.24.1-.48-.11-.69-.42C92.21,170.2,92.22,170.46,92.68,170.6ZM88.78,67.93l-.37,0C88.65,67.31,88.71,67.61,88.78,67.93Z"/><path class="cls-1" d="M36.7,125.41a1.13,1.13,0,0,1,.25-.5C36.71,124.91,36.57,125,36.7,125.41Z"/><path class="cls-1" d="M57.72,85.73l.05,0-.09-.16Z"/><path class="cls-1" d="M71.25,160.75a1.16,1.16,0,0,1,0-.75C71,160.16,71,160.39,71.25,160.75Z"/><path class="cls-1" d="M99.18,174.8l-.82-.47a1,1,0,0,1,.36.8C98.86,175,99,174.6,99.18,174.8Z"/><path class="cls-1" d="M100.58,184.63c.17,0,.2.19.38.2l.29-.34C100.83,184.1,100.29,184.08,100.58,184.63Z"/><path class="cls-1" d="M97.52,177.66c-.53.63.07.84.63,1.18a.2.2,0,0,1-.08-.08C99,178.09,98.26,177.88,97.52,177.66Z"/><path class="cls-1" d="M98.28,178.93a1.64,1.64,0,0,1,.43.4C99.09,179.06,98.61,179.1,98.28,178.93Z"/><path class="cls-1" d="M94.34,171.51c.06.36.87-.6.75-.25C96.06,170.77,92.78,170.71,94.34,171.51Z"/><polygon class="cls-1" points="95.99 179.92 96.54 179.05 95.71 179.37 95.99 179.92"/><path class="cls-1" d="M92.94,175.82l.52.92c.11-.13.27-.11.44-.05C93.48,176.22,93.13,175.59,92.94,175.82Z"/><path class="cls-1" d="M93.9,176.69a1.13,1.13,0,0,0,.7.47A2.5,2.5,0,0,0,93.9,176.69Z"/><polygon class="cls-1" points="94.79 179.14 94.72 178.78 94.27 178.22 94.79 179.14"/><path class="cls-1" d="M85.29,167.9l-1-.58c-.32.16-.26.52.13.72C84.79,168.06,85.18,168.26,85.29,167.9Z"/><path class="cls-1" d="M85.74,172.23c-.07-.36.08-.53.19-.88l-.9.85Z"/><path class="cls-1" d="M83.23,170.14c-.32.16-1.84-.45-.79.49C82.76,170.47,83.76,171.06,83.23,170.14Z"/><polygon class="cls-1" points="72.44 157.12 72.65 157.31 74.06 155.84 72.44 157.12"/><path class="cls-1" d="M58.51,150.08c.59,1.28,1.11-.67,1.52.61.56-.12-.34-1,.18-1.11C59.29,149.37,59.19,148.87,58.51,150.08Z"/><path class="cls-1" d="M60.21,149.58a3.31,3.31,0,0,0,.51.07A1.08,1.08,0,0,0,60.21,149.58Z"/><polygon class="cls-1" points="126.26 31.91 127.17 31.61 126.29 31.52 126.26 31.91"/><path class="cls-1" d="M126.35,29.69l1.06.77-.47-1.19C126.84,29.45,126.66,29.79,126.35,29.69Z"/><path class="cls-1" d="M36.76,104.6l.18.27c.33.14.49,0,.81-.23Z"/><polygon class="cls-1" points="45.61 97.12 45.45 97.25 46.54 97.81 45.61 97.12"/><path class="cls-1" d="M51.4,89.21c-.31.25-.45.76-.77,1C51.09,89.46,52.51,90.17,51.4,89.21Z"/></g></g></svg>