<svg xmlns="http://www.w3.org/2000/svg" viewBox="0 0 498.63 172.74"><defs><style>.cls-1{fill:#dbc3a3;}</style></defs><title>post_1</title><g id="Calque_2" data-name="Calque 2"><g id="Calque_1-2" data-name="Calque 1"><path class="cls-1" d="M497.74,22.13c.58.61.73,0,.89.05C497.52,21.28,497.67,22.25,497.74,22.13Z"/><path class="cls-1" d="M486.25,14.38l.32,0c-.66-.24-1.33-.43-2-.64Z"/><path class="cls-1" d="M474.94,8.37c.77,1.27,4.31,1.74,6.17,3.15l.23.36,1.25-.13c-1.25-.63-2.72-1.28-4.12-1.82A38.47,38.47,0,0,1,474.94,8.37Z"/><path class="cls-1" d="M469.11,4.18c.3.46-1.54-.18,1.52.6a2,2,0,0,1-.25-.17C470.1,4.52,469.73,4.4,469.11,4.18Z"/><path class="cls-1" d="M470.38,4.61c1.32.39-.78-.56,0,0Z"/><path class="cls-1" d="M464.18,3l1.84.16c-.31-.29-1.88-.76-1.26-.75C462.89,2.18,463.23,2.48,464.18,3Z"/><path class="cls-1" d="M462.36,3.3l.94.07C463.16,3.25,462.93,3.17,462.36,3.3Z"/><path class="cls-1" d="M465.3,3.57c-.66-.08-1.33-.16-2-.2.23.2.19.48.92.1C464,3.68,464.44,3.54,465.3,3.57Z"/><path class="cls-1" d="M466.36,4c.93.45,2.14.92.32.74,1.67.39,2.41.48,2.34.28A5.79,5.79,0,0,0,466.36,4Z"/><path class="cls-1" d="M474,9l1.11.76,1.16.18C475.68,9.81,474,8.67,474,9Z"/><path class="cls-1" d="M453.05.77c-.13.18.57.55.68.8l1.35-.06C454.41,1.29,453.12,1.05,453.05.77Z"/><path class="cls-1" d="M453.73,1.57l-2,.18C453.48,1.92,453.82,1.79,453.73,1.57Z"/><path class="cls-1" d="M461.84,4.2c1.1,0,2.22,0,3.32.07-1.31-.13-2.63-.14-3.93-.19Z"/><polygon class="cls-1" points="445.34 0.49 446.48 0.03 444.45 0.73 445.34 0.49"/><path class="cls-1" d="M440.23.82c.82-.42-1.22-.53-.34-.82a15.66,15.66,0,0,0-3.58,1.06A10.76,10.76,0,0,1,440.23.82Z"/><path class="cls-1" d="M434.6,1.74c.55-.17,1.1-.44,1.71-.68A8.83,8.83,0,0,0,434.6,1.74Z"/><path class="cls-1" d="M448.32,1.51a2.56,2.56,0,0,0-1.57-.58l.79.55Z"/><path class="cls-1" d="M447.56,1.5l0,0c-.86-.05-1.45,0-1.7,0C446.06,1.45,446.58,1.43,447.56,1.5Z"/><path class="cls-1" d="M448.52,1.51h-.2C448.4,1.56,448.44,1.58,448.52,1.51Z"/><path class="cls-1" d="M456.84,2.82c-1.21.16-3.61.19-1.37.92C456.34,3.47,455,3.06,456.84,2.82Z"/><path class="cls-1" d="M449.47,2.21c.7,0,1.39.15,2.09.23,0-.14-.4-.37.18-.48C451,2,450.22,2.08,449.47,2.21Z"/><polygon class="cls-1" points="448.44 2.35 449.47 2.21 448.69 2.14 448.44 2.35"/><path class="cls-1" d="M438.29,1.75a20.07,20.07,0,0,1-3,.68c1.21-.12,2.46-.15,3.64-.31C439.09,1.94,439.58,1.58,438.29,1.75Z"/><path class="cls-1" d="M442.8,1.52l-.2,0C442.72,1.6,442.82,1.61,442.8,1.52Z"/><path class="cls-1" d="M424.47,4.93l.2,0a.31.31,0,0,1,0-.1Z"/><path class="cls-1" d="M439.15,2.2a4.85,4.85,0,0,0,2-.35l-2.16.27C438.87,2.21,438.86,2.26,439.15,2.2Z"/><path class="cls-1" d="M431.57,2.55c.49,0,1,0,1.61,0C432.68,2.42,431.7,2.38,431.57,2.55Z"/><path class="cls-1" d="M442.28,1.44l.14,0C442.11,1.31,442.15,1.36,442.28,1.44Z"/><path class="cls-1" d="M442.28,1.44a7.36,7.36,0,0,0-1.18.41c.55-.08,1-.18,1.5-.29A1.66,1.66,0,0,1,442.28,1.44Z"/><path class="cls-1" d="M422.44,9.23c0-.25.48-.71,1.24-1.08a7.7,7.7,0,0,1,2.83-.71c1.78-.85.12-2.16-1.84-2.47,0,.22.05.42-1.83,1.32.79,0,4.55-.78,3,.17-2.5,1.08-2.18.48-3.5.69,1.24.19-2.92,2-2,2.67l2.07-1.11C422.51,8.83,421.79,9.33,422.44,9.23Z"/><path class="cls-1" d="M428.51,3.94l.82-.28a13.78,13.78,0,0,1-3.06.12c-1.33.61-1.54.91-1.59,1.09,1.35-.44,2.73-.72,4.1-1.08Z"/><path class="cls-1" d="M433.11,2.87c-.57.64-2.51,1.31-1.17,1.61,2.42-.53,1.62-.75,3.06-1.24-4,.79,1.1-.49-1.85-.31.78-.22,1.48-.37,2.15-.5-.73,0-1.45.09-2.12.1l.09,0h0c.19,0,.25.07,0,.06l-.08,0a.6.6,0,0,1-.15.23c-1.18.1-.21-.11.15-.23,0,0,0-.06,0-.09h0c-1.32.32-2.63.74-3.94,1.11C430.19,3.56,431.24,3.3,433.11,2.87Z"/><path class="cls-1" d="M453.25,4.65c-.12-.06-.11-.09-.11-.13C452.88,4.56,452.78,4.6,453.25,4.65Z"/><path class="cls-1" d="M451.66,4.21a3,3,0,0,1,1.48-.13c.79.22,0,.26,0,.44.57-.11,2-.17.26-.63l-.29,0c-1.57-.3-3.6-1.12-3.32-1.16A5.94,5.94,0,0,0,451.66,4.21Z"/><path class="cls-1" d="M442.4,3.1c-1.11.18-2.21.29-3.3.53.57.08,1.15.19,1.72.31l-.11-.27C442.6,3.64,442.17,3.33,442.4,3.1Z"/><polygon class="cls-1" points="424.01 4.79 424.28 4.11 422.64 5.47 424.01 4.79"/><path class="cls-1" d="M419.85,6.32l0-.52c-.34.24-.67.45-1,.7C419.17,6.42,419.51,6.38,419.85,6.32Z"/><path class="cls-1" d="M207.36,21.66l-.64.67A6.79,6.79,0,0,0,207.36,21.66Z"/><path class="cls-1" d="M212.82,17.9v-.3C212.64,17.88,212.59,18,212.82,17.9Z"/><path class="cls-1" d="M328.11,39c-1.15-.85-2.31-2-2.34-1.39l.21.63A7.76,7.76,0,0,1,328.11,39Z"/><path class="cls-1" d="M266,6.92l.36.26,1-.27Z"/><path class="cls-1" d="M264.54,8.87l-1.67-.7A12.37,12.37,0,0,0,264.54,8.87Z"/><path class="cls-1" d="M175.62,43.78l-.93.93C176.43,44.07,175.57,44.09,175.62,43.78Z"/><path class="cls-1" d="M384,31.52a21.51,21.51,0,0,0-2.62,1.22C382.72,32.31,383.93,32.08,384,31.52Z"/><path class="cls-1" d="M206.11,15.41c-.45.42-.59.67-.5.76C206.05,15.72,206.3,15.45,206.11,15.41Z"/><path class="cls-1" d="M378.47,34.32c.2,0,.4-.1.6-.16a16.77,16.77,0,0,1,2.31-1.42A6.38,6.38,0,0,0,378.47,34.32Z"/><path class="cls-1" d="M48.07,7.7l-.3-.06C47.74,7.71,47.87,7.71,48.07,7.7Z"/><path class="cls-1" d="M9.1,15.31c.31-.26.86-.64,1.38-1A8.63,8.63,0,0,0,9.1,15.31Z"/><path class="cls-1" d="M404,14.55c.76-.57.09-.14,0,0Z"/><path class="cls-1" d="M409,13.84c-.13.16-.22.3-.17.42A.6.6,0,0,1,409,13.84Z"/><path class="cls-1" d="M371.77,40.89l-.07,0C372,40.92,371.94,40.91,371.77,40.89Z"/><path class="cls-1" d="M405.32,13.94c-.33.15-.7.33-1.09.55A10.67,10.67,0,0,0,405.32,13.94Z"/><path class="cls-1" d="M405,13.84l.71-.43C405.77,13.27,405.66,13.28,405,13.84Z"/><path class="cls-1" d="M403,15.33a10.3,10.3,0,0,1,1.27-.84c-.17.08-.25.1-.22.06C403.79,14.72,403.46,14.93,403,15.33Z"/><path class="cls-1" d="M112.05,35.9a1,1,0,0,1-.14-.15C111,35.46,111.36,35.64,112.05,35.9Z"/><path class="cls-1" d="M304.83,33.66l.1,0-.1-.09Z"/><path class="cls-1" d="M301.92,31.93a5,5,0,0,1,2.91,1.68l.06-1.93C303.92,31.78,302.93,31.86,301.92,31.93Z"/><path class="cls-1" d="M195,32.75c.72-.36,1.47-.7,2.17-1.11-1.74,2.45-3.65,3.49-1.41,2.66-.19-.39.18-.95.81-1.59s1.49-1.45,2.37-2.22c1.7-1.57,3.37-3.29,2.84-3.93l1.29-.72c-.31.26-.29.38-.59.64,2.54-1.3.64-2.32,3.56-4.5,1.08-.67,1.92-1,1.37-.32.66-.66,1.28-1.38,2-2,.69-.44.69-.08,0,.35,1.14-.84,2.27-1.71,3.47-2.47v.06a16,16,0,0,1,1.87-2.1c1.08-.31-.39.42,0,.47l1.89-1.5c1-.08-.48,1.25-1.93,2,2.75.46,1.48-1.41,6.22-2.53-.66.35-1.27.77-1.91,1.14,1.68.23,3.1-.78,5.61-1.12-.65-.14-5.16.53-3-.86a8.33,8.33,0,0,0,2.78-1.29c.24.58,1.42-.09,3-.61l.14.79c1.65-.75,1.39-1.13,2.33-1.76,2-.44,2.54,0,3.12.44,3.18-.55-2.41-.49,1.31-1.45A45.12,45.12,0,0,0,242,7.48c1.93.12-.29.5.42.68L244,7.4c.42,0,.3.19.24.29,1.4-.33.06-.85,2.31-1.13.29-.43,1.47-.19,2.9.15a16.28,16.28,0,0,0,2.27.4A5.9,5.9,0,0,0,254,7c.66.28-.37.47-.18.79,1.92-.23,2.74-.18,3.49-.26l3-.35c.86.31,1.71.63,2.55,1-1.82-1,.78-1.21,3.13-1.25a12.57,12.57,0,0,0-1.56-1c1.23.08,2.43.29,3.66.45.39.24,0,.41-.7.58.25,0,.5,0,.69,0,1.18.61.4.89-.61,1.09l-1.12-.8c-1,.23-1.9.6-1.83,1.09a3.57,3.57,0,0,1,1.18.06c-.25.07-.42.15-.34.25s.49,0,1.1,0L267,9.62l.28-.29c.72.27,1.42.59,2.12.91s1.41.61,2.09,1c1.67.13,3.32.12,5.16.4a17.71,17.71,0,0,1,2.95.62c.53.15,1.07.32,1.65.51s1.14.47,1.75.75c-1.48-.06-.75.81-1.19,1.45a4.23,4.23,0,0,0-2.51-1.46c-.56-.18-1.17-.36-1.79-.57a12.44,12.44,0,0,1-1.86-.71c1.27.63.83.84.45.83.79.18,1.57.39,2.34.64s1.56.46,2.32.72c-.38.51.68.91,1.65,1.74-.21-1.58,3.54,1,5.35,1.89-.07.21-.26.33-.68.23a8.63,8.63,0,0,1-2-1.1,3.81,3.81,0,0,0,2.67,1.41A3.48,3.48,0,0,1,290.4,20c-.47-.35-.69-.6-1-.56A9.54,9.54,0,0,1,291.69,21c.67.61,1,1.18.62,1.06l-.44-.37c.71.66,1.64,1.45,2.61,2.3s1.94,1.77,3,2.66c2,1.78,4,3,4.53,2.77a4.15,4.15,0,0,1-1.57.63l2,.51c.66.15,1.33.28,2,.41l1.95.38,2,.28c-1.06.38-.24,3.59-3.36,2.06a11.89,11.89,0,0,0,3.57,2.37c-.51-.46-.67-2,.13-1.57a12.93,12.93,0,0,0,1.44,1.79L312,38.18c-.78-.66.9-1.36,2.23-.58-.31.07-.54,1.32-1.12,1.17,1.37.25,2.78.34,4.13.51-1-.2-.67,1,0,1.74-.26-.44,3.12,1.43,4.19,1.62-.49-.31-1-.59-1.45-.92,4.11,1.81,4.77-.27,8.86,1-.58.15-1.76,1.39.37,2.14l1.37-.52c.61-.24,1.34-.52,2.14-.78a18.48,18.48,0,0,1,5.36-1l.65.49c1-.05,1.92-.06,2.88-.15A29.54,29.54,0,0,1,337,44.53c-1,.25-2,.48-3,.68s-1.87.28-2.62.34c1.57.66.35.6,2.83,1.05.4.26,0,.35-.52.36a13.34,13.34,0,0,1-1.68-.19c.95.26,1.91.5,2.88.69s1.93.43,2.91.57c-.07-.43,1.07-.5,2.21-.56s2.28-.19,2.19-.54c-1.06.09-2.12.12-3.19.13s-2.14,0-3.21,0c-.09-.87,3.94-1.71,7.93-1.38,1,.41-.86,1.44-.8,1.73a15.5,15.5,0,0,1,4.31-.19l-1.76.41c2.32.39,3.74-1.06,6.52-.39.94,0,2.94.89,3.06.35-1.67-.81-2.14-3.77-1.23-4.55.31.07,4.82.39,5.94.62,1.65.49-2,2.15-.59,2.57,0-.23.82-.65,1.16-.8,1,0-.28.8,1.83.28.19-.91,4.31-.85.85-.92,2-.66,2.22-.33,4.6-1-.88-.3,1.6-2.41,3.43-3.3,0,.25.49.35.74.4a61.07,61.07,0,0,0,9.75-3.84c.41,0,2.22-.7,1.69,0A9.59,9.59,0,0,1,385,35.47c2.42-.63-2.29,1.55-.28,1.35-.13-.52,2.4-2.23,3.63-3.53-.44-.17-1.27.4-2.2,1.1s-1.92,1.6-2.61,2.16c-.26-.45.13-1.3,1-2.37A21.49,21.49,0,0,1,386,32.45a27.55,27.55,0,0,1,2-2c2.38-2.14,1.51-.3,1.86-.75a11.73,11.73,0,0,0,2.54-2.32,10.67,10.67,0,0,0,1.16-1.74,7.75,7.75,0,0,1,1-1.58,6.82,6.82,0,0,1,.85-.86c.35-.31.8-.67,1.34-1.06,2-.94,1,.91,1.66.95-1.78,2-3.26,2.52-4.55,3.74.62-.4,1.21-.85,1.83-1.27a10.41,10.41,0,0,1-1.1,1.39,7.32,7.32,0,0,1-1.42,1.16c.86-.29,2.78-2.06,4.94-4.1.55-.5,1.11-1,1.67-1.55L401.6,21A26.25,26.25,0,0,1,405,18.67c.51-.71,1.6-1.69.87-1.53-.4.31-.79.62-1.16,1-.71.2-.27-.38.16-.89s.86-.92,0-.48c.73-.73,1.49-1.56,2.39-2.36a14.63,14.63,0,0,1,3.34-2.13l.85.41c-.08-.09-.55,0-1.07.26a5,5,0,0,0-1.35.91c.84-1,4.31-1.31,5-2.78-.69.12-1.35.32-2,.48.81-.69,1.71-1.47,2.73-2.2a11.14,11.14,0,0,1,3.39-1.8c-1.39-.22-.51.3-2.58.25.95.14-.56.87-2,1.54s-2.62,1.41-1.23,1.28a6.46,6.46,0,0,0-2.68.67,13.33,13.33,0,0,1-3,1.13c.21.18,1-.09-.91,1a2.58,2.58,0,0,1-.28.46l-.13.07.12,0c-.06.08-.06.09,0,0a2.77,2.77,0,0,1,1.13-.31,9.48,9.48,0,0,1-2,2,16.69,16.69,0,0,0-2.12,2c-1.09.69.25-.56-.47-.34-.37.48-.75.93-1.09,1.43-.48-.33-3.23,1.53-1.1-.72l-2.13,1.79a16.1,16.1,0,0,0-3.88,3.39c-.93.73-1.77,2.52-1.3,1.49-.92.94-1.84,1.91-2.8,2.83l-.11-.09c-3.06,2.38-6,5.57-10.52,6.78-.55.37-1.13.72-1.81,1.11a13.75,13.75,0,0,1-2.54,1.12l-.59-.27a10.56,10.56,0,0,1-1.39.59l-1.67.5a6.39,6.39,0,0,0-2.34,1,4.42,4.42,0,0,0-2.16,0,25.48,25.48,0,0,0-2.94.72l-3.13.82a22.2,22.2,0,0,1-2.68.46l0,.65c-2,.25-3.95.64-6.49,1.05l.19.55a12.88,12.88,0,0,1-4.12.08c-1.59-.18-3.32-.41-5.07-.54a2.91,2.91,0,0,1,1.75.09,11.32,11.32,0,0,0-3.14-.64c-1.07-.12-2.16-.1-3.24-.13s-2.16-.06-3.19-.2a10.26,10.26,0,0,1-2.87-.83,4.91,4.91,0,0,1-2.2-.6,1,1,0,0,0,.23,0,3.46,3.46,0,0,0-.37-.11L328.11,39a4.74,4.74,0,0,0,1,.6c-.72-.15-1.77-.46-2.85-.65l-.25-.71-.24-.06c-.92-.55-.89,0-.51.61a9.76,9.76,0,0,0-1.47-.16c-.24-.61-.94-.77-1.67-1a2.69,2.69,0,0,1-1.8-1.19c-.91.24-5.07-2-6.08-1.4,0-.14-.21-.36.31-.08-.51-.35-1-.69-1.53-1a6.6,6.6,0,0,0-1.57-.74l0-.93c-.94-.16-1.87-.37-2.79-.6-1.08-1.32-1.46-1.9.19-1.48a14.72,14.72,0,0,1-2-.91c-.47-.25-.8-.44-1.1-.63s-.61-.36-1-.57-.93-.5-1.71-.86l.45-.28c-.45-.38-1.16-.73-1.76-1.13s-1.11-.81-1.23-1.2c-.6-1.18-3.06-3.74-6.13-6.27s-6.9-5-9.86-7.16c.26,1-.39.43-1.21-.25s-1.86-1.43-2.23-1c-.23-.49-1.06-1.11.13-.87-3.46-1.28-4.9-2.75-7.63-2.72-.28-.47.91-.21.63-.53a3.1,3.1,0,0,1-1.51-.43c-.29-.31.61-.12,1.21,0-3.64-1.15-4.31-.2-4.83.68-1.7-.91-2.63-1.14-4.1-.76-.57-.46-1.58-1,.72-.65-.64-.14-2.55-.74-4.38-1s-3.52-.43-3.63,0a5,5,0,0,0-2.15-.2,42.05,42.05,0,0,0-6-.32l.79.14c-1.14.92-2.36.2-4.66.39l.06-.11c-5.31-.33-2.23.42-7.49.24l.37.55c-.15.67-1.29.68-2.79.63A11.87,11.87,0,0,0,231,5.5c.38,0,.76,0,1.14.07-1.47.79-4.91-.55-6.59-.14-.39,0,.5-.35,1-.58-4.47.64-.33.87-3.35,2.15-.72-.19.37-1.29-1.76-.59-.59,0-1.95,1-3.54,2A18.09,18.09,0,0,1,213,11c.74,0,1.47-.06.26.88-1,.58-2.49,1.14-3.91,1.8a7.24,7.24,0,0,0-3.28,2.5c-.3.09-.43.1-.49,0-.63.66-1.73,1.6-2.69,2.57a11.11,11.11,0,0,0-2,2.51c-1.27-.23-3.19,1.94-4.68,3.73A18.68,18.68,0,0,1,194,27.3c-.66.54-1.18.76-1.48.38-1.33,1.06-2.65,2.14-4.06,3.11v-.24a25.32,25.32,0,0,0-2.91,2.08,15.25,15.25,0,0,0-1.42,1.55c-.73.25-.33-.17-.33-.29-2.18,1-3.41,1.48-4.47,2.1a43.21,43.21,0,0,0-3.69,2.48L175,38a16.49,16.49,0,0,1-4.3,1.21A55.86,55.86,0,0,0,163.8,41c0-.08.1-.22.45-.38a17,17,0,0,1-4.15.82c-1.46.09-2.94.13-4.31.11-2.73,0-5-.05-6,1.1-1.17.15-2.35.35-3.54.46,4.58.31-.72,1,1.16,1.4-1.85.08-4.66-1-2.43-.92l.34.13c.44-.57-1-.73-2.46-.94s-3.07-.4-2.94-.82c-8.88-1.19-17-4.7-24.1-8.85l.39,1.26c-.86-.47-1.68-1-2.49-1.52-.55-.58-.49-1.14,1.24,0-.65-1-3.17-1.44-3.32-1.35-3.14-2.59,1.89,0,.88-.71l-1.42-.89.25.3c-.66-.23-1.08-.28-1.58-.46a8,8,0,0,1-2-1.3c-1.14-1.1-.29-.93-.74-1.35,0,0-.1-.2-.7-.63L105,25.27c-.44-.42-.86-.85-1.29-1.27l.57,1.53c-1.42-.85-2.48-2.4-1.81-.64-.45-1.24-3-4-5.66-6.17s-5.57-4-6.13-4.62a24.12,24.12,0,0,1-3.36-1.53C86.14,12,85,11.32,83.7,10.65c.59.45.6,1.36-1.6.18,1.57-1.14-3.85-2.65-5.4-4.39.72.71-1,.07-2.61-.35s-3.13-.76-1.93.22c-2-.74.06-.65-1.38-1.46-1.27-.17-2.56-.48-3.92-.75l-2-.49-2.13-.46c-1.43-.35-2.93-.56-4.45-.82A36,36,0,0,0,53.57,2c-.1.22.93.58-.42.88-1.08-.39-2.18-.81-3.3-1.13-1.24.16-1.1,1.25-3.38.64.33.16.81.41,0,.53a44.16,44.16,0,0,0-9.21.79,65,65,0,0,0-9,2.47c-1.5.47-2.94,1.1-4.41,1.63S20.88,9,19.46,9.64c-2.9,1.21-5.71,2.6-8.65,3.85,1.69-.53.71.06-.33.82.74-.39.28.46.58.61L8.69,16.06c-.79.39-1.54.83-2.32,1.25a2.63,2.63,0,0,1-.79,1.07c-.41.41-.92.86-1.43,1.3s-1,.87-1.37,1.26-.56.74-.52,1c.37-.41.72-.84,1.11-1.22-1,2.09,3.66-.4,4.15.76.58-1.14,2-1.8,3.63-2.53a14.85,14.85,0,0,0,2.4-1.25,7.24,7.24,0,0,0,2.15-1.9c.84-.23-.41.71.11.71.54-1,1.54-1.59,3.54-2.43l-.16.23A36.86,36.86,0,0,1,26,11.4c2.16-.64,4.42-1.26,7.73-1.92L33.13,9a7.72,7.72,0,0,1,2.47-.19c.72-.6-.29-.44-1.31-.19s-2,.48-1.44-.19c1.1.31,3.59-.3,6-.7s4.88-.6,5.59,0C46.71,7.6,43.77,7.11,46,7l.62.33.54-.51c1.47,0,2.23.47,2.28.77a9.4,9.4,0,0,0-1.37.15,15.6,15.6,0,0,0,3.44,0A19.88,19.88,0,0,1,54,7.69L51.9,7.42a49.66,49.66,0,0,1,9.73.66c3.32.46,6.55,1.22,9.49,1.69l-.35-.4a12.56,12.56,0,0,1,4,1.24,37.91,37.91,0,0,0,4.09,1.79l-.19,0a10.87,10.87,0,0,1,3.5,1.22c-.64-.13-.17.27.24.65s.75.78,0,.55c4.53,1.86,2.32.74,5.64,1.55l.39.79a7.4,7.4,0,0,1,3.5,1.47c-1.92-.85.89,1.48-1.3.6A24.89,24.89,0,0,0,95.3,23c1.35.85,2.31,1.64,2.66,3,2.64.72-2.78-3.61-1.64-2.87-.29-.53.25-.39,1,0A12.14,12.14,0,0,1,99.56,25a8.54,8.54,0,0,1,1.36,2.43,10.71,10.71,0,0,0,3,3.72c-.34-.3-.42-.24-.75-.53a6.43,6.43,0,0,0,2,1.55A8.82,8.82,0,0,1,107.35,34c1.4,0,2.18,1.54,3,.9-1.15-.71-2.34-1.37-3.46-2.13,2,1.16,4.4,1.4,7.34,3.75a7.54,7.54,0,0,1-2.18-.59,4.51,4.51,0,0,0,1.36.89,4.93,4.93,0,0,1,1.42.84c-.78.73-4.42-2.22-6.84-3.09A7.09,7.09,0,0,0,110.23,36c.8.38,1.29.66.47.79,2.23-.22,3.72,2.45,6.93,2.83l-.44.45a11.09,11.09,0,0,1,2.28.69H117.7A10.58,10.58,0,0,1,121,42.2a9.31,9.31,0,0,0,3.21,1.49c-2.35-.83-2.52-1.15-2.36-1.33s.67-.29-.21-.89a15.81,15.81,0,0,1,3,1.06A5.75,5.75,0,0,1,126,43.6a7.74,7.74,0,0,0,1.53,1.14,11.88,11.88,0,0,0,1.38.62,19.09,19.09,0,0,0,2.09.55,7.35,7.35,0,0,1-1.8-.66c-.52-.28-.73-.54,0-.46a21.32,21.32,0,0,1,3.55,1.58c4.47.82-.55-.73,1.41-.7a2.32,2.32,0,0,0,1.87.49,10.79,10.79,0,0,1,2.32-.25l-.07.6c2.5.59,2.89.24,3.19,0s.54-.49,2.8-.1c-.66.23-1.33.47-2,.66.81,0,1.62,0,2.42,0l-.55.65a22.59,22.59,0,0,1,6,0c-.6-.41.33-1.09,2.57-1.18.78.16.57.31.56.4s.2.12,1.8,0a2.86,2.86,0,0,1-2.9.44c-.14.2-.71.4-.85.6,1.69.4,4.23-.11,5.39-.2a7,7,0,0,1-1.27,0c1.54-.36,3.06-.85,4.56-1.31.76.14.21.39-.35.63.94-.16,1.54-.56,2.9-.84-.27.54-.1,1-2,1.58,1.46-.43,2.92-.82,4.34-1.31.33.15,2.38.09,1.85.39a15.65,15.65,0,0,0,4.22-1.4c.75-.33,1.52-.7,2.3-1a23.86,23.86,0,0,1,2.39-.79,3.58,3.58,0,0,1,1-.66c1.49-.46,2.88-.93,4.33-1.44.72-.3,1.43-.63,2.16-1a12.2,12.2,0,0,0,2.18-1.46l2.27-.24c2.38-1.68-3,.51,1-2.27,1.37-1,1.73-1,1.9-.83s.15.59.71.35c.58-.68,1.36-1.58,2.31-2.53a14.57,14.57,0,0,1,3.53-2.63A15.69,15.69,0,0,1,195,32.75Zm26.53-19.67c-.54.35-1.52,1.21-2.08,1.11C219.75,13.24,220.41,13.31,221.48,13.08Zm49-3.71a3.51,3.51,0,0,1-1.94-.73A7.43,7.43,0,0,1,270.45,9.37ZM396.36,21.48l0,.08C395.06,22.44,395.52,22.13,396.36,21.48Zm2.52-1.94c.19-.27.12-.32,0-.29-.06.26-.62.71-1.23,1.24C397.87,20.44,398.25,20.25,398.88,19.54ZM106.62,27.06l.34.5C105.86,26.85,106.24,27,106.62,27.06Z"/><path class="cls-1" d="M264.73,8.65a.55.55,0,0,1-.2-.38C264.26,8.32,264.23,8.43,264.73,8.65Z"/><path class="cls-1" d="M175.79,43.61l-.11,0a.27.27,0,0,0-.06.14Z"/><path class="cls-1" d="M360.44,46.33a3.92,3.92,0,0,1-1.28-.11C359.15,46.38,359.46,46.45,360.44,46.33Z"/><path class="cls-1" d="M412.22,9.2l-1.73,1.13a6.34,6.34,0,0,1,1.71-.72C412.1,9.51,411.66,9.52,412.22,9.2Z"/><path class="cls-1" d="M429.75,6.59c.25-.15.59-.14.84-.28l-.14-.26C429.26,6.33,428.51,6.8,429.75,6.59Z"/><path class="cls-1" d="M414.8,10.16c.38.4,1.39-.36,2.65-1l-.23.1C417.31,8.47,416,9.27,414.8,10.16Z"/><path class="cls-1" d="M417.74,9.05a10.31,10.31,0,0,1,1.18-.52C419,8.2,418.41,8.68,417.74,9.05Z"/><path class="cls-1" d="M401.77,16.73c.62-.31,0-.77.38-.85C402.35,14.92,399,19.26,401.77,16.73Z"/><polygon class="cls-1" points="416.53 11.18 415.82 10.82 415.35 11.62 416.53 11.18"/><path class="cls-1" d="M406.9,16.12c.63-.37,1.28-.73,1.94-1.05-.09-.08.12-.27.38-.49C408.05,15.25,406.75,16,406.9,16.12Z"/><path class="cls-1" d="M409.22,14.58a8.86,8.86,0,0,0,1.46-1A13.77,13.77,0,0,0,409.22,14.58Z"/><polygon class="cls-1" points="413.94 12.66 413.31 12.85 411.94 13.56 413.94 12.66"/><path class="cls-1" d="M388.86,31.1,387,32.59c-.08.32.53.06,1.21-.51C388.61,31.64,389.27,31.05,388.86,31.1Z"/><path class="cls-1" d="M395.54,27.85a2.15,2.15,0,0,1-1.12.34l.46.64C395.1,28.5,395.34,28.19,395.54,27.85Z"/><path class="cls-1" d="M390.19,32.47c-.05.34-2.55,2.53,0,.73C390.24,32.88,392.06,31.25,390.19,32.47Z"/><polygon class="cls-1" points="356.42 44.77 357.02 44.69 356.77 43.44 356.42 44.77"/><path class="cls-1" d="M324.08,44.51c2.73,1.18.89-.51,3.33.61.38-.06-.13-.26-.63-.49s-1-.46-.61-.47C324.4,43.92,323.56,43.47,324.08,44.51Z"/><path class="cls-1" d="M326.17,44.16c.29,0,.59.07.92.08A5.29,5.29,0,0,0,326.17,44.16Z"/><path class="cls-1" d="M3.23,19c-.53.35-1.09.68-1.61,1,.39-.18.81-.33,1.21-.49Z"/><path class="cls-1" d="M1.19,22.16l-.88-.28L0,23.19C.28,22.87.83,22.25,1.19,22.16Z"/><path class="cls-1" d="M226.53,12.86l.06-.23c-.32-.11-.7,0-1.47.26Z"/><polygon class="cls-1" points="206.17 23.64 206.48 23.39 205.44 23.32 206.17 23.64"/><path class="cls-1" d="M190.37,37.87c.8-.43,1.57-1.18,2.33-1.67C191.17,37.45,189.67,37.22,190.37,37.87Z"/><path class="cls-1" d="M4.15,57.63c-.6.5,0,.68,0,.82C5,57.49,4,57.55,4.15,57.63Z"/><path class="cls-1" d="M13.41,48.64l-.07.31c.43-.51.89-1,1.34-1.46Z"/><path class="cls-1" d="M24.13,43c-1.43-.38-4,1.91-6,2.69h-.41l-.51,1.1c1.12-.69,2.37-1.55,3.61-2.23A14.6,14.6,0,0,1,24.13,43Z"/><path class="cls-1" d="M30.79,42.58c-.47-.22,1.21-.7-1.43.34a2.57,2.57,0,0,1,.28,0C29.88,42.84,30.21,42.74,30.79,42.58Z"/><path class="cls-1" d="M29.64,42.92c-1.18.4.86,0,0,0Z"/><path class="cls-1" d="M35.11,41.14l-1.51.72c.39.11,1.8-.22,1.31.06C36.5,41.38,36.13,41.27,35.11,41.14Z"/><path class="cls-1" d="M36.5,40.17l-.81.31C35.85,40.53,36.08,40.52,36.5,40.17Z"/><path class="cls-1" d="M34,41.18c.56-.25,1.12-.49,1.7-.7-.27-.09-.36-.37-.8.28C35,40.46,34.69,40.8,34,41.18Z"/><path class="cls-1" d="M33,41.32c-1,0-2.15.25-.62-.48-1.53.47-2.1.91-2,1S31.44,41.76,33,41.32Z"/><path class="cls-1" d="M24.35,41.86l-1.28.27-.9.71C22.62,42.49,24.53,42.09,24.35,41.86Z"/><path class="cls-1" d="M45.26,40c.09-.2-.59-.47-.74-.7l-1.19.36C44,39.68,45.16,39.69,45.26,40Z"/><path class="cls-1" d="M44.52,39.28l1.8-.46C44.68,38.9,44.4,39.08,44.52,39.28Z"/><path class="cls-1" d="M36.58,39.14c-.95.44-1.89.86-2.8,1.36,1.1-.56,2.24-1,3.38-1.49Z"/><polygon class="cls-1" points="52.16 39.77 51.13 40.19 52.96 39.56 52.16 39.77"/><path class="cls-1" d="M56.73,39.91c-.78.32,1,.69.16.86a14.61,14.61,0,0,0,3.3-.3A10.24,10.24,0,0,1,56.73,39.91Z"/><path class="cls-1" d="M61.83,40.32a12.33,12.33,0,0,0-1.64.15A9.26,9.26,0,0,0,61.83,40.32Z"/><path class="cls-1" d="M49.45,38.77a2.16,2.16,0,0,0,1.44.51l-.72-.52Z"/><path class="cls-1" d="M50.14,38.75h0c.78,0,1.32,0,1.55,0C51.52,38.79,51.05,38.74,50.14,38.75Z"/><path class="cls-1" d="M49.26,38.78h.19A.12.12,0,0,0,49.26,38.78Z"/><path class="cls-1" d="M41.46,38.76c1-.42,3.28-1,1-1.2C41.74,38,43,38.13,41.46,38.76Z"/><path class="cls-1" d="M48.34,38.13c-.65,0-1.31,0-2,0,.05.14.42.32-.11.5C47,38.45,47.64,38.26,48.34,38.13Z"/><polygon class="cls-1" points="49.3 37.94 48.34 38.13 49.07 38.16 49.3 37.94"/><path class="cls-1" d="M58.62,39.38a9.58,9.58,0,0,1,2.81.07,23.82,23.82,0,0,0-3.32-.59C57.94,39,57.44,39.26,58.62,39.38Z"/><path class="cls-1" d="M54.52,38.88h.18C54.59,38.81,54.5,38.79,54.52,38.88Z"/><path class="cls-1" d="M71.39,41.76l-.13-.14-.06.07Z"/><path class="cls-1" d="M57.94,38.74a3.35,3.35,0,0,0-1.84,0,15.55,15.55,0,0,1,2,.08C58.19,38.8,58.21,38.75,57.94,38.74Z"/><path class="cls-1" d="M64.66,40.58A9.59,9.59,0,0,0,63.3,40C63.69,40.23,64.48,40.69,64.66,40.58Z"/><path class="cls-1" d="M55,39l-.13,0C55.12,39.18,55.09,39.12,55,39Z"/><path class="cls-1" d="M55,39a5.62,5.62,0,0,0,1.12-.25c-.51,0-1,0-1.4.09A1.47,1.47,0,0,1,55,39Z"/><path class="cls-1" d="M75.5,39.52c-.16.22-.81.21-1.64,0a7.68,7.68,0,0,1-2.72-1c-2-.14-1.15,1.71.12,3.1.12-.19.18-.39,2.13-.08-.56-.45-4-1.91-2.25-1.84,2.57.56,2,.79,3.11,1.47-.82-1,3.43.32,3.24-.72l-2.3-.51C75.19,39.79,76.07,39.87,75.5,39.52Z"/><path class="cls-1" d="M67.74,40.57,67,40.43a11.26,11.26,0,0,1,2.47,1.35c1.33.11,1.63,0,1.77-.09-1.22-.44-2.49-.75-3.74-1.11Z"/><path class="cls-1" d="M63.47,39.71c.71-.44,2.64-.23,1.6-1.06-2.33-.45-1.71.15-3.14.13,3.77.48-1.11.12,1.53.86-.75,0-1.41-.11-2-.19.66.18,1.29.36,1.87.56l-.08,0h0c-.15-.09-.19-.14,0-.07,0,0,.06,0,.08,0a.56.56,0,0,1,.2-.17c1,.3.15.16-.2.17,0,0-.05,0-.06.07h0c1.25.11,2.49.32,3.74.47A25.23,25.23,0,0,0,63.47,39.71Z"/><path class="cls-1" d="M44.41,36.17c.13,0,.12.08.14.12C44.79,36.21,44.88,36.15,44.41,36.17Z"/><path class="cls-1" d="M46,36.38a2.77,2.77,0,0,1-1.42.34c-.81-.1,0-.26-.07-.43-.55.18-1.89.6-.15.66l.27-.09c1.58.07,3.59.6,3.32.71A4.53,4.53,0,0,0,46,36.38Z"/><path class="cls-1" d="M55.05,37.37c1.07,0,2.14-.06,3.21,0-.52-.23-1-.42-1.59-.61l.07.28C54.92,36.8,55.29,37.17,55.05,37.37Z"/><polygon class="cls-1" points="71.65 42.12 71.09 42.54 73.05 42.32 71.65 42.12"/><path class="cls-1" d="M75.5,43.39l-.32.41c.36,0,.74.05,1.1.1C76,43.72,75.76,43.56,75.5,43.39Z"/><path class="cls-1" d="M293.91,48.13l.88.5A9.05,9.05,0,0,0,293.91,48.13Z"/><path class="cls-1" d="M288,44l-.28.11C288.05,44.13,288.22,44.12,288,44Z"/><path class="cls-1" d="M171.31,76.11c1.52,0,3.33.17,3-.3l-.6-.38A8.79,8.79,0,0,1,171.31,76.11Z"/><path class="cls-1" d="M231.57,37.83l-.44,0-.78.73Z"/><path class="cls-1" d="M232,35.41l1.93,0A13.27,13.27,0,0,0,232,35.41Z"/><path class="cls-1" d="M324.41,68.27l1.18-.15C324,67.55,324.63,68.06,324.41,68.27Z"/><path class="cls-1" d="M110.43,67.68A18.36,18.36,0,0,0,113,69.6C111.79,68.56,111,67.51,110.43,67.68Z"/><path class="cls-1" d="M288.28,51.1c.53.24.78.3.84.19C288.6,51,288.26,50.93,288.28,51.1Z"/><path class="cls-1" d="M116.15,71.35c-.17-.15-.36-.27-.53-.42A22,22,0,0,1,113,69.6,7.05,7.05,0,0,0,116.15,71.35Z"/><path class="cls-1" d="M449.82,32.67a3,3,0,0,1,.32.08C450.18,32.67,450,32.66,449.82,32.67Z"/><path class="cls-1" d="M485.79,50.36c-.34-.19-.85-.55-1.33-.87A8.29,8.29,0,0,0,485.79,50.36Z"/><path class="cls-1" d="M89.68,51.26c-.73-.45-.15,0,0,0Z"/><path class="cls-1" d="M87.33,47.15c.19,0,.36.05.44,0A.6.6,0,0,1,87.33,47.15Z"/><path class="cls-1" d="M125.91,71.89l.07,0C125.77,71.73,125.8,71.76,125.91,71.89Z"/><path class="cls-1" d="M88.76,50.33a10.22,10.22,0,0,0,.81.75C89.45,51,89.2,50.72,88.76,50.33Z"/><path class="cls-1" d="M88.76,50.64l-.59-.47C88,50.18,88.08,50.28,88.76,50.64Z"/><path class="cls-1" d="M90.67,51.93c-.39-.3-.77-.56-1.1-.85.12.13.16.19.11.18C89.88,51.4,90.2,51.58,90.67,51.93Z"/><path class="cls-1" d="M383.87,64.25l.19,0C384.69,63.54,384.38,63.78,383.87,64.25Z"/><path class="cls-1" d="M189.83,60.75l-.07.08.12-.06Z"/><path class="cls-1" d="M192,58.54a4.31,4.31,0,0,1-2.16,2.23l1.76.62C191.79,60.42,191.93,59.47,192,58.54Z"/><path class="cls-1" d="M306.5,59c-.47-.57-.95-1.12-1.38-1.72,2.51,1,3.82,2.29,2.66.56-.32.29-.9.13-1.61-.26a21.32,21.32,0,0,1-2.29-1.72c-1.59-1.36-3.06-2.75-3.84-2.3l-.89-1.34c.32.32.44.3.75.62-1.67-2.71-2.47-.68-5.25-3.37-1-.93-1.6-1.7-.74-1.3-.9-.49-1.76-1-2.68-1.47-.71-.53-.36-.65.34-.13-1.3-.83-2.57-1.69-3.93-2.43l.06,0c-.71-.12-2.17-.56-2.9-.73-.9-.77.6.13.44-.2l-2.42-.86c-.7-.88,1.35-.25,2.87.66-1.3-2.62-2-.74-6.25-3.81.78.24,1.52.56,2.29.84-1-1.57-2.89-2-5.27-3.62.55.5,4.53,3.55,1.79,2.82a7.17,7.17,0,0,0-3.12-1.09c.19-.54-1.22-1-3-1.49l.37-.72c-2-.38-1.94,0-3.17.07-2.1-.64-2.4-1.36-2.79-2-3.46-.88,2.17,1.48-2,.74-2.81-.92-4.94-.9-8.45-.82-2-.44.4-.46-.31-.75l-1.87.5c-.44,0-.28-.23-.2-.32-1.54.15-.18.74-2.57.89-.33.45-1.53,0-3-.23a18.16,18.16,0,0,0-2.42-.31,6.17,6.17,0,0,0-2.36.4c-.75-.17.31-.51.07-.8-2,.43-2.86.72-3.62.94a20.68,20.68,0,0,0-3,1.19c-1,0-1.91-.05-2.87,0,2.15.18-.33,1.38-2.39,2.46.76.09,1.42.24,1.84.27-1.14.35-2.26.83-3.37,1.26-.45,0-.18-.37.31-.85-.23.13-.43.25-.59.36-1.33,0-.82-.58,0-1.24.47,0,.94.09,1.39.15.75-.71,1.47-1.41,1.18-1.82a8.58,8.58,0,0,1-1.13.49c.2-.19.32-.34.19-.39s-.47.21-1,.56l-1-.65-.11.4c-.82.1-1.62.26-2.42.41s-1.63.29-2.42.48c-1.51,1-2.85,2.09-4.36,3.29-.77.57-1.57,1.2-2.47,1.85-.45.33-.93.65-1.44,1s-1,.71-1.6,1.07c.87-1.21-.25-1.08-.56-1.79a6.07,6.07,0,0,0,2.8-1.26c.52-.34,1.07-.73,1.66-1.09a12,12,0,0,1,1.92-.89c-1.42.5-1.26,0-1-.23-.75.43-1.48.9-2.19,1.39s-1.44,1-2.14,1.46c-.19-.61-1.17.1-2.49.52,1.49.58-2.91,2.6-4.36,4.15-.18-.14-.22-.37,0-.73a6,6,0,0,1,2-1.48,3.67,3.67,0,0,0-2.53,2,4.59,4.59,0,0,1-2.33,2.16c.48-.39.78-.53.85-.85A10.51,10.51,0,0,1,204,49.67c-.8.53-1.4.87-1.21.45l.47-.41c-.8.65-1.82,1.46-2.84,2.38s-2.06,2-2.92,2.94c-1.71,1.89-3.16,3.48-3,4.08a4.48,4.48,0,0,1-.4-1.63l-.74,1.81c-.26.6-.55,1.18-.83,1.78l-.87,1.8-1,1.76c0-1.1-3.18-1.56-.84-3.8a13,13,0,0,0-3.27,2.26c.6-.2,2,.25,1.36.81a11.79,11.79,0,0,0-2.18.46,18,18,0,0,1-2.47.69c.92-.29.72,1.46-.65,2.16.11-.3-.76-1.19-.36-1.58-.84,1-1.78,1.94-2.7,2.93.73-.64-.36-1.14-1.27-1.15.45.07-2.92,1.28-3.81,1.7.52-.09,1.06-.15,1.58-.27-4,1.3-3.2,3.37-7.35,4.49.43-.41.73-2-1.36-1.67-.18.24-.48.64-.89,1.13s-.94,1-1.56,1.58A12.45,12.45,0,0,1,160,77.2l-.79-.32c-1,.27-1.93.57-2.91.8.88-.62,2.54-1.65,4.23-2.72.84-.56,1.7-1.11,2.5-1.6s1.52-1,2.12-1.37c-1.59,0-.52-.36-2.79.13-.44-.12-.16-.32.32-.5a11.36,11.36,0,0,1,1.46-.49c-.88.16-1.76.3-2.65.39s-1.77.25-2.66.29c.17.4-.82.73-1.84,1s-2,.53-1.91.88c1-.2,1.94-.44,2.9-.72s1.91-.51,2.85-.83c.19.37-.55,1.16-1.87,1.78a14.13,14.13,0,0,1-2.33.86,14.41,14.41,0,0,1-2.84.37c-1-.26.66-1.54.55-1.82a9.94,9.94,0,0,1-4,.51L152,73.4c-2.12-.25-3.52,1.16-6.08.23-.89-.12-2.56-1.25-2.75-.79,1.33,1.08,1.45,4,.36,4.69a31,31,0,0,1-5.75-2.15c-1.35-1,2.52-1.4,1.35-2.24-.08.21-.94.36-1.29.39-.9-.36.5-.6-1.52-.89-.51.76-4.07-1-1.1.5-2-.17-2.05-.65-4.34-1.21.58.75-2.58,1.21-4.65.75.19-.16-.16-.59-.32-.79-4-1.51-5.83-2.84-9.28-4.65-.22-.36-1.73-1.48-.85-1.41a5.35,5.35,0,0,1-2.18-.76c-1.58-1.84,2.32,1.3,1.28-.38-.37.34-3-1-4.54-1.76,0,.46.78,1.08,1.79,1.61a28,28,0,0,0,3.05,1.29c-.27.47-1.18.56-2.5.28a13.15,13.15,0,0,1-2.28-.68c-.82-.34-1.72-.77-2.66-1.27-2.82-1.81-.73-1.42-1.29-1.65a28.72,28.72,0,0,0-2.87-2.08,18.45,18.45,0,0,0-2-1A8.22,8.22,0,0,1,99,57.6a14.3,14.3,0,0,1-1.06-1.22c-1-1.85.85-1,.87-1.69,2.1,1.63,2.66,3.13,4,4.35-.5-.57-1-1.18-1.42-1.76a10.45,10.45,0,0,1,1.45,1,8.83,8.83,0,0,1,1.35,1.25,48.31,48.31,0,0,0-4.47-4.62l-1.64-1.59-1.72-1.53c-1.1-1-2.23-1.93-3.09-2.78-.79-.36-2.15-1-1.73-.35.43.25.86.51,1.27.79.38.64-.29.36-.88.1s-1.14-.46-.45.17c-.93-.41-1.92-.8-2.95-1.31a16.78,16.78,0,0,1-3.25-1.89l-.07-.92c0,.12.31.43.76.75a4.75,4.75,0,0,0,1.36.77c-1.12-.34-3.19-3.06-4.8-2.74.51.43,1,.92,1.46,1.38-.94-.32-2.06-.55-3.19-.84a16.62,16.62,0,0,1-3.34-1.24c.7,1.13.55.13,1.75,1.62-.44-.82.94-.14,2.22.49s2.4,1.3,1.64.2a5.7,5.7,0,0,0,1.82,1.81,9.56,9.56,0,0,1,2.1,2c.07-.24-.4-.86,1.2.35a2.25,2.25,0,0,1,.49.06l.1.1-.08-.09c.1,0,.11,0,0,0A3,3,0,0,1,88,49.3a7.8,7.8,0,0,1,2.47,1.06c1,.5,1.83,1.16,2.37,1.36.89.83-.58-.08-.22.53.52.22,1.06.42,1.56.67-.22.54,1.83,2.78-.52,1.2l1.9,1.66A15,15,0,0,0,99,59.31c.86,1,2.83,1.81,1.7,1.36,1.17.87,2.34,1.74,3.53,2.55l0,.14c3.33,2.77,7.6,4.41,11.43,7.57.67.28,1.37.51,2.15.85s1.66.77,2.75,1.3l.24.63a13.39,13.39,0,0,1,1.54.65l1.76.79a5.85,5.85,0,0,0,2.68.79,5.47,5.47,0,0,0,2,1.27,28.73,28.73,0,0,0,3.26.93c1.2.25,2.44.43,3.58.64s2.2.3,3,.5l.22-.61A35.34,35.34,0,0,0,146,79l-.14-.57a21.18,21.18,0,0,1,4.41.13,30.84,30.84,0,0,0,5.46.08,3.3,3.3,0,0,1-1.88.17,11.27,11.27,0,0,0,3.48.14,27.21,27.21,0,0,0,3.46-.71c1.13-.33,2.24-.65,3.32-.91a11.77,11.77,0,0,1,3.18-.47,6,6,0,0,1,2.39-.63,1,1,0,0,0-.23.09l.4-.1c.46,0,.95,0,1.45-.1a11.74,11.74,0,0,0-1.23,0A20.78,20.78,0,0,0,173,75l.67.42.25-.09c1.16-.17.77-.59.05-.8a10,10,0,0,0,1.32-.88c.6.3,1.29,0,2-.4a3,3,0,0,1,2.25-.56c.55-.7,5.14-2.88,5.13-4.15.1.11.43,0-.11.31.59-.26,1.18-.52,1.73-.81a6.71,6.71,0,0,0,1.45-1.11l.87.36c.63-.77,1.21-1.58,1.78-2.4,1.65-.58,2.41-.78,1.35.68l1.61-1.73c.39-.41.68-.69,1-1s.53-.51.86-.88.68-.87,1.19-1.6l.2.48A14.26,14.26,0,0,0,198,59.26,3.33,3.33,0,0,1,199.35,58c1.41-.65,3.65-2.89,6.6-5.27a40.31,40.31,0,0,1,9.71-5.92c-.92-.32-.16-.56.8-.84s2.13-.56,2-1.14c.5.14,1.42-.09.58.65,2.94-1.78,4.87-1.54,6.75-3.24.48.2-.51.73-.12.81.23-.16.91-.67,1.32-.57s-.39.42-.83.76c3.24-1.14,3.3-2.23,3.27-3.27a5.11,5.11,0,0,0,3.83-1.21c.69.19,1.77.32-.35.88.62-.08,2.47-.43,4.2-.66s3.3-.56,3.32-.95a5,5,0,0,0,2-.26c2.78-.14,3-.11,5.75-.22l-.76-.11c1.08-1,2.29-.24,4.5-.29l-.07.1c5,1,2.24-.25,7.1,1.12l-.19-.63c.32-.61,1.41-.23,2.76.29A16,16,0,0,0,266,39.44c-.3-.21-.62-.4-.94-.58,1.69-.07,3.85,2.8,5.23,3.44.29.21-.56,0-1,0,3.61,2,.75-.64,3.69.23.37.59-1,.76.83,1.54a16.24,16.24,0,0,0,3.56,1,10.6,10.6,0,0,1,4.52,2.17c-.38-.58-.77-1.17.6-.7a17.78,17.78,0,0,1,3.22,2.42,7.16,7.16,0,0,0,3.32,2c.18.23.21.37.17.44.73.41,1.89,1.12,3,1.81a10.73,10.73,0,0,0,2.66,1.47c-.12,1.32,1.85,2.84,3.95,4.45,1,.8,2.05,1.44,2.72,2s1,1.09.71,1.45c1.47,1.09,2.93,2.19,4.48,3.16l-.23.08a13.89,13.89,0,0,0,3.32,1.93,7.61,7.61,0,0,0,2.14.54c.65.5.05.38-.06.43a23.67,23.67,0,0,0,4.59,2.56,22.09,22.09,0,0,0,4.56,1.06l.19.74c.62,0,2.23.94,4.4,1.79a24,24,0,0,0,7.4,1.88c-.06.06-.18.16-.59.16a36.4,36.4,0,0,1,4.47.73c1.54.28,3.09.67,4.55.89,2.91.5,5.45.55,6.47-.56,1.24-.22,2.46-.39,3.68-.65-4.75,0,.66-1-1.29-1.31,1.81-.18,4.8.39,2.54.67l-.37-.09c-.38.6,1.1.65,2.67.55s3.21-.29,3.21.09c9.29-1.36,18.38-3.81,26.18-8.23l-1.35-.31c.92-.45,1.8-1,2.69-1.5.8-.24,1.31,0-.61,1.16,1.28-.16,2.94-2.31,2.85-2.54,3.78-2.14-.8,1.84.3,1.11l1.47-1.08-.4.14c.5-.57.72-1,1.08-1.37a9.87,9.87,0,0,1,1.92-1.73c1.45-.87,1-.08,1.57-.48,0,.06.23-.07.8-.64l1.52-1.24c.49-.43,1-.88,1.46-1.32l-1.63.55c1-1.45,2.67-2.49.81-1.85,1.46-.47,3.89-2.79,6.47-4.88a38.18,38.18,0,0,1,5.88-4.21A17.82,17.82,0,0,1,412,46.56a33.12,33.12,0,0,1,3.39-1.84c-.69.17-1.45-.36.8-1.35-.09,1.87,4.33-1.26,6.61-.71-.94,0,.61-.75,2.09-1.31s2.84-1.14,1.37-1.26c2-.46.3.55,1.87.52a17.71,17.71,0,0,1,3.57-1.1c.64-.13,1.29-.26,1.95-.37l2-.23c1.37-.18,2.79-.2,4.21-.32s2.88-.17,4.35-.25c.08-.22-.92-.53.34-.89,1.05.34,2.09.67,3.11,1.08,1.14-.06,1.11-1.3,3.19-.39-.29-.2-.72-.51.07-.53,2.88.4,5.75.92,8.64,1.41a81,81,0,0,1,8.6,2.09,39.33,39.33,0,0,1,15.44,8.4c-1.11-1.18-.17-.71.83,0-.59-.53.31-.44.35-.78l1.79,1.74c.59.58,1.14,1.21,1.7,1.81a2.3,2.3,0,0,1,1.19.44c.45.31.94.73,1.43,1.13s1,.81,1.36,1.1.73.49,1,.43c-.41-.32-.81-.66-1.24-1,2.23.67-.87-3.47.1-4.22-1.29-.35-2.29-1.65-3.57-3a15.88,15.88,0,0,0-2.15-1.89,7.64,7.64,0,0,0-2.79-1.16c-.63-.68.84.06.58-.42A9,9,0,0,1,480,41.85h.29c-2.89-1.4-4.94-2.41-7.12-3.42a59.06,59.06,0,0,0-8-3.11l.37.71a15.77,15.77,0,0,1-2.43-1c-1,.27.1.47,1.16.78s2.14.63,1.23.9c-.82-.87-3.48-1.53-6.09-2s-5.15-.78-5.78-1.56c-2.4-.19.64.73-1.75.55l-.61-.41-.63.43c-1.55-.17-2.33-.61-2.38-.94a11,11,0,0,0,1.5-.08,14.2,14.2,0,0,0-3.75-.17,19.81,19.81,0,0,1-2.74.18l2.32.18c-3.28.17-6.91.48-10.48,1a41.12,41.12,0,0,0-10,2.74l.54.12a23.57,23.57,0,0,1-4.13,1.45,17.59,17.59,0,0,0-4.43,1.63l.15-.14a19.09,19.09,0,0,1-3.37,2c.52-.44-.11-.31-.7-.2s-1.12.22-.43-.36c-4.33,3-2.1,1.61-4.48,4.28l-.91,0a9.39,9.39,0,0,1-2.76,2.81c1.52-1.54-1.79.38-.12-1.42a15.43,15.43,0,0,0-5.14,4c-1.18,1.22-2,2.24-3.43,2.58-.94,2.65,4-2.77,3.14-1.57.59-.22.34.29-.2,1a12.42,12.42,0,0,1-2,2.2c-1.3,1.14-3.16.87-6.32,3.53.31-.26.27-.35.59-.62a9.82,9.82,0,0,0-1.8,1.5,6.09,6.09,0,0,1-2.15,1.46c-.44,1.24-2.07,1.36-1.78,2.37,1-.81,2-1.56,3-2.39-1.59,1.47-2.68,3.64-6.13,5a11.73,11.73,0,0,1,1.5-1.6,4.2,4.2,0,0,0-1.35.77,4.09,4.09,0,0,1-1.4.7c-.21-1,4-2.47,5.41-4.48a7.51,7.51,0,0,0-2,1.42c-.63.51-1.07.79-.86,0-.71,2-3.55,2-5.61,4.08l-.09-.61a9.66,9.66,0,0,1-1.81,1.27l1-1.34a6.05,6.05,0,0,1-3,1.34,12.46,12.46,0,0,0-3.07,1c2.12-.76,2.41-.74,2.43-.48s-.24.67.73.49a8.49,8.49,0,0,1-2.76,1.17,4.25,4.25,0,0,1-1.63,0,6.76,6.76,0,0,0-1.78-.11,9.24,9.24,0,0,0-1.34.22c-.54.11-1.16.26-1.91.49a6.84,6.84,0,0,1,1.73-.26c.54,0,.83.08.23.41a14.28,14.28,0,0,1-3.55.22c-4,1,.76.47-.89,1.18a2.05,2.05,0,0,0-1.77.28,9,9,0,0,1-2,.94l-.1-.59c-2.38.19-2.66.45-2.89.81s-.39.7-2.57.6c.59-.31,1.17-.63,1.74-1-.73.17-1.47.27-2.21.39l.41-.71a12.39,12.39,0,0,1-5.53.39c.55.44-.32,1.09-2.46,1-1.43-.42.83-.49-2.17-.61a2.82,2.82,0,0,1,2.74-.16c.14-.19.67-.36.81-.55a27.26,27.26,0,0,0-4.92-.35,5.48,5.48,0,0,1,1.14.22c-1.45.21-2.91.28-4.39.39-.65-.3-.08-.42.47-.53a20.58,20.58,0,0,1-2.8,0c.41-.43.42-.93,2.23-.88-1.37,0-2.75,0-4.12-.16-.23-.27-1.92-1-1.37-1.08a19.79,19.79,0,0,0-3.93-.66,13.67,13.67,0,0,1-4.4-1.18,3,3,0,0,1-1.13-.14c-1.32-.52-2.44-1.27-3.7-1.87-.61-.33-1.24-.66-1.93-1s-1.43-.56-2.24-.83l-1.22-1.67c-2.33-1.18,1.64,2.3-2.27.3-1.4-.69-1.54-1-1.43-1.25s.46-.38.08-.79A17.61,17.61,0,0,1,307.53,60a8.65,8.65,0,0,1-3.08-2.58C305.26,57.93,305.76,58.48,306.5,59ZM278.31,39.21c.68.14,2.1.34,2.39.9C279.71,40.38,279.31,39.84,278.31,39.21ZM226.4,38.08a3.89,3.89,0,0,1,2.08-.51A7.46,7.46,0,0,1,226.4,38.08ZM97.24,56.86l.07,0C98.16,58,97.87,57.62,97.24,56.86Zm-2-2.16c-.28-.13-.32-.05-.28.09a3.31,3.31,0,0,1,1.29,1C96.23,55.5,96,55.17,95.26,54.7Zm298.83,7.24-.57.28C394.46,61.19,394.27,61.56,394.09,61.94Z"/><path class="cls-1" d="M232,35.7a.55.55,0,0,1,.36.26C232.55,35.8,232.53,35.69,232,35.7Z"/><path class="cls-1" d="M324.19,68.3l.09,0a.2.2,0,0,0,.13-.07Z"/><path class="cls-1" d="M138,72.64a3.59,3.59,0,0,1,1.1.5C139.19,73,138.93,72.83,138,72.64Z"/><path class="cls-1" d="M82,46.88l1.69.75a5,5,0,0,1-1.36-1C82.31,46.8,82.52,47.15,82,46.88Z"/><path class="cls-1" d="M67.9,37.64c-.29,0-.59-.12-.88-.11v.29C68.22,38.05,69.09,38.09,67.9,37.64Z"/><path class="cls-1" d="M81.35,44.33c.08-.51-1-.94-2.33-1.36l.22.1C78.6,43.56,80,43.89,81.35,44.33Z"/><path class="cls-1" d="M78.73,42.87a8.85,8.85,0,0,1-1.14-.48C77.34,42.6,78,42.65,78.73,42.87Z"/><path class="cls-1" d="M92.19,52.61c-.42-.48-.71.28-.86-.1C90.39,52.6,95.08,54.41,92.19,52.61Z"/><polygon class="cls-1" points="81.09 42.34 81.26 43.12 82.17 43 81.09 42.34"/><path class="cls-1" d="M90.2,48.05c-.55-.47-1.13-.92-1.72-1.34,0,.11-.29,0-.61-.12C89,47.29,90.14,48.23,90.2,48.05Z"/><path class="cls-1" d="M87.87,46.59a7.48,7.48,0,0,0-1.53-.83C86.66,46,87.36,46.36,87.87,46.59Z"/><polygon class="cls-1" points="83.86 43.49 84.36 43.92 85.69 44.7 83.86 43.49"/><path class="cls-1" d="M108.08,63.2l2.07,1.22c.33,0-.14-.52-.92-1C108.67,63.27,107.91,62.81,108.08,63.2Z"/><path class="cls-1" d="M103.61,57.33a2.62,2.62,0,0,1,.46,1l.57-.54C104.3,57.67,103.94,57.52,103.61,57.33Z"/><path class="cls-1" d="M109,61.51c.3,0,3.13,1.43.68-.2C109.37,61.35,107.41,60.06,109,61.51Z"/><polygon class="cls-1" points="141.29 75.27 140.69 75.21 140.61 76.48 141.29 75.27"/><path class="cls-1" d="M171.41,69.26c-2.65.52-.37,1-2.82,1.3-.27.22.24.18.74.11s1-.17.72,0C171.52,69.92,172.39,69.83,171.41,69.26Z"/><path class="cls-1" d="M170.05,70.72c-.24.13-.49.28-.75.44A4,4,0,0,0,170.05,70.72Z"/><path class="cls-1" d="M490.39,54.83c.38.44.78.86,1.13,1.33-.16-.37-.36-.7-.55-1.06Z"/><path class="cls-1" d="M493.51,56.38l-.26.87,1.27.2C494.21,57.2,493.6,56.72,493.51,56.38Z"/><path class="cls-1" d="M274,35.76l-.2.13c.21.31.63.48,1.46.82Z"/><polygon class="cls-1" points="296.28 49.02 295.95 48.72 296.12 49.82 296.28 49.02"/><path class="cls-1" d="M312.27,61.08c-.66-.41-1.5-.82-2.13-1.29C311.6,60.67,312,62,312.27,61.08Z"/><path class="cls-1" d="M497.74,84.44c.58.62.73,0,.89.06C497.52,83.6,497.67,84.57,497.74,84.44Z"/><path class="cls-1" d="M486.25,76.69l.32,0c-.66-.23-1.33-.42-2-.63Z"/><path class="cls-1" d="M474.94,70.69c.77,1.26,4.31,1.74,6.17,3.14l.23.36,1.25-.12a44.48,44.48,0,0,0-4.12-1.82A38.47,38.47,0,0,1,474.94,70.69Z"/><path class="cls-1" d="M469.11,66.5c.3.46-1.54-.18,1.52.6a1.85,1.85,0,0,1-.25-.18C470.1,66.84,469.73,66.72,469.11,66.5Z"/><path class="cls-1" d="M470.38,66.92c1.32.4-.78-.55,0,0Z"/><path class="cls-1" d="M464.18,65.35l1.84.16c-.31-.3-1.88-.76-1.26-.75C462.89,64.49,463.23,64.8,464.18,65.35Z"/><path class="cls-1" d="M462.36,65.62l.94.07C463.16,65.57,462.93,65.49,462.36,65.62Z"/><path class="cls-1" d="M465.3,65.89c-.66-.09-1.33-.16-2-.2.23.19.19.48.92.1C464,66,464.44,65.85,465.3,65.89Z"/><path class="cls-1" d="M466.36,66.31c.93.45,2.14.91.32.74,1.67.39,2.41.48,2.34.28A5.66,5.66,0,0,0,466.36,66.31Z"/><path class="cls-1" d="M474,71.28l1.11.76,1.16.18C475.68,72.13,474,71,474,71.28Z"/><path class="cls-1" d="M453.05,63.09c-.13.18.57.55.68.8l1.35-.06C454.41,63.61,453.12,63.36,453.05,63.09Z"/><path class="cls-1" d="M453.73,63.89l-2,.18C453.48,64.24,453.82,64.11,453.73,63.89Z"/><path class="cls-1" d="M461.84,66.52c1.1,0,2.22,0,3.32.07-1.31-.14-2.63-.14-3.93-.19Z"/><polygon class="cls-1" points="445.34 62.81 446.48 62.34 444.45 63.05 445.34 62.81"/><path class="cls-1" d="M440.23,63.14c.82-.43-1.22-.54-.34-.82a15.17,15.17,0,0,0-3.58,1.06A10.54,10.54,0,0,1,440.23,63.14Z"/><path class="cls-1" d="M434.6,64.06c.55-.17,1.1-.44,1.71-.68A8.24,8.24,0,0,0,434.6,64.06Z"/><path class="cls-1" d="M448.32,63.82a2.63,2.63,0,0,0-1.57-.58l.79.56Z"/><path class="cls-1" d="M447.56,63.81h0c-.86,0-1.45,0-1.7,0C446.06,63.77,446.58,63.75,447.56,63.81Z"/><path class="cls-1" d="M448.52,63.83h-.2C448.4,63.88,448.44,63.9,448.52,63.83Z"/><path class="cls-1" d="M456.84,65.14c-1.21.15-3.61.19-1.37.92C456.34,65.79,455,65.38,456.84,65.14Z"/><path class="cls-1" d="M449.47,64.52c.7,0,1.39.15,2.09.24,0-.14-.4-.38.18-.48C451,64.35,450.22,64.4,449.47,64.52Z"/><polygon class="cls-1" points="448.44 64.67 449.47 64.52 448.69 64.46 448.44 64.67"/><path class="cls-1" d="M438.29,64.06a21.35,21.35,0,0,1-3,.69c1.21-.12,2.46-.15,3.64-.31C439.09,64.25,439.58,63.89,438.29,64.06Z"/><path class="cls-1" d="M442.8,63.84l-.2,0C442.72,63.92,442.82,63.93,442.8,63.84Z"/><path class="cls-1" d="M424.47,67.25l.2,0a.41.41,0,0,1,0-.11Z"/><path class="cls-1" d="M439.15,64.52a5,5,0,0,0,2-.36l-2.16.28C438.87,64.52,438.86,64.58,439.15,64.52Z"/><path class="cls-1" d="M431.57,64.87c.49,0,1,0,1.61,0C432.68,64.74,431.7,64.7,431.57,64.87Z"/><path class="cls-1" d="M442.28,63.75l.14,0C442.11,63.63,442.15,63.68,442.28,63.75Z"/><path class="cls-1" d="M442.28,63.75a8.49,8.49,0,0,0-1.18.41c.55-.08,1-.17,1.5-.28A1.19,1.19,0,0,1,442.28,63.75Z"/><path class="cls-1" d="M422.44,71.55c0-.26.48-.71,1.24-1.08a7.7,7.7,0,0,1,2.83-.71c1.78-.86.12-2.16-1.84-2.47,0,.22.05.41-1.83,1.32.79,0,4.55-.78,3,.17-2.5,1.07-2.18.47-3.5.68,1.24.2-2.92,2-2,2.68L422.42,71C422.51,71.15,421.79,71.65,422.44,71.55Z"/><path class="cls-1" d="M428.51,66.26l.82-.28a14.49,14.49,0,0,1-3.06.11c-1.33.62-1.54.92-1.59,1.09,1.35-.43,2.73-.72,4.1-1.07Z"/><path class="cls-1" d="M433.11,65.19c-.57.64-2.51,1.31-1.17,1.61,2.42-.54,1.62-.75,3.06-1.25-4,.79,1.1-.48-1.85-.31.78-.22,1.48-.36,2.15-.49-.73,0-1.45.09-2.12.1h.11c.19,0,.25.07,0,.06l-.08,0a.69.69,0,0,1-.15.23c-1.18.1-.21-.12.15-.23,0,0,0-.06,0-.09h0c-1.32.33-2.63.75-3.94,1.12C430.19,65.88,431.24,65.61,433.11,65.19Z"/><path class="cls-1" d="M453.25,67c-.12-.06-.11-.1-.11-.14C452.88,66.88,452.78,66.92,453.25,67Z"/><path class="cls-1" d="M451.66,66.53a2.87,2.87,0,0,1,1.48-.13c.79.22,0,.25,0,.43.57-.1,2-.16.26-.63l-.29.06c-1.57-.31-3.6-1.12-3.32-1.16A6.1,6.1,0,0,0,451.66,66.53Z"/><path class="cls-1" d="M442.4,65.41c-1.11.18-2.21.3-3.3.53.57.08,1.15.19,1.72.32l-.11-.28C442.6,66,442.17,65.65,442.4,65.41Z"/><polygon class="cls-1" points="424.01 67.11 424.28 66.43 422.64 67.79 424.01 67.11"/><path class="cls-1" d="M419.85,68.64l0-.52c-.34.23-.67.45-1,.7C419.17,68.74,419.51,68.7,419.85,68.64Z"/><path class="cls-1" d="M207.36,84l-.64.66A5.94,5.94,0,0,0,207.36,84Z"/><path class="cls-1" d="M212.82,80.21v-.29C212.64,80.2,212.59,80.35,212.82,80.21Z"/><path class="cls-1" d="M328.11,101.3c-1.15-.85-2.31-2-2.34-1.4l.21.64A7.76,7.76,0,0,1,328.11,101.3Z"/><path class="cls-1" d="M266,69.23l.36.27,1-.27Z"/><path class="cls-1" d="M264.54,71.19l-1.67-.71A11,11,0,0,0,264.54,71.19Z"/><path class="cls-1" d="M175.62,106.1l-.93.93C176.43,106.39,175.57,106.41,175.62,106.1Z"/><path class="cls-1" d="M384,93.83a25,25,0,0,0-2.62,1.22C382.72,94.62,383.93,94.4,384,93.83Z"/><path class="cls-1" d="M206.11,77.73c-.45.42-.59.67-.5.76C206.05,78,206.3,77.77,206.11,77.73Z"/><path class="cls-1" d="M378.47,96.64c.2,0,.4-.1.6-.16a17.8,17.8,0,0,1,2.31-1.43A6.4,6.4,0,0,0,378.47,96.64Z"/><path class="cls-1" d="M48.07,70l-.3-.05C47.74,70,47.87,70,48.07,70Z"/><path class="cls-1" d="M9.1,77.63c.31-.26.86-.64,1.38-1A8,8,0,0,0,9.1,77.63Z"/><path class="cls-1" d="M404,76.86c.76-.56.09-.13,0,0Z"/><path class="cls-1" d="M409,76.16c-.13.15-.22.3-.17.41A.58.58,0,0,1,409,76.16Z"/><path class="cls-1" d="M371.77,103.2l-.07,0C372,103.23,371.94,103.23,371.77,103.2Z"/><path class="cls-1" d="M405.32,76.26a11.17,11.17,0,0,0-1.09.55A10.67,10.67,0,0,0,405.32,76.26Z"/><path class="cls-1" d="M405,76.16l.71-.43C405.77,75.59,405.66,75.6,405,76.16Z"/><path class="cls-1" d="M403,77.65a10.3,10.3,0,0,1,1.27-.84c-.17.08-.25.1-.22,0C403.79,77,403.46,77.25,403,77.65Z"/><path class="cls-1" d="M112.05,98.22l-.14-.15C111,97.78,111.36,98,112.05,98.22Z"/><path class="cls-1" d="M304.83,96l.1,0-.1-.1Z"/><path class="cls-1" d="M301.92,94.25a5.08,5.08,0,0,1,2.91,1.67l.06-1.92C303.92,94.09,302.93,94.18,301.92,94.25Z"/><path class="cls-1" d="M195,95.06c.72-.35,1.47-.7,2.17-1.1-1.74,2.45-3.65,3.48-1.41,2.66-.19-.39.18-1,.81-1.6s1.49-1.44,2.37-2.21c1.7-1.57,3.37-3.29,2.84-3.93l1.29-.73c-.31.27-.29.39-.59.65,2.54-1.3.64-2.33,3.56-4.5,1.08-.67,1.92-1,1.37-.32.66-.66,1.28-1.38,2-2,.69-.43.69-.08,0,.35,1.14-.83,2.27-1.7,3.47-2.46v.06a16,16,0,0,1,1.87-2.1c1.08-.31-.39.42,0,.47l1.89-1.51c1-.07-.48,1.25-1.93,2,2.75.45,1.48-1.41,6.22-2.53-.66.34-1.27.76-1.91,1.14,1.68.23,3.1-.78,5.61-1.12-.65-.14-5.16.53-3-.87a8.26,8.26,0,0,0,2.78-1.28c.24.58,1.42-.1,3-.62l.14.8c1.65-.75,1.39-1.13,2.33-1.76,2-.44,2.54,0,3.12.44,3.18-.55-2.41-.5,1.31-1.45A46.2,46.2,0,0,0,242,69.79c1.93.13-.29.51.42.69l1.62-.76c.42,0,.3.19.24.29,1.4-.33.06-.85,2.31-1.13.29-.43,1.47-.2,2.9.15a16.28,16.28,0,0,0,2.27.4,5.9,5.9,0,0,0,2.26-.12c.66.27-.37.47-.18.79,1.92-.23,2.74-.18,3.49-.27l3-.34c.86.31,1.71.62,2.55,1-1.82-1,.78-1.2,3.13-1.25a13.5,13.5,0,0,0-1.56-1c1.23.08,2.43.29,3.66.45.39.23,0,.41-.7.58l.69,0c1.18.61.4.88-.61,1.09l-1.12-.8c-1,.23-1.9.59-1.83,1.09a3.57,3.57,0,0,1,1.18.06c-.25.07-.42.14-.34.25s.49,0,1.1,0l.55,1.06.28-.29c.72.26,1.42.59,2.12.9s1.41.61,2.09,1c1.67.12,3.32.12,5.16.4a17.71,17.71,0,0,1,2.95.62c.53.14,1.07.31,1.65.51s1.14.47,1.75.75c-1.48-.06-.75.8-1.19,1.45a4.18,4.18,0,0,0-2.51-1.46c-.56-.18-1.17-.36-1.79-.57a12.44,12.44,0,0,1-1.86-.71c1.27.63.83.84.45.82.79.18,1.57.4,2.34.65s1.56.45,2.32.72c-.38.51.68.91,1.65,1.73-.21-1.57,3.54,1,5.35,1.9-.07.21-.26.33-.68.23a8.63,8.63,0,0,1-2-1.1,3.85,3.85,0,0,0,2.67,1.41,3.45,3.45,0,0,1,2.66,1.44c-.47-.35-.69-.6-1-.57a9.83,9.83,0,0,1,2.29,1.58c.67.62,1,1.19.62,1.06l-.44-.37c.71.67,1.64,1.46,2.61,2.31s1.94,1.77,3,2.65c2,1.79,4,3,4.53,2.78a4.32,4.32,0,0,1-1.57.63l2,.51c.66.15,1.33.28,2,.41l1.95.38,2,.28c-1.06.38-.24,3.59-3.36,2.06a12.09,12.09,0,0,0,3.57,2.37c-.51-.46-.67-2,.13-1.58a11.74,11.74,0,0,0,1.44,1.79l1.95,1.89c-.78-.65.9-1.36,2.23-.57-.31.07-.54,1.31-1.12,1.16,1.37.25,2.78.35,4.13.51-1-.2-.67,1,0,1.75-.26-.44,3.12,1.43,4.19,1.61-.49-.3-1-.58-1.45-.91,4.11,1.81,4.77-.27,8.86,1-.58.15-1.76,1.38.37,2.13l1.37-.51c.61-.24,1.34-.53,2.14-.78a18.15,18.15,0,0,1,5.36-1l.65.49c1,0,1.92-.06,2.88-.15a28.71,28.71,0,0,1-4.66,1.65c-1,.25-2,.49-3,.69s-1.87.27-2.62.34c1.57.66.35.59,2.83,1,.4.26,0,.35-.52.35a13.53,13.53,0,0,1-1.68-.18c.95.25,1.91.49,2.88.68s1.93.44,2.91.58c-.07-.43,1.07-.51,2.21-.57s2.28-.19,2.19-.53c-1.06.09-2.12.12-3.19.13s-2.14,0-3.21,0c-.09-.87,3.94-1.71,7.93-1.38,1,.41-.86,1.44-.8,1.72a15.48,15.48,0,0,1,4.31-.18l-1.76.41c2.32.39,3.74-1.07,6.52-.4.94,0,2.94.9,3.06.36-1.67-.81-2.14-3.78-1.23-4.55.31.07,4.82.39,5.94.62,1.65.49-2,2.15-.59,2.57,0-.24.82-.66,1.16-.8,1,0-.28.8,1.83.28.19-.91,4.31-.85.85-.92,2-.66,2.22-.33,4.6-1-.88-.31,1.6-2.41,3.43-3.3,0,.24.49.35.74.39a60.12,60.12,0,0,0,9.75-3.83c.41,0,2.22-.71,1.69,0A9.59,9.59,0,0,1,385,97.79c2.42-.63-2.29,1.55-.28,1.35-.13-.52,2.4-2.24,3.63-3.53-.44-.17-1.27.4-2.2,1.1s-1.92,1.59-2.61,2.16c-.26-.45.13-1.3,1-2.37A21.49,21.49,0,0,1,386,94.77a27.55,27.55,0,0,1,2-2c2.38-2.14,1.51-.3,1.86-.75a11.73,11.73,0,0,0,2.54-2.32A10.7,10.7,0,0,0,393.61,88a7.75,7.75,0,0,1,1-1.58,7.55,7.55,0,0,1,.85-.85,13.66,13.66,0,0,1,1.34-1.06c2-.94,1,.91,1.66.94-1.78,2-3.26,2.52-4.55,3.75.62-.41,1.21-.85,1.83-1.27a9.8,9.8,0,0,1-1.1,1.38,6.65,6.65,0,0,1-1.42,1.16c.86-.28,2.78-2,4.94-4.09.55-.5,1.11-1,1.67-1.55l1.76-1.46A27.13,27.13,0,0,1,405,81c.51-.71,1.6-1.69.87-1.53-.4.31-.79.62-1.16,1-.71.21-.27-.37.16-.89s.86-.91,0-.47c.73-.73,1.49-1.56,2.39-2.37a15,15,0,0,1,3.34-2.12l.85.4c-.08-.08-.55.05-1.07.27a5,5,0,0,0-1.35.91c.84-1,4.31-1.31,5-2.78-.69.12-1.35.31-2,.48.81-.69,1.71-1.47,2.73-2.2a11.14,11.14,0,0,1,3.39-1.8c-1.39-.23-.51.3-2.58.24.95.15-.56.87-2,1.55s-2.62,1.41-1.23,1.28a6.31,6.31,0,0,0-2.68.67,13.33,13.33,0,0,1-3,1.13c.21.18,1-.09-.91,1a2.58,2.58,0,0,1-.28.46l-.13.07.12-.05c-.06.09-.06.1,0,0a3,3,0,0,1,1.13-.32,9.26,9.26,0,0,1-2,2.05,16.63,16.63,0,0,0-2.12,2c-1.09.69.25-.56-.47-.34-.37.48-.75.93-1.09,1.43-.48-.33-3.23,1.53-1.1-.72l-2.13,1.79a16.29,16.29,0,0,0-3.88,3.38c-.93.74-1.77,2.52-1.3,1.49-.92,1-1.84,1.91-2.8,2.84l-.11-.09c-3.06,2.38-6,5.57-10.52,6.78-.55.37-1.13.72-1.81,1.1a13.08,13.08,0,0,1-2.54,1.13l-.59-.28a9.31,9.31,0,0,1-1.39.6l-1.67.49a6.57,6.57,0,0,0-2.34,1,4.57,4.57,0,0,0-2.16.06,23.57,23.57,0,0,0-2.94.72l-3.13.82a22.2,22.2,0,0,1-2.68.46l0,.64c-2,.26-3.95.65-6.49,1l.19.55a12.56,12.56,0,0,1-4.12.09c-1.59-.18-3.32-.42-5.07-.55a3,3,0,0,1,1.75.1,11,11,0,0,0-3.14-.64,31.79,31.79,0,0,0-3.24-.13c-1.08-.05-2.16-.06-3.19-.2a10.26,10.26,0,0,1-2.87-.83,5,5,0,0,1-2.2-.6l.23,0-.37-.1-1.17-.65a4.27,4.27,0,0,0,1,.59c-.72-.15-1.77-.46-2.85-.64l-.25-.71-.24-.06c-.92-.55-.89,0-.51.61a8.62,8.62,0,0,0-1.47-.16c-.24-.61-.94-.77-1.67-1a2.63,2.63,0,0,1-1.8-1.19c-.91.24-5.07-2-6.08-1.39,0-.14-.21-.36.31-.08-.51-.35-1-.7-1.53-1a6.64,6.64,0,0,0-1.57-.75l0-.92c-.94-.16-1.87-.37-2.79-.61-1.08-1.31-1.46-1.9.19-1.47a14.72,14.72,0,0,1-2-.91c-.47-.25-.8-.45-1.1-.63s-.61-.36-1-.57-.93-.5-1.71-.87l.45-.27c-.45-.38-1.16-.73-1.76-1.13s-1.11-.81-1.23-1.21c-.6-1.17-3.06-3.73-6.13-6.26s-6.9-5-9.86-7.16c.26,1-.39.43-1.21-.25s-1.86-1.43-2.23-1c-.23-.49-1.06-1.1.13-.86-3.46-1.29-4.9-2.75-7.63-2.72-.28-.47.91-.21.63-.53a3.33,3.33,0,0,1-1.51-.43c-.29-.31.61-.12,1.21,0-3.64-1.14-4.31-.19-4.83.69-1.7-.91-2.63-1.14-4.1-.77-.57-.45-1.58-1,.72-.65-.64-.13-2.55-.74-4.38-1s-3.52-.43-3.63,0a5.14,5.14,0,0,0-2.15-.21,43.54,43.54,0,0,0-6-.31l.79.14c-1.14.92-2.36.19-4.66.38l.06-.1c-5.31-.33-2.23.41-7.49.24l.37.55c-.15.67-1.29.67-2.79.63a12,12,0,0,0-4.73.56c.38,0,.76,0,1.14.08-1.47.79-4.91-.55-6.59-.15-.39,0,.5-.34,1-.58-4.47.64-.33.88-3.35,2.16-.72-.19.37-1.29-1.76-.59-.59,0-1.95,1-3.54,2A17.76,17.76,0,0,1,213,73.26c.74,0,1.47-.06.26.89-1,.58-2.49,1.14-3.91,1.79a7.26,7.26,0,0,0-3.28,2.51c-.3.09-.43.1-.49,0-.63.65-1.73,1.6-2.69,2.57a11.11,11.11,0,0,0-2,2.5c-1.27-.22-3.19,1.94-4.68,3.74A18.52,18.52,0,0,1,194,89.61c-.66.55-1.18.77-1.48.39-1.33,1.06-2.65,2.14-4.06,3.1v-.23A24.13,24.13,0,0,0,185.57,95a14.26,14.26,0,0,0-1.42,1.55c-.73.25-.33-.17-.33-.29-2.18,1-3.41,1.48-4.47,2.09s-2,1.27-3.69,2.49l-.62-.43a16.49,16.49,0,0,1-4.3,1.21,55.78,55.78,0,0,0-6.94,1.78c0-.07.1-.21.45-.38a17,17,0,0,1-4.15.83c-1.46.08-2.94.13-4.31.1-2.73,0-5,0-6,1.11-1.17.15-2.35.34-3.54.46,4.58.31-.72,1,1.16,1.4-1.85.08-4.66-1-2.43-.93l.34.14c.44-.57-1-.73-2.46-.94s-3.07-.41-2.94-.82c-8.88-1.19-17-4.7-24.1-8.85l.39,1.25c-.86-.46-1.68-1-2.49-1.51-.55-.58-.49-1.14,1.24,0-.65-1-3.17-1.43-3.32-1.34-3.14-2.6,1.89,0,.88-.71l-1.42-.89.25.3c-.66-.23-1.08-.28-1.58-.46a8.25,8.25,0,0,1-2-1.3c-1.14-1.1-.29-.93-.74-1.35,0,0-.1-.2-.7-.63L105,87.59c-.44-.42-.86-.85-1.29-1.27l.57,1.53c-1.42-.86-2.48-2.41-1.81-.65-.45-1.24-3-4-5.66-6.16s-5.57-4-6.13-4.62a23.07,23.07,0,0,1-3.36-1.54C86.14,74.34,85,73.63,83.7,73c.59.45.6,1.36-1.6.18,1.57-1.14-3.85-2.65-5.4-4.39.72.71-1,.06-2.61-.35s-3.13-.76-1.93.22c-2-.75.06-.66-1.38-1.47-1.27-.16-2.56-.48-3.92-.75l-2-.48-2.13-.46c-1.43-.36-2.93-.57-4.45-.82a36,36,0,0,0-4.66-.33c-.1.22.93.58-.42.87-1.08-.39-2.18-.8-3.3-1.12-1.24.16-1.1,1.24-3.38.63.33.17.81.41,0,.54a44.83,44.83,0,0,0-9.21.78,66.48,66.48,0,0,0-9,2.48c-1.5.47-2.94,1.09-4.41,1.63S20.88,71.29,19.46,72c-2.9,1.21-5.71,2.59-8.65,3.85,1.69-.53.71.06-.33.82.74-.4.28.46.58.61L8.69,78.38c-.79.39-1.54.83-2.32,1.24a2.58,2.58,0,0,1-.79,1.08c-.41.41-.92.86-1.43,1.3a17.79,17.79,0,0,0-1.37,1.26c-.34.4-.56.74-.52,1,.37-.41.72-.84,1.11-1.22-1,2.09,3.66-.4,4.15.75.58-1.14,2-1.8,3.63-2.52A15.7,15.7,0,0,0,13.55,80a7.39,7.39,0,0,0,2.15-1.9c.84-.23-.41.71.11.71.54-1,1.54-1.59,3.54-2.43l-.16.22A37.44,37.44,0,0,1,26,73.72a77.88,77.88,0,0,1,7.73-1.93l-.64-.44a7.72,7.72,0,0,1,2.47-.19c.72-.6-.29-.44-1.31-.19s-2,.48-1.44-.2c1.1.31,3.59-.29,6-.69s4.88-.6,5.59,0c2.22-.16-.72-.64,1.51-.79l.62.33.54-.52c1.47,0,2.23.48,2.28.78a11,11,0,0,0-1.37.14,14.46,14.46,0,0,0,3.44,0A19.23,19.23,0,0,1,54,70l-2.13-.28a51.25,51.25,0,0,1,9.73.66c3.32.46,6.55,1.22,9.49,1.7l-.35-.41a12.56,12.56,0,0,1,4,1.24,34.13,34.13,0,0,0,4.09,1.79h-.19a10.64,10.64,0,0,1,3.5,1.22c-.64-.13-.17.27.24.65s.75.78,0,.55c4.53,1.86,2.32.73,5.64,1.55l.39.79a7.29,7.29,0,0,1,3.5,1.47c-1.92-.85.89,1.47-1.3.6a25.29,25.29,0,0,0,4.76,3.81,5.12,5.12,0,0,1,2.66,3c2.64.72-2.78-3.62-1.64-2.88-.29-.52.25-.39,1,0a12.51,12.51,0,0,1,2.24,1.83,8.76,8.76,0,0,1,1.36,2.44,10.6,10.6,0,0,0,3,3.71c-.34-.29-.42-.23-.75-.53a6.62,6.62,0,0,0,2,1.56,8.76,8.76,0,0,1,2.17,1.78c1.4,0,2.18,1.55,3,.91-1.15-.71-2.34-1.38-3.46-2.13,2,1.15,4.4,1.4,7.34,3.75a7.54,7.54,0,0,1-2.18-.59,4.51,4.51,0,0,0,1.36.89,4.71,4.71,0,0,1,1.42.84c-.78.73-4.42-2.22-6.84-3.09a7.27,7.27,0,0,0,2.24,1.43c.8.37,1.29.66.47.78,2.23-.21,3.72,2.45,6.93,2.84l-.44.45a11.09,11.09,0,0,1,2.28.69H117.7a10.36,10.36,0,0,1,3.3,1.46,9.5,9.5,0,0,0,3.21,1.49c-2.35-.83-2.52-1.15-2.36-1.33s.67-.29-.21-.89a16,16,0,0,1,3,1,6,6,0,0,1,1.38,1.07,7,7,0,0,0,1.53,1.14,10.4,10.4,0,0,0,1.38.62,21.36,21.36,0,0,0,2.09.56,7.78,7.78,0,0,1-1.8-.66c-.52-.28-.73-.54,0-.46a20.52,20.52,0,0,1,3.55,1.58c4.47.81-.55-.74,1.41-.7a2.4,2.4,0,0,0,1.87.49,10.19,10.19,0,0,1,2.32-.25l-.07.59c2.5.6,2.89.24,3.19,0s.54-.49,2.8-.11c-.66.24-1.33.48-2,.67.81,0,1.62,0,2.42,0l-.55.65a22.19,22.19,0,0,1,6,0c-.6-.41.33-1.1,2.57-1.18.78.16.57.31.56.4s.2.12,1.8,0a2.86,2.86,0,0,1-2.9.45c-.14.2-.71.39-.85.59,1.69.41,4.23-.1,5.39-.2a7.09,7.09,0,0,1-1.27,0c1.54-.37,3.06-.86,4.56-1.31.76.13.21.38-.35.63.94-.16,1.54-.57,2.9-.84-.27.54-.1,1-2,1.57,1.46-.42,2.92-.81,4.34-1.3.33.15,2.38.09,1.85.39a16,16,0,0,0,4.22-1.4c.75-.34,1.52-.71,2.3-1a23.86,23.86,0,0,1,2.39-.79,3.58,3.58,0,0,1,1-.66c1.49-.46,2.88-.94,4.33-1.45a20,20,0,0,0,2.16-1,11.69,11.69,0,0,0,2.18-1.46l2.27-.24c2.38-1.67-3,.52,1-2.26,1.37-1,1.73-1,1.9-.83s.15.58.71.35c.58-.68,1.36-1.58,2.31-2.53a14.57,14.57,0,0,1,3.53-2.63A14.93,14.93,0,0,1,195,95.06ZM221.48,75.4c-.54.35-1.52,1.21-2.08,1.11C219.75,75.56,220.41,75.63,221.48,75.4Zm49-3.71a3.59,3.59,0,0,1-1.94-.73A7.43,7.43,0,0,1,270.45,71.69ZM396.36,83.8l0,.07C395.06,84.76,395.52,84.45,396.36,83.8Zm2.52-1.94c.19-.27.12-.32,0-.3-.06.27-.62.72-1.23,1.24C397.87,82.76,398.25,82.57,398.88,81.86ZM106.62,89.38l.34.49C105.86,89.17,106.24,89.28,106.62,89.38Z"/><path class="cls-1" d="M264.73,71a.51.51,0,0,1-.2-.37C264.26,70.64,264.23,70.75,264.73,71Z"/><path class="cls-1" d="M175.79,105.93l-.11,0a.27.27,0,0,0-.06.14Z"/><path class="cls-1" d="M360.44,108.64a4.33,4.33,0,0,1-1.28-.1C359.15,108.69,359.46,108.77,360.44,108.64Z"/><path class="cls-1" d="M412.22,71.52l-1.73,1.12a6.22,6.22,0,0,1,1.71-.71C412.1,71.82,411.66,71.83,412.22,71.52Z"/><path class="cls-1" d="M429.75,68.91c.25-.16.59-.15.84-.28l-.14-.26C429.26,68.65,428.51,69.12,429.75,68.91Z"/><path class="cls-1" d="M414.8,72.48c.38.4,1.39-.36,2.65-1l-.23.1C417.31,70.79,416,71.59,414.8,72.48Z"/><path class="cls-1" d="M417.74,71.37a10.31,10.31,0,0,1,1.18-.52C419,70.52,418.41,71,417.74,71.37Z"/><path class="cls-1" d="M401.77,79.05c.62-.31,0-.78.38-.85C402.35,77.23,399,81.58,401.77,79.05Z"/><polygon class="cls-1" points="416.53 73.49 415.82 73.14 415.35 73.93 416.53 73.49"/><path class="cls-1" d="M406.9,78.44c.63-.38,1.28-.73,1.94-1.06-.09-.07.12-.27.38-.49C408.05,77.56,406.75,78.31,406.9,78.44Z"/><path class="cls-1" d="M409.22,76.89a7.79,7.79,0,0,0,1.46-1A17.55,17.55,0,0,0,409.22,76.89Z"/><polygon class="cls-1" points="413.94 74.98 413.31 75.17 411.94 75.88 413.94 74.98"/><path class="cls-1" d="M388.86,93.41,387,94.91c-.08.32.53.06,1.21-.52C388.61,94,389.27,93.37,388.86,93.41Z"/><path class="cls-1" d="M395.54,90.16a2.28,2.28,0,0,1-1.12.35l.46.63C395.1,90.81,395.34,90.51,395.54,90.16Z"/><path class="cls-1" d="M390.19,94.78c-.05.34-2.55,2.53,0,.73C390.24,95.19,392.06,93.56,390.19,94.78Z"/><polygon class="cls-1" points="356.42 107.08 357.02 107 356.77 105.75 356.42 107.08"/><path class="cls-1" d="M324.08,106.83c2.73,1.18.89-.51,3.33.61.38-.06-.13-.27-.63-.49s-1-.46-.61-.48C324.4,106.24,323.56,105.79,324.08,106.83Z"/><path class="cls-1" d="M326.17,106.47c.29,0,.59.07.92.09A5.74,5.74,0,0,0,326.17,106.47Z"/><path class="cls-1" d="M3.23,81.35c-.53.35-1.09.67-1.61,1.05.39-.18.81-.33,1.21-.49Z"/><path class="cls-1" d="M1.19,84.48.31,84.2,0,85.5C.28,85.19.83,84.57,1.19,84.48Z"/><path class="cls-1" d="M226.53,75.18l.06-.23c-.32-.11-.7,0-1.47.26Z"/><polygon class="cls-1" points="206.17 85.96 206.48 85.71 205.44 85.63 206.17 85.96"/><path class="cls-1" d="M190.37,100.19c.8-.43,1.57-1.19,2.33-1.67C191.17,99.77,189.67,99.54,190.37,100.19Z"/><path class="cls-1" d="M4.15,120c-.6.5,0,.67,0,.82C5,119.81,4,119.87,4.15,120Z"/><path class="cls-1" d="M13.41,111l-.07.31c.43-.5.89-1,1.34-1.46Z"/><path class="cls-1" d="M24.13,105.28c-1.43-.39-4,1.91-6,2.69h-.41l-.51,1.1c1.12-.69,2.37-1.55,3.61-2.24A14.51,14.51,0,0,1,24.13,105.28Z"/><path class="cls-1" d="M30.79,104.9c-.47-.22,1.21-.7-1.43.34h.28C29.88,105.16,30.21,105.05,30.79,104.9Z"/><path class="cls-1" d="M29.64,105.24c-1.18.4.86,0,0,0Z"/><path class="cls-1" d="M35.11,103.45l-1.51.73c.39.11,1.8-.22,1.31.06C36.5,103.69,36.13,103.59,35.11,103.45Z"/><path class="cls-1" d="M36.5,102.49l-.81.31C35.85,102.85,36.08,102.83,36.5,102.49Z"/><path class="cls-1" d="M34,103.5c.56-.25,1.12-.49,1.7-.7-.27-.09-.36-.37-.8.28C35,102.78,34.69,103.12,34,103.5Z"/><path class="cls-1" d="M33,103.63c-1,.05-2.15.26-.62-.48-1.53.48-2.1.91-2,1S31.44,104.08,33,103.63Z"/><path class="cls-1" d="M24.35,104.18l-1.28.27-.9.71C22.62,104.8,24.53,104.41,24.35,104.18Z"/><path class="cls-1" d="M45.26,102.29c.09-.19-.59-.46-.74-.7l-1.19.37C44,102,45.16,102,45.26,102.29Z"/><path class="cls-1" d="M44.52,101.59l1.8-.45C44.68,101.22,44.4,101.39,44.52,101.59Z"/><path class="cls-1" d="M36.58,101.46c-.95.44-1.89.86-2.8,1.36,1.1-.56,2.24-1,3.38-1.5Z"/><polygon class="cls-1" points="52.16 102.09 51.13 102.5 52.96 101.88 52.16 102.09"/><path class="cls-1" d="M56.73,102.23c-.78.31,1,.69.16.85a14.64,14.64,0,0,0,3.3-.29A10.24,10.24,0,0,1,56.73,102.23Z"/><path class="cls-1" d="M61.83,102.63a10.94,10.94,0,0,0-1.64.16A9.29,9.29,0,0,0,61.83,102.63Z"/><path class="cls-1" d="M49.45,101.09a2.22,2.22,0,0,0,1.44.51l-.72-.52Z"/><path class="cls-1" d="M50.14,101.06l0,0c.78,0,1.32,0,1.55,0C51.52,101.1,51.05,101.06,50.14,101.06Z"/><path class="cls-1" d="M49.26,101.09h.19C49.38,101,49.33,101,49.26,101.09Z"/><path class="cls-1" d="M41.46,101.08c1-.42,3.28-1,1-1.2C41.74,100.33,43,100.44,41.46,101.08Z"/><path class="cls-1" d="M48.34,100.45c-.65,0-1.31,0-2,0,.05.13.42.31-.11.5C47,100.77,47.64,100.57,48.34,100.45Z"/><polygon class="cls-1" points="49.3 100.25 48.34 100.45 49.07 100.47 49.3 100.25"/><path class="cls-1" d="M58.62,101.69a9.61,9.61,0,0,1,2.81.08,22.44,22.44,0,0,0-3.32-.59C57.94,101.33,57.44,101.57,58.62,101.69Z"/><path class="cls-1" d="M54.52,101.2l.18,0C54.59,101.13,54.5,101.11,54.52,101.2Z"/><path class="cls-1" d="M71.39,104.07l-.13-.14-.06.08Z"/><path class="cls-1" d="M57.94,101.06a3.35,3.35,0,0,0-1.84,0,14,14,0,0,1,2,.08C58.19,101.11,58.21,101.06,57.94,101.06Z"/><path class="cls-1" d="M64.66,102.89a10.92,10.92,0,0,0-1.36-.57C63.69,102.54,64.48,103,64.66,102.89Z"/><path class="cls-1" d="M55,101.35l-.13,0C55.12,101.5,55.09,101.44,55,101.35Z"/><path class="cls-1" d="M55,101.35a7.48,7.48,0,0,0,1.12-.25c-.51,0-1,0-1.4.08A1.48,1.48,0,0,1,55,101.35Z"/><path class="cls-1" d="M75.5,101.84c-.16.21-.81.2-1.64,0a7.65,7.65,0,0,1-2.72-1c-2-.14-1.15,1.71.12,3.09.12-.19.18-.38,2.13-.07-.56-.46-4-1.91-2.25-1.84,2.57.56,2,.78,3.11,1.47-.82-1,3.43.31,3.24-.72l-2.3-.52C75.19,102.11,76.07,102.19,75.5,101.84Z"/><path class="cls-1" d="M67.74,102.89l-.78-.14a11.6,11.6,0,0,1,2.47,1.34c1.33.12,1.63.06,1.77-.08-1.22-.45-2.49-.75-3.74-1.12Z"/><path class="cls-1" d="M63.47,102c.71-.43,2.64-.23,1.6-1-2.33-.45-1.71.14-3.14.12,3.77.49-1.11.12,1.53.87-.75,0-1.41-.11-2-.19.66.17,1.29.36,1.87.55l-.08,0h0c-.15-.09-.19-.14,0-.07,0,0,.06,0,.08,0a.48.48,0,0,1,.2-.17c1,.3.15.15-.2.17,0,0-.05,0-.06.07h0c1.25.11,2.49.31,3.74.47A26.42,26.42,0,0,0,63.47,102Z"/><path class="cls-1" d="M44.41,98.49c.13,0,.12.08.14.12C44.79,98.52,44.88,98.47,44.41,98.49Z"/><path class="cls-1" d="M46,98.7a2.77,2.77,0,0,1-1.42.34c-.81-.11,0-.26-.07-.43-.55.18-1.89.6-.15.66l.27-.1c1.58.07,3.59.61,3.32.72A4.53,4.53,0,0,0,46,98.7Z"/><path class="cls-1" d="M55.05,99.69c1.07,0,2.14-.07,3.21,0-.52-.23-1-.43-1.59-.61l.07.28C54.92,99.12,55.29,99.49,55.05,99.69Z"/><polygon class="cls-1" points="71.65 104.44 71.09 104.86 73.05 104.63 71.65 104.44"/><path class="cls-1" d="M75.5,105.71l-.32.41c.36,0,.74,0,1.1.1C76,106,75.76,105.88,75.5,105.71Z"/><path class="cls-1" d="M293.91,110.45l.88.5A6.12,6.12,0,0,0,293.91,110.45Z"/><path class="cls-1" d="M288,106.27l-.28.12C288.05,106.45,288.22,106.44,288,106.27Z"/><path class="cls-1" d="M171.31,138.42c1.52,0,3.33.18,3-.29l-.6-.38A9.09,9.09,0,0,1,171.31,138.42Z"/><path class="cls-1" d="M231.57,100.15l-.44-.06-.78.74Z"/><path class="cls-1" d="M232,97.73l1.93,0A13.61,13.61,0,0,0,232,97.73Z"/><path class="cls-1" d="M324.41,130.59l1.18-.15C324,129.87,324.63,130.38,324.41,130.59Z"/><path class="cls-1" d="M110.43,130a19.2,19.2,0,0,0,2.52,1.92C111.79,130.88,111,129.82,110.43,130Z"/><path class="cls-1" d="M288.28,113.42c.53.23.78.3.84.19C288.6,113.33,288.26,113.25,288.28,113.42Z"/><path class="cls-1" d="M116.15,133.66c-.17-.14-.36-.26-.53-.42a20.5,20.5,0,0,1-2.67-1.32A7,7,0,0,0,116.15,133.66Z"/><path class="cls-1" d="M449.82,95c.1,0,.23,0,.32.07S450,95,449.82,95Z"/><path class="cls-1" d="M485.79,112.67c-.34-.19-.85-.54-1.33-.87A7.07,7.07,0,0,0,485.79,112.67Z"/><path class="cls-1" d="M89.68,113.58c-.73-.46-.15,0,0,0Z"/><path class="cls-1" d="M87.33,109.46c.19.05.36.06.44,0A.55.55,0,0,1,87.33,109.46Z"/><path class="cls-1" d="M125.91,134.21l.07,0C125.77,134.05,125.8,134.08,125.91,134.21Z"/><path class="cls-1" d="M88.76,112.64a10.22,10.22,0,0,0,.81.76A10.39,10.39,0,0,0,88.76,112.64Z"/><path class="cls-1" d="M88.76,113l-.59-.46C88,112.5,88.08,112.6,88.76,113Z"/><path class="cls-1" d="M90.67,114.25c-.39-.3-.77-.56-1.1-.85.12.13.16.19.11.18C89.88,113.72,90.2,113.89,90.67,114.25Z"/><path class="cls-1" d="M383.87,126.57l.19,0C384.69,125.86,384.38,126.1,383.87,126.57Z"/><path class="cls-1" d="M189.83,123.07s0,.05-.07.07l.12,0Z"/><path class="cls-1" d="M192,120.85a4.33,4.33,0,0,1-2.16,2.24l1.76.62C191.79,122.74,191.93,121.79,192,120.85Z"/><path class="cls-1" d="M306.5,121.28c-.47-.57-.95-1.12-1.38-1.73,2.51,1,3.82,2.3,2.66.56-.32.3-.9.14-1.61-.25a21.53,21.53,0,0,1-2.29-1.73c-1.59-1.36-3.06-2.75-3.84-2.3l-.89-1.33c.32.32.44.3.75.61-1.67-2.71-2.47-.68-5.25-3.37-1-.92-1.6-1.7-.74-1.29-.9-.49-1.76-1-2.68-1.48-.71-.52-.36-.64.34-.12-1.3-.83-2.57-1.7-3.93-2.44l.06,0c-.71-.12-2.17-.56-2.9-.73-.9-.77.6.12.44-.2l-2.42-.86c-.7-.89,1.35-.25,2.87.65-1.3-2.61-2-.73-6.25-3.8.78.24,1.52.56,2.29.84-1-1.57-2.89-2-5.27-3.62.55.49,4.53,3.55,1.79,2.82a7.17,7.17,0,0,0-3.12-1.09c.19-.55-1.22-1-3-1.49l.37-.72c-2-.38-1.94,0-3.17.07-2.1-.64-2.4-1.37-2.79-2-3.46-.87,2.17,1.49-2,.75-2.81-.92-4.94-.9-8.45-.82-2-.44.4-.47-.31-.75l-1.87.5c-.44,0-.28-.23-.2-.33-1.54.16-.18.74-2.57.9-.33.44-1.53,0-3-.23a16.65,16.65,0,0,0-2.42-.31,6.17,6.17,0,0,0-2.36.4c-.75-.18.31-.51.07-.8-2,.43-2.86.72-3.62.93a22.41,22.41,0,0,0-3,1.2c-1,0-1.91,0-2.87,0,2.15.18-.33,1.38-2.39,2.47.76.09,1.42.24,1.84.26-1.14.36-2.26.84-3.37,1.27-.45,0-.18-.38.31-.85l-.59.35c-1.33,0-.82-.57,0-1.24.47,0,.94.1,1.39.15.75-.71,1.47-1.4,1.18-1.82a6.52,6.52,0,0,1-1.13.49c.2-.18.32-.34.19-.39s-.47.22-1,.57l-1-.65-.11.39c-.82.1-1.62.27-2.42.42s-1.63.29-2.42.48c-1.51,1-2.85,2.09-4.36,3.29-.77.57-1.57,1.2-2.47,1.85-.45.32-.93.65-1.44,1s-1,.71-1.6,1.07c.87-1.22-.25-1.08-.56-1.79a6.07,6.07,0,0,0,2.8-1.26c.52-.35,1.07-.73,1.66-1.09a13,13,0,0,1,1.92-.9c-1.42.51-1.26,0-1-.23-.75.44-1.48.91-2.19,1.4s-1.44.95-2.14,1.46c-.19-.62-1.17.1-2.49.52,1.49.58-2.91,2.59-4.36,4.14-.18-.13-.22-.36,0-.72a6,6,0,0,1,2-1.49,3.71,3.71,0,0,0-2.53,2,4.63,4.63,0,0,1-2.33,2.16c.48-.39.78-.54.85-.86A10.25,10.25,0,0,1,204,112c-.8.53-1.4.87-1.21.45l.47-.41c-.8.64-1.82,1.46-2.84,2.38s-2.06,2-2.92,2.93c-1.71,1.89-3.16,3.48-3,4.08a4.42,4.42,0,0,1-.4-1.62l-.74,1.81c-.26.6-.55,1.18-.83,1.78l-.87,1.8-1,1.75c0-1.09-3.18-1.55-.84-3.8a13.36,13.36,0,0,0-3.27,2.27c.6-.2,2,.25,1.36.81a13.1,13.1,0,0,0-2.18.45,15.39,15.39,0,0,1-2.47.69c.92-.28.72,1.47-.65,2.17.11-.3-.76-1.19-.36-1.58-.84,1-1.78,1.94-2.7,2.93.73-.65-.36-1.14-1.27-1.16.45.08-2.92,1.29-3.81,1.71.52-.09,1.06-.15,1.58-.27-4,1.3-3.2,3.37-7.35,4.49.43-.42.73-2-1.36-1.67-.18.24-.48.63-.89,1.12a20.61,20.61,0,0,1-1.56,1.59,12.57,12.57,0,0,1-4.79,2.83l-.79-.32c-1,.26-1.93.57-2.91.79.88-.61,2.54-1.65,4.23-2.72.84-.55,1.7-1.1,2.5-1.59s1.52-1,2.12-1.37c-1.59,0-.52-.36-2.79.13-.44-.13-.16-.32.32-.5a10,10,0,0,1,1.46-.49c-.88.16-1.76.3-2.65.39s-1.77.24-2.66.29c.17.4-.82.73-1.84,1s-2,.53-1.91.89c1-.2,1.94-.45,2.9-.72s1.91-.51,2.85-.84c.19.38-.55,1.16-1.87,1.78a14.1,14.1,0,0,1-2.33.87,15.2,15.2,0,0,1-2.84.37c-1-.26.66-1.55.55-1.82a9.93,9.93,0,0,1-4,.5l1.62-.49c-2.12-.24-3.52,1.16-6.08.24-.89-.13-2.56-1.25-2.75-.8,1.33,1.09,1.45,4,.36,4.7a31.76,31.76,0,0,1-5.75-2.15c-1.35-1,2.52-1.4,1.35-2.25-.08.22-.94.37-1.29.4-.9-.36.5-.6-1.52-.9-.51.77-4.07-.94-1.1.51-2-.17-2.05-.65-4.34-1.21.58.75-2.58,1.2-4.65.75.19-.16-.16-.59-.32-.79-4-1.51-5.83-2.84-9.28-4.65-.22-.36-1.73-1.48-.85-1.41a5.51,5.51,0,0,1-2.18-.76c-1.58-1.84,2.32,1.3,1.28-.38-.37.33-3-1-4.54-1.76,0,.45.78,1.08,1.79,1.6a26.38,26.38,0,0,0,3.05,1.3c-.27.47-1.18.56-2.5.28a14.09,14.09,0,0,1-2.28-.68c-.82-.34-1.72-.77-2.66-1.27-2.82-1.82-.73-1.42-1.29-1.65a27.17,27.17,0,0,0-2.87-2.08,18.45,18.45,0,0,0-2-1A8.22,8.22,0,0,1,99,119.92a13.15,13.15,0,0,1-1.06-1.23c-1-1.84.85-1,.87-1.68,2.1,1.63,2.66,3.13,4,4.35-.5-.58-1-1.18-1.42-1.77a11.6,11.6,0,0,1,1.45,1,7.93,7.93,0,0,1,1.35,1.25,48.31,48.31,0,0,0-4.47-4.62l-1.64-1.59-1.72-1.53c-1.1-1-2.23-1.93-3.09-2.78-.79-.36-2.15-1-1.73-.36.43.26.86.51,1.27.8.38.64-.29.35-.88.1s-1.14-.47-.45.17c-.93-.41-1.92-.81-2.95-1.31a17.31,17.31,0,0,1-3.25-1.89l-.07-.92c0,.11.31.43.76.74a4.57,4.57,0,0,0,1.36.78c-1.12-.35-3.19-3.06-4.8-2.74.51.42,1,.92,1.46,1.38-.94-.33-2.06-.55-3.19-.84A17.25,17.25,0,0,1,77.44,106c.7,1.12.55.13,1.75,1.62-.44-.82.94-.14,2.22.49s2.4,1.3,1.64.19a5.74,5.74,0,0,0,1.82,1.82,9.49,9.49,0,0,1,2.1,2c.07-.23-.4-.85,1.2.36a2.25,2.25,0,0,1,.49.06l.1.09-.08-.08c.1,0,.11,0,0,0a2.9,2.9,0,0,1-.63-.9,8,8,0,0,1,2.47,1c1,.51,1.83,1.16,2.37,1.37.89.83-.58-.08-.22.53.52.22,1.06.42,1.56.66-.22.55,1.83,2.79-.52,1.21l1.9,1.66A15.15,15.15,0,0,0,99,121.63c.86,1,2.83,1.81,1.7,1.36,1.17.86,2.34,1.73,3.53,2.55l0,.13c3.33,2.77,7.6,4.42,11.43,7.57.67.28,1.37.52,2.15.86s1.66.76,2.75,1.3l.24.63a13.39,13.39,0,0,1,1.54.65l1.76.78a5.6,5.6,0,0,0,2.68.79,5.35,5.35,0,0,0,2,1.28,28.73,28.73,0,0,0,3.26.93c1.2.25,2.44.43,3.58.64s2.2.3,3,.49l.22-.6a36.85,36.85,0,0,0,7.17.32l-.14-.57a20.51,20.51,0,0,1,4.41.13,30.84,30.84,0,0,0,5.46.08,3.31,3.31,0,0,1-1.88.16,11.27,11.27,0,0,0,3.48.14,27.18,27.18,0,0,0,3.46-.7c1.13-.33,2.24-.65,3.32-.91a12.2,12.2,0,0,1,3.18-.48,5.92,5.92,0,0,1,2.39-.62.69.69,0,0,0-.23.09l.4-.1c.46,0,.95,0,1.45-.11-.45,0-.87,0-1.23.05a20.78,20.78,0,0,0,2.94-1.14l.67.42.25-.1c1.16-.17.77-.58.05-.79a10,10,0,0,0,1.32-.88c.6.29,1.29,0,2-.4a3,3,0,0,1,2.25-.56c.55-.7,5.14-2.88,5.13-4.15.1.1.43,0-.11.31.59-.26,1.18-.52,1.73-.81a6.71,6.71,0,0,0,1.45-1.11l.87.36c.63-.77,1.21-1.59,1.78-2.41,1.65-.57,2.41-.77,1.35.68l1.61-1.72c.39-.41.68-.69,1-1s.53-.52.86-.88.68-.87,1.19-1.61l.2.49a14.41,14.41,0,0,0,1.44-1.65,3.29,3.29,0,0,1,1.32-1.22c1.41-.65,3.65-2.9,6.6-5.27a40.31,40.31,0,0,1,9.71-5.92c-.92-.33-.16-.56.8-.85s2.13-.55,2-1.13c.5.14,1.42-.09.58.65,2.94-1.79,4.87-1.54,6.75-3.24.48.19-.51.73-.12.8.23-.15.91-.67,1.32-.56s-.39.41-.83.75c3.24-1.13,3.3-2.22,3.27-3.26a5.11,5.11,0,0,0,3.83-1.21c.69.19,1.77.31-.35.88.62-.08,2.47-.43,4.2-.66s3.3-.56,3.32-1a5,5,0,0,0,2-.26c2.78-.14,3-.11,5.75-.22l-.76-.12c1.08-1,2.29-.23,4.5-.28l-.07.1c5,1,2.24-.25,7.1,1.12l-.19-.63c.32-.62,1.41-.23,2.76.28a16,16,0,0,0,4.39,1.38c-.3-.2-.62-.4-.94-.58,1.69-.06,3.85,2.8,5.23,3.45.29.21-.56,0-1-.05,3.61,2,.75-.64,3.69.22.37.59-1,.77.83,1.54a16.07,16.07,0,0,0,3.56,1,10.59,10.59,0,0,1,4.52,2.16c-.38-.58-.77-1.16.6-.69a17.78,17.78,0,0,1,3.22,2.42c1.12.92,2.2,1.83,3.32,2,.18.23.21.37.17.44.73.41,1.89,1.12,3,1.81a10.73,10.73,0,0,0,2.66,1.47c-.12,1.32,1.85,2.84,3.95,4.45,1,.8,2.05,1.44,2.72,2s1,1.1.71,1.46c1.47,1.09,2.93,2.18,4.48,3.16l-.23.08A13.89,13.89,0,0,0,309.7,130a8,8,0,0,0,2.14.54c.65.5.05.38-.06.43a24.24,24.24,0,0,0,4.59,2.56,22.09,22.09,0,0,0,4.56,1.06l.19.73c.62,0,2.23.95,4.4,1.8a24,24,0,0,0,7.4,1.88c-.06.06-.18.15-.59.15a36.49,36.49,0,0,1,4.47.74c1.54.28,3.09.67,4.55.89,2.91.5,5.45.55,6.47-.56,1.24-.22,2.46-.4,3.68-.65-4.75,0,.66-1-1.29-1.31,1.81-.18,4.8.39,2.54.67l-.37-.09c-.38.6,1.1.65,2.67.54s3.21-.28,3.21.1c9.29-1.37,18.38-3.81,26.18-8.23l-1.35-.31c.92-.46,1.8-1,2.69-1.5.8-.24,1.31,0-.61,1.16,1.28-.16,2.94-2.32,2.85-2.54,3.78-2.14-.8,1.84.3,1.11l1.47-1.08-.4.14c.5-.57.72-1,1.08-1.38a10.26,10.26,0,0,1,1.92-1.72c1.45-.88,1-.09,1.57-.48,0,0,.23-.07.8-.64l1.52-1.25c.49-.42,1-.87,1.46-1.31l-1.63.54c1-1.45,2.67-2.48.81-1.84,1.46-.47,3.89-2.79,6.47-4.89a37.87,37.87,0,0,1,5.88-4.2,17.88,17.88,0,0,1,2.73-2.2,35.21,35.21,0,0,1,3.39-1.83c-.69.17-1.45-.37.8-1.35-.09,1.87,4.33-1.26,6.61-.71-.94-.06.61-.75,2.09-1.31s2.84-1.14,1.37-1.27c2-.45.3.55,1.87.53a17.71,17.71,0,0,1,3.57-1.1c.64-.14,1.29-.26,1.95-.37l2-.23c1.37-.19,2.79-.2,4.21-.33s2.88-.16,4.35-.24c.08-.22-.92-.53.34-.89,1.05.34,2.09.66,3.11,1.07,1.14-.06,1.11-1.29,3.19-.38-.29-.21-.72-.52.07-.53,2.88.4,5.75.92,8.64,1.41a83.41,83.41,0,0,1,8.6,2.08,39.59,39.59,0,0,1,15.44,8.4c-1.11-1.17-.17-.7.83,0-.59-.53.31-.44.35-.77l1.79,1.74c.59.58,1.14,1.21,1.7,1.81a2.22,2.22,0,0,1,1.19.44,18,18,0,0,1,1.43,1.13c.48.41,1,.81,1.36,1.1s.73.48,1,.43c-.41-.32-.81-.66-1.24-1,2.23.68-.87-3.47.1-4.22-1.29-.35-2.29-1.64-3.57-3a15.88,15.88,0,0,0-2.15-1.89,7.65,7.65,0,0,0-2.79-1.17c-.63-.67.84.07.58-.42a8.94,8.94,0,0,1-4.15-1.88h.29c-2.89-1.39-4.94-2.4-7.12-3.41a60.28,60.28,0,0,0-8-3.12l.37.71a15,15,0,0,1-2.43-1c-1,.26.1.47,1.16.77s2.14.63,1.23.9c-.82-.86-3.48-1.52-6.09-2s-5.15-.78-5.78-1.55c-2.4-.19.64.73-1.75.55l-.61-.41-.63.43c-1.55-.17-2.33-.61-2.38-.94a12.9,12.9,0,0,0,1.5-.08,14.2,14.2,0,0,0-3.75-.17,23.81,23.81,0,0,1-2.74.18l2.32.17c-3.28.18-6.91.49-10.48,1a41.12,41.12,0,0,0-10,2.74l.54.12a23.57,23.57,0,0,1-4.13,1.45,17.59,17.59,0,0,0-4.43,1.63l.15-.14a19.1,19.1,0,0,1-3.37,2c.52-.43-.11-.3-.7-.19s-1.12.22-.43-.36c-4.33,3-2.1,1.61-4.48,4.27l-.91,0a9.28,9.28,0,0,1-2.76,2.8c1.52-1.54-1.79.39-.12-1.41a15.55,15.55,0,0,0-5.14,4c-1.18,1.22-2,2.25-3.43,2.59-.94,2.65,4-2.77,3.14-1.57.59-.23.34.28-.2,1a12.71,12.71,0,0,1-2,2.19c-1.3,1.14-3.16.88-6.32,3.54.31-.26.27-.36.59-.62a9.82,9.82,0,0,0-1.8,1.5,6.09,6.09,0,0,1-2.15,1.46c-.44,1.24-2.07,1.36-1.78,2.36,1-.8,2-1.55,3-2.39-1.59,1.48-2.68,3.65-6.13,5a11.17,11.17,0,0,1,1.5-1.6,4.37,4.37,0,0,0-1.35.76,4.11,4.11,0,0,1-1.4.71c-.21-1,4-2.47,5.41-4.49a7.57,7.57,0,0,0-2,1.43c-.63.5-1.07.79-.86,0-.71,2.06-3.55,1.95-5.61,4.09l-.09-.61a9.24,9.24,0,0,1-1.81,1.26l1-1.33a6.14,6.14,0,0,1-3,1.34,12.46,12.46,0,0,0-3.07,1c2.12-.77,2.41-.74,2.43-.49s-.24.68.73.5a8.49,8.49,0,0,1-2.76,1.17,4.25,4.25,0,0,1-1.63,0,6.76,6.76,0,0,0-1.78-.11,8,8,0,0,0-1.34.22c-.54.11-1.16.26-1.91.49a6.42,6.42,0,0,1,1.73-.26c.54,0,.83.08.23.41a14.28,14.28,0,0,1-3.55.22c-4,1,.76.46-.89,1.18a2.05,2.05,0,0,0-1.77.27,8.53,8.53,0,0,1-2,.95l-.1-.59c-2.38.18-2.66.45-2.89.81s-.39.69-2.57.6c.59-.31,1.17-.63,1.74-1-.73.17-1.47.27-2.21.39l.41-.71a12.39,12.39,0,0,1-5.53.39c.55.43-.32,1.09-2.46,1.05-1.43-.43.83-.49-2.17-.61a2.82,2.82,0,0,1,2.74-.16c.14-.19.67-.36.81-.55a25.55,25.55,0,0,0-4.92-.35,5.48,5.48,0,0,1,1.14.22c-1.45.2-2.91.28-4.39.39-.65-.31-.08-.42.47-.54a20.34,20.34,0,0,1-2.8,0c.41-.43.42-.94,2.23-.88-1.37-.05-2.75-.05-4.12-.16-.23-.27-1.92-1-1.37-1.08a19.09,19.09,0,0,0-3.93-.66,13.67,13.67,0,0,1-4.4-1.18,3.2,3.2,0,0,1-1.13-.14c-1.32-.52-2.44-1.27-3.7-1.87-.61-.34-1.24-.66-1.93-1s-1.43-.56-2.24-.82l-1.22-1.67c-2.33-1.19,1.64,2.3-2.27.3-1.4-.69-1.54-1-1.43-1.25s.46-.38.08-.79a19.62,19.62,0,0,1-2.91-1.12,8.58,8.58,0,0,1-3.08-2.59C305.26,120.25,305.76,120.8,306.5,121.28Zm-28.19-19.75c.68.14,2.1.34,2.39.9C279.71,102.7,279.31,102.16,278.31,101.53ZM226.4,100.4a3.8,3.8,0,0,1,2.08-.51A7.82,7.82,0,0,1,226.4,100.4ZM97.24,119.18l.07,0C98.16,120.34,97.87,119.93,97.24,119.18Zm-2-2.16c-.28-.13-.32,0-.28.09a3.21,3.21,0,0,1,1.29,1C96.23,117.81,96,117.48,95.26,117Zm298.83,7.24-.57.28C394.46,123.51,394.27,123.88,394.09,124.26Z"/><path class="cls-1" d="M232,98a.58.58,0,0,1,.36.26C232.55,98.12,232.53,98,232,98Z"/><path class="cls-1" d="M324.19,130.62l.09,0a.26.26,0,0,0,.13-.07Z"/><path class="cls-1" d="M138,135a3.64,3.64,0,0,1,1.1.49C139.19,135.31,138.93,135.15,138,135Z"/><path class="cls-1" d="M82,109.2l1.69.75a4.79,4.79,0,0,1-1.36-1C82.31,109.12,82.52,109.47,82,109.2Z"/><path class="cls-1" d="M67.9,100c-.29,0-.59-.13-.88-.12v.29C68.22,100.37,69.09,100.41,67.9,100Z"/><path class="cls-1" d="M81.35,106.64c.08-.5-1-.94-2.33-1.35l.22.09C78.6,105.87,80,106.21,81.35,106.64Z"/><path class="cls-1" d="M78.73,105.19a10.52,10.52,0,0,1-1.14-.48C77.34,104.91,78,105,78.73,105.19Z"/><path class="cls-1" d="M92.19,114.93c-.42-.48-.71.28-.86-.1C90.39,114.92,95.08,116.72,92.19,114.93Z"/><polygon class="cls-1" points="81.09 104.66 81.26 105.44 82.17 105.31 81.09 104.66"/><path class="cls-1" d="M90.2,110.37c-.55-.47-1.13-.92-1.72-1.34,0,.11-.29,0-.61-.12C89,109.6,90.14,110.54,90.2,110.37Z"/><path class="cls-1" d="M87.87,108.91a7,7,0,0,0-1.53-.83C86.66,108.27,87.36,108.68,87.87,108.91Z"/><polygon class="cls-1" points="83.86 105.81 84.36 106.23 85.69 107.02 83.86 105.81"/><path class="cls-1" d="M108.08,125.51l2.07,1.23c.33,0-.14-.52-.92-1C108.67,125.59,107.91,125.13,108.08,125.51Z"/><path class="cls-1" d="M103.61,119.65a2.56,2.56,0,0,1,.46,1l.57-.54C104.3,120,103.94,119.83,103.61,119.65Z"/><path class="cls-1" d="M109,123.83c.3,0,3.13,1.42.68-.2C109.37,123.67,107.41,122.38,109,123.83Z"/><polygon class="cls-1" points="141.29 137.59 140.69 137.53 140.61 138.8 141.29 137.59"/><path class="cls-1" d="M171.41,131.58c-2.65.52-.37,1-2.82,1.3-.27.22.24.18.74.11s1-.17.72,0C171.52,132.24,172.39,132.15,171.41,131.58Z"/><path class="cls-1" d="M170.05,133c-.24.13-.49.27-.75.44A4.63,4.63,0,0,0,170.05,133Z"/><path class="cls-1" d="M490.39,117.14c.38.45.78.87,1.13,1.34-.16-.37-.36-.71-.55-1.06Z"/><path class="cls-1" d="M493.51,118.7l-.26.87,1.27.2C494.21,119.52,493.6,119,493.51,118.7Z"/><path class="cls-1" d="M274,98.08l-.2.13c.21.3.63.47,1.46.82Z"/><polygon class="cls-1" points="296.28 111.34 295.95 111.03 296.12 112.14 296.28 111.34"/><path class="cls-1" d="M312.27,123.4c-.66-.42-1.5-.82-2.13-1.29C311.6,123,312,124.28,312.27,123.4Z"/><path class="cls-1" d="M497.74,146.76c.58.62.73,0,.89.06C497.52,145.92,497.67,146.88,497.74,146.76Z"/><path class="cls-1" d="M486.25,139l.32,0c-.66-.23-1.33-.42-2-.63Z"/><path class="cls-1" d="M474.94,133c.77,1.27,4.31,1.74,6.17,3.15l.23.36,1.25-.13c-1.25-.63-2.72-1.27-4.12-1.81A38.19,38.19,0,0,1,474.94,133Z"/><path class="cls-1" d="M469.11,128.81c.3.47-1.54-.17,1.52.6a2,2,0,0,1-.25-.17C470.1,129.16,469.73,129,469.11,128.81Z"/><path class="cls-1" d="M470.38,129.24c1.32.4-.78-.55,0,0Z"/><path class="cls-1" d="M464.18,127.66l1.84.17c-.31-.3-1.88-.76-1.26-.75C462.89,126.81,463.23,127.12,464.18,127.66Z"/><path class="cls-1" d="M462.36,127.93l.94.07C463.16,127.88,462.93,127.8,462.36,127.93Z"/><path class="cls-1" d="M465.3,128.21c-.66-.09-1.33-.17-2-.21.23.2.19.48.92.1C464,128.32,464.44,128.17,465.3,128.21Z"/><path class="cls-1" d="M466.36,128.63c.93.45,2.14.91.32.73,1.67.4,2.41.49,2.34.29A5.66,5.66,0,0,0,466.36,128.63Z"/><path class="cls-1" d="M474,133.6l1.11.76,1.16.17C475.68,134.45,474,133.31,474,133.6Z"/><path class="cls-1" d="M453.05,125.41c-.13.18.57.55.68.8l1.35-.06C454.41,125.92,453.12,125.68,453.05,125.41Z"/><path class="cls-1" d="M453.73,126.21l-2,.18C453.48,126.55,453.82,126.42,453.73,126.21Z"/><path class="cls-1" d="M461.84,128.83c1.1,0,2.22,0,3.32.08-1.31-.14-2.63-.14-3.93-.2Z"/><polygon class="cls-1" points="445.34 125.13 446.48 124.66 444.45 125.37 445.34 125.13"/><path class="cls-1" d="M440.23,125.45c.82-.42-1.22-.53-.34-.82a15.64,15.64,0,0,0-3.58,1.07A10.73,10.73,0,0,1,440.23,125.45Z"/><path class="cls-1" d="M434.6,126.38c.55-.17,1.1-.44,1.71-.68A8.24,8.24,0,0,0,434.6,126.38Z"/><path class="cls-1" d="M448.32,126.14a2.56,2.56,0,0,0-1.57-.58l.79.55Z"/><path class="cls-1" d="M447.56,126.13l0,0c-.86,0-1.45,0-1.7,0C446.06,126.09,446.58,126.07,447.56,126.13Z"/><path class="cls-1" d="M448.52,126.15h-.2C448.4,126.19,448.44,126.21,448.52,126.15Z"/><path class="cls-1" d="M456.84,127.46c-1.21.15-3.61.19-1.37.91C456.34,128.11,455,127.69,456.84,127.46Z"/><path class="cls-1" d="M449.47,126.84c.7,0,1.39.15,2.09.24,0-.15-.4-.38.18-.48C451,126.67,450.22,126.72,449.47,126.84Z"/><polygon class="cls-1" points="448.44 126.98 449.47 126.84 448.69 126.78 448.44 126.98"/><path class="cls-1" d="M438.29,126.38a20.07,20.07,0,0,1-3,.68c1.21-.12,2.46-.15,3.64-.3C439.09,126.57,439.58,126.21,438.29,126.38Z"/><path class="cls-1" d="M442.8,126.15l-.2,0C442.72,126.23,442.82,126.24,442.8,126.15Z"/><path class="cls-1" d="M424.47,129.56l.2,0a.38.38,0,0,1,0-.1Z"/><path class="cls-1" d="M439.15,126.83a4.85,4.85,0,0,0,2-.35l-2.16.28C438.87,126.84,438.86,126.89,439.15,126.83Z"/><path class="cls-1" d="M431.57,127.18c.49,0,1,0,1.61,0A3.22,3.22,0,0,0,431.57,127.18Z"/><path class="cls-1" d="M442.28,126.07l.14,0C442.11,125.94,442.15,126,442.28,126.07Z"/><path class="cls-1" d="M442.28,126.07a8.49,8.49,0,0,0-1.18.41c.55-.08,1-.17,1.5-.28A1.19,1.19,0,0,1,442.28,126.07Z"/><path class="cls-1" d="M422.44,133.86c0-.25.48-.7,1.24-1.08a8.12,8.12,0,0,1,2.83-.71c1.78-.85.12-2.16-1.84-2.47,0,.23.05.42-1.83,1.32.79,0,4.55-.77,3,.18-2.5,1.07-2.18.47-3.5.68,1.24.2-2.92,2-2,2.67l2.07-1.1C422.51,133.46,421.79,134,422.44,133.86Z"/><path class="cls-1" d="M428.51,128.57l.82-.27a14.49,14.49,0,0,1-3.06.11c-1.33.61-1.54.92-1.59,1.09,1.35-.43,2.73-.72,4.1-1.07Z"/><path class="cls-1" d="M433.11,127.51c-.57.63-2.51,1.31-1.17,1.61,2.42-.54,1.62-.75,3.06-1.25-4,.79,1.1-.49-1.85-.31.78-.22,1.48-.36,2.15-.5-.73.06-1.45.09-2.12.1l.09,0h0c.19,0,.25.06,0,.06l-.08,0a.54.54,0,0,1-.15.23c-1.18.1-.21-.11.15-.23,0,0,0-.06,0-.08h0c-1.32.33-2.63.75-3.94,1.12C430.19,128.2,431.24,127.93,433.11,127.51Z"/><path class="cls-1" d="M453.25,129.29c-.12-.06-.11-.1-.11-.14C452.88,129.2,452.78,129.24,453.25,129.29Z"/><path class="cls-1" d="M451.66,128.84a2.92,2.92,0,0,1,1.48-.12c.79.21,0,.25,0,.43.57-.1,2-.16.26-.63l-.29,0c-1.57-.3-3.6-1.11-3.32-1.15A6.1,6.1,0,0,0,451.66,128.84Z"/><path class="cls-1" d="M442.4,127.73c-1.11.18-2.21.3-3.3.53.57.08,1.15.19,1.72.31l-.11-.27C442.6,128.28,442.17,128,442.4,127.73Z"/><polygon class="cls-1" points="424.01 129.43 424.28 128.75 422.64 130.11 424.01 129.43"/><path class="cls-1" d="M419.85,131l0-.52c-.34.23-.67.45-1,.69C419.17,131.06,419.51,131,419.85,131Z"/><path class="cls-1" d="M207.36,146.3l-.64.66A5.94,5.94,0,0,0,207.36,146.3Z"/><path class="cls-1" d="M212.82,142.53v-.29C212.64,142.51,212.59,142.66,212.82,142.53Z"/><path class="cls-1" d="M328.11,163.62c-1.15-.85-2.31-2-2.34-1.4l.21.64A7.44,7.44,0,0,1,328.11,163.62Z"/><path class="cls-1" d="M266,131.55l.36.26,1-.26Z"/><path class="cls-1" d="M264.54,133.51l-1.67-.71A12.15,12.15,0,0,0,264.54,133.51Z"/><path class="cls-1" d="M175.62,168.42l-.93.93C176.43,168.7,175.57,168.72,175.62,168.42Z"/><path class="cls-1" d="M384,156.15a23.14,23.14,0,0,0-2.62,1.22C382.72,156.94,383.93,156.72,384,156.15Z"/><path class="cls-1" d="M206.11,140c-.45.42-.59.68-.5.77C206.05,140.35,206.3,140.08,206.11,140Z"/><path class="cls-1" d="M378.47,159a4.5,4.5,0,0,0,.6-.17,17.81,17.81,0,0,1,2.31-1.42A6.4,6.4,0,0,0,378.47,159Z"/><path class="cls-1" d="M48.07,132.33l-.3-.05C47.74,132.35,47.87,132.35,48.07,132.33Z"/><path class="cls-1" d="M9.1,139.94c.31-.25.86-.63,1.38-1A9.36,9.36,0,0,0,9.1,139.94Z"/><path class="cls-1" d="M404,139.18c.76-.57.09-.13,0,0Z"/><path class="cls-1" d="M409,138.47c-.13.16-.22.3-.17.42A.6.6,0,0,1,409,138.47Z"/><path class="cls-1" d="M371.77,165.52l-.07,0C372,165.55,371.94,165.55,371.77,165.52Z"/><path class="cls-1" d="M405.32,138.58a11.17,11.17,0,0,0-1.09.55C404.42,139.05,404.75,138.89,405.32,138.58Z"/><path class="cls-1" d="M405,138.47l.71-.42C405.77,137.9,405.66,137.92,405,138.47Z"/><path class="cls-1" d="M403,140a10.3,10.3,0,0,1,1.27-.84c-.17.07-.25.09-.22.05C403.79,139.35,403.46,139.56,403,140Z"/><path class="cls-1" d="M112.05,160.53a.93.93,0,0,1-.14-.14C111,160.09,111.36,160.28,112.05,160.53Z"/><path class="cls-1" d="M304.83,158.29l.1,0-.1-.09Z"/><path class="cls-1" d="M301.92,156.56a5,5,0,0,1,2.91,1.68l.06-1.92Q303.44,156.45,301.92,156.56Z"/><path class="cls-1" d="M195,157.38c.72-.35,1.47-.7,2.17-1.1-1.74,2.45-3.65,3.48-1.41,2.65-.19-.39.18-1,.81-1.59s1.49-1.44,2.37-2.21c1.7-1.58,3.37-3.29,2.84-3.94l1.29-.72c-.31.27-.29.38-.59.65,2.54-1.31.64-2.33,3.56-4.5,1.08-.67,1.92-1,1.37-.32.66-.67,1.28-1.39,2-2,.69-.44.69-.08,0,.35,1.14-.83,2.27-1.71,3.47-2.46v.06a16,16,0,0,1,1.87-2.1c1.08-.32-.39.42,0,.47l1.89-1.51c1-.07-.48,1.25-1.93,2,2.75.45,1.48-1.41,6.22-2.53-.66.34-1.27.76-1.91,1.14,1.68.23,3.1-.78,5.61-1.13-.65-.14-5.16.54-3-.86a8.47,8.47,0,0,0,2.78-1.28c.24.58,1.42-.1,3-.62l.14.8c1.65-.76,1.39-1.14,2.33-1.76,2-.45,2.54,0,3.12.44,3.18-.55-2.41-.5,1.31-1.45a46.2,46.2,0,0,0,7.71-1.72c1.93.12-.29.51.42.68L244,132c.42,0,.3.19.24.29,1.4-.33.06-.85,2.31-1.13.29-.43,1.47-.2,2.9.15a16.28,16.28,0,0,0,2.27.39,5.9,5.9,0,0,0,2.26-.11c.66.27-.37.47-.18.79,1.92-.23,2.74-.18,3.49-.27l3-.34c.86.3,1.71.62,2.55,1-1.82-1,.78-1.2,3.13-1.25a13.5,13.5,0,0,0-1.56-1c1.23.08,2.43.28,3.66.44.39.24,0,.41-.7.59l.69,0c1.18.61.4.88-.61,1.08l-1.12-.8c-1,.24-1.9.6-1.83,1.1a3.81,3.81,0,0,1,1.18.05c-.25.07-.42.15-.34.26s.49,0,1.1,0l.55,1.07.28-.3c.72.27,1.42.6,2.12.91s1.41.61,2.09,1c1.67.13,3.32.13,5.16.41a18.7,18.7,0,0,1,2.95.61c.53.15,1.07.32,1.65.52s1.14.46,1.75.75c-1.48-.06-.75.8-1.19,1.44a4.28,4.28,0,0,0-2.51-1.46c-.56-.17-1.17-.35-1.79-.57a12.38,12.38,0,0,1-1.86-.7c1.27.62.83.84.45.82.79.18,1.57.4,2.34.64s1.56.46,2.32.73c-.38.51.68.91,1.65,1.73-.21-1.57,3.54,1,5.35,1.89-.07.21-.26.34-.68.23a8.25,8.25,0,0,1-2-1.1,3.83,3.83,0,0,0,2.67,1.42,3.47,3.47,0,0,1,2.66,1.43c-.47-.35-.69-.59-1-.56a9.83,9.83,0,0,1,2.29,1.58c.67.62,1,1.18.62,1.06l-.44-.37c.71.66,1.64,1.45,2.61,2.31s1.94,1.77,3,2.65c2,1.79,4,3,4.53,2.78a4.32,4.32,0,0,1-1.57.63l2,.5c.66.16,1.33.28,2,.42l1.95.37,2,.29c-1.06.38-.24,3.58-3.36,2.05a11.89,11.89,0,0,0,3.57,2.37c-.51-.45-.67-2,.13-1.57a11.74,11.74,0,0,0,1.44,1.79l1.95,1.89c-.78-.65.9-1.36,2.23-.57-.31.07-.54,1.31-1.12,1.16,1.37.25,2.78.35,4.13.51-1-.2-.67,1,0,1.74-.26-.43,3.12,1.43,4.19,1.62-.49-.3-1-.58-1.45-.91,4.11,1.8,4.77-.27,8.86,1-.58.15-1.76,1.38.37,2.13l1.37-.52c.61-.24,1.34-.52,2.14-.78a18.47,18.47,0,0,1,5.36-1l.65.49c1-.06,1.92-.06,2.88-.15a28.71,28.71,0,0,1-4.66,1.65c-1,.25-2,.49-3,.69s-1.87.27-2.62.34c1.57.66.35.59,2.83,1,.4.27,0,.35-.52.36a11.71,11.71,0,0,1-1.68-.19c.95.26,1.91.5,2.88.69s1.93.44,2.91.58c-.07-.44,1.07-.51,2.21-.57s2.28-.19,2.19-.53c-1.06.08-2.12.12-3.19.13s-2.14,0-3.21,0c-.09-.88,3.94-1.71,7.93-1.38,1,.41-.86,1.44-.8,1.72a15.11,15.11,0,0,1,4.31-.18l-1.76.4c2.32.4,3.74-1.06,6.52-.39.94,0,2.94.9,3.06.36-1.67-.81-2.14-3.78-1.23-4.56.31.08,4.82.39,5.94.63,1.65.49-2,2.14-.59,2.57,0-.24.82-.66,1.16-.81,1,0-.28.8,1.83.28.19-.91,4.31-.85.85-.92,2-.66,2.22-.32,4.6-1-.88-.3,1.6-2.4,3.43-3.29,0,.24.49.35.74.39a61.05,61.05,0,0,0,9.75-3.83c.41,0,2.22-.71,1.69,0a8.92,8.92,0,0,1,1.78-1.59c2.42-.63-2.29,1.55-.28,1.35-.13-.53,2.4-2.24,3.63-3.54-.44-.17-1.27.41-2.2,1.1s-1.92,1.6-2.61,2.16c-.26-.44.13-1.3,1-2.36.4-.54.94-1.09,1.54-1.74s1.27-1.3,2-2c2.38-2.14,1.51-.3,1.86-.76a11.73,11.73,0,0,0,2.54-2.31,10.7,10.7,0,0,0,1.16-1.75,7.75,7.75,0,0,1,1-1.58,8.49,8.49,0,0,1,.85-.86,15.46,15.46,0,0,1,1.34-1c2-.94,1,.91,1.66.94-1.78,2-3.26,2.52-4.55,3.75.62-.41,1.21-.85,1.83-1.28a9.81,9.81,0,0,1-1.1,1.39,6.65,6.65,0,0,1-1.42,1.16c.86-.28,2.78-2.06,4.94-4.09l1.67-1.55,1.76-1.46a27.13,27.13,0,0,1,3.37-2.35c.51-.72,1.6-1.69.87-1.53-.4.31-.79.61-1.16.95-.71.21-.27-.38.16-.89s.86-.92,0-.47c.73-.74,1.49-1.56,2.39-2.37a14.61,14.61,0,0,1,3.34-2.12l.85.4c-.08-.08-.55,0-1.07.27a4.75,4.75,0,0,0-1.35.91c.84-1,4.31-1.31,5-2.79-.69.13-1.35.32-2,.49.81-.69,1.71-1.48,2.73-2.21a11.36,11.36,0,0,1,3.39-1.8c-1.39-.22-.51.31-2.58.25.95.15-.56.87-2,1.55s-2.62,1.41-1.23,1.28a6.46,6.46,0,0,0-2.68.66,13.33,13.33,0,0,1-3,1.13c.21.19,1-.08-.91,1a2.58,2.58,0,0,1-.28.46l-.13.07.12-.05c-.06.09-.06.1,0,0a3.15,3.15,0,0,1,1.13-.31,9.48,9.48,0,0,1-2,2.05,16.63,16.63,0,0,0-2.12,2c-1.09.69.25-.56-.47-.35-.37.49-.75.94-1.09,1.44-.48-.33-3.23,1.53-1.1-.72l-2.13,1.78a16.54,16.54,0,0,0-3.88,3.39c-.93.73-1.77,2.52-1.3,1.49-.92.95-1.84,1.91-2.8,2.83l-.11-.08c-3.06,2.38-6,5.57-10.52,6.77-.55.38-1.13.73-1.81,1.11a13.71,13.71,0,0,1-2.54,1.13l-.59-.28a10.49,10.49,0,0,1-1.39.6l-1.67.49a6.57,6.57,0,0,0-2.34,1,4.57,4.57,0,0,0-2.16.06,23.42,23.42,0,0,0-2.94.71l-3.13.83a22,22,0,0,1-2.68.45l0,.65c-2,.25-3.95.65-6.49,1.05l.19.55a12.84,12.84,0,0,1-4.12.09c-1.59-.19-3.32-.42-5.07-.55a2.93,2.93,0,0,1,1.75.1,11.33,11.33,0,0,0-3.14-.65c-1.07-.12-2.16-.1-3.24-.12s-2.16-.06-3.19-.2a10.27,10.27,0,0,1-2.87-.84,5,5,0,0,1-2.2-.59l.23,0-.37-.11-1.17-.64a4.27,4.27,0,0,0,1,.59c-.72-.15-1.77-.46-2.85-.64l-.25-.71-.24-.06c-.92-.55-.89,0-.51.61a8.62,8.62,0,0,0-1.47-.16c-.24-.61-.94-.78-1.67-1a2.66,2.66,0,0,1-1.8-1.19c-.91.24-5.07-2-6.08-1.4,0-.14-.21-.35.31-.07-.51-.35-1-.7-1.53-1a6.27,6.27,0,0,0-1.57-.75l0-.92c-.94-.16-1.87-.37-2.79-.61-1.08-1.31-1.46-1.9.19-1.48a14.93,14.93,0,0,1-2-.9c-.47-.25-.8-.45-1.1-.63s-.61-.36-1-.57-.93-.5-1.71-.87l.45-.27c-.45-.38-1.16-.74-1.76-1.14s-1.11-.8-1.23-1.2c-.6-1.17-3.06-3.73-6.13-6.27s-6.9-5-9.86-7.15c.26,1-.39.43-1.21-.25s-1.86-1.43-2.23-1c-.23-.49-1.06-1.1.13-.87-3.46-1.28-4.9-2.74-7.63-2.72-.28-.47.91-.2.63-.52a3.33,3.33,0,0,1-1.51-.43c-.29-.31.61-.12,1.21,0-3.64-1.15-4.31-.19-4.83.68-1.7-.91-2.63-1.14-4.1-.76-.57-.45-1.58-1,.72-.65-.64-.13-2.55-.74-4.38-1s-3.52-.43-3.63,0a5.31,5.31,0,0,0-2.15-.2,43.56,43.56,0,0,0-6-.32l.79.15c-1.14.92-2.36.19-4.66.38l.06-.1c-5.31-.34-2.23.41-7.49.23l.37.56c-.15.66-1.29.67-2.79.62a12.24,12.24,0,0,0-4.73.57c.38,0,.76,0,1.14.08-1.47.79-4.91-.55-6.59-.15-.39,0,.5-.35,1-.58-4.47.64-.33.87-3.35,2.15-.72-.18.37-1.28-1.76-.58-.59,0-1.95,1-3.54,2a17.76,17.76,0,0,1-4.82,2.55c.74,0,1.47-.06.26.88-1,.59-2.49,1.15-3.91,1.8a7.24,7.24,0,0,0-3.28,2.5c-.3.1-.43.11-.49.05-.63.65-1.73,1.6-2.69,2.57a11.11,11.11,0,0,0-2,2.5c-1.27-.22-3.19,1.94-4.68,3.73a18.68,18.68,0,0,1-2.23,2.32c-.66.55-1.18.77-1.48.38-1.33,1.07-2.65,2.15-4.06,3.11v-.24a24,24,0,0,0-2.91,2.09,14.27,14.27,0,0,0-1.42,1.54c-.73.26-.33-.17-.33-.28-2.18,1-3.41,1.47-4.47,2.09s-2,1.27-3.69,2.49l-.62-.44a16,16,0,0,1-4.3,1.22,55.78,55.78,0,0,0-6.94,1.78c0-.08.1-.22.45-.38a16.51,16.51,0,0,1-4.15.82c-1.46.09-2.94.14-4.31.11-2.73,0-5-.05-6,1.1-1.17.15-2.35.35-3.54.47,4.58.31-.72,1,1.16,1.4-1.85.07-4.66-1-2.43-.93l.34.14c.44-.58-1-.74-2.46-.94s-3.07-.41-2.94-.82c-8.88-1.2-17-4.71-24.1-8.85l.39,1.25c-.86-.46-1.68-1-2.49-1.51-.55-.59-.49-1.14,1.24,0-.65-1-3.17-1.44-3.32-1.34-3.14-2.6,1.89,0,.88-.72l-1.42-.88.25.3c-.66-.23-1.08-.28-1.58-.46a8.57,8.57,0,0,1-2-1.3c-1.14-1.1-.29-.93-.74-1.35,0-.05-.1-.21-.7-.63L105,149.9c-.44-.41-.86-.85-1.29-1.27l.57,1.54c-1.42-.86-2.48-2.41-1.81-.65-.45-1.24-3-4-5.66-6.16s-5.57-4-6.13-4.62a24.18,24.18,0,0,1-3.36-1.54c-1.13-.54-2.26-1.25-3.57-1.92.59.46.6,1.37-1.6.18,1.57-1.13-3.85-2.65-5.4-4.39.72.72-1,.07-2.61-.34s-3.13-.76-1.93.21c-2-.74.06-.65-1.38-1.46-1.27-.17-2.56-.48-3.92-.75l-2-.49-2.13-.46c-1.43-.35-2.93-.56-4.45-.82a36,36,0,0,0-4.66-.32c-.1.21.93.58-.42.87-1.08-.39-2.18-.8-3.3-1.12-1.24.16-1.1,1.24-3.38.63.33.16.81.41,0,.54a44.15,44.15,0,0,0-9.21.78,67.92,67.92,0,0,0-9,2.47c-1.5.47-2.94,1.1-4.41,1.63s-2.92,1.17-4.34,1.83c-2.9,1.21-5.71,2.6-8.65,3.85,1.69-.52.71.07-.33.82.74-.39.28.47.58.62l-2.37,1.13c-.79.39-1.54.83-2.32,1.25A2.51,2.51,0,0,1,5.58,143c-.41.42-.92.87-1.43,1.31s-1,.87-1.37,1.25-.56.74-.52,1c.37-.4.72-.83,1.11-1.21-1,2.09,3.66-.4,4.15.75.58-1.14,2-1.8,3.63-2.52a16.64,16.64,0,0,0,2.4-1.25,7.39,7.39,0,0,0,2.15-1.9c.84-.23-.41.71.11.71.54-1,1.54-1.59,3.54-2.44l-.16.23A38.27,38.27,0,0,1,26,136c2.16-.64,4.42-1.26,7.73-1.92l-.64-.44a7.81,7.81,0,0,1,2.47-.2c.72-.6-.29-.43-1.31-.19s-2,.48-1.44-.19c1.1.31,3.59-.3,6-.7s4.88-.59,5.59,0c2.22-.16-.72-.64,1.51-.79l.62.33.54-.52c1.47,0,2.23.48,2.28.78a11,11,0,0,0-1.37.14,14.46,14.46,0,0,0,3.44,0,19.23,19.23,0,0,1,2.52,0l-2.13-.28a51.25,51.25,0,0,1,9.73.66c3.32.46,6.55,1.22,9.49,1.69l-.35-.4a12.56,12.56,0,0,1,4,1.24A35.92,35.92,0,0,0,78.81,137h-.19a10.83,10.83,0,0,1,3.5,1.21c-.64-.13-.17.28.24.66s.75.77,0,.54c4.53,1.87,2.32.74,5.64,1.56l.39.78a7.51,7.51,0,0,1,3.5,1.47c-1.92-.84.89,1.48-1.3.6a24.5,24.5,0,0,0,4.76,3.81,5.18,5.18,0,0,1,2.66,3c2.64.73-2.78-3.61-1.64-2.87-.29-.52.25-.39,1,.05a12.09,12.09,0,0,1,2.24,1.83,8.47,8.47,0,0,1,1.36,2.44,10.78,10.78,0,0,0,3,3.71c-.34-.29-.42-.24-.75-.53a6.62,6.62,0,0,0,2,1.56,8.55,8.55,0,0,1,2.17,1.78c1.4,0,2.18,1.55,3,.91-1.15-.71-2.34-1.38-3.46-2.14,2,1.16,4.4,1.4,7.34,3.76a7.62,7.62,0,0,1-2.18-.6,4.16,4.16,0,0,0,1.36.89,4.74,4.74,0,0,1,1.42.85c-.78.73-4.42-2.23-6.84-3.09a7.46,7.46,0,0,0,2.24,1.43c.8.37,1.29.65.47.78,2.23-.21,3.72,2.45,6.93,2.84l-.44.44a11.9,11.9,0,0,1,2.28.7H117.7a10.38,10.38,0,0,1,3.3,1.47,9.47,9.47,0,0,0,3.21,1.48c-2.35-.83-2.52-1.14-2.36-1.32s.67-.29-.21-.9a15.81,15.81,0,0,1,3,1.06,6,6,0,0,1,1.38,1.07,7,7,0,0,0,1.53,1.14A10.4,10.4,0,0,0,129,170a19.09,19.09,0,0,0,2.09.55,7.29,7.29,0,0,1-1.8-.65c-.52-.29-.73-.55,0-.47a20.48,20.48,0,0,1,3.55,1.59c4.47.81-.55-.74,1.41-.7a2.4,2.4,0,0,0,1.87.49,10.71,10.71,0,0,1,2.32-.26l-.07.6c2.5.6,2.89.24,3.19,0s.54-.48,2.8-.1c-.66.24-1.33.48-2,.67.81,0,1.62,0,2.42,0l-.55.65a22.19,22.19,0,0,1,6,0c-.6-.42.33-1.1,2.57-1.18.78.16.57.3.56.39s.2.13,1.8,0a2.83,2.83,0,0,1-2.9.44c-.14.21-.71.4-.85.6,1.69.41,4.23-.1,5.39-.2a6.17,6.17,0,0,1-1.27,0c1.54-.36,3.06-.85,4.56-1.31.76.14.21.39-.35.64.94-.17,1.54-.57,2.9-.84-.27.53-.1,1-2,1.57,1.46-.43,2.92-.81,4.34-1.3.33.15,2.38.09,1.85.38a15.6,15.6,0,0,0,4.22-1.39c.75-.34,1.52-.71,2.3-1s1.59-.57,2.39-.78a3.38,3.38,0,0,1,1-.66c1.49-.47,2.88-.94,4.33-1.45a22.09,22.09,0,0,0,2.16-1,12.2,12.2,0,0,0,2.18-1.46l2.27-.24c2.38-1.67-3,.51,1-2.26,1.37-1,1.73-1,1.9-.84s.15.59.71.35c.58-.67,1.36-1.58,2.31-2.52a14.86,14.86,0,0,1,3.53-2.64A15,15,0,0,1,195,157.38Zm26.53-19.67c-.54.36-1.52,1.22-2.08,1.11C219.75,137.87,220.41,137.94,221.48,137.71Zm49-3.7a3.62,3.62,0,0,1-1.94-.74A7.49,7.49,0,0,1,270.45,134Zm125.91,12.11,0,.07C395.06,147.08,395.52,146.77,396.36,146.12Zm2.52-1.94c.19-.27.12-.32,0-.3-.06.27-.62.72-1.23,1.24C397.87,145.08,398.25,144.89,398.88,144.18ZM106.62,151.7l.34.49C105.86,151.49,106.24,151.6,106.62,151.7Z"/><path class="cls-1" d="M264.73,133.28a.53.53,0,0,1-.2-.37C264.26,133,264.23,133.07,264.73,133.28Z"/><path class="cls-1" d="M175.79,168.25l-.11,0a.24.24,0,0,0-.06.14Z"/><path class="cls-1" d="M360.44,171a4.33,4.33,0,0,1-1.28-.1C359.15,171,359.46,171.08,360.44,171Z"/><path class="cls-1" d="M412.22,133.83,410.49,135a6.22,6.22,0,0,1,1.71-.71C412.1,134.14,411.66,134.15,412.22,133.83Z"/><path class="cls-1" d="M429.75,131.22c.25-.15.59-.14.84-.27l-.14-.26C429.26,131,428.51,131.44,429.75,131.22Z"/><path class="cls-1" d="M414.8,134.79c.38.41,1.39-.35,2.65-1a2.18,2.18,0,0,1-.23.09C417.31,133.1,416,133.91,414.8,134.79Z"/><path class="cls-1" d="M417.74,133.68a10.24,10.24,0,0,1,1.18-.51C419,132.84,418.41,133.32,417.74,133.68Z"/><path class="cls-1" d="M401.77,141.36c.62-.3,0-.77.38-.84C402.35,139.55,399,143.89,401.77,141.36Z"/><polygon class="cls-1" points="416.53 135.81 415.82 135.46 415.35 136.25 416.53 135.81"/><path class="cls-1" d="M406.9,140.76c.63-.38,1.28-.73,1.94-1.06-.09-.07.12-.27.38-.49C408.05,139.88,406.75,140.63,406.9,140.76Z"/><path class="cls-1" d="M409.22,139.21a8.29,8.29,0,0,0,1.46-1A17.55,17.55,0,0,0,409.22,139.21Z"/><polygon class="cls-1" points="413.94 137.29 413.31 137.49 411.94 138.19 413.94 137.29"/><path class="cls-1" d="M388.86,155.73l-1.84,1.5c-.08.31.53.05,1.21-.52C388.61,156.27,389.27,155.69,388.86,155.73Z"/><path class="cls-1" d="M395.54,152.48a2.28,2.28,0,0,1-1.12.35l.46.63C395.1,153.13,395.34,152.82,395.54,152.48Z"/><path class="cls-1" d="M390.19,157.1c-.05.34-2.55,2.53,0,.73C390.24,157.51,392.06,155.88,390.19,157.1Z"/><polygon class="cls-1" points="356.42 169.4 357.02 169.32 356.77 168.07 356.42 169.4"/><path class="cls-1" d="M324.08,169.15c2.73,1.17.89-.51,3.33.6.38-.05-.13-.26-.63-.48s-1-.46-.61-.48C324.4,168.56,323.56,168.1,324.08,169.15Z"/><path class="cls-1" d="M326.17,168.79c.29,0,.59.07.92.09A4.71,4.71,0,0,0,326.17,168.79Z"/><path class="cls-1" d="M3.23,143.67c-.53.35-1.09.67-1.61,1.05.39-.18.81-.33,1.21-.49Z"/><path class="cls-1" d="M1.19,146.8l-.88-.28L0,147.82A3.65,3.65,0,0,1,1.19,146.8Z"/><path class="cls-1" d="M226.53,137.49l.06-.23c-.32-.1-.7,0-1.47.27Z"/><polygon class="cls-1" points="206.17 148.27 206.48 148.03 205.44 147.95 206.17 148.27"/><path class="cls-1" d="M190.37,162.51c.8-.43,1.57-1.19,2.33-1.67C191.17,162.09,189.67,161.86,190.37,162.51Z"/></g></g></svg>